%TF.GenerationSoftware,KiCad,Pcbnew,7.0.2*%
%TF.CreationDate,2023-11-25T19:49:49-03:00*%
%TF.ProjectId,Schematic_monitor,53636865-6d61-4746-9963-5f6d6f6e6974,rev?*%
%TF.SameCoordinates,Original*%
%TF.FileFunction,Drillmap*%
%TF.FilePolarity,Positive*%
%FSLAX45Y45*%
G04 Gerber Fmt 4.5, Leading zero omitted, Abs format (unit mm)*
G04 Created by KiCad (PCBNEW 7.0.2) date 2023-11-25 19:49:49*
%MOMM*%
%LPD*%
G01*
G04 APERTURE LIST*
%ADD10C,0.100000*%
%ADD11C,0.200000*%
%ADD12C,0.080000*%
%ADD13C,0.320000*%
G04 APERTURE END LIST*
D10*
X12301658Y-15585636D02*
X12298999Y-11621999D01*
X18708132Y-11630859D02*
X18710792Y-15594496D01*
X12301658Y-15585636D02*
G75*
G03*
X12877954Y-16161932I576292J-4D01*
G01*
X18708127Y-11630859D02*
G75*
G03*
X18131836Y-11054563I-576287J9D01*
G01*
X12875295Y-11045703D02*
G75*
G03*
X12298999Y-11621999I-3J-576293D01*
G01*
X18131836Y-11054563D02*
X12875295Y-11045703D01*
X18134496Y-16170792D02*
G75*
G03*
X18710792Y-15594496I4J576292D01*
G01*
X12877954Y-16161932D02*
X18134496Y-16170792D01*
D11*
D12*
X15352000Y-12941000D02*
X15432000Y-13021000D01*
X15432000Y-12941000D02*
X15352000Y-13021000D01*
X16396292Y-15784996D02*
X16476292Y-15864996D01*
X16476292Y-15784996D02*
X16396292Y-15864996D01*
X16896292Y-15784996D02*
X16976292Y-15864996D01*
X16976292Y-15784996D02*
X16896292Y-15864996D01*
D13*
X12890792Y-15652496D02*
G75*
G03*
X12890792Y-15652496I-160000J0D01*
G01*
X12907792Y-11551496D02*
G75*
G03*
X12907792Y-11551496I-160000J0D01*
G01*
X18423792Y-15763496D02*
G75*
G03*
X18423792Y-15763496I-160000J0D01*
G01*
X18451792Y-11440496D02*
G75*
G03*
X18451792Y-11440496I-160000J0D01*
G01*
D11*
X12541618Y-16488316D02*
X12541618Y-16288316D01*
X12541618Y-16288316D02*
X12589237Y-16288316D01*
X12589237Y-16288316D02*
X12617808Y-16297840D01*
X12617808Y-16297840D02*
X12636856Y-16316887D01*
X12636856Y-16316887D02*
X12646380Y-16335935D01*
X12646380Y-16335935D02*
X12655903Y-16374030D01*
X12655903Y-16374030D02*
X12655903Y-16402601D01*
X12655903Y-16402601D02*
X12646380Y-16440697D01*
X12646380Y-16440697D02*
X12636856Y-16459744D01*
X12636856Y-16459744D02*
X12617808Y-16478792D01*
X12617808Y-16478792D02*
X12589237Y-16488316D01*
X12589237Y-16488316D02*
X12541618Y-16488316D01*
X12741618Y-16488316D02*
X12741618Y-16354982D01*
X12741618Y-16393078D02*
X12751142Y-16374030D01*
X12751142Y-16374030D02*
X12760665Y-16364506D01*
X12760665Y-16364506D02*
X12779713Y-16354982D01*
X12779713Y-16354982D02*
X12798761Y-16354982D01*
X12865427Y-16488316D02*
X12865427Y-16354982D01*
X12865427Y-16288316D02*
X12855903Y-16297840D01*
X12855903Y-16297840D02*
X12865427Y-16307363D01*
X12865427Y-16307363D02*
X12874951Y-16297840D01*
X12874951Y-16297840D02*
X12865427Y-16288316D01*
X12865427Y-16288316D02*
X12865427Y-16307363D01*
X12989237Y-16488316D02*
X12970189Y-16478792D01*
X12970189Y-16478792D02*
X12960665Y-16459744D01*
X12960665Y-16459744D02*
X12960665Y-16288316D01*
X13093999Y-16488316D02*
X13074951Y-16478792D01*
X13074951Y-16478792D02*
X13065427Y-16459744D01*
X13065427Y-16459744D02*
X13065427Y-16288316D01*
X13322570Y-16488316D02*
X13322570Y-16288316D01*
X13322570Y-16288316D02*
X13389237Y-16431173D01*
X13389237Y-16431173D02*
X13455903Y-16288316D01*
X13455903Y-16288316D02*
X13455903Y-16488316D01*
X13636856Y-16488316D02*
X13636856Y-16383554D01*
X13636856Y-16383554D02*
X13627332Y-16364506D01*
X13627332Y-16364506D02*
X13608284Y-16354982D01*
X13608284Y-16354982D02*
X13570189Y-16354982D01*
X13570189Y-16354982D02*
X13551142Y-16364506D01*
X13636856Y-16478792D02*
X13617808Y-16488316D01*
X13617808Y-16488316D02*
X13570189Y-16488316D01*
X13570189Y-16488316D02*
X13551142Y-16478792D01*
X13551142Y-16478792D02*
X13541618Y-16459744D01*
X13541618Y-16459744D02*
X13541618Y-16440697D01*
X13541618Y-16440697D02*
X13551142Y-16421649D01*
X13551142Y-16421649D02*
X13570189Y-16412125D01*
X13570189Y-16412125D02*
X13617808Y-16412125D01*
X13617808Y-16412125D02*
X13636856Y-16402601D01*
X13732094Y-16354982D02*
X13732094Y-16554982D01*
X13732094Y-16364506D02*
X13751142Y-16354982D01*
X13751142Y-16354982D02*
X13789237Y-16354982D01*
X13789237Y-16354982D02*
X13808284Y-16364506D01*
X13808284Y-16364506D02*
X13817808Y-16374030D01*
X13817808Y-16374030D02*
X13827332Y-16393078D01*
X13827332Y-16393078D02*
X13827332Y-16450220D01*
X13827332Y-16450220D02*
X13817808Y-16469268D01*
X13817808Y-16469268D02*
X13808284Y-16478792D01*
X13808284Y-16478792D02*
X13789237Y-16488316D01*
X13789237Y-16488316D02*
X13751142Y-16488316D01*
X13751142Y-16488316D02*
X13732094Y-16478792D01*
X13913046Y-16469268D02*
X13922570Y-16478792D01*
X13922570Y-16478792D02*
X13913046Y-16488316D01*
X13913046Y-16488316D02*
X13903523Y-16478792D01*
X13903523Y-16478792D02*
X13913046Y-16469268D01*
X13913046Y-16469268D02*
X13913046Y-16488316D01*
X13913046Y-16364506D02*
X13922570Y-16374030D01*
X13922570Y-16374030D02*
X13913046Y-16383554D01*
X13913046Y-16383554D02*
X13903523Y-16374030D01*
X13903523Y-16374030D02*
X13913046Y-16364506D01*
X13913046Y-16364506D02*
X13913046Y-16383554D01*
D12*
X12213999Y-16775792D02*
X12293999Y-16855792D01*
X12293999Y-16775792D02*
X12213999Y-16855792D01*
D11*
X12579713Y-16708316D02*
X12598761Y-16708316D01*
X12598761Y-16708316D02*
X12617808Y-16717840D01*
X12617808Y-16717840D02*
X12627332Y-16727363D01*
X12627332Y-16727363D02*
X12636856Y-16746411D01*
X12636856Y-16746411D02*
X12646380Y-16784506D01*
X12646380Y-16784506D02*
X12646380Y-16832125D01*
X12646380Y-16832125D02*
X12636856Y-16870221D01*
X12636856Y-16870221D02*
X12627332Y-16889268D01*
X12627332Y-16889268D02*
X12617808Y-16898792D01*
X12617808Y-16898792D02*
X12598761Y-16908316D01*
X12598761Y-16908316D02*
X12579713Y-16908316D01*
X12579713Y-16908316D02*
X12560665Y-16898792D01*
X12560665Y-16898792D02*
X12551142Y-16889268D01*
X12551142Y-16889268D02*
X12541618Y-16870221D01*
X12541618Y-16870221D02*
X12532094Y-16832125D01*
X12532094Y-16832125D02*
X12532094Y-16784506D01*
X12532094Y-16784506D02*
X12541618Y-16746411D01*
X12541618Y-16746411D02*
X12551142Y-16727363D01*
X12551142Y-16727363D02*
X12560665Y-16717840D01*
X12560665Y-16717840D02*
X12579713Y-16708316D01*
X12732094Y-16889268D02*
X12741618Y-16898792D01*
X12741618Y-16898792D02*
X12732094Y-16908316D01*
X12732094Y-16908316D02*
X12722570Y-16898792D01*
X12722570Y-16898792D02*
X12732094Y-16889268D01*
X12732094Y-16889268D02*
X12732094Y-16908316D01*
X12855903Y-16794030D02*
X12836856Y-16784506D01*
X12836856Y-16784506D02*
X12827332Y-16774982D01*
X12827332Y-16774982D02*
X12817808Y-16755935D01*
X12817808Y-16755935D02*
X12817808Y-16746411D01*
X12817808Y-16746411D02*
X12827332Y-16727363D01*
X12827332Y-16727363D02*
X12836856Y-16717840D01*
X12836856Y-16717840D02*
X12855903Y-16708316D01*
X12855903Y-16708316D02*
X12893999Y-16708316D01*
X12893999Y-16708316D02*
X12913046Y-16717840D01*
X12913046Y-16717840D02*
X12922570Y-16727363D01*
X12922570Y-16727363D02*
X12932094Y-16746411D01*
X12932094Y-16746411D02*
X12932094Y-16755935D01*
X12932094Y-16755935D02*
X12922570Y-16774982D01*
X12922570Y-16774982D02*
X12913046Y-16784506D01*
X12913046Y-16784506D02*
X12893999Y-16794030D01*
X12893999Y-16794030D02*
X12855903Y-16794030D01*
X12855903Y-16794030D02*
X12836856Y-16803554D01*
X12836856Y-16803554D02*
X12827332Y-16813078D01*
X12827332Y-16813078D02*
X12817808Y-16832125D01*
X12817808Y-16832125D02*
X12817808Y-16870221D01*
X12817808Y-16870221D02*
X12827332Y-16889268D01*
X12827332Y-16889268D02*
X12836856Y-16898792D01*
X12836856Y-16898792D02*
X12855903Y-16908316D01*
X12855903Y-16908316D02*
X12893999Y-16908316D01*
X12893999Y-16908316D02*
X12913046Y-16898792D01*
X12913046Y-16898792D02*
X12922570Y-16889268D01*
X12922570Y-16889268D02*
X12932094Y-16870221D01*
X12932094Y-16870221D02*
X12932094Y-16832125D01*
X12932094Y-16832125D02*
X12922570Y-16813078D01*
X12922570Y-16813078D02*
X12913046Y-16803554D01*
X12913046Y-16803554D02*
X12893999Y-16794030D01*
X13055903Y-16708316D02*
X13074951Y-16708316D01*
X13074951Y-16708316D02*
X13093999Y-16717840D01*
X13093999Y-16717840D02*
X13103523Y-16727363D01*
X13103523Y-16727363D02*
X13113046Y-16746411D01*
X13113046Y-16746411D02*
X13122570Y-16784506D01*
X13122570Y-16784506D02*
X13122570Y-16832125D01*
X13122570Y-16832125D02*
X13113046Y-16870221D01*
X13113046Y-16870221D02*
X13103523Y-16889268D01*
X13103523Y-16889268D02*
X13093999Y-16898792D01*
X13093999Y-16898792D02*
X13074951Y-16908316D01*
X13074951Y-16908316D02*
X13055903Y-16908316D01*
X13055903Y-16908316D02*
X13036856Y-16898792D01*
X13036856Y-16898792D02*
X13027332Y-16889268D01*
X13027332Y-16889268D02*
X13017808Y-16870221D01*
X13017808Y-16870221D02*
X13008284Y-16832125D01*
X13008284Y-16832125D02*
X13008284Y-16784506D01*
X13008284Y-16784506D02*
X13017808Y-16746411D01*
X13017808Y-16746411D02*
X13027332Y-16727363D01*
X13027332Y-16727363D02*
X13036856Y-16717840D01*
X13036856Y-16717840D02*
X13055903Y-16708316D01*
X13246380Y-16708316D02*
X13265427Y-16708316D01*
X13265427Y-16708316D02*
X13284475Y-16717840D01*
X13284475Y-16717840D02*
X13293999Y-16727363D01*
X13293999Y-16727363D02*
X13303523Y-16746411D01*
X13303523Y-16746411D02*
X13313046Y-16784506D01*
X13313046Y-16784506D02*
X13313046Y-16832125D01*
X13313046Y-16832125D02*
X13303523Y-16870221D01*
X13303523Y-16870221D02*
X13293999Y-16889268D01*
X13293999Y-16889268D02*
X13284475Y-16898792D01*
X13284475Y-16898792D02*
X13265427Y-16908316D01*
X13265427Y-16908316D02*
X13246380Y-16908316D01*
X13246380Y-16908316D02*
X13227332Y-16898792D01*
X13227332Y-16898792D02*
X13217808Y-16889268D01*
X13217808Y-16889268D02*
X13208284Y-16870221D01*
X13208284Y-16870221D02*
X13198761Y-16832125D01*
X13198761Y-16832125D02*
X13198761Y-16784506D01*
X13198761Y-16784506D02*
X13208284Y-16746411D01*
X13208284Y-16746411D02*
X13217808Y-16727363D01*
X13217808Y-16727363D02*
X13227332Y-16717840D01*
X13227332Y-16717840D02*
X13246380Y-16708316D01*
X13398761Y-16908316D02*
X13398761Y-16774982D01*
X13398761Y-16794030D02*
X13408284Y-16784506D01*
X13408284Y-16784506D02*
X13427332Y-16774982D01*
X13427332Y-16774982D02*
X13455904Y-16774982D01*
X13455904Y-16774982D02*
X13474951Y-16784506D01*
X13474951Y-16784506D02*
X13484475Y-16803554D01*
X13484475Y-16803554D02*
X13484475Y-16908316D01*
X13484475Y-16803554D02*
X13493999Y-16784506D01*
X13493999Y-16784506D02*
X13513046Y-16774982D01*
X13513046Y-16774982D02*
X13541618Y-16774982D01*
X13541618Y-16774982D02*
X13560665Y-16784506D01*
X13560665Y-16784506D02*
X13570189Y-16803554D01*
X13570189Y-16803554D02*
X13570189Y-16908316D01*
X13665427Y-16908316D02*
X13665427Y-16774982D01*
X13665427Y-16794030D02*
X13674951Y-16784506D01*
X13674951Y-16784506D02*
X13693999Y-16774982D01*
X13693999Y-16774982D02*
X13722570Y-16774982D01*
X13722570Y-16774982D02*
X13741618Y-16784506D01*
X13741618Y-16784506D02*
X13751142Y-16803554D01*
X13751142Y-16803554D02*
X13751142Y-16908316D01*
X13751142Y-16803554D02*
X13760665Y-16784506D01*
X13760665Y-16784506D02*
X13779713Y-16774982D01*
X13779713Y-16774982D02*
X13808284Y-16774982D01*
X13808284Y-16774982D02*
X13827332Y-16784506D01*
X13827332Y-16784506D02*
X13836856Y-16803554D01*
X13836856Y-16803554D02*
X13836856Y-16908316D01*
X14227332Y-16698792D02*
X14055904Y-16955935D01*
X14484475Y-16708316D02*
X14503523Y-16708316D01*
X14503523Y-16708316D02*
X14522570Y-16717840D01*
X14522570Y-16717840D02*
X14532094Y-16727363D01*
X14532094Y-16727363D02*
X14541618Y-16746411D01*
X14541618Y-16746411D02*
X14551142Y-16784506D01*
X14551142Y-16784506D02*
X14551142Y-16832125D01*
X14551142Y-16832125D02*
X14541618Y-16870221D01*
X14541618Y-16870221D02*
X14532094Y-16889268D01*
X14532094Y-16889268D02*
X14522570Y-16898792D01*
X14522570Y-16898792D02*
X14503523Y-16908316D01*
X14503523Y-16908316D02*
X14484475Y-16908316D01*
X14484475Y-16908316D02*
X14465427Y-16898792D01*
X14465427Y-16898792D02*
X14455904Y-16889268D01*
X14455904Y-16889268D02*
X14446380Y-16870221D01*
X14446380Y-16870221D02*
X14436856Y-16832125D01*
X14436856Y-16832125D02*
X14436856Y-16784506D01*
X14436856Y-16784506D02*
X14446380Y-16746411D01*
X14446380Y-16746411D02*
X14455904Y-16727363D01*
X14455904Y-16727363D02*
X14465427Y-16717840D01*
X14465427Y-16717840D02*
X14484475Y-16708316D01*
X14636856Y-16889268D02*
X14646380Y-16898792D01*
X14646380Y-16898792D02*
X14636856Y-16908316D01*
X14636856Y-16908316D02*
X14627332Y-16898792D01*
X14627332Y-16898792D02*
X14636856Y-16889268D01*
X14636856Y-16889268D02*
X14636856Y-16908316D01*
X14770189Y-16708316D02*
X14789237Y-16708316D01*
X14789237Y-16708316D02*
X14808285Y-16717840D01*
X14808285Y-16717840D02*
X14817808Y-16727363D01*
X14817808Y-16727363D02*
X14827332Y-16746411D01*
X14827332Y-16746411D02*
X14836856Y-16784506D01*
X14836856Y-16784506D02*
X14836856Y-16832125D01*
X14836856Y-16832125D02*
X14827332Y-16870221D01*
X14827332Y-16870221D02*
X14817808Y-16889268D01*
X14817808Y-16889268D02*
X14808285Y-16898792D01*
X14808285Y-16898792D02*
X14789237Y-16908316D01*
X14789237Y-16908316D02*
X14770189Y-16908316D01*
X14770189Y-16908316D02*
X14751142Y-16898792D01*
X14751142Y-16898792D02*
X14741618Y-16889268D01*
X14741618Y-16889268D02*
X14732094Y-16870221D01*
X14732094Y-16870221D02*
X14722570Y-16832125D01*
X14722570Y-16832125D02*
X14722570Y-16784506D01*
X14722570Y-16784506D02*
X14732094Y-16746411D01*
X14732094Y-16746411D02*
X14741618Y-16727363D01*
X14741618Y-16727363D02*
X14751142Y-16717840D01*
X14751142Y-16717840D02*
X14770189Y-16708316D01*
X14903523Y-16708316D02*
X15027332Y-16708316D01*
X15027332Y-16708316D02*
X14960666Y-16784506D01*
X14960666Y-16784506D02*
X14989237Y-16784506D01*
X14989237Y-16784506D02*
X15008285Y-16794030D01*
X15008285Y-16794030D02*
X15017808Y-16803554D01*
X15017808Y-16803554D02*
X15027332Y-16822602D01*
X15027332Y-16822602D02*
X15027332Y-16870221D01*
X15027332Y-16870221D02*
X15017808Y-16889268D01*
X15017808Y-16889268D02*
X15008285Y-16898792D01*
X15008285Y-16898792D02*
X14989237Y-16908316D01*
X14989237Y-16908316D02*
X14932094Y-16908316D01*
X14932094Y-16908316D02*
X14913047Y-16898792D01*
X14913047Y-16898792D02*
X14903523Y-16889268D01*
X15217808Y-16908316D02*
X15103523Y-16908316D01*
X15160666Y-16908316D02*
X15160666Y-16708316D01*
X15160666Y-16708316D02*
X15141618Y-16736887D01*
X15141618Y-16736887D02*
X15122570Y-16755935D01*
X15122570Y-16755935D02*
X15103523Y-16765459D01*
X15398761Y-16708316D02*
X15303523Y-16708316D01*
X15303523Y-16708316D02*
X15293999Y-16803554D01*
X15293999Y-16803554D02*
X15303523Y-16794030D01*
X15303523Y-16794030D02*
X15322570Y-16784506D01*
X15322570Y-16784506D02*
X15370189Y-16784506D01*
X15370189Y-16784506D02*
X15389237Y-16794030D01*
X15389237Y-16794030D02*
X15398761Y-16803554D01*
X15398761Y-16803554D02*
X15408285Y-16822602D01*
X15408285Y-16822602D02*
X15408285Y-16870221D01*
X15408285Y-16870221D02*
X15398761Y-16889268D01*
X15398761Y-16889268D02*
X15389237Y-16898792D01*
X15389237Y-16898792D02*
X15370189Y-16908316D01*
X15370189Y-16908316D02*
X15322570Y-16908316D01*
X15322570Y-16908316D02*
X15303523Y-16898792D01*
X15303523Y-16898792D02*
X15293999Y-16889268D01*
X15484475Y-16708316D02*
X15484475Y-16746411D01*
X15560666Y-16708316D02*
X15560666Y-16746411D01*
X15855904Y-16984506D02*
X15846380Y-16974982D01*
X15846380Y-16974982D02*
X15827332Y-16946411D01*
X15827332Y-16946411D02*
X15817809Y-16927363D01*
X15817809Y-16927363D02*
X15808285Y-16898792D01*
X15808285Y-16898792D02*
X15798761Y-16851173D01*
X15798761Y-16851173D02*
X15798761Y-16813078D01*
X15798761Y-16813078D02*
X15808285Y-16765459D01*
X15808285Y-16765459D02*
X15817809Y-16736887D01*
X15817809Y-16736887D02*
X15827332Y-16717840D01*
X15827332Y-16717840D02*
X15846380Y-16689268D01*
X15846380Y-16689268D02*
X15855904Y-16679744D01*
X15913047Y-16708316D02*
X16036856Y-16708316D01*
X16036856Y-16708316D02*
X15970189Y-16784506D01*
X15970189Y-16784506D02*
X15998761Y-16784506D01*
X15998761Y-16784506D02*
X16017809Y-16794030D01*
X16017809Y-16794030D02*
X16027332Y-16803554D01*
X16027332Y-16803554D02*
X16036856Y-16822602D01*
X16036856Y-16822602D02*
X16036856Y-16870221D01*
X16036856Y-16870221D02*
X16027332Y-16889268D01*
X16027332Y-16889268D02*
X16017809Y-16898792D01*
X16017809Y-16898792D02*
X15998761Y-16908316D01*
X15998761Y-16908316D02*
X15941618Y-16908316D01*
X15941618Y-16908316D02*
X15922570Y-16898792D01*
X15922570Y-16898792D02*
X15913047Y-16889268D01*
X16274951Y-16908316D02*
X16274951Y-16708316D01*
X16360666Y-16908316D02*
X16360666Y-16803554D01*
X16360666Y-16803554D02*
X16351142Y-16784506D01*
X16351142Y-16784506D02*
X16332094Y-16774982D01*
X16332094Y-16774982D02*
X16303523Y-16774982D01*
X16303523Y-16774982D02*
X16284475Y-16784506D01*
X16284475Y-16784506D02*
X16274951Y-16794030D01*
X16484475Y-16908316D02*
X16465428Y-16898792D01*
X16465428Y-16898792D02*
X16455904Y-16889268D01*
X16455904Y-16889268D02*
X16446380Y-16870221D01*
X16446380Y-16870221D02*
X16446380Y-16813078D01*
X16446380Y-16813078D02*
X16455904Y-16794030D01*
X16455904Y-16794030D02*
X16465428Y-16784506D01*
X16465428Y-16784506D02*
X16484475Y-16774982D01*
X16484475Y-16774982D02*
X16513047Y-16774982D01*
X16513047Y-16774982D02*
X16532094Y-16784506D01*
X16532094Y-16784506D02*
X16541618Y-16794030D01*
X16541618Y-16794030D02*
X16551142Y-16813078D01*
X16551142Y-16813078D02*
X16551142Y-16870221D01*
X16551142Y-16870221D02*
X16541618Y-16889268D01*
X16541618Y-16889268D02*
X16532094Y-16898792D01*
X16532094Y-16898792D02*
X16513047Y-16908316D01*
X16513047Y-16908316D02*
X16484475Y-16908316D01*
X16665428Y-16908316D02*
X16646380Y-16898792D01*
X16646380Y-16898792D02*
X16636856Y-16879744D01*
X16636856Y-16879744D02*
X16636856Y-16708316D01*
X16817809Y-16898792D02*
X16798761Y-16908316D01*
X16798761Y-16908316D02*
X16760666Y-16908316D01*
X16760666Y-16908316D02*
X16741618Y-16898792D01*
X16741618Y-16898792D02*
X16732094Y-16879744D01*
X16732094Y-16879744D02*
X16732094Y-16803554D01*
X16732094Y-16803554D02*
X16741618Y-16784506D01*
X16741618Y-16784506D02*
X16760666Y-16774982D01*
X16760666Y-16774982D02*
X16798761Y-16774982D01*
X16798761Y-16774982D02*
X16817809Y-16784506D01*
X16817809Y-16784506D02*
X16827333Y-16803554D01*
X16827333Y-16803554D02*
X16827333Y-16822602D01*
X16827333Y-16822602D02*
X16732094Y-16841649D01*
X16903523Y-16898792D02*
X16922571Y-16908316D01*
X16922571Y-16908316D02*
X16960666Y-16908316D01*
X16960666Y-16908316D02*
X16979714Y-16898792D01*
X16979714Y-16898792D02*
X16989237Y-16879744D01*
X16989237Y-16879744D02*
X16989237Y-16870221D01*
X16989237Y-16870221D02*
X16979714Y-16851173D01*
X16979714Y-16851173D02*
X16960666Y-16841649D01*
X16960666Y-16841649D02*
X16932094Y-16841649D01*
X16932094Y-16841649D02*
X16913047Y-16832125D01*
X16913047Y-16832125D02*
X16903523Y-16813078D01*
X16903523Y-16813078D02*
X16903523Y-16803554D01*
X16903523Y-16803554D02*
X16913047Y-16784506D01*
X16913047Y-16784506D02*
X16932094Y-16774982D01*
X16932094Y-16774982D02*
X16960666Y-16774982D01*
X16960666Y-16774982D02*
X16979714Y-16784506D01*
X17055904Y-16984506D02*
X17065428Y-16974982D01*
X17065428Y-16974982D02*
X17084475Y-16946411D01*
X17084475Y-16946411D02*
X17093999Y-16927363D01*
X17093999Y-16927363D02*
X17103523Y-16898792D01*
X17103523Y-16898792D02*
X17113047Y-16851173D01*
X17113047Y-16851173D02*
X17113047Y-16813078D01*
X17113047Y-16813078D02*
X17103523Y-16765459D01*
X17103523Y-16765459D02*
X17093999Y-16736887D01*
X17093999Y-16736887D02*
X17084475Y-16717840D01*
X17084475Y-16717840D02*
X17065428Y-16689268D01*
X17065428Y-16689268D02*
X17055904Y-16679744D01*
X17417809Y-16984506D02*
X17408285Y-16974982D01*
X17408285Y-16974982D02*
X17389237Y-16946411D01*
X17389237Y-16946411D02*
X17379714Y-16927363D01*
X17379714Y-16927363D02*
X17370190Y-16898792D01*
X17370190Y-16898792D02*
X17360666Y-16851173D01*
X17360666Y-16851173D02*
X17360666Y-16813078D01*
X17360666Y-16813078D02*
X17370190Y-16765459D01*
X17370190Y-16765459D02*
X17379714Y-16736887D01*
X17379714Y-16736887D02*
X17389237Y-16717840D01*
X17389237Y-16717840D02*
X17408285Y-16689268D01*
X17408285Y-16689268D02*
X17417809Y-16679744D01*
X17493999Y-16774982D02*
X17493999Y-16908316D01*
X17493999Y-16794030D02*
X17503523Y-16784506D01*
X17503523Y-16784506D02*
X17522571Y-16774982D01*
X17522571Y-16774982D02*
X17551142Y-16774982D01*
X17551142Y-16774982D02*
X17570190Y-16784506D01*
X17570190Y-16784506D02*
X17579714Y-16803554D01*
X17579714Y-16803554D02*
X17579714Y-16908316D01*
X17703523Y-16908316D02*
X17684475Y-16898792D01*
X17684475Y-16898792D02*
X17674952Y-16889268D01*
X17674952Y-16889268D02*
X17665428Y-16870221D01*
X17665428Y-16870221D02*
X17665428Y-16813078D01*
X17665428Y-16813078D02*
X17674952Y-16794030D01*
X17674952Y-16794030D02*
X17684475Y-16784506D01*
X17684475Y-16784506D02*
X17703523Y-16774982D01*
X17703523Y-16774982D02*
X17732095Y-16774982D01*
X17732095Y-16774982D02*
X17751142Y-16784506D01*
X17751142Y-16784506D02*
X17760666Y-16794030D01*
X17760666Y-16794030D02*
X17770190Y-16813078D01*
X17770190Y-16813078D02*
X17770190Y-16870221D01*
X17770190Y-16870221D02*
X17760666Y-16889268D01*
X17760666Y-16889268D02*
X17751142Y-16898792D01*
X17751142Y-16898792D02*
X17732095Y-16908316D01*
X17732095Y-16908316D02*
X17703523Y-16908316D01*
X17827333Y-16774982D02*
X17903523Y-16774982D01*
X17855904Y-16708316D02*
X17855904Y-16879744D01*
X17855904Y-16879744D02*
X17865428Y-16898792D01*
X17865428Y-16898792D02*
X17884475Y-16908316D01*
X17884475Y-16908316D02*
X17903523Y-16908316D01*
X18122571Y-16774982D02*
X18122571Y-16974982D01*
X18122571Y-16784506D02*
X18141618Y-16774982D01*
X18141618Y-16774982D02*
X18179714Y-16774982D01*
X18179714Y-16774982D02*
X18198761Y-16784506D01*
X18198761Y-16784506D02*
X18208285Y-16794030D01*
X18208285Y-16794030D02*
X18217809Y-16813078D01*
X18217809Y-16813078D02*
X18217809Y-16870221D01*
X18217809Y-16870221D02*
X18208285Y-16889268D01*
X18208285Y-16889268D02*
X18198761Y-16898792D01*
X18198761Y-16898792D02*
X18179714Y-16908316D01*
X18179714Y-16908316D02*
X18141618Y-16908316D01*
X18141618Y-16908316D02*
X18122571Y-16898792D01*
X18332095Y-16908316D02*
X18313047Y-16898792D01*
X18313047Y-16898792D02*
X18303523Y-16879744D01*
X18303523Y-16879744D02*
X18303523Y-16708316D01*
X18493999Y-16908316D02*
X18493999Y-16803554D01*
X18493999Y-16803554D02*
X18484476Y-16784506D01*
X18484476Y-16784506D02*
X18465428Y-16774982D01*
X18465428Y-16774982D02*
X18427333Y-16774982D01*
X18427333Y-16774982D02*
X18408285Y-16784506D01*
X18493999Y-16898792D02*
X18474952Y-16908316D01*
X18474952Y-16908316D02*
X18427333Y-16908316D01*
X18427333Y-16908316D02*
X18408285Y-16898792D01*
X18408285Y-16898792D02*
X18398761Y-16879744D01*
X18398761Y-16879744D02*
X18398761Y-16860697D01*
X18398761Y-16860697D02*
X18408285Y-16841649D01*
X18408285Y-16841649D02*
X18427333Y-16832125D01*
X18427333Y-16832125D02*
X18474952Y-16832125D01*
X18474952Y-16832125D02*
X18493999Y-16822602D01*
X18560666Y-16774982D02*
X18636856Y-16774982D01*
X18589237Y-16708316D02*
X18589237Y-16879744D01*
X18589237Y-16879744D02*
X18598761Y-16898792D01*
X18598761Y-16898792D02*
X18617809Y-16908316D01*
X18617809Y-16908316D02*
X18636856Y-16908316D01*
X18779714Y-16898792D02*
X18760666Y-16908316D01*
X18760666Y-16908316D02*
X18722571Y-16908316D01*
X18722571Y-16908316D02*
X18703523Y-16898792D01*
X18703523Y-16898792D02*
X18693999Y-16879744D01*
X18693999Y-16879744D02*
X18693999Y-16803554D01*
X18693999Y-16803554D02*
X18703523Y-16784506D01*
X18703523Y-16784506D02*
X18722571Y-16774982D01*
X18722571Y-16774982D02*
X18760666Y-16774982D01*
X18760666Y-16774982D02*
X18779714Y-16784506D01*
X18779714Y-16784506D02*
X18789237Y-16803554D01*
X18789237Y-16803554D02*
X18789237Y-16822602D01*
X18789237Y-16822602D02*
X18693999Y-16841649D01*
X18960666Y-16908316D02*
X18960666Y-16708316D01*
X18960666Y-16898792D02*
X18941618Y-16908316D01*
X18941618Y-16908316D02*
X18903523Y-16908316D01*
X18903523Y-16908316D02*
X18884476Y-16898792D01*
X18884476Y-16898792D02*
X18874952Y-16889268D01*
X18874952Y-16889268D02*
X18865428Y-16870221D01*
X18865428Y-16870221D02*
X18865428Y-16813078D01*
X18865428Y-16813078D02*
X18874952Y-16794030D01*
X18874952Y-16794030D02*
X18884476Y-16784506D01*
X18884476Y-16784506D02*
X18903523Y-16774982D01*
X18903523Y-16774982D02*
X18941618Y-16774982D01*
X18941618Y-16774982D02*
X18960666Y-16784506D01*
X19036857Y-16984506D02*
X19046380Y-16974982D01*
X19046380Y-16974982D02*
X19065428Y-16946411D01*
X19065428Y-16946411D02*
X19074952Y-16927363D01*
X19074952Y-16927363D02*
X19084476Y-16898792D01*
X19084476Y-16898792D02*
X19093999Y-16851173D01*
X19093999Y-16851173D02*
X19093999Y-16813078D01*
X19093999Y-16813078D02*
X19084476Y-16765459D01*
X19084476Y-16765459D02*
X19074952Y-16736887D01*
X19074952Y-16736887D02*
X19065428Y-16717840D01*
X19065428Y-16717840D02*
X19046380Y-16689268D01*
X19046380Y-16689268D02*
X19036857Y-16679744D01*
X12293999Y-17079792D02*
G75*
G03*
X12293999Y-17079792I-100000J0D01*
G01*
X12522570Y-16972316D02*
X12646380Y-16972316D01*
X12646380Y-16972316D02*
X12579713Y-17048506D01*
X12579713Y-17048506D02*
X12608284Y-17048506D01*
X12608284Y-17048506D02*
X12627332Y-17058030D01*
X12627332Y-17058030D02*
X12636856Y-17067554D01*
X12636856Y-17067554D02*
X12646380Y-17086602D01*
X12646380Y-17086602D02*
X12646380Y-17134221D01*
X12646380Y-17134221D02*
X12636856Y-17153268D01*
X12636856Y-17153268D02*
X12627332Y-17162792D01*
X12627332Y-17162792D02*
X12608284Y-17172316D01*
X12608284Y-17172316D02*
X12551142Y-17172316D01*
X12551142Y-17172316D02*
X12532094Y-17162792D01*
X12532094Y-17162792D02*
X12522570Y-17153268D01*
X12732094Y-17153268D02*
X12741618Y-17162792D01*
X12741618Y-17162792D02*
X12732094Y-17172316D01*
X12732094Y-17172316D02*
X12722570Y-17162792D01*
X12722570Y-17162792D02*
X12732094Y-17153268D01*
X12732094Y-17153268D02*
X12732094Y-17172316D01*
X12817808Y-16991363D02*
X12827332Y-16981840D01*
X12827332Y-16981840D02*
X12846380Y-16972316D01*
X12846380Y-16972316D02*
X12893999Y-16972316D01*
X12893999Y-16972316D02*
X12913046Y-16981840D01*
X12913046Y-16981840D02*
X12922570Y-16991363D01*
X12922570Y-16991363D02*
X12932094Y-17010411D01*
X12932094Y-17010411D02*
X12932094Y-17029459D01*
X12932094Y-17029459D02*
X12922570Y-17058030D01*
X12922570Y-17058030D02*
X12808284Y-17172316D01*
X12808284Y-17172316D02*
X12932094Y-17172316D01*
X13055903Y-16972316D02*
X13074951Y-16972316D01*
X13074951Y-16972316D02*
X13093999Y-16981840D01*
X13093999Y-16981840D02*
X13103523Y-16991363D01*
X13103523Y-16991363D02*
X13113046Y-17010411D01*
X13113046Y-17010411D02*
X13122570Y-17048506D01*
X13122570Y-17048506D02*
X13122570Y-17096125D01*
X13122570Y-17096125D02*
X13113046Y-17134221D01*
X13113046Y-17134221D02*
X13103523Y-17153268D01*
X13103523Y-17153268D02*
X13093999Y-17162792D01*
X13093999Y-17162792D02*
X13074951Y-17172316D01*
X13074951Y-17172316D02*
X13055903Y-17172316D01*
X13055903Y-17172316D02*
X13036856Y-17162792D01*
X13036856Y-17162792D02*
X13027332Y-17153268D01*
X13027332Y-17153268D02*
X13017808Y-17134221D01*
X13017808Y-17134221D02*
X13008284Y-17096125D01*
X13008284Y-17096125D02*
X13008284Y-17048506D01*
X13008284Y-17048506D02*
X13017808Y-17010411D01*
X13017808Y-17010411D02*
X13027332Y-16991363D01*
X13027332Y-16991363D02*
X13036856Y-16981840D01*
X13036856Y-16981840D02*
X13055903Y-16972316D01*
X13246380Y-16972316D02*
X13265427Y-16972316D01*
X13265427Y-16972316D02*
X13284475Y-16981840D01*
X13284475Y-16981840D02*
X13293999Y-16991363D01*
X13293999Y-16991363D02*
X13303523Y-17010411D01*
X13303523Y-17010411D02*
X13313046Y-17048506D01*
X13313046Y-17048506D02*
X13313046Y-17096125D01*
X13313046Y-17096125D02*
X13303523Y-17134221D01*
X13303523Y-17134221D02*
X13293999Y-17153268D01*
X13293999Y-17153268D02*
X13284475Y-17162792D01*
X13284475Y-17162792D02*
X13265427Y-17172316D01*
X13265427Y-17172316D02*
X13246380Y-17172316D01*
X13246380Y-17172316D02*
X13227332Y-17162792D01*
X13227332Y-17162792D02*
X13217808Y-17153268D01*
X13217808Y-17153268D02*
X13208284Y-17134221D01*
X13208284Y-17134221D02*
X13198761Y-17096125D01*
X13198761Y-17096125D02*
X13198761Y-17048506D01*
X13198761Y-17048506D02*
X13208284Y-17010411D01*
X13208284Y-17010411D02*
X13217808Y-16991363D01*
X13217808Y-16991363D02*
X13227332Y-16981840D01*
X13227332Y-16981840D02*
X13246380Y-16972316D01*
X13398761Y-17172316D02*
X13398761Y-17038982D01*
X13398761Y-17058030D02*
X13408284Y-17048506D01*
X13408284Y-17048506D02*
X13427332Y-17038982D01*
X13427332Y-17038982D02*
X13455904Y-17038982D01*
X13455904Y-17038982D02*
X13474951Y-17048506D01*
X13474951Y-17048506D02*
X13484475Y-17067554D01*
X13484475Y-17067554D02*
X13484475Y-17172316D01*
X13484475Y-17067554D02*
X13493999Y-17048506D01*
X13493999Y-17048506D02*
X13513046Y-17038982D01*
X13513046Y-17038982D02*
X13541618Y-17038982D01*
X13541618Y-17038982D02*
X13560665Y-17048506D01*
X13560665Y-17048506D02*
X13570189Y-17067554D01*
X13570189Y-17067554D02*
X13570189Y-17172316D01*
X13665427Y-17172316D02*
X13665427Y-17038982D01*
X13665427Y-17058030D02*
X13674951Y-17048506D01*
X13674951Y-17048506D02*
X13693999Y-17038982D01*
X13693999Y-17038982D02*
X13722570Y-17038982D01*
X13722570Y-17038982D02*
X13741618Y-17048506D01*
X13741618Y-17048506D02*
X13751142Y-17067554D01*
X13751142Y-17067554D02*
X13751142Y-17172316D01*
X13751142Y-17067554D02*
X13760665Y-17048506D01*
X13760665Y-17048506D02*
X13779713Y-17038982D01*
X13779713Y-17038982D02*
X13808284Y-17038982D01*
X13808284Y-17038982D02*
X13827332Y-17048506D01*
X13827332Y-17048506D02*
X13836856Y-17067554D01*
X13836856Y-17067554D02*
X13836856Y-17172316D01*
X14227332Y-16962792D02*
X14055904Y-17219935D01*
X14484475Y-16972316D02*
X14503523Y-16972316D01*
X14503523Y-16972316D02*
X14522570Y-16981840D01*
X14522570Y-16981840D02*
X14532094Y-16991363D01*
X14532094Y-16991363D02*
X14541618Y-17010411D01*
X14541618Y-17010411D02*
X14551142Y-17048506D01*
X14551142Y-17048506D02*
X14551142Y-17096125D01*
X14551142Y-17096125D02*
X14541618Y-17134221D01*
X14541618Y-17134221D02*
X14532094Y-17153268D01*
X14532094Y-17153268D02*
X14522570Y-17162792D01*
X14522570Y-17162792D02*
X14503523Y-17172316D01*
X14503523Y-17172316D02*
X14484475Y-17172316D01*
X14484475Y-17172316D02*
X14465427Y-17162792D01*
X14465427Y-17162792D02*
X14455904Y-17153268D01*
X14455904Y-17153268D02*
X14446380Y-17134221D01*
X14446380Y-17134221D02*
X14436856Y-17096125D01*
X14436856Y-17096125D02*
X14436856Y-17048506D01*
X14436856Y-17048506D02*
X14446380Y-17010411D01*
X14446380Y-17010411D02*
X14455904Y-16991363D01*
X14455904Y-16991363D02*
X14465427Y-16981840D01*
X14465427Y-16981840D02*
X14484475Y-16972316D01*
X14636856Y-17153268D02*
X14646380Y-17162792D01*
X14646380Y-17162792D02*
X14636856Y-17172316D01*
X14636856Y-17172316D02*
X14627332Y-17162792D01*
X14627332Y-17162792D02*
X14636856Y-17153268D01*
X14636856Y-17153268D02*
X14636856Y-17172316D01*
X14836856Y-17172316D02*
X14722570Y-17172316D01*
X14779713Y-17172316D02*
X14779713Y-16972316D01*
X14779713Y-16972316D02*
X14760666Y-17000887D01*
X14760666Y-17000887D02*
X14741618Y-17019935D01*
X14741618Y-17019935D02*
X14722570Y-17029459D01*
X14913047Y-16991363D02*
X14922570Y-16981840D01*
X14922570Y-16981840D02*
X14941618Y-16972316D01*
X14941618Y-16972316D02*
X14989237Y-16972316D01*
X14989237Y-16972316D02*
X15008285Y-16981840D01*
X15008285Y-16981840D02*
X15017808Y-16991363D01*
X15017808Y-16991363D02*
X15027332Y-17010411D01*
X15027332Y-17010411D02*
X15027332Y-17029459D01*
X15027332Y-17029459D02*
X15017808Y-17058030D01*
X15017808Y-17058030D02*
X14903523Y-17172316D01*
X14903523Y-17172316D02*
X15027332Y-17172316D01*
X15198761Y-16972316D02*
X15160666Y-16972316D01*
X15160666Y-16972316D02*
X15141618Y-16981840D01*
X15141618Y-16981840D02*
X15132094Y-16991363D01*
X15132094Y-16991363D02*
X15113047Y-17019935D01*
X15113047Y-17019935D02*
X15103523Y-17058030D01*
X15103523Y-17058030D02*
X15103523Y-17134221D01*
X15103523Y-17134221D02*
X15113047Y-17153268D01*
X15113047Y-17153268D02*
X15122570Y-17162792D01*
X15122570Y-17162792D02*
X15141618Y-17172316D01*
X15141618Y-17172316D02*
X15179713Y-17172316D01*
X15179713Y-17172316D02*
X15198761Y-17162792D01*
X15198761Y-17162792D02*
X15208285Y-17153268D01*
X15208285Y-17153268D02*
X15217808Y-17134221D01*
X15217808Y-17134221D02*
X15217808Y-17086602D01*
X15217808Y-17086602D02*
X15208285Y-17067554D01*
X15208285Y-17067554D02*
X15198761Y-17058030D01*
X15198761Y-17058030D02*
X15179713Y-17048506D01*
X15179713Y-17048506D02*
X15141618Y-17048506D01*
X15141618Y-17048506D02*
X15122570Y-17058030D01*
X15122570Y-17058030D02*
X15113047Y-17067554D01*
X15113047Y-17067554D02*
X15103523Y-17086602D01*
X15341618Y-16972316D02*
X15360666Y-16972316D01*
X15360666Y-16972316D02*
X15379713Y-16981840D01*
X15379713Y-16981840D02*
X15389237Y-16991363D01*
X15389237Y-16991363D02*
X15398761Y-17010411D01*
X15398761Y-17010411D02*
X15408285Y-17048506D01*
X15408285Y-17048506D02*
X15408285Y-17096125D01*
X15408285Y-17096125D02*
X15398761Y-17134221D01*
X15398761Y-17134221D02*
X15389237Y-17153268D01*
X15389237Y-17153268D02*
X15379713Y-17162792D01*
X15379713Y-17162792D02*
X15360666Y-17172316D01*
X15360666Y-17172316D02*
X15341618Y-17172316D01*
X15341618Y-17172316D02*
X15322570Y-17162792D01*
X15322570Y-17162792D02*
X15313047Y-17153268D01*
X15313047Y-17153268D02*
X15303523Y-17134221D01*
X15303523Y-17134221D02*
X15293999Y-17096125D01*
X15293999Y-17096125D02*
X15293999Y-17048506D01*
X15293999Y-17048506D02*
X15303523Y-17010411D01*
X15303523Y-17010411D02*
X15313047Y-16991363D01*
X15313047Y-16991363D02*
X15322570Y-16981840D01*
X15322570Y-16981840D02*
X15341618Y-16972316D01*
X15484475Y-16972316D02*
X15484475Y-17010411D01*
X15560666Y-16972316D02*
X15560666Y-17010411D01*
X15855904Y-17248506D02*
X15846380Y-17238982D01*
X15846380Y-17238982D02*
X15827332Y-17210411D01*
X15827332Y-17210411D02*
X15817809Y-17191363D01*
X15817809Y-17191363D02*
X15808285Y-17162792D01*
X15808285Y-17162792D02*
X15798761Y-17115173D01*
X15798761Y-17115173D02*
X15798761Y-17077078D01*
X15798761Y-17077078D02*
X15808285Y-17029459D01*
X15808285Y-17029459D02*
X15817809Y-17000887D01*
X15817809Y-17000887D02*
X15827332Y-16981840D01*
X15827332Y-16981840D02*
X15846380Y-16953268D01*
X15846380Y-16953268D02*
X15855904Y-16943744D01*
X16017809Y-17038982D02*
X16017809Y-17172316D01*
X15970189Y-16962792D02*
X15922570Y-17105649D01*
X15922570Y-17105649D02*
X16046380Y-17105649D01*
X16274951Y-17172316D02*
X16274951Y-16972316D01*
X16360666Y-17172316D02*
X16360666Y-17067554D01*
X16360666Y-17067554D02*
X16351142Y-17048506D01*
X16351142Y-17048506D02*
X16332094Y-17038982D01*
X16332094Y-17038982D02*
X16303523Y-17038982D01*
X16303523Y-17038982D02*
X16284475Y-17048506D01*
X16284475Y-17048506D02*
X16274951Y-17058030D01*
X16484475Y-17172316D02*
X16465428Y-17162792D01*
X16465428Y-17162792D02*
X16455904Y-17153268D01*
X16455904Y-17153268D02*
X16446380Y-17134221D01*
X16446380Y-17134221D02*
X16446380Y-17077078D01*
X16446380Y-17077078D02*
X16455904Y-17058030D01*
X16455904Y-17058030D02*
X16465428Y-17048506D01*
X16465428Y-17048506D02*
X16484475Y-17038982D01*
X16484475Y-17038982D02*
X16513047Y-17038982D01*
X16513047Y-17038982D02*
X16532094Y-17048506D01*
X16532094Y-17048506D02*
X16541618Y-17058030D01*
X16541618Y-17058030D02*
X16551142Y-17077078D01*
X16551142Y-17077078D02*
X16551142Y-17134221D01*
X16551142Y-17134221D02*
X16541618Y-17153268D01*
X16541618Y-17153268D02*
X16532094Y-17162792D01*
X16532094Y-17162792D02*
X16513047Y-17172316D01*
X16513047Y-17172316D02*
X16484475Y-17172316D01*
X16665428Y-17172316D02*
X16646380Y-17162792D01*
X16646380Y-17162792D02*
X16636856Y-17143744D01*
X16636856Y-17143744D02*
X16636856Y-16972316D01*
X16817809Y-17162792D02*
X16798761Y-17172316D01*
X16798761Y-17172316D02*
X16760666Y-17172316D01*
X16760666Y-17172316D02*
X16741618Y-17162792D01*
X16741618Y-17162792D02*
X16732094Y-17143744D01*
X16732094Y-17143744D02*
X16732094Y-17067554D01*
X16732094Y-17067554D02*
X16741618Y-17048506D01*
X16741618Y-17048506D02*
X16760666Y-17038982D01*
X16760666Y-17038982D02*
X16798761Y-17038982D01*
X16798761Y-17038982D02*
X16817809Y-17048506D01*
X16817809Y-17048506D02*
X16827333Y-17067554D01*
X16827333Y-17067554D02*
X16827333Y-17086602D01*
X16827333Y-17086602D02*
X16732094Y-17105649D01*
X16903523Y-17162792D02*
X16922571Y-17172316D01*
X16922571Y-17172316D02*
X16960666Y-17172316D01*
X16960666Y-17172316D02*
X16979714Y-17162792D01*
X16979714Y-17162792D02*
X16989237Y-17143744D01*
X16989237Y-17143744D02*
X16989237Y-17134221D01*
X16989237Y-17134221D02*
X16979714Y-17115173D01*
X16979714Y-17115173D02*
X16960666Y-17105649D01*
X16960666Y-17105649D02*
X16932094Y-17105649D01*
X16932094Y-17105649D02*
X16913047Y-17096125D01*
X16913047Y-17096125D02*
X16903523Y-17077078D01*
X16903523Y-17077078D02*
X16903523Y-17067554D01*
X16903523Y-17067554D02*
X16913047Y-17048506D01*
X16913047Y-17048506D02*
X16932094Y-17038982D01*
X16932094Y-17038982D02*
X16960666Y-17038982D01*
X16960666Y-17038982D02*
X16979714Y-17048506D01*
X17055904Y-17248506D02*
X17065428Y-17238982D01*
X17065428Y-17238982D02*
X17084475Y-17210411D01*
X17084475Y-17210411D02*
X17093999Y-17191363D01*
X17093999Y-17191363D02*
X17103523Y-17162792D01*
X17103523Y-17162792D02*
X17113047Y-17115173D01*
X17113047Y-17115173D02*
X17113047Y-17077078D01*
X17113047Y-17077078D02*
X17103523Y-17029459D01*
X17103523Y-17029459D02*
X17093999Y-17000887D01*
X17093999Y-17000887D02*
X17084475Y-16981840D01*
X17084475Y-16981840D02*
X17065428Y-16953268D01*
X17065428Y-16953268D02*
X17055904Y-16943744D01*
X17417809Y-17248506D02*
X17408285Y-17238982D01*
X17408285Y-17238982D02*
X17389237Y-17210411D01*
X17389237Y-17210411D02*
X17379714Y-17191363D01*
X17379714Y-17191363D02*
X17370190Y-17162792D01*
X17370190Y-17162792D02*
X17360666Y-17115173D01*
X17360666Y-17115173D02*
X17360666Y-17077078D01*
X17360666Y-17077078D02*
X17370190Y-17029459D01*
X17370190Y-17029459D02*
X17379714Y-17000887D01*
X17379714Y-17000887D02*
X17389237Y-16981840D01*
X17389237Y-16981840D02*
X17408285Y-16953268D01*
X17408285Y-16953268D02*
X17417809Y-16943744D01*
X17493999Y-17038982D02*
X17493999Y-17172316D01*
X17493999Y-17058030D02*
X17503523Y-17048506D01*
X17503523Y-17048506D02*
X17522571Y-17038982D01*
X17522571Y-17038982D02*
X17551142Y-17038982D01*
X17551142Y-17038982D02*
X17570190Y-17048506D01*
X17570190Y-17048506D02*
X17579714Y-17067554D01*
X17579714Y-17067554D02*
X17579714Y-17172316D01*
X17703523Y-17172316D02*
X17684475Y-17162792D01*
X17684475Y-17162792D02*
X17674952Y-17153268D01*
X17674952Y-17153268D02*
X17665428Y-17134221D01*
X17665428Y-17134221D02*
X17665428Y-17077078D01*
X17665428Y-17077078D02*
X17674952Y-17058030D01*
X17674952Y-17058030D02*
X17684475Y-17048506D01*
X17684475Y-17048506D02*
X17703523Y-17038982D01*
X17703523Y-17038982D02*
X17732095Y-17038982D01*
X17732095Y-17038982D02*
X17751142Y-17048506D01*
X17751142Y-17048506D02*
X17760666Y-17058030D01*
X17760666Y-17058030D02*
X17770190Y-17077078D01*
X17770190Y-17077078D02*
X17770190Y-17134221D01*
X17770190Y-17134221D02*
X17760666Y-17153268D01*
X17760666Y-17153268D02*
X17751142Y-17162792D01*
X17751142Y-17162792D02*
X17732095Y-17172316D01*
X17732095Y-17172316D02*
X17703523Y-17172316D01*
X17827333Y-17038982D02*
X17903523Y-17038982D01*
X17855904Y-16972316D02*
X17855904Y-17143744D01*
X17855904Y-17143744D02*
X17865428Y-17162792D01*
X17865428Y-17162792D02*
X17884475Y-17172316D01*
X17884475Y-17172316D02*
X17903523Y-17172316D01*
X18122571Y-17038982D02*
X18122571Y-17238982D01*
X18122571Y-17048506D02*
X18141618Y-17038982D01*
X18141618Y-17038982D02*
X18179714Y-17038982D01*
X18179714Y-17038982D02*
X18198761Y-17048506D01*
X18198761Y-17048506D02*
X18208285Y-17058030D01*
X18208285Y-17058030D02*
X18217809Y-17077078D01*
X18217809Y-17077078D02*
X18217809Y-17134221D01*
X18217809Y-17134221D02*
X18208285Y-17153268D01*
X18208285Y-17153268D02*
X18198761Y-17162792D01*
X18198761Y-17162792D02*
X18179714Y-17172316D01*
X18179714Y-17172316D02*
X18141618Y-17172316D01*
X18141618Y-17172316D02*
X18122571Y-17162792D01*
X18332095Y-17172316D02*
X18313047Y-17162792D01*
X18313047Y-17162792D02*
X18303523Y-17143744D01*
X18303523Y-17143744D02*
X18303523Y-16972316D01*
X18493999Y-17172316D02*
X18493999Y-17067554D01*
X18493999Y-17067554D02*
X18484476Y-17048506D01*
X18484476Y-17048506D02*
X18465428Y-17038982D01*
X18465428Y-17038982D02*
X18427333Y-17038982D01*
X18427333Y-17038982D02*
X18408285Y-17048506D01*
X18493999Y-17162792D02*
X18474952Y-17172316D01*
X18474952Y-17172316D02*
X18427333Y-17172316D01*
X18427333Y-17172316D02*
X18408285Y-17162792D01*
X18408285Y-17162792D02*
X18398761Y-17143744D01*
X18398761Y-17143744D02*
X18398761Y-17124697D01*
X18398761Y-17124697D02*
X18408285Y-17105649D01*
X18408285Y-17105649D02*
X18427333Y-17096125D01*
X18427333Y-17096125D02*
X18474952Y-17096125D01*
X18474952Y-17096125D02*
X18493999Y-17086602D01*
X18560666Y-17038982D02*
X18636856Y-17038982D01*
X18589237Y-16972316D02*
X18589237Y-17143744D01*
X18589237Y-17143744D02*
X18598761Y-17162792D01*
X18598761Y-17162792D02*
X18617809Y-17172316D01*
X18617809Y-17172316D02*
X18636856Y-17172316D01*
X18779714Y-17162792D02*
X18760666Y-17172316D01*
X18760666Y-17172316D02*
X18722571Y-17172316D01*
X18722571Y-17172316D02*
X18703523Y-17162792D01*
X18703523Y-17162792D02*
X18693999Y-17143744D01*
X18693999Y-17143744D02*
X18693999Y-17067554D01*
X18693999Y-17067554D02*
X18703523Y-17048506D01*
X18703523Y-17048506D02*
X18722571Y-17038982D01*
X18722571Y-17038982D02*
X18760666Y-17038982D01*
X18760666Y-17038982D02*
X18779714Y-17048506D01*
X18779714Y-17048506D02*
X18789237Y-17067554D01*
X18789237Y-17067554D02*
X18789237Y-17086602D01*
X18789237Y-17086602D02*
X18693999Y-17105649D01*
X18960666Y-17172316D02*
X18960666Y-16972316D01*
X18960666Y-17162792D02*
X18941618Y-17172316D01*
X18941618Y-17172316D02*
X18903523Y-17172316D01*
X18903523Y-17172316D02*
X18884476Y-17162792D01*
X18884476Y-17162792D02*
X18874952Y-17153268D01*
X18874952Y-17153268D02*
X18865428Y-17134221D01*
X18865428Y-17134221D02*
X18865428Y-17077078D01*
X18865428Y-17077078D02*
X18874952Y-17058030D01*
X18874952Y-17058030D02*
X18884476Y-17048506D01*
X18884476Y-17048506D02*
X18903523Y-17038982D01*
X18903523Y-17038982D02*
X18941618Y-17038982D01*
X18941618Y-17038982D02*
X18960666Y-17048506D01*
X19036857Y-17248506D02*
X19046380Y-17238982D01*
X19046380Y-17238982D02*
X19065428Y-17210411D01*
X19065428Y-17210411D02*
X19074952Y-17191363D01*
X19074952Y-17191363D02*
X19084476Y-17162792D01*
X19084476Y-17162792D02*
X19093999Y-17115173D01*
X19093999Y-17115173D02*
X19093999Y-17077078D01*
X19093999Y-17077078D02*
X19084476Y-17029459D01*
X19084476Y-17029459D02*
X19074952Y-17000887D01*
X19074952Y-17000887D02*
X19065428Y-16981840D01*
X19065428Y-16981840D02*
X19046380Y-16953268D01*
X19046380Y-16953268D02*
X19036857Y-16943744D01*
M02*
