%TF.GenerationSoftware,KiCad,Pcbnew,7.0.2*%
%TF.CreationDate,2023-11-25T19:49:37-03:00*%
%TF.ProjectId,Schematic_monitor,53636865-6d61-4746-9963-5f6d6f6e6974,rev?*%
%TF.SameCoordinates,Original*%
%TF.FileFunction,Copper,L2,Bot*%
%TF.FilePolarity,Positive*%
%FSLAX45Y45*%
G04 Gerber Fmt 4.5, Leading zero omitted, Abs format (unit mm)*
G04 Created by KiCad (PCBNEW 7.0.2) date 2023-11-25 19:49:37*
%MOMM*%
%LPD*%
G01*
G04 APERTURE LIST*
G04 Aperture macros list*
%AMRoundRect*
0 Rectangle with rounded corners*
0 $1 Rounding radius*
0 $2 $3 $4 $5 $6 $7 $8 $9 X,Y pos of 4 corners*
0 Add a 4 corners polygon primitive as box body*
4,1,4,$2,$3,$4,$5,$6,$7,$8,$9,$2,$3,0*
0 Add four circle primitives for the rounded corners*
1,1,$1+$1,$2,$3*
1,1,$1+$1,$4,$5*
1,1,$1+$1,$6,$7*
1,1,$1+$1,$8,$9*
0 Add four rect primitives between the rounded corners*
20,1,$1+$1,$2,$3,$4,$5,0*
20,1,$1+$1,$4,$5,$6,$7,0*
20,1,$1+$1,$6,$7,$8,$9,0*
20,1,$1+$1,$8,$9,$2,$3,0*%
G04 Aperture macros list end*
%ADD10C,0.300000*%
%TA.AperFunction,NonConductor*%
%ADD11C,0.300000*%
%TD*%
%TA.AperFunction,NonConductor*%
%ADD12C,0.200000*%
%TD*%
%TA.AperFunction,SMDPad,CuDef*%
%ADD13R,1.120000X2.440000*%
%TD*%
%TA.AperFunction,SMDPad,CuDef*%
%ADD14RoundRect,0.200000X-0.275000X0.200000X-0.275000X-0.200000X0.275000X-0.200000X0.275000X0.200000X0*%
%TD*%
%TA.AperFunction,SMDPad,CuDef*%
%ADD15RoundRect,0.200000X0.200000X0.275000X-0.200000X0.275000X-0.200000X-0.275000X0.200000X-0.275000X0*%
%TD*%
%TA.AperFunction,SMDPad,CuDef*%
%ADD16R,1.400000X1.200000*%
%TD*%
%TA.AperFunction,SMDPad,CuDef*%
%ADD17RoundRect,0.225000X-0.225000X-0.250000X0.225000X-0.250000X0.225000X0.250000X-0.225000X0.250000X0*%
%TD*%
%TA.AperFunction,SMDPad,CuDef*%
%ADD18RoundRect,0.225000X0.225000X0.250000X-0.225000X0.250000X-0.225000X-0.250000X0.225000X-0.250000X0*%
%TD*%
%TA.AperFunction,SMDPad,CuDef*%
%ADD19RoundRect,0.250000X-0.337500X-0.475000X0.337500X-0.475000X0.337500X0.475000X-0.337500X0.475000X0*%
%TD*%
%TA.AperFunction,SMDPad,CuDef*%
%ADD20RoundRect,0.237500X0.237500X-0.300000X0.237500X0.300000X-0.237500X0.300000X-0.237500X-0.300000X0*%
%TD*%
%TA.AperFunction,SMDPad,CuDef*%
%ADD21RoundRect,0.075000X-0.075000X0.700000X-0.075000X-0.700000X0.075000X-0.700000X0.075000X0.700000X0*%
%TD*%
%TA.AperFunction,SMDPad,CuDef*%
%ADD22RoundRect,0.075000X-0.700000X0.075000X-0.700000X-0.075000X0.700000X-0.075000X0.700000X0.075000X0*%
%TD*%
%TA.AperFunction,SMDPad,CuDef*%
%ADD23R,0.450000X1.300000*%
%TD*%
%TA.AperFunction,SMDPad,CuDef*%
%ADD24RoundRect,0.218750X-0.218750X-0.256250X0.218750X-0.256250X0.218750X0.256250X-0.218750X0.256250X0*%
%TD*%
%TA.AperFunction,SMDPad,CuDef*%
%ADD25R,1.600000X2.200000*%
%TD*%
%TA.AperFunction,SMDPad,CuDef*%
%ADD26R,0.381000X1.219200*%
%TD*%
%TA.AperFunction,ComponentPad*%
%ADD27R,1.700000X1.700000*%
%TD*%
%TA.AperFunction,SMDPad,CuDef*%
%ADD28R,0.900000X1.700000*%
%TD*%
%TA.AperFunction,SMDPad,CuDef*%
%ADD29R,1.257300X0.508000*%
%TD*%
%TA.AperFunction,SMDPad,CuDef*%
%ADD30RoundRect,0.250000X2.050000X0.300000X-2.050000X0.300000X-2.050000X-0.300000X2.050000X-0.300000X0*%
%TD*%
%TA.AperFunction,SMDPad,CuDef*%
%ADD31RoundRect,0.225000X-0.250000X0.225000X-0.250000X-0.225000X0.250000X-0.225000X0.250000X0.225000X0*%
%TD*%
%TA.AperFunction,SMDPad,CuDef*%
%ADD32RoundRect,0.237500X-0.237500X0.287500X-0.237500X-0.287500X0.237500X-0.287500X0.237500X0.287500X0*%
%TD*%
%TA.AperFunction,SMDPad,CuDef*%
%ADD33R,0.850000X2.350000*%
%TD*%
%TA.AperFunction,SMDPad,CuDef*%
%ADD34R,0.711200X0.304800*%
%TD*%
%TA.AperFunction,SMDPad,CuDef*%
%ADD35RoundRect,0.250000X-1.075000X0.425000X-1.075000X-0.425000X1.075000X-0.425000X1.075000X0.425000X0*%
%TD*%
%TA.AperFunction,SMDPad,CuDef*%
%ADD36RoundRect,0.200000X0.275000X-0.200000X0.275000X0.200000X-0.275000X0.200000X-0.275000X-0.200000X0*%
%TD*%
%TA.AperFunction,SMDPad,CuDef*%
%ADD37R,1.900000X1.000000*%
%TD*%
%TA.AperFunction,ViaPad*%
%ADD38C,0.800000*%
%TD*%
%TA.AperFunction,ViaPad*%
%ADD39C,0.600000*%
%TD*%
%TA.AperFunction,Conductor*%
%ADD40C,0.500000*%
%TD*%
%TA.AperFunction,Conductor*%
%ADD41C,0.250000*%
%TD*%
%TA.AperFunction,Conductor*%
%ADD42C,0.300000*%
%TD*%
%TA.AperFunction,Conductor*%
%ADD43C,0.700000*%
%TD*%
G04 APERTURE END LIST*
D10*
D11*
X14884375Y-9685463D02*
X14855803Y-9685421D01*
X14855803Y-9685421D02*
X14841507Y-9692543D01*
X14841507Y-9692543D02*
X14834354Y-9699675D01*
X14834354Y-9699675D02*
X14820037Y-9721083D01*
X14820037Y-9721083D02*
X14812852Y-9749644D01*
X14812852Y-9749644D02*
X14812769Y-9806787D01*
X14812769Y-9806787D02*
X14819891Y-9821083D01*
X14819891Y-9821083D02*
X14827024Y-9828236D01*
X14827024Y-9828236D02*
X14841299Y-9835400D01*
X14841299Y-9835400D02*
X14869870Y-9835442D01*
X14869870Y-9835442D02*
X14884166Y-9828320D01*
X14884166Y-9828320D02*
X14891320Y-9821187D01*
X14891320Y-9821187D02*
X14898483Y-9806912D01*
X14898483Y-9806912D02*
X14898535Y-9771198D01*
X14898535Y-9771198D02*
X14891413Y-9756902D01*
X14891413Y-9756902D02*
X14884281Y-9749748D01*
X14884281Y-9749748D02*
X14870006Y-9742585D01*
X14870006Y-9742585D02*
X14841434Y-9742543D01*
X14841434Y-9742543D02*
X14827138Y-9749665D01*
X14827138Y-9749665D02*
X14819985Y-9756797D01*
X14819985Y-9756797D02*
X14812821Y-9771073D01*
X14991517Y-9685619D02*
X15005803Y-9685640D01*
X15005803Y-9685640D02*
X15020078Y-9692803D01*
X15020078Y-9692803D02*
X15027211Y-9699957D01*
X15027211Y-9699957D02*
X15034333Y-9714253D01*
X15034333Y-9714253D02*
X15041434Y-9742835D01*
X15041434Y-9742835D02*
X15041382Y-9778549D01*
X15041382Y-9778549D02*
X15034197Y-9807110D01*
X15034197Y-9807110D02*
X15027034Y-9821385D01*
X15027034Y-9821385D02*
X15019880Y-9828518D01*
X15019880Y-9828518D02*
X15005584Y-9835640D01*
X15005584Y-9835640D02*
X14991299Y-9835619D01*
X14991299Y-9835619D02*
X14977023Y-9828455D01*
X14977023Y-9828455D02*
X14969891Y-9821302D01*
X14969891Y-9821302D02*
X14962769Y-9807006D01*
X14962769Y-9807006D02*
X14955668Y-9778424D01*
X14955668Y-9778424D02*
X14955720Y-9742710D01*
X14955720Y-9742710D02*
X14962904Y-9714149D01*
X14962904Y-9714149D02*
X14970068Y-9699873D01*
X14970068Y-9699873D02*
X14977221Y-9692741D01*
X14977221Y-9692741D02*
X14991517Y-9685619D01*
X15112737Y-9828653D02*
X15112727Y-9835796D01*
X15112727Y-9835796D02*
X15105563Y-9850071D01*
X15105563Y-9850071D02*
X15098410Y-9857204D01*
X15162946Y-9685869D02*
X15262946Y-9686015D01*
X15262946Y-9686015D02*
X15198441Y-9835921D01*
X15398441Y-9836213D02*
X15312727Y-9836088D01*
X15355584Y-9836150D02*
X15355803Y-9686150D01*
X15355803Y-9686150D02*
X15341486Y-9707558D01*
X15341486Y-9707558D02*
X15327179Y-9721823D01*
X15327179Y-9721823D02*
X15312883Y-9728945D01*
X15534374Y-9686411D02*
X15462945Y-9686307D01*
X15462945Y-9686307D02*
X15455698Y-9757725D01*
X15455698Y-9757725D02*
X15462852Y-9750592D01*
X15462852Y-9750592D02*
X15477148Y-9743470D01*
X15477148Y-9743470D02*
X15512862Y-9743523D01*
X15512862Y-9743523D02*
X15527137Y-9750686D01*
X15527137Y-9750686D02*
X15534270Y-9757840D01*
X15534270Y-9757840D02*
X15541392Y-9772136D01*
X15541392Y-9772136D02*
X15541340Y-9807850D01*
X15541340Y-9807850D02*
X15534176Y-9822125D01*
X15534176Y-9822125D02*
X15527023Y-9829258D01*
X15527023Y-9829258D02*
X15512727Y-9836380D01*
X15512727Y-9836380D02*
X15477012Y-9836327D01*
X15477012Y-9836327D02*
X15462737Y-9829164D01*
X15462737Y-9829164D02*
X15455605Y-9822011D01*
X15670088Y-9686609D02*
X15641517Y-9686567D01*
X15641517Y-9686567D02*
X15627221Y-9693689D01*
X15627221Y-9693689D02*
X15620067Y-9700822D01*
X15620067Y-9700822D02*
X15605750Y-9722230D01*
X15605750Y-9722230D02*
X15598566Y-9750790D01*
X15598566Y-9750790D02*
X15598482Y-9807933D01*
X15598482Y-9807933D02*
X15605604Y-9822229D01*
X15605604Y-9822229D02*
X15612737Y-9829383D01*
X15612737Y-9829383D02*
X15627012Y-9836546D01*
X15627012Y-9836546D02*
X15655583Y-9836588D01*
X15655583Y-9836588D02*
X15669880Y-9829466D01*
X15669880Y-9829466D02*
X15677033Y-9822334D01*
X15677033Y-9822334D02*
X15684197Y-9808058D01*
X15684197Y-9808058D02*
X15684249Y-9772344D01*
X15684249Y-9772344D02*
X15677127Y-9758048D01*
X15677127Y-9758048D02*
X15669994Y-9750895D01*
X15669994Y-9750895D02*
X15655719Y-9743731D01*
X15655719Y-9743731D02*
X15627148Y-9743689D01*
X15627148Y-9743689D02*
X15612851Y-9750811D01*
X15612851Y-9750811D02*
X15605698Y-9757944D01*
X15605698Y-9757944D02*
X15598534Y-9772219D01*
X15862726Y-9836890D02*
X15862872Y-9736890D01*
X15862851Y-9751176D02*
X15870004Y-9744044D01*
X15870004Y-9744044D02*
X15884301Y-9736922D01*
X15884301Y-9736922D02*
X15905729Y-9736953D01*
X15905729Y-9736953D02*
X15920004Y-9744117D01*
X15920004Y-9744117D02*
X15927126Y-9758413D01*
X15927126Y-9758413D02*
X15927012Y-9836984D01*
X15927126Y-9758413D02*
X15934290Y-9744137D01*
X15934290Y-9744137D02*
X15948586Y-9737015D01*
X15948586Y-9737015D02*
X15970015Y-9737047D01*
X15970015Y-9737047D02*
X15984290Y-9744210D01*
X15984290Y-9744210D02*
X15991412Y-9758507D01*
X15991412Y-9758507D02*
X15991297Y-9837078D01*
X16062726Y-9837182D02*
X16062872Y-9737182D01*
X16062851Y-9751468D02*
X16070004Y-9744335D01*
X16070004Y-9744335D02*
X16084300Y-9737213D01*
X16084300Y-9737213D02*
X16105729Y-9737245D01*
X16105729Y-9737245D02*
X16120004Y-9744408D01*
X16120004Y-9744408D02*
X16127126Y-9758705D01*
X16127126Y-9758705D02*
X16127011Y-9837276D01*
X16127126Y-9758705D02*
X16134290Y-9744429D01*
X16134290Y-9744429D02*
X16148586Y-9737307D01*
X16148586Y-9737307D02*
X16170014Y-9737339D01*
X16170014Y-9737339D02*
X16184290Y-9744502D01*
X16184290Y-9744502D02*
X16191412Y-9758798D01*
X16191412Y-9758798D02*
X16191297Y-9837370D01*
D12*
X12467864Y-11164495D02*
X12469733Y-9883905D01*
X18539415Y-11173354D02*
X18541283Y-9892764D01*
X12469647Y-9942547D02*
X18541198Y-9951406D01*
X12469647Y-9942547D02*
X18541198Y-9951406D01*
X12469647Y-9942547D02*
X12582383Y-9884069D01*
X12469647Y-9942547D02*
X12582212Y-10001353D01*
X18541198Y-9951406D02*
X18428462Y-10009883D01*
X18541198Y-9951406D02*
X18428633Y-9892599D01*
D10*
D11*
X19623412Y-12990646D02*
X19523412Y-12990702D01*
X19680535Y-12954900D02*
X19573372Y-12919246D01*
X19573372Y-12919246D02*
X19573424Y-13012103D01*
X19673448Y-13054904D02*
X19673503Y-13154904D01*
X19673503Y-13154904D02*
X19523468Y-13090702D01*
X19530682Y-13219269D02*
X19523539Y-13219273D01*
X19523539Y-13219273D02*
X19509249Y-13212138D01*
X19509249Y-13212138D02*
X19502103Y-13204999D01*
X19673567Y-13269190D02*
X19673623Y-13369190D01*
X19673623Y-13369190D02*
X19523587Y-13304988D01*
X19609381Y-13447797D02*
X19616515Y-13433507D01*
X19616515Y-13433507D02*
X19623654Y-13426360D01*
X19623654Y-13426360D02*
X19637936Y-13419210D01*
X19637936Y-13419210D02*
X19645079Y-13419206D01*
X19645079Y-13419206D02*
X19659369Y-13426341D01*
X19659369Y-13426341D02*
X19666515Y-13433479D01*
X19666515Y-13433479D02*
X19673666Y-13447761D01*
X19673666Y-13447761D02*
X19673682Y-13476333D01*
X19673682Y-13476333D02*
X19666547Y-13490622D01*
X19666547Y-13490622D02*
X19659408Y-13497769D01*
X19659408Y-13497769D02*
X19645127Y-13504920D01*
X19645127Y-13504920D02*
X19637984Y-13504924D01*
X19637984Y-13504924D02*
X19623694Y-13497789D01*
X19623694Y-13497789D02*
X19616547Y-13490650D01*
X19616547Y-13490650D02*
X19609396Y-13476368D01*
X19609396Y-13476368D02*
X19609381Y-13447797D01*
X19609381Y-13447797D02*
X19602230Y-13433515D01*
X19602230Y-13433515D02*
X19595083Y-13426376D01*
X19595083Y-13426376D02*
X19580793Y-13419241D01*
X19580793Y-13419241D02*
X19552222Y-13419257D01*
X19552222Y-13419257D02*
X19537940Y-13426408D01*
X19537940Y-13426408D02*
X19530801Y-13433555D01*
X19530801Y-13433555D02*
X19523666Y-13447845D01*
X19523666Y-13447845D02*
X19523682Y-13476416D01*
X19523682Y-13476416D02*
X19530833Y-13490698D01*
X19530833Y-13490698D02*
X19537980Y-13497837D01*
X19537980Y-13497837D02*
X19552269Y-13504972D01*
X19552269Y-13504972D02*
X19580841Y-13504956D01*
X19580841Y-13504956D02*
X19595123Y-13497805D01*
X19595123Y-13497805D02*
X19602262Y-13490658D01*
X19602262Y-13490658D02*
X19609396Y-13476368D01*
X19673770Y-13633475D02*
X19673754Y-13604904D01*
X19673754Y-13604904D02*
X19666603Y-13590622D01*
X19666603Y-13590622D02*
X19659456Y-13583483D01*
X19659456Y-13583483D02*
X19638020Y-13569210D01*
X19638020Y-13569210D02*
X19609444Y-13562083D01*
X19609444Y-13562083D02*
X19552301Y-13562114D01*
X19552301Y-13562114D02*
X19538020Y-13569265D01*
X19538020Y-13569265D02*
X19530881Y-13576412D01*
X19530881Y-13576412D02*
X19523746Y-13590702D01*
X19523746Y-13590702D02*
X19523762Y-13619273D01*
X19523762Y-13619273D02*
X19530912Y-13633555D01*
X19530912Y-13633555D02*
X19538059Y-13640694D01*
X19538059Y-13640694D02*
X19552349Y-13647829D01*
X19552349Y-13647829D02*
X19588063Y-13647809D01*
X19588063Y-13647809D02*
X19602345Y-13640658D01*
X19602345Y-13640658D02*
X19609484Y-13633511D01*
X19609484Y-13633511D02*
X19616619Y-13619221D01*
X19616619Y-13619221D02*
X19616603Y-13590650D01*
X19616603Y-13590650D02*
X19609452Y-13576368D01*
X19609452Y-13576368D02*
X19602305Y-13569229D01*
X19602305Y-13569229D02*
X19588016Y-13562094D01*
X19673853Y-13783475D02*
X19673813Y-13712047D01*
X19673813Y-13712047D02*
X19602381Y-13704944D01*
X19602381Y-13704944D02*
X19609528Y-13712082D01*
X19609528Y-13712082D02*
X19616678Y-13726364D01*
X19616678Y-13726364D02*
X19616698Y-13762079D01*
X19616698Y-13762079D02*
X19609563Y-13776368D01*
X19609563Y-13776368D02*
X19602424Y-13783515D01*
X19602424Y-13783515D02*
X19588143Y-13790666D01*
X19588143Y-13790666D02*
X19552428Y-13790686D01*
X19552428Y-13790686D02*
X19538139Y-13783551D01*
X19538139Y-13783551D02*
X19530992Y-13776412D01*
X19530992Y-13776412D02*
X19523841Y-13762130D01*
X19523841Y-13762130D02*
X19523821Y-13726416D01*
X19523821Y-13726416D02*
X19530956Y-13712126D01*
X19530956Y-13712126D02*
X19538095Y-13704979D01*
X19523956Y-13969273D02*
X19623956Y-13969217D01*
X19609671Y-13969225D02*
X19616817Y-13976364D01*
X19616817Y-13976364D02*
X19623968Y-13990646D01*
X19623968Y-13990646D02*
X19623980Y-14012074D01*
X19623980Y-14012074D02*
X19616845Y-14026364D01*
X19616845Y-14026364D02*
X19602563Y-14033515D01*
X19602563Y-14033515D02*
X19523992Y-14033559D01*
X19602563Y-14033515D02*
X19616853Y-14040650D01*
X19616853Y-14040650D02*
X19624004Y-14054932D01*
X19624004Y-14054932D02*
X19624016Y-14076360D01*
X19624016Y-14076360D02*
X19616881Y-14090650D01*
X19616881Y-14090650D02*
X19602599Y-14097801D01*
X19602599Y-14097801D02*
X19524028Y-14097844D01*
X19524068Y-14169273D02*
X19624068Y-14169217D01*
X19609782Y-14169225D02*
X19616929Y-14176364D01*
X19616929Y-14176364D02*
X19624079Y-14190646D01*
X19624079Y-14190646D02*
X19624091Y-14212074D01*
X19624091Y-14212074D02*
X19616956Y-14226364D01*
X19616956Y-14226364D02*
X19602675Y-14233515D01*
X19602675Y-14233515D02*
X19524103Y-14233559D01*
X19602675Y-14233515D02*
X19616964Y-14240650D01*
X19616964Y-14240650D02*
X19624115Y-14254932D01*
X19624115Y-14254932D02*
X19624127Y-14276360D01*
X19624127Y-14276360D02*
X19616992Y-14290650D01*
X19616992Y-14290650D02*
X19602711Y-14297801D01*
X19602711Y-14297801D02*
X19524139Y-14297844D01*
D12*
X18589342Y-11223326D02*
X19470463Y-11222836D01*
X18592000Y-16001972D02*
X19473122Y-16001482D01*
X19411821Y-11222869D02*
X19414480Y-16001515D01*
X19411821Y-11222869D02*
X19414480Y-16001515D01*
X19411821Y-11222869D02*
X19470526Y-11335487D01*
X19411821Y-11222869D02*
X19353242Y-11335552D01*
X19414480Y-16001515D02*
X19355775Y-15888897D01*
X19414480Y-16001515D02*
X19473059Y-15888832D01*
D13*
%TO.P,SW2,1,A*%
%TO.N,GND*%
X18057792Y-13110996D03*
%TD*%
D14*
%TO.P,R2,1*%
%TO.N,VBUS*%
X14247792Y-14622284D03*
%TO.P,R2,2*%
%TO.N,Net-(U6A-+)*%
X14247792Y-14787284D03*
%TD*%
D15*
%TO.P,R14,1*%
%TO.N,Temp_SDA*%
X15766292Y-14725496D03*
%TD*%
D16*
%TO.P,Y1,2,2*%
%TO.N,GND*%
X16589792Y-12262996D03*
%TO.P,Y1,4,4*%
X16829792Y-12452996D03*
%TD*%
D17*
%TO.P,C7,2*%
%TO.N,GND*%
X17484292Y-13203996D03*
%TD*%
D18*
%TO.P,C3,2*%
%TO.N,GND*%
X15905292Y-12660996D03*
%TD*%
D14*
%TO.P,R12,1*%
%TO.N,oxi_sda*%
X17881792Y-12179396D03*
%TD*%
D19*
%TO.P,C5,2*%
%TO.N,GND*%
X17295542Y-12839996D03*
%TD*%
D20*
%TO.P,C15,1*%
%TO.N,Net-(C15-Pad1)*%
X15106592Y-14474234D03*
%TD*%
D21*
%TO.P,U1,12,VSSA*%
%TO.N,GND*%
X16398792Y-13053496D03*
D22*
%TO.P,U1,18,VSS*%
X16006292Y-13295996D03*
%TO.P,U1,20,PA4*%
%TO.N,touch_int*%
X16006292Y-13395996D03*
%TO.P,U1,21,PA5*%
%TO.N,displ_sck*%
X16006292Y-13445996D03*
%TO.P,U1,22,PA6*%
%TO.N,touch_mosi*%
X16006292Y-13495996D03*
%TO.P,U1,23,PA7*%
%TO.N,displ_mosi*%
X16006292Y-13545996D03*
%TO.P,U1,31,VSS*%
%TO.N,GND*%
X16006292Y-13945996D03*
D21*
%TO.P,U1,33,PB12*%
%TO.N,displ_cs*%
X16198792Y-14188496D03*
%TO.P,U1,34,PB13*%
%TO.N,touch_cs*%
X16248792Y-14188496D03*
%TO.P,U1,36,PB15*%
%TO.N,displ_rst*%
X16348792Y-14188496D03*
%TO.P,U1,37,PC6*%
%TO.N,unconnected-(U1-PC6-Pad37)*%
X16398792Y-14188496D03*
%TO.P,U1,38,PC7*%
%TO.N,displ_led*%
X16448792Y-14188496D03*
%TO.P,U1,41,PA8*%
%TO.N,oxi_scl*%
X16598792Y-14188496D03*
%TO.P,U1,47,VSS*%
%TO.N,GND*%
X16898792Y-14188496D03*
D22*
%TO.P,U1,49,PA14*%
%TO.N,SWCLK*%
X17141292Y-13995996D03*
%TO.P,U1,53,PC12*%
%TO.N,Temp_SDA*%
X17141292Y-13795996D03*
%TO.P,U1,63,VSS*%
%TO.N,GND*%
X17141292Y-13295996D03*
%TD*%
D18*
%TO.P,C14,2*%
%TO.N,GND*%
X16485292Y-12644996D03*
%TD*%
D23*
%TO.P,J2,5,GND*%
%TO.N,GND*%
X16556292Y-15934996D03*
%TD*%
D15*
%TO.P,R6,2*%
%TO.N,GND*%
X14013292Y-13918784D03*
%TD*%
D24*
%TO.P,D3,2,A*%
%TO.N,GND*%
X14861542Y-13388496D03*
%TD*%
D25*
%TO.P,C1,1*%
%TO.N,VBUS*%
X15338392Y-12257696D03*
%TO.P,C1,2*%
%TO.N,GND*%
X15338392Y-12557696D03*
%TD*%
D26*
%TO.P,U5,1,Rg*%
%TO.N,Net-(Rg1-Pad1)*%
X14721292Y-14603874D03*
%TO.P,U5,4,Vs-*%
%TO.N,GND*%
X14916292Y-14603874D03*
%TO.P,U5,6*%
%TO.N,Net-(C15-Pad1)*%
X14851292Y-14179694D03*
%TO.P,U5,7,Vs+*%
%TO.N,VBUS*%
X14786292Y-14179694D03*
%TO.P,U5,8,Rg*%
%TO.N,Net-(Rg1-Pad2)*%
X14721292Y-14179694D03*
%TD*%
D18*
%TO.P,C8,2*%
%TO.N,GND*%
X15617792Y-13296996D03*
%TD*%
D14*
%TO.P,R11,1*%
%TO.N,oxi_scl*%
X17883792Y-11842396D03*
%TD*%
D27*
%TO.P,J4,1,Pin_1*%
%TO.N,Net-(J4-Pin_1)*%
X14611792Y-15831496D03*
%TD*%
D28*
%TO.P,SW1,1,1*%
%TO.N,GND*%
X15222000Y-12981000D03*
%TO.P,SW1,2,2*%
%TO.N,NRST*%
X15562000Y-12981000D03*
%TD*%
D29*
%TO.P,U8,4,V-*%
%TO.N,GND*%
X14669537Y-13932284D03*
%TD*%
D25*
%TO.P,C2,2*%
%TO.N,GND*%
X15338392Y-11493296D03*
%TD*%
D18*
%TO.P,C4,2*%
%TO.N,GND*%
X16059792Y-12844496D03*
%TD*%
D17*
%TO.P,C13,2*%
%TO.N,GND*%
X16964292Y-12646996D03*
%TD*%
D30*
%TO.P,U2,1,GND*%
%TO.N,GND*%
X14874492Y-12354496D03*
%TO.P,U2,3,VI*%
%TO.N,VBUS*%
X14874492Y-11846496D03*
%TD*%
D18*
%TO.P,C9,2*%
%TO.N,GND*%
X15558792Y-13851996D03*
%TD*%
D31*
%TO.P,C18,1*%
%TO.N,GND*%
X15535792Y-14941996D03*
%TD*%
D15*
%TO.P,R5,2*%
%TO.N,Net-(U7A--)*%
X13780292Y-14673784D03*
%TD*%
D17*
%TO.P,C6,2*%
%TO.N,GND*%
X17367292Y-13018996D03*
%TD*%
D32*
%TO.P,D2,2,A2*%
%TO.N,GND*%
X17526792Y-13811496D03*
%TD*%
D18*
%TO.P,C11,2*%
%TO.N,GND*%
X15907292Y-12456996D03*
%TD*%
D33*
%TO.P,J1,1,Pin_1*%
%TO.N,+3.3VA*%
X17624392Y-14665896D03*
%TO.P,J1,3,Pin_3*%
%TO.N,SWCLK*%
X18024392Y-14665896D03*
%TO.P,J1,4,Pin_4*%
%TO.N,GND*%
X18224392Y-14430896D03*
%TD*%
D32*
%TO.P,D1,1,A1*%
%TO.N,NRST*%
X15752792Y-12773246D03*
%TO.P,D1,2,A2*%
%TO.N,GND*%
X15752792Y-12948246D03*
%TD*%
D14*
%TO.P,R3,1*%
%TO.N,Net-(U6A-+)*%
X14235792Y-14990284D03*
X14235792Y-15155284D03*
%TD*%
D16*
%TO.P,U3,2,SDA/PWM*%
%TO.N,Temp_SDA*%
X15762792Y-14901246D03*
%TO.P,U3,4,VSS*%
%TO.N,GND*%
X16016792Y-15121246D03*
%TD*%
D31*
%TO.P,C10,2*%
%TO.N,GND*%
X17075792Y-14390496D03*
%TD*%
D29*
%TO.P,U7,3,+*%
%TO.N,Net-(U7A-+)*%
X14001047Y-14200284D03*
%TO.P,U7,4,V-*%
%TO.N,GND*%
X14001047Y-14073284D03*
%TO.P,U7,8,V+*%
%TO.N,VBUS*%
X13476537Y-14454284D03*
%TD*%
%TO.P,U6,3,+*%
%TO.N,Net-(U6A-+)*%
X14422282Y-15125284D03*
%TO.P,U6,4,V-*%
%TO.N,GND*%
X14422282Y-15252284D03*
%TD*%
D34*
%TO.P,U4,2,SCL*%
%TO.N,oxi_scl*%
X18030792Y-11998896D03*
%TO.P,U4,3,SDA*%
%TO.N,oxi_sda*%
X18030792Y-12078896D03*
%TO.P,U4,11,VDD*%
%TO.N,VBUS*%
X18289872Y-12158896D03*
%TO.P,U4,12,GND*%
%TO.N,GND*%
X18289872Y-12078896D03*
%TD*%
D35*
%TO.P,D4,1,K*%
%TO.N,GND*%
X17397292Y-15161996D03*
%TD*%
D36*
%TO.P,Rg1,1*%
%TO.N,Net-(Rg1-Pad1)*%
X15502792Y-14476284D03*
%TO.P,Rg1,2*%
%TO.N,Net-(Rg1-Pad2)*%
X15502792Y-14311284D03*
%TD*%
D18*
%TO.P,C12,2*%
%TO.N,GND*%
X15800292Y-13105496D03*
%TO.P,C12,1*%
%TO.N,NRST*%
X15955292Y-13105496D03*
%TD*%
D37*
%TO.P,J5,2,Pin_2*%
%TO.N,displ_rst*%
X12436792Y-14581496D03*
%TO.P,J5,3,Pin_3*%
%TO.N,displ_dc*%
X12766792Y-14327496D03*
%TO.P,J5,4,Pin_4*%
%TO.N,touch_cs*%
X12436792Y-14073496D03*
%TO.P,J5,5,Pin_5*%
%TO.N,displ_cs*%
X12766792Y-13819496D03*
%TO.P,J5,6,Pin_6*%
%TO.N,displ_mosi*%
X12436792Y-13565496D03*
%TO.P,J5,7,Pin_7*%
%TO.N,touch_mosi*%
X12766792Y-13311496D03*
%TO.P,J5,8,Pin_8*%
%TO.N,displ_sck*%
X12436792Y-13057496D03*
%TO.P,J5,9,Pin_9*%
%TO.N,touch_int*%
X12766792Y-12803496D03*
%TD*%
D38*
%TO.N,GND*%
X12392000Y-13318000D03*
X15292000Y-14352000D03*
%TO.N,+3.3V*%
X16891000Y-14547000D03*
%TO.N,VBUS*%
X14809792Y-14873496D03*
D39*
X15210464Y-14104260D03*
D38*
X17783000Y-15970000D03*
%TO.N,GND*%
X16018792Y-14106496D03*
X15358000Y-14596000D03*
X17894000Y-16100000D03*
X15341600Y-15240000D03*
X15606000Y-14191000D03*
%TO.N,+3.3VA*%
X16987792Y-13568496D03*
%TO.N,+3.3V*%
X15767644Y-12490644D03*
X15388000Y-13206496D03*
X16598792Y-14544496D03*
%TO.N,NRST*%
X16428792Y-12889496D03*
%TO.N,displ_led*%
X15892000Y-14597000D03*
X14217792Y-15295496D03*
X15753000Y-14481000D03*
%TO.N,displ_rst*%
X14735792Y-15571496D03*
X15934792Y-14293496D03*
X16036792Y-14427496D03*
X14813225Y-15220931D03*
%TO.N,displ_dc*%
X16392792Y-14450496D03*
X16430792Y-14652496D03*
X16320792Y-14865496D03*
%TO.N,oxi_sda*%
X16845792Y-13752496D03*
D39*
%TO.N,Net-(U7A-+)*%
X14576792Y-14198784D03*
%TO.N,Vref*%
X14663792Y-14433496D03*
X14725792Y-14295496D03*
%TO.N,Net-(U7A--)*%
X13864792Y-14394784D03*
%TD*%
D40*
%TO.N,+3.3V*%
X16888496Y-14544496D02*
X16598792Y-14544496D01*
X16891000Y-14547000D02*
X16888496Y-14544496D01*
D41*
%TO.N,displ_mosi*%
X12542496Y-13565496D02*
X12436792Y-13565496D01*
X15872000Y-13616000D02*
X12593000Y-13616000D01*
X12593000Y-13616000D02*
X12542496Y-13565496D01*
X15942004Y-13545996D02*
X15872000Y-13616000D01*
X16006292Y-13545996D02*
X15942004Y-13545996D01*
%TO.N,touch_int*%
X15894944Y-13395996D02*
X16006292Y-13395996D01*
X15839940Y-13451000D02*
X15894944Y-13395996D01*
X14670722Y-12803496D02*
X15318226Y-13451000D01*
X15318226Y-13451000D02*
X15839940Y-13451000D01*
X12766792Y-12803496D02*
X14670722Y-12803496D01*
%TO.N,displ_sck*%
X14844096Y-13091496D02*
X12470792Y-13091496D01*
X12470792Y-13091496D02*
X12436792Y-13057496D01*
X15248600Y-13496000D02*
X14844096Y-13091496D01*
X15858580Y-13496000D02*
X15248600Y-13496000D01*
X16006292Y-13445996D02*
X15908584Y-13445996D01*
X15908584Y-13445996D02*
X15858580Y-13496000D01*
%TO.N,touch_mosi*%
X15228000Y-13549000D02*
X15869220Y-13549000D01*
X15869220Y-13549000D02*
X15922223Y-13495996D01*
X14836200Y-13157200D02*
X15228000Y-13549000D01*
X15922223Y-13495996D02*
X16006292Y-13495996D01*
X12766792Y-13311496D02*
X12921088Y-13157200D01*
X12921088Y-13157200D02*
X14836200Y-13157200D01*
D42*
%TO.N,oxi_scl*%
X16598792Y-12766208D02*
X16598792Y-14188496D01*
X17179004Y-12547996D02*
X16817004Y-12547996D01*
X17883792Y-11843208D02*
X17179004Y-12547996D01*
X17883792Y-11842396D02*
X17883792Y-11843208D01*
X16817004Y-12547996D02*
X16598792Y-12766208D01*
D40*
%TO.N,VBUS*%
X17783000Y-15345488D02*
X18136892Y-14991596D01*
X18136892Y-14294756D02*
X18430104Y-14001544D01*
X17783000Y-15970000D02*
X17783000Y-15345488D01*
X18430104Y-14001544D02*
X18430104Y-12158896D01*
X18136892Y-14991596D02*
X18136892Y-14294756D01*
%TO.N,+3.3V*%
X15217496Y-13206496D02*
X15388000Y-13206496D01*
X15009000Y-12815000D02*
X15009000Y-12998000D01*
X15009000Y-12998000D02*
X15217496Y-13206496D01*
X15545592Y-12712696D02*
X15111304Y-12712696D01*
X15111304Y-12712696D02*
X15009000Y-12815000D01*
X15767644Y-12490644D02*
X15545592Y-12712696D01*
D42*
%TO.N,NRST*%
X15574792Y-12786208D02*
X15587754Y-12773246D01*
X15574792Y-12991996D02*
X15574792Y-12786208D01*
X15587754Y-12773246D02*
X15752792Y-12773246D01*
D41*
X15955292Y-12975746D02*
X15915042Y-12935496D01*
X15955292Y-13105496D02*
X15955292Y-12975746D01*
D42*
X15915042Y-12935496D02*
X15752792Y-12773246D01*
X16382792Y-12935496D02*
X15915042Y-12935496D01*
X16428792Y-12889496D02*
X16382792Y-12935496D01*
D41*
%TO.N,displ_led*%
X16448792Y-14272565D02*
X16448792Y-14188496D01*
X16124357Y-14597000D02*
X16448792Y-14272565D01*
X15892000Y-14597000D02*
X16124357Y-14597000D01*
D40*
%TO.N,VBUS*%
X18430104Y-12158896D02*
X18289872Y-12158896D01*
X18553000Y-11897000D02*
X18553000Y-12036000D01*
X18365000Y-11709000D02*
X18553000Y-11897000D01*
X16273392Y-12257696D02*
X16822088Y-11709000D01*
X18553000Y-12036000D02*
X18430104Y-12158896D01*
X15338392Y-12257696D02*
X16273392Y-12257696D01*
X16822088Y-11709000D02*
X18365000Y-11709000D01*
D42*
%TO.N,Temp_SDA*%
X15880000Y-14723000D02*
X15768788Y-14723000D01*
X15768788Y-14723000D02*
X15766292Y-14725496D01*
D41*
X15762792Y-14728996D02*
X15766292Y-14725496D01*
X15762792Y-14901246D02*
X15762792Y-14728996D01*
D42*
X16993292Y-13943996D02*
X17141292Y-13795996D01*
X17026975Y-14470496D02*
X16993292Y-14436813D01*
X17026975Y-14615313D02*
X17026975Y-14470496D01*
X16366362Y-14805000D02*
X16837288Y-14805000D01*
X16351858Y-14790496D02*
X16366362Y-14805000D01*
X16837288Y-14805000D02*
X17026975Y-14615313D01*
X16275222Y-14805000D02*
X16289726Y-14790496D01*
X16993292Y-14436813D02*
X16993292Y-13943996D01*
X16289726Y-14790496D02*
X16351858Y-14790496D01*
X15962000Y-14805000D02*
X16275222Y-14805000D01*
X15880000Y-14723000D02*
X15962000Y-14805000D01*
D40*
%TO.N,VBUS*%
X14629000Y-14692704D02*
X14629000Y-14667704D01*
X14629000Y-14667704D02*
X14576392Y-14615096D01*
X14629000Y-14692704D02*
X14809792Y-14873496D01*
X14576392Y-14615096D02*
X14254980Y-14615096D01*
X14191716Y-14622284D02*
X14247792Y-14622284D01*
X13944904Y-14869096D02*
X14191716Y-14622284D01*
X13738192Y-14869096D02*
X13944904Y-14869096D01*
X13476537Y-14454284D02*
X13476537Y-14607441D01*
X13476537Y-14607441D02*
X13738192Y-14869096D01*
D41*
%TO.N,displ_rst*%
X12436792Y-14736792D02*
X12436792Y-14581496D01*
X13271496Y-15571496D02*
X12436792Y-14736792D01*
X14735792Y-15571496D02*
X13271496Y-15571496D01*
%TO.N,Net-(U6A-+)*%
X14235792Y-14990284D02*
X14235792Y-14799284D01*
D42*
%TO.N,SWCLK*%
X17141292Y-14141996D02*
X17141292Y-13995996D01*
X17446592Y-14447296D02*
X17141292Y-14141996D01*
D41*
X18024392Y-14665896D02*
X17874392Y-14815896D01*
X17874392Y-14815896D02*
X17549392Y-14815896D01*
X17448000Y-14714504D02*
X17448000Y-14448704D01*
X17549392Y-14815896D02*
X17448000Y-14714504D01*
X17448000Y-14448704D02*
X17446592Y-14447296D01*
%TO.N,displ_led*%
X15686792Y-14547208D02*
X15707504Y-14526496D01*
X15686792Y-14590496D02*
X15686792Y-14547208D01*
X15707504Y-14526496D02*
X15753000Y-14481000D01*
%TO.N,displ_dc*%
X16430792Y-14652496D02*
X16430792Y-14484496D01*
X16430792Y-14484496D02*
X16396792Y-14450496D01*
D42*
%TO.N,VBUS*%
X14803792Y-14288154D02*
X14803792Y-14387696D01*
X14786292Y-14179694D02*
X14786292Y-14270654D01*
D40*
X14874492Y-11846496D02*
X15008192Y-11846496D01*
X14786292Y-14074684D02*
X14786292Y-14179694D01*
X15145700Y-14039496D02*
X14822957Y-14039496D01*
D42*
X14803792Y-14387696D02*
X14576392Y-14615096D01*
D40*
X14822957Y-14039496D02*
X14788719Y-14073734D01*
D42*
X14786292Y-14270654D02*
X14803792Y-14288154D01*
D40*
X14788719Y-14073734D02*
X14787242Y-14073734D01*
X14787242Y-14073734D02*
X14786292Y-14074684D01*
D42*
X14786292Y-14179694D02*
X14786292Y-14249930D01*
D40*
X15210464Y-14104260D02*
X15145700Y-14039496D01*
D43*
X15008192Y-11846496D02*
X15338392Y-12176696D01*
D40*
X15338392Y-12176696D02*
X15338392Y-12257696D01*
D41*
%TO.N,GND*%
X14422537Y-15252284D02*
X14431292Y-15252284D01*
D42*
X15602292Y-13281496D02*
X15617792Y-13296996D01*
D41*
X14001047Y-14073284D02*
X13998292Y-14073284D01*
X13998292Y-14073284D02*
X13997792Y-14073784D01*
X14013292Y-13918784D02*
X14013292Y-13882284D01*
X13997792Y-13934284D02*
X14013292Y-13918784D01*
D42*
%TO.N,+3.3VA*%
X17522792Y-14039892D02*
X17522792Y-14564296D01*
X17051396Y-13568496D02*
X17522792Y-14039892D01*
X16987792Y-13568496D02*
X17051396Y-13568496D01*
X17522792Y-14564296D02*
X17624392Y-14665896D01*
%TO.N,SWCLK*%
X17446592Y-14447296D02*
X17446792Y-14447496D01*
D41*
%TO.N,displ_led*%
X14217792Y-15295496D02*
X14246792Y-15324496D01*
X14952792Y-15324496D02*
X15686792Y-14590496D01*
X14246792Y-15324496D02*
X14952792Y-15324496D01*
%TO.N,displ_rst*%
X15582792Y-14518496D02*
X14878792Y-15222496D01*
X14878792Y-15222496D02*
X14814792Y-15222496D01*
X16348792Y-14188496D02*
X16348792Y-14282496D01*
X16348792Y-14282496D02*
X16203792Y-14427496D01*
X15934792Y-14293496D02*
X15763261Y-14293496D01*
X16203792Y-14427496D02*
X16036792Y-14427496D01*
X15763261Y-14293496D02*
X15582792Y-14473966D01*
X15582792Y-14473966D02*
X15582792Y-14518496D01*
%TO.N,displ_dc*%
X15385542Y-15473496D02*
X15995542Y-14863496D01*
X15995542Y-14863496D02*
X16324792Y-14863496D01*
X12766792Y-14327496D02*
X13912792Y-15473496D01*
X13912792Y-15473496D02*
X15385542Y-15473496D01*
%TO.N,touch_cs*%
X16248792Y-14272565D02*
X16248792Y-14188496D01*
X14077792Y-15428496D02*
X14924010Y-15428496D01*
X16222860Y-14298496D02*
X16248792Y-14272565D01*
X12722792Y-14073496D02*
X14077792Y-15428496D01*
X14924010Y-15428496D02*
X16054010Y-14298496D01*
X12436792Y-14073496D02*
X12722792Y-14073496D01*
X16054010Y-14298496D02*
X16222860Y-14298496D01*
%TO.N,displ_cs*%
X15770010Y-14188496D02*
X16198792Y-14188496D01*
X12766792Y-13819496D02*
X15401010Y-13819496D01*
X15401010Y-13819496D02*
X15770010Y-14188496D01*
D42*
%TO.N,oxi_scl*%
X18030792Y-11998896D02*
X18030792Y-11989396D01*
X18030792Y-11989396D02*
X17883792Y-11842396D01*
%TO.N,oxi_sda*%
X16849792Y-13002096D02*
X16849792Y-13752496D01*
X17672492Y-12179396D02*
X16849792Y-13002096D01*
X17881792Y-12179396D02*
X17672492Y-12179396D01*
X18030792Y-12078896D02*
X17982292Y-12078896D01*
X17982292Y-12078896D02*
X17881792Y-12179396D01*
D41*
%TO.N,Net-(Rg1-Pad2)*%
X15086392Y-13880496D02*
X14815692Y-13880496D01*
X14721292Y-14058367D02*
X14721292Y-14179694D01*
X14815692Y-13880496D02*
X14764902Y-13931286D01*
X15502792Y-14296896D02*
X15086392Y-13880496D01*
X15502792Y-14311284D02*
X15502792Y-14296896D01*
X14764902Y-13931286D02*
X14764902Y-14016234D01*
X14763425Y-14016234D02*
X14721292Y-14058367D01*
%TO.N,Net-(Rg1-Pad1)*%
X15346292Y-14476284D02*
X15062792Y-14759784D01*
X15502792Y-14476284D02*
X15346292Y-14476284D01*
X14720792Y-14700784D02*
X14721292Y-14700284D01*
X14779792Y-14759784D02*
X14720792Y-14700784D01*
X14721292Y-14700284D02*
X14721292Y-14603874D01*
X15062792Y-14759784D02*
X14779792Y-14759784D01*
%TO.N,Net-(C15-Pad1)*%
X14979242Y-14474234D02*
X14851292Y-14346284D01*
X14851292Y-14346284D02*
X14851292Y-14179694D01*
X15106592Y-14474234D02*
X14979242Y-14474234D01*
%TO.N,Net-(U7A-+)*%
X14322292Y-14200284D02*
X14322792Y-14200784D01*
X14322792Y-14200784D02*
X14574792Y-14200784D01*
X14001047Y-14200284D02*
X14322292Y-14200284D01*
X14574792Y-14200784D02*
X14576792Y-14198784D01*
D42*
%TO.N,Vref*%
X14725792Y-14378496D02*
X14725792Y-14295496D01*
X14670792Y-14433496D02*
X14725792Y-14378496D01*
X14663792Y-14433496D02*
X14670792Y-14433496D01*
D41*
%TO.N,Net-(U6A-+)*%
X14422537Y-15125284D02*
X14265792Y-15125284D01*
X14235792Y-15155284D02*
X14235792Y-14990284D01*
X14265792Y-15125284D02*
X14235792Y-15155284D01*
%TO.N,Net-(U7A--)*%
X13780292Y-14479284D02*
X13864792Y-14394784D01*
X13780292Y-14673784D02*
X13780292Y-14479284D01*
%TD*%
%TA.AperFunction,Conductor*%
%TO.N,GND*%
G36*
X18073058Y-11087463D02*
G01*
X18076522Y-11090756D01*
X18199599Y-11264321D01*
X18201871Y-11270928D01*
X18200210Y-11277715D01*
X18195553Y-11282307D01*
X18189415Y-11285752D01*
X18167975Y-11302307D01*
X18149173Y-11321808D01*
X18133412Y-11343838D01*
X18121026Y-11367929D01*
X18112280Y-11393566D01*
X18107360Y-11420203D01*
X18106371Y-11447272D01*
X18109333Y-11474198D01*
X18111216Y-11481397D01*
X18116185Y-11500405D01*
X18123803Y-11518333D01*
X18126779Y-11525335D01*
X18140890Y-11548457D01*
X18158217Y-11569278D01*
X18158218Y-11569278D01*
X18178392Y-11587354D01*
X18200983Y-11602300D01*
X18211613Y-11607284D01*
X18225510Y-11613798D01*
X18251424Y-11621595D01*
X18251449Y-11621602D01*
X18278248Y-11625546D01*
X18278248Y-11625546D01*
X18298329Y-11625546D01*
X18298555Y-11625546D01*
X18318808Y-11624064D01*
X18345247Y-11618174D01*
X18370548Y-11608497D01*
X18394170Y-11595240D01*
X18409852Y-11583131D01*
X18416361Y-11580592D01*
X18423210Y-11581975D01*
X18427545Y-11585773D01*
X18559209Y-11771446D01*
X18633693Y-11876485D01*
X18638481Y-11883237D01*
X18640753Y-11889844D01*
X18640766Y-11890492D01*
X18617823Y-15350873D01*
X18615810Y-15357564D01*
X18614742Y-15358971D01*
X18391538Y-15613275D01*
X18385636Y-15617015D01*
X18378649Y-15616970D01*
X18375376Y-15615437D01*
X18372109Y-15613275D01*
X18354601Y-15601692D01*
X18354601Y-15601691D01*
X18330074Y-15590194D01*
X18304136Y-15582390D01*
X18304135Y-15582390D01*
X18277336Y-15578446D01*
X18257029Y-15578446D01*
X18256804Y-15578462D01*
X18256803Y-15578463D01*
X18236776Y-15579928D01*
X18210337Y-15585818D01*
X18185036Y-15595495D01*
X18161414Y-15608752D01*
X18139975Y-15625307D01*
X18121173Y-15644808D01*
X18105412Y-15666838D01*
X18093026Y-15690929D01*
X18084280Y-15716566D01*
X18079360Y-15743203D01*
X18078371Y-15770272D01*
X18081333Y-15797198D01*
X18083304Y-15804735D01*
X18088185Y-15823405D01*
X18098464Y-15847594D01*
X18098779Y-15848335D01*
X18112890Y-15871457D01*
X18130217Y-15892278D01*
X18130277Y-15892331D01*
X18130321Y-15892403D01*
X18130798Y-15892976D01*
X18130718Y-15893042D01*
X18133957Y-15898271D01*
X18133841Y-15905257D01*
X18131322Y-15909747D01*
X17932571Y-16136191D01*
X17926669Y-16139931D01*
X17923064Y-16140410D01*
X13229826Y-16069557D01*
X13223153Y-16067488D01*
X13222567Y-16067074D01*
X13082121Y-15961582D01*
X16246242Y-15961582D01*
X16246287Y-15961953D01*
X16246287Y-15961954D01*
X16247723Y-15973781D01*
X16253540Y-15989119D01*
X16262859Y-16002619D01*
X16275137Y-16013497D01*
X16275137Y-16013497D01*
X16275137Y-16013497D01*
X16289662Y-16021120D01*
X16305590Y-16025046D01*
X16305590Y-16025046D01*
X16321994Y-16025046D01*
X16321994Y-16025046D01*
X16337921Y-16021120D01*
X16352447Y-16013497D01*
X16364725Y-16002619D01*
X16374044Y-15989119D01*
X16379861Y-15973781D01*
X16381342Y-15961582D01*
X16381342Y-15957496D01*
X16483792Y-15957496D01*
X16483792Y-16004448D01*
X16483827Y-16005109D01*
X16484432Y-16010733D01*
X16489457Y-16024205D01*
X16498073Y-16035715D01*
X16509583Y-16044331D01*
X16523055Y-16049356D01*
X16528679Y-16049961D01*
X16529340Y-16049996D01*
X16533792Y-16049996D01*
X16533792Y-15957496D01*
X16578792Y-15957496D01*
X16578792Y-16049996D01*
X16583244Y-16049996D01*
X16583905Y-16049961D01*
X16589529Y-16049356D01*
X16603001Y-16044331D01*
X16614511Y-16035715D01*
X16623127Y-16024205D01*
X16628152Y-16010733D01*
X16628756Y-16005109D01*
X16628792Y-16004448D01*
X16628792Y-15957496D01*
X16578792Y-15957496D01*
X16533792Y-15957496D01*
X16483792Y-15957496D01*
X16381342Y-15957496D01*
X16381342Y-15898410D01*
X16380434Y-15890932D01*
X16381580Y-15884040D01*
X16386270Y-15878861D01*
X16393016Y-15877040D01*
X16398717Y-15878571D01*
X16412155Y-15885959D01*
X16412155Y-15885959D01*
X16412155Y-15885959D01*
X16428074Y-15890046D01*
X16428074Y-15890046D01*
X16439995Y-15890046D01*
X16440384Y-15890046D01*
X16452598Y-15888503D01*
X16465817Y-15883269D01*
X16466827Y-15882869D01*
X16473785Y-15882232D01*
X16479983Y-15885457D01*
X16483453Y-15891521D01*
X16483792Y-15894399D01*
X16483792Y-15912496D01*
X16533792Y-15912496D01*
X16533792Y-15819996D01*
X16578792Y-15819996D01*
X16578792Y-15912496D01*
X16628792Y-15912496D01*
X16628792Y-15865544D01*
X16628756Y-15864883D01*
X16628152Y-15859259D01*
X16623127Y-15845787D01*
X16614511Y-15834277D01*
X16603001Y-15825661D01*
X16590181Y-15820879D01*
X16870854Y-15820879D01*
X16871886Y-15837282D01*
X16874478Y-15845257D01*
X16876965Y-15852913D01*
X16878992Y-15856107D01*
X16885772Y-15866790D01*
X16892164Y-15872792D01*
X16897753Y-15878041D01*
X16911242Y-15885457D01*
X16912155Y-15885959D01*
X16928074Y-15890046D01*
X16928074Y-15890046D01*
X16939995Y-15890046D01*
X16940385Y-15890046D01*
X16950569Y-15888759D01*
X16952598Y-15888503D01*
X16963871Y-15884040D01*
X16967879Y-15882453D01*
X16972598Y-15879024D01*
X16979179Y-15876676D01*
X16985984Y-15878259D01*
X16990854Y-15883269D01*
X16992241Y-15890117D01*
X16992196Y-15890551D01*
X16991287Y-15898038D01*
X16991287Y-15898040D01*
X16991242Y-15898410D01*
X16991242Y-15961582D01*
X16991287Y-15961953D01*
X16991287Y-15961954D01*
X16992723Y-15973781D01*
X16998540Y-15989119D01*
X17007859Y-16002619D01*
X17020137Y-16013497D01*
X17020137Y-16013497D01*
X17020137Y-16013497D01*
X17034663Y-16021120D01*
X17050590Y-16025046D01*
X17050590Y-16025046D01*
X17066994Y-16025046D01*
X17066994Y-16025046D01*
X17082922Y-16021120D01*
X17097447Y-16013497D01*
X17109725Y-16002619D01*
X17119044Y-15989119D01*
X17124861Y-15973781D01*
X17126342Y-15961582D01*
X17126342Y-15898410D01*
X17124861Y-15886212D01*
X17119044Y-15870873D01*
X17116225Y-15866790D01*
X17109725Y-15857373D01*
X17097447Y-15846495D01*
X17097447Y-15846495D01*
X17097447Y-15846495D01*
X17082922Y-15838872D01*
X17066994Y-15834946D01*
X17050590Y-15834946D01*
X17034663Y-15838872D01*
X17020137Y-15846495D01*
X17020137Y-15846495D01*
X17018804Y-15847195D01*
X17018585Y-15846778D01*
X17014882Y-15848516D01*
X17007956Y-15847594D01*
X17002628Y-15843073D01*
X17000590Y-15836390D01*
X17000809Y-15833938D01*
X17000873Y-15833602D01*
X17001730Y-15829113D01*
X17001604Y-15827116D01*
X17000802Y-15814375D01*
X17000698Y-15812710D01*
X16995619Y-15797079D01*
X16988933Y-15786543D01*
X16986812Y-15783202D01*
X16974831Y-15771951D01*
X16960429Y-15764033D01*
X16944510Y-15759946D01*
X16944510Y-15759946D01*
X16932200Y-15759946D01*
X16931814Y-15759995D01*
X16931813Y-15759995D01*
X16919986Y-15761489D01*
X16904705Y-15767539D01*
X16891409Y-15777199D01*
X16880932Y-15789864D01*
X16878923Y-15794134D01*
X16873934Y-15804735D01*
X16872209Y-15813779D01*
X16870854Y-15820879D01*
X16590181Y-15820879D01*
X16589529Y-15820636D01*
X16583905Y-15820031D01*
X16583244Y-15819996D01*
X16578792Y-15819996D01*
X16533792Y-15819996D01*
X16529340Y-15819996D01*
X16528679Y-15820031D01*
X16523054Y-15820636D01*
X16517357Y-15822761D01*
X16510388Y-15823260D01*
X16504255Y-15819911D01*
X16500907Y-15813779D01*
X16500803Y-15813035D01*
X16498920Y-15807240D01*
X16495619Y-15797079D01*
X16488933Y-15786543D01*
X16486812Y-15783202D01*
X16474831Y-15771951D01*
X16460428Y-15764033D01*
X16444510Y-15759946D01*
X16444510Y-15759946D01*
X16432199Y-15759946D01*
X16431814Y-15759995D01*
X16431813Y-15759995D01*
X16419986Y-15761489D01*
X16404705Y-15767539D01*
X16391408Y-15777199D01*
X16380932Y-15789864D01*
X16378923Y-15794134D01*
X16373934Y-15804735D01*
X16372209Y-15813779D01*
X16370854Y-15820879D01*
X16371765Y-15835357D01*
X16370222Y-15842171D01*
X16365239Y-15847069D01*
X16358399Y-15848496D01*
X16353627Y-15847115D01*
X16347563Y-15843932D01*
X16337921Y-15838872D01*
X16321994Y-15834946D01*
X16305590Y-15834946D01*
X16289662Y-15838872D01*
X16277496Y-15845257D01*
X16275137Y-15846495D01*
X16262859Y-15857373D01*
X16253540Y-15870873D01*
X16247723Y-15886211D01*
X16246287Y-15898038D01*
X16246287Y-15898040D01*
X16246242Y-15898410D01*
X16246242Y-15961582D01*
X13082121Y-15961582D01*
X13024726Y-15918471D01*
X14506742Y-15918471D01*
X14507905Y-15924319D01*
X14512337Y-15930951D01*
X14518969Y-15935383D01*
X14524817Y-15936546D01*
X14524817Y-15936546D01*
X14698767Y-15936546D01*
X14701691Y-15935964D01*
X14704615Y-15935383D01*
X14711247Y-15930951D01*
X14715679Y-15924319D01*
X14716842Y-15918471D01*
X14716842Y-15744521D01*
X14716380Y-15742201D01*
X14715679Y-15738673D01*
X14711247Y-15732041D01*
X14704615Y-15727609D01*
X14698767Y-15726446D01*
X14698767Y-15726446D01*
X14524817Y-15726446D01*
X14524817Y-15726446D01*
X14518969Y-15727609D01*
X14512337Y-15732041D01*
X14507905Y-15738673D01*
X14506742Y-15744521D01*
X14506742Y-15918471D01*
X13024726Y-15918471D01*
X12909456Y-15831889D01*
X13911359Y-15831889D01*
X13912356Y-15837546D01*
X13914405Y-15849167D01*
X13917945Y-15857373D01*
X13921354Y-15865276D01*
X13931831Y-15879349D01*
X13945270Y-15890626D01*
X13945270Y-15890626D01*
X13945271Y-15890626D01*
X13960949Y-15898500D01*
X13960949Y-15898500D01*
X13960949Y-15898500D01*
X13978020Y-15902546D01*
X13978020Y-15902546D01*
X13990803Y-15902546D01*
X13991163Y-15902546D01*
X13991521Y-15902504D01*
X13991521Y-15902504D01*
X13996548Y-15901917D01*
X14004217Y-15901020D01*
X14020704Y-15895020D01*
X14035362Y-15885379D01*
X14047401Y-15872618D01*
X14056173Y-15857424D01*
X14061205Y-15840617D01*
X14062225Y-15823103D01*
X14059178Y-15805825D01*
X14052230Y-15789716D01*
X14041753Y-15775643D01*
X14041753Y-15775643D01*
X14028314Y-15764366D01*
X14012635Y-15756492D01*
X13995564Y-15752446D01*
X13995564Y-15752446D01*
X13982421Y-15752446D01*
X13982064Y-15752488D01*
X13982062Y-15752488D01*
X13969367Y-15753972D01*
X13952880Y-15759972D01*
X13938222Y-15769613D01*
X13926183Y-15782374D01*
X13917411Y-15797568D01*
X13916876Y-15799354D01*
X13912379Y-15814375D01*
X13912278Y-15816112D01*
X13911359Y-15831889D01*
X12909456Y-15831889D01*
X12865820Y-15799113D01*
X12861642Y-15793513D01*
X12861155Y-15786543D01*
X12864340Y-15780592D01*
X12873411Y-15771184D01*
X12889172Y-15749154D01*
X12901558Y-15725064D01*
X12910304Y-15699427D01*
X12915224Y-15672789D01*
X12916213Y-15645720D01*
X12913251Y-15618794D01*
X12906399Y-15592587D01*
X12895805Y-15567657D01*
X12889681Y-15557623D01*
X12881694Y-15544535D01*
X12864367Y-15523714D01*
X12853868Y-15514307D01*
X12844192Y-15505638D01*
X12821601Y-15490692D01*
X12821601Y-15490691D01*
X12797074Y-15479194D01*
X12771136Y-15471390D01*
X12771135Y-15471390D01*
X12744336Y-15467446D01*
X12724029Y-15467446D01*
X12723804Y-15467462D01*
X12723803Y-15467463D01*
X12703776Y-15468928D01*
X12677337Y-15474818D01*
X12652036Y-15484495D01*
X12628414Y-15497752D01*
X12606974Y-15514307D01*
X12588173Y-15533808D01*
X12572412Y-15555839D01*
X12570643Y-15559278D01*
X12565827Y-15564340D01*
X12559039Y-15565995D01*
X12552434Y-15563717D01*
X12552168Y-15563523D01*
X12338719Y-15403197D01*
X12334541Y-15397597D01*
X12333767Y-15393334D01*
X12330779Y-14663997D01*
X12332720Y-14657285D01*
X12337982Y-14652688D01*
X12343179Y-14651546D01*
X12391842Y-14651546D01*
X12398546Y-14653515D01*
X12403121Y-14658795D01*
X12404242Y-14663946D01*
X12404242Y-14734829D01*
X12404195Y-14735910D01*
X12403865Y-14739673D01*
X12404843Y-14743322D01*
X12405077Y-14744377D01*
X12405752Y-14748203D01*
X12406775Y-14750672D01*
X12406837Y-14750760D01*
X12409003Y-14753855D01*
X12409583Y-14754766D01*
X12410738Y-14756765D01*
X12411473Y-14758037D01*
X12412862Y-14759203D01*
X12414366Y-14760465D01*
X12415164Y-14761196D01*
X13247091Y-15593124D01*
X13247822Y-15593921D01*
X13250251Y-15596815D01*
X13252655Y-15598204D01*
X13253522Y-15598704D01*
X13254434Y-15599285D01*
X13257528Y-15601451D01*
X13257528Y-15601451D01*
X13257616Y-15601513D01*
X13260085Y-15602536D01*
X13260191Y-15602555D01*
X13260192Y-15602555D01*
X13263910Y-15603211D01*
X13264966Y-15603445D01*
X13268615Y-15604422D01*
X13272378Y-15604093D01*
X13273459Y-15604046D01*
X14678962Y-15604046D01*
X14685666Y-15606015D01*
X14688800Y-15608897D01*
X14692964Y-15614324D01*
X14705508Y-15623950D01*
X14720116Y-15630000D01*
X14735792Y-15632064D01*
X14751468Y-15630000D01*
X14766076Y-15623950D01*
X14778620Y-15614324D01*
X14788246Y-15601780D01*
X14794296Y-15587172D01*
X14794439Y-15586091D01*
X16246242Y-15586091D01*
X16246299Y-15586509D01*
X16246300Y-15586511D01*
X16247135Y-15592587D01*
X16247715Y-15596807D01*
X16253470Y-15610057D01*
X16257847Y-15615437D01*
X16262587Y-15621263D01*
X16274388Y-15629593D01*
X16274388Y-15629593D01*
X16288000Y-15634431D01*
X16302412Y-15635416D01*
X16316555Y-15632477D01*
X16329381Y-15625831D01*
X16339939Y-15615972D01*
X16343536Y-15610057D01*
X16347445Y-15603629D01*
X16350538Y-15592587D01*
X16351342Y-15589719D01*
X16351342Y-15586091D01*
X17021242Y-15586091D01*
X17021300Y-15586509D01*
X17021300Y-15586511D01*
X17022135Y-15592587D01*
X17022715Y-15596807D01*
X17028470Y-15610057D01*
X17032847Y-15615437D01*
X17037587Y-15621263D01*
X17049388Y-15629593D01*
X17049388Y-15629593D01*
X17063000Y-15634431D01*
X17077412Y-15635416D01*
X17091555Y-15632477D01*
X17104382Y-15625831D01*
X17114939Y-15615972D01*
X17118536Y-15610057D01*
X17122445Y-15603629D01*
X17125538Y-15592587D01*
X17126342Y-15589719D01*
X17126342Y-15513901D01*
X17124869Y-15503185D01*
X17119114Y-15489935D01*
X17113511Y-15483048D01*
X17109997Y-15478729D01*
X17098196Y-15470399D01*
X17098196Y-15470399D01*
X17084584Y-15465561D01*
X17084584Y-15465561D01*
X17084584Y-15465561D01*
X17070172Y-15464576D01*
X17070172Y-15464576D01*
X17065429Y-15465561D01*
X17056029Y-15467515D01*
X17043202Y-15474161D01*
X17032645Y-15484020D01*
X17025139Y-15496363D01*
X17021438Y-15509574D01*
X17021242Y-15510273D01*
X17021242Y-15586091D01*
X16351342Y-15586091D01*
X16351342Y-15513901D01*
X16349869Y-15503185D01*
X16344114Y-15489935D01*
X16338511Y-15483048D01*
X16334997Y-15478729D01*
X16323196Y-15470399D01*
X16323196Y-15470399D01*
X16309584Y-15465561D01*
X16309584Y-15465561D01*
X16309584Y-15465561D01*
X16295172Y-15464576D01*
X16295172Y-15464576D01*
X16290429Y-15465561D01*
X16281028Y-15467515D01*
X16268202Y-15474161D01*
X16257645Y-15484020D01*
X16250139Y-15496363D01*
X16246438Y-15509574D01*
X16246242Y-15510273D01*
X16246242Y-15586091D01*
X14794439Y-15586091D01*
X14796360Y-15571496D01*
X14794296Y-15555820D01*
X14788246Y-15541212D01*
X14778620Y-15528668D01*
X14778119Y-15528284D01*
X14773999Y-15522641D01*
X14773584Y-15515666D01*
X14777005Y-15509574D01*
X14783177Y-15506299D01*
X14785668Y-15506046D01*
X15383579Y-15506046D01*
X15384660Y-15506093D01*
X15388423Y-15506422D01*
X15392074Y-15505444D01*
X15393125Y-15505211D01*
X15396846Y-15504555D01*
X15396847Y-15504555D01*
X15396953Y-15504536D01*
X15399422Y-15503513D01*
X15399510Y-15503451D01*
X15399510Y-15503451D01*
X15402604Y-15501285D01*
X15403514Y-15500705D01*
X15406787Y-15498815D01*
X15409217Y-15495920D01*
X15409946Y-15495125D01*
X15758824Y-15146246D01*
X15896792Y-15146246D01*
X15896792Y-15185698D01*
X15896827Y-15186359D01*
X15897432Y-15191983D01*
X15902457Y-15205455D01*
X15911073Y-15216965D01*
X15922583Y-15225581D01*
X15936055Y-15230606D01*
X15941679Y-15231211D01*
X15942340Y-15231246D01*
X15991792Y-15231246D01*
X15991792Y-15146246D01*
X16041792Y-15146246D01*
X16041792Y-15231246D01*
X16091244Y-15231246D01*
X16091905Y-15231211D01*
X16097529Y-15230606D01*
X16111001Y-15225581D01*
X16122511Y-15216965D01*
X16131127Y-15205455D01*
X16136152Y-15191983D01*
X16136688Y-15186996D01*
X17214792Y-15186996D01*
X17214792Y-15209179D01*
X17214824Y-15209807D01*
X17215841Y-15219766D01*
X17221356Y-15236408D01*
X17230560Y-15251331D01*
X17242957Y-15263728D01*
X17257880Y-15272932D01*
X17274522Y-15278447D01*
X17284481Y-15279464D01*
X17285109Y-15279496D01*
X17372292Y-15279496D01*
X17372292Y-15279496D01*
X17372292Y-15186996D01*
X17422292Y-15186996D01*
X17422292Y-15279496D01*
X17509475Y-15279496D01*
X17510103Y-15279464D01*
X17520062Y-15278447D01*
X17536704Y-15272932D01*
X17551627Y-15263728D01*
X17564024Y-15251331D01*
X17573228Y-15236408D01*
X17578743Y-15219766D01*
X17579760Y-15209807D01*
X17579792Y-15209179D01*
X17579792Y-15186996D01*
X17422292Y-15186996D01*
X17372292Y-15186996D01*
X17214792Y-15186996D01*
X16136688Y-15186996D01*
X16136756Y-15186359D01*
X16136792Y-15185698D01*
X16136792Y-15146246D01*
X16041792Y-15146246D01*
X15991792Y-15146246D01*
X15896792Y-15146246D01*
X15758824Y-15146246D01*
X15768074Y-15136996D01*
X17214792Y-15136996D01*
X17372292Y-15136996D01*
X17372292Y-15044496D01*
X17422292Y-15044496D01*
X17422292Y-15136996D01*
X17579792Y-15136996D01*
X17579792Y-15114813D01*
X17579760Y-15114185D01*
X17578743Y-15104226D01*
X17573228Y-15087584D01*
X17564024Y-15072661D01*
X17551627Y-15060264D01*
X17536704Y-15051060D01*
X17520062Y-15045545D01*
X17510103Y-15044528D01*
X17509475Y-15044496D01*
X17422292Y-15044496D01*
X17372292Y-15044496D01*
X17285109Y-15044496D01*
X17284481Y-15044528D01*
X17274522Y-15045545D01*
X17257880Y-15051060D01*
X17242957Y-15060264D01*
X17230560Y-15072661D01*
X17221356Y-15087584D01*
X17215841Y-15104226D01*
X17214824Y-15114185D01*
X17214792Y-15114813D01*
X17214792Y-15136996D01*
X15768074Y-15136996D01*
X15882627Y-15022444D01*
X15888759Y-15019095D01*
X15895728Y-15019594D01*
X15901322Y-15023781D01*
X15903763Y-15030327D01*
X15903013Y-15035545D01*
X15897432Y-15050509D01*
X15896827Y-15056133D01*
X15896792Y-15056794D01*
X15896792Y-15096246D01*
X15991792Y-15096246D01*
X15991792Y-15011246D01*
X16041792Y-15011246D01*
X16041792Y-15096246D01*
X16136792Y-15096246D01*
X16136792Y-15056794D01*
X16136756Y-15056133D01*
X16136152Y-15050509D01*
X16131127Y-15037037D01*
X16122511Y-15025527D01*
X16111001Y-15016911D01*
X16097529Y-15011886D01*
X16091905Y-15011281D01*
X16091244Y-15011246D01*
X16041792Y-15011246D01*
X15991792Y-15011246D01*
X15942340Y-15011246D01*
X15941679Y-15011281D01*
X15936055Y-15011886D01*
X15921091Y-15017467D01*
X15914122Y-15017966D01*
X15907990Y-15014617D01*
X15904641Y-15008485D01*
X15905139Y-15001516D01*
X15907989Y-14997081D01*
X16005393Y-14899678D01*
X16011525Y-14896329D01*
X16014161Y-14896046D01*
X16262427Y-14896046D01*
X16269131Y-14898015D01*
X16272265Y-14900897D01*
X16277964Y-14908324D01*
X16286637Y-14914979D01*
X16290508Y-14917950D01*
X16305116Y-14924000D01*
X16320792Y-14926064D01*
X16336468Y-14924000D01*
X16351076Y-14917950D01*
X16363620Y-14908324D01*
X16373246Y-14895780D01*
X16379296Y-14881172D01*
X16381360Y-14865496D01*
X16379856Y-14854068D01*
X16380932Y-14847165D01*
X16385570Y-14841939D01*
X16392150Y-14840050D01*
X16832367Y-14840050D01*
X16834912Y-14840314D01*
X16835044Y-14840342D01*
X16835820Y-14840504D01*
X16838425Y-14840179D01*
X16838700Y-14840145D01*
X16840168Y-14840054D01*
X16842089Y-14839733D01*
X16842595Y-14839660D01*
X16847427Y-14839057D01*
X16847428Y-14839057D01*
X16848169Y-14838965D01*
X16848826Y-14838609D01*
X16848826Y-14838609D01*
X16853108Y-14836292D01*
X16853563Y-14836058D01*
X16857937Y-14833920D01*
X16857937Y-14833919D01*
X16858608Y-14833592D01*
X16859114Y-14833042D01*
X16859114Y-14833042D01*
X16862414Y-14829457D01*
X16862764Y-14829092D01*
X17048279Y-14643577D01*
X17050265Y-14641964D01*
X17051042Y-14641457D01*
X17052824Y-14639166D01*
X17053798Y-14638064D01*
X17053812Y-14638044D01*
X17053812Y-14638044D01*
X17054933Y-14636474D01*
X17055235Y-14636069D01*
X17058226Y-14632226D01*
X17058226Y-14632226D01*
X17058686Y-14631636D01*
X17059307Y-14629550D01*
X17060288Y-14626254D01*
X17060443Y-14625768D01*
X17060779Y-14624789D01*
X17062025Y-14621162D01*
X17062025Y-14621162D01*
X17062267Y-14620455D01*
X17062236Y-14619709D01*
X17062236Y-14619709D01*
X17062035Y-14614845D01*
X17062025Y-14614333D01*
X17062025Y-14475417D01*
X17062289Y-14472872D01*
X17062479Y-14471965D01*
X17062120Y-14469084D01*
X17062029Y-14467617D01*
X17062025Y-14467593D01*
X17062025Y-14467592D01*
X17061708Y-14465693D01*
X17061634Y-14465188D01*
X17061032Y-14460357D01*
X17061032Y-14460357D01*
X17060940Y-14459615D01*
X17060584Y-14458958D01*
X17060584Y-14458958D01*
X17058267Y-14454677D01*
X17058033Y-14454222D01*
X17055567Y-14449177D01*
X17054794Y-14448465D01*
X17051195Y-14442476D01*
X17050792Y-14439342D01*
X17050792Y-14415496D01*
X17100792Y-14415496D01*
X17100792Y-14485496D01*
X17105309Y-14485496D01*
X17105937Y-14485464D01*
X17115553Y-14484482D01*
X17131641Y-14479151D01*
X17146065Y-14470253D01*
X17158049Y-14458269D01*
X17166947Y-14443845D01*
X17172278Y-14427757D01*
X17173260Y-14418141D01*
X17173292Y-14417513D01*
X17173292Y-14415496D01*
X17100792Y-14415496D01*
X17050792Y-14415496D01*
X17050792Y-14295496D01*
X17100792Y-14295496D01*
X17100792Y-14365496D01*
X17173292Y-14365496D01*
X17173292Y-14363479D01*
X17173260Y-14362851D01*
X17172278Y-14353235D01*
X17166947Y-14337147D01*
X17158049Y-14322723D01*
X17146065Y-14310739D01*
X17131641Y-14301841D01*
X17115553Y-14296510D01*
X17105937Y-14295528D01*
X17105309Y-14295496D01*
X17100792Y-14295496D01*
X17050792Y-14295496D01*
X17046276Y-14295496D01*
X17045647Y-14295528D01*
X17042002Y-14295900D01*
X17035133Y-14294623D01*
X17030044Y-14289835D01*
X17028342Y-14283565D01*
X17028342Y-14029683D01*
X17030311Y-14022979D01*
X17035591Y-14018403D01*
X17042507Y-14017409D01*
X17048862Y-14020311D01*
X17051052Y-14022794D01*
X17051430Y-14023358D01*
X17055080Y-14025797D01*
X17060543Y-14029448D01*
X17068579Y-14031046D01*
X17093842Y-14031046D01*
X17100546Y-14033014D01*
X17105121Y-14038295D01*
X17106242Y-14043446D01*
X17106242Y-14137075D01*
X17105978Y-14139619D01*
X17105788Y-14140527D01*
X17106147Y-14143408D01*
X17106238Y-14144876D01*
X17106559Y-14146797D01*
X17106632Y-14147304D01*
X17107327Y-14152877D01*
X17110000Y-14157816D01*
X17110234Y-14158271D01*
X17112372Y-14162644D01*
X17112372Y-14162645D01*
X17112700Y-14163316D01*
X17113250Y-14163822D01*
X17113250Y-14163822D01*
X17115362Y-14165766D01*
X17116832Y-14167119D01*
X17117202Y-14167474D01*
X17411818Y-14462090D01*
X17415167Y-14468223D01*
X17415450Y-14470858D01*
X17415450Y-14712541D01*
X17415403Y-14713622D01*
X17415074Y-14717385D01*
X17416051Y-14721034D01*
X17416285Y-14722089D01*
X17416960Y-14725915D01*
X17417983Y-14728384D01*
X17418045Y-14728472D01*
X17420211Y-14731567D01*
X17420792Y-14732478D01*
X17422681Y-14735750D01*
X17425574Y-14738178D01*
X17426372Y-14738908D01*
X17524988Y-14837524D01*
X17525718Y-14838322D01*
X17525960Y-14838609D01*
X17528147Y-14841215D01*
X17528806Y-14841596D01*
X17531418Y-14843104D01*
X17532330Y-14843685D01*
X17535512Y-14845913D01*
X17537982Y-14846936D01*
X17538087Y-14846955D01*
X17538088Y-14846955D01*
X17541806Y-14847611D01*
X17542862Y-14847844D01*
X17546511Y-14848822D01*
X17546511Y-14848822D01*
X17546511Y-14848822D01*
X17548601Y-14848640D01*
X17550273Y-14848493D01*
X17551354Y-14848446D01*
X17872429Y-14848446D01*
X17873510Y-14848493D01*
X17877273Y-14848822D01*
X17880924Y-14847844D01*
X17881975Y-14847611D01*
X17885697Y-14846955D01*
X17885697Y-14846955D01*
X17885803Y-14846936D01*
X17888272Y-14845913D01*
X17888360Y-14845851D01*
X17888360Y-14845851D01*
X17891455Y-14843685D01*
X17892364Y-14843105D01*
X17895638Y-14841215D01*
X17898067Y-14838320D01*
X17898796Y-14837525D01*
X17945150Y-14791170D01*
X17951282Y-14787822D01*
X17958252Y-14788320D01*
X17963845Y-14792508D01*
X17964228Y-14793049D01*
X17967437Y-14797851D01*
X17974069Y-14802283D01*
X17979917Y-14803446D01*
X17979917Y-14803446D01*
X18068867Y-14803446D01*
X18070679Y-14803085D01*
X18074715Y-14802283D01*
X18074715Y-14802283D01*
X18077023Y-14801824D01*
X18083982Y-14802446D01*
X18089500Y-14806733D01*
X18091824Y-14813322D01*
X18091842Y-14813985D01*
X18091842Y-14967799D01*
X18089874Y-14974503D01*
X18088210Y-14976568D01*
X17753426Y-15311351D01*
X17752390Y-15312278D01*
X17749603Y-15314500D01*
X17746382Y-15319224D01*
X17746114Y-15319601D01*
X17742363Y-15324684D01*
X17742130Y-15325146D01*
X17740267Y-15331185D01*
X17740123Y-15331625D01*
X17738037Y-15337585D01*
X17737950Y-15338097D01*
X17737950Y-15344414D01*
X17737941Y-15344878D01*
X17737705Y-15351191D01*
X17737950Y-15353052D01*
X17737950Y-15925858D01*
X17735982Y-15932562D01*
X17735388Y-15933407D01*
X17730546Y-15939716D01*
X17724496Y-15954324D01*
X17722432Y-15970000D01*
X17724496Y-15985676D01*
X17730546Y-16000284D01*
X17740172Y-16012828D01*
X17750978Y-16021120D01*
X17752716Y-16022454D01*
X17767324Y-16028504D01*
X17783000Y-16030568D01*
X17798676Y-16028504D01*
X17813284Y-16022454D01*
X17825828Y-16012828D01*
X17835454Y-16000284D01*
X17841504Y-15985676D01*
X17843568Y-15970000D01*
X17841504Y-15954324D01*
X17835454Y-15939716D01*
X17833215Y-15936798D01*
X17830612Y-15933407D01*
X17828093Y-15926890D01*
X17828050Y-15925858D01*
X17828050Y-15369284D01*
X17830019Y-15362581D01*
X17831681Y-15360517D01*
X18166466Y-15025732D01*
X18167501Y-15024807D01*
X18170289Y-15022584D01*
X18173511Y-15017858D01*
X18173778Y-15017482D01*
X18177171Y-15012884D01*
X18177171Y-15012884D01*
X18177530Y-15012398D01*
X18177761Y-15011940D01*
X18177939Y-15011364D01*
X18177939Y-15011363D01*
X18179625Y-15005897D01*
X18179770Y-15005459D01*
X18181657Y-15000066D01*
X18181657Y-15000066D01*
X18181856Y-14999497D01*
X18181942Y-14998989D01*
X18181942Y-14992671D01*
X18181951Y-14992208D01*
X18182187Y-14985893D01*
X18181942Y-14984032D01*
X18181942Y-14610796D01*
X18183911Y-14604092D01*
X18189191Y-14599517D01*
X18194342Y-14598396D01*
X18199392Y-14598396D01*
X18199392Y-14455896D01*
X18249392Y-14455896D01*
X18249392Y-14598396D01*
X18271344Y-14598396D01*
X18272005Y-14598361D01*
X18277629Y-14597756D01*
X18291101Y-14592731D01*
X18302611Y-14584115D01*
X18311227Y-14572605D01*
X18316252Y-14559133D01*
X18316857Y-14553509D01*
X18316892Y-14552848D01*
X18316892Y-14455896D01*
X18249392Y-14455896D01*
X18199392Y-14455896D01*
X18199392Y-14418296D01*
X18201361Y-14411592D01*
X18206641Y-14407017D01*
X18211792Y-14405896D01*
X18316892Y-14405896D01*
X18316892Y-14308944D01*
X18316857Y-14308283D01*
X18316252Y-14302659D01*
X18311227Y-14289187D01*
X18302611Y-14277677D01*
X18291101Y-14269061D01*
X18277629Y-14264036D01*
X18272005Y-14263431D01*
X18271344Y-14263396D01*
X18261899Y-14263396D01*
X18255195Y-14261428D01*
X18250620Y-14256147D01*
X18249625Y-14249231D01*
X18252528Y-14242876D01*
X18253131Y-14242228D01*
X18303959Y-14191400D01*
X18459678Y-14035680D01*
X18460713Y-14034755D01*
X18463501Y-14032532D01*
X18466723Y-14027806D01*
X18466990Y-14027430D01*
X18470383Y-14022833D01*
X18470383Y-14022832D01*
X18470742Y-14022346D01*
X18470973Y-14021889D01*
X18471151Y-14021312D01*
X18471151Y-14021312D01*
X18472837Y-14015846D01*
X18472982Y-14015407D01*
X18473147Y-14014933D01*
X18474869Y-14010014D01*
X18474869Y-14010014D01*
X18475068Y-14009445D01*
X18475154Y-14008938D01*
X18475154Y-14008335D01*
X18475154Y-14008335D01*
X18475154Y-14002620D01*
X18475163Y-14002156D01*
X18475399Y-13995842D01*
X18475154Y-13993981D01*
X18475154Y-12182692D01*
X18477123Y-12175988D01*
X18478785Y-12173925D01*
X18582574Y-12070136D01*
X18583609Y-12069211D01*
X18586397Y-12066988D01*
X18589619Y-12062262D01*
X18589886Y-12061886D01*
X18593279Y-12057288D01*
X18593279Y-12057288D01*
X18593638Y-12056802D01*
X18593869Y-12056344D01*
X18594047Y-12055767D01*
X18594047Y-12055767D01*
X18595733Y-12050301D01*
X18595878Y-12049863D01*
X18596109Y-12049201D01*
X18597765Y-12044470D01*
X18597765Y-12044470D01*
X18597964Y-12043901D01*
X18598050Y-12043393D01*
X18598050Y-12037074D01*
X18598059Y-12036610D01*
X18598295Y-12030297D01*
X18598050Y-12028436D01*
X18598050Y-11900226D01*
X18598128Y-11898838D01*
X18598527Y-11895297D01*
X18597618Y-11890492D01*
X18597464Y-11889676D01*
X18597386Y-11889222D01*
X18596745Y-11884966D01*
X18596535Y-11883571D01*
X18596535Y-11883571D01*
X18596445Y-11882974D01*
X18596284Y-11882486D01*
X18594895Y-11879857D01*
X18593330Y-11876896D01*
X18593124Y-11876489D01*
X18590643Y-11871336D01*
X18590642Y-11871336D01*
X18590381Y-11870792D01*
X18590083Y-11870372D01*
X18585617Y-11865906D01*
X18585295Y-11865572D01*
X18581406Y-11861381D01*
X18581405Y-11861380D01*
X18580996Y-11860939D01*
X18579507Y-11859796D01*
X18399137Y-11679426D01*
X18398210Y-11678390D01*
X18395988Y-11675603D01*
X18391261Y-11672380D01*
X18390887Y-11672115D01*
X18390621Y-11671919D01*
X18389544Y-11671123D01*
X18385804Y-11668363D01*
X18385342Y-11668130D01*
X18379305Y-11666268D01*
X18378864Y-11666123D01*
X18378506Y-11665998D01*
X18373470Y-11664235D01*
X18373470Y-11664235D01*
X18372902Y-11664037D01*
X18372391Y-11663950D01*
X18371790Y-11663950D01*
X18366074Y-11663950D01*
X18365610Y-11663941D01*
X18359297Y-11663705D01*
X18357437Y-11663950D01*
X16825314Y-11663950D01*
X16823926Y-11663872D01*
X16820385Y-11663473D01*
X16814766Y-11664536D01*
X16814310Y-11664613D01*
X16808064Y-11665555D01*
X16807572Y-11665717D01*
X16801985Y-11668670D01*
X16801574Y-11668877D01*
X16798189Y-11670507D01*
X16795883Y-11671618D01*
X16795459Y-11671919D01*
X16790994Y-11676384D01*
X16790660Y-11676705D01*
X16786027Y-11681004D01*
X16784885Y-11682493D01*
X16258364Y-12209014D01*
X16252231Y-12212363D01*
X16249595Y-12212646D01*
X15450842Y-12212646D01*
X15444138Y-12210678D01*
X15439563Y-12205397D01*
X15438442Y-12200246D01*
X15438442Y-12145721D01*
X15437279Y-12139873D01*
X15432847Y-12133241D01*
X15426215Y-12128809D01*
X15420367Y-12127646D01*
X15420367Y-12127646D01*
X15372331Y-12127646D01*
X15365627Y-12125678D01*
X15363562Y-12124014D01*
X15128174Y-11888625D01*
X15124825Y-11882493D01*
X15124542Y-11879857D01*
X15124542Y-11811359D01*
X15124542Y-11811069D01*
X15124257Y-11808026D01*
X15119771Y-11795208D01*
X15119771Y-11795208D01*
X15111707Y-11784281D01*
X15100780Y-11776217D01*
X15087962Y-11771731D01*
X15085207Y-11771473D01*
X15085206Y-11771473D01*
X15084919Y-11771446D01*
X14664065Y-11771446D01*
X14663778Y-11771473D01*
X14663777Y-11771473D01*
X14661022Y-11771731D01*
X14648203Y-11776217D01*
X14637277Y-11784281D01*
X14629213Y-11795208D01*
X14624727Y-11808026D01*
X14624469Y-11810781D01*
X14624469Y-11810782D01*
X14624442Y-11811069D01*
X14624442Y-11881923D01*
X14624469Y-11882210D01*
X14624469Y-11882211D01*
X14624727Y-11884966D01*
X14629213Y-11897784D01*
X14637277Y-11908711D01*
X14648203Y-11916775D01*
X14648204Y-11916775D01*
X14661022Y-11921261D01*
X14664065Y-11921546D01*
X15000253Y-11921546D01*
X15006957Y-11923515D01*
X15009021Y-11925178D01*
X15234710Y-12150867D01*
X15238059Y-12156999D01*
X15238342Y-12159635D01*
X15238342Y-12369671D01*
X15239505Y-12375519D01*
X15244629Y-12383187D01*
X15246716Y-12389854D01*
X15244868Y-12396592D01*
X15239670Y-12401261D01*
X15238652Y-12401694D01*
X15234183Y-12403361D01*
X15222673Y-12411977D01*
X15214057Y-12423487D01*
X15209032Y-12436959D01*
X15208427Y-12442583D01*
X15208392Y-12443244D01*
X15208392Y-12532696D01*
X15468392Y-12532696D01*
X15468392Y-12443244D01*
X15468356Y-12442583D01*
X15467752Y-12436959D01*
X15462727Y-12423487D01*
X15454111Y-12411977D01*
X15442601Y-12403361D01*
X15438132Y-12401694D01*
X15432539Y-12397507D01*
X15430097Y-12390960D01*
X15431582Y-12384133D01*
X15432155Y-12383187D01*
X15432847Y-12382151D01*
X15432847Y-12382151D01*
X15437279Y-12375519D01*
X15438442Y-12369671D01*
X15438442Y-12315146D01*
X15440410Y-12308442D01*
X15445691Y-12303867D01*
X15450842Y-12302746D01*
X16270166Y-12302746D01*
X16271554Y-12302824D01*
X16275095Y-12303223D01*
X16275095Y-12303223D01*
X16275095Y-12303223D01*
X16280715Y-12302160D01*
X16281165Y-12302083D01*
X16286821Y-12301231D01*
X16286821Y-12301231D01*
X16287419Y-12301141D01*
X16287905Y-12300981D01*
X16288439Y-12300698D01*
X16288439Y-12300698D01*
X16293496Y-12298025D01*
X16293906Y-12297819D01*
X16299056Y-12295339D01*
X16299056Y-12295338D01*
X16299600Y-12295077D01*
X16300019Y-12294779D01*
X16300445Y-12294353D01*
X16300446Y-12294353D01*
X16304492Y-12290306D01*
X16304818Y-12289992D01*
X16306969Y-12287996D01*
X16469792Y-12287996D01*
X16469792Y-12327448D01*
X16469827Y-12328109D01*
X16470432Y-12333733D01*
X16475457Y-12347205D01*
X16484073Y-12358715D01*
X16495583Y-12367331D01*
X16509055Y-12372356D01*
X16514679Y-12372961D01*
X16515340Y-12372996D01*
X16564792Y-12372996D01*
X16564792Y-12287996D01*
X16614792Y-12287996D01*
X16614792Y-12372996D01*
X16664244Y-12372996D01*
X16664905Y-12372961D01*
X16670529Y-12372356D01*
X16684001Y-12367331D01*
X16694588Y-12359406D01*
X16701134Y-12356964D01*
X16707961Y-12358449D01*
X16712902Y-12363390D01*
X16714387Y-12370217D01*
X16713637Y-12373666D01*
X16710432Y-12382259D01*
X16709827Y-12387883D01*
X16709792Y-12388544D01*
X16709792Y-12427996D01*
X16804792Y-12427996D01*
X16804792Y-12342996D01*
X16854792Y-12342996D01*
X16854792Y-12427996D01*
X16949792Y-12427996D01*
X16949792Y-12388544D01*
X16949757Y-12387883D01*
X16949152Y-12382259D01*
X16944127Y-12368787D01*
X16935511Y-12357277D01*
X16924001Y-12348661D01*
X16910529Y-12343636D01*
X16904905Y-12343031D01*
X16904244Y-12342996D01*
X16854792Y-12342996D01*
X16804792Y-12342996D01*
X16755340Y-12342996D01*
X16754679Y-12343031D01*
X16749055Y-12343636D01*
X16735583Y-12348661D01*
X16724996Y-12356586D01*
X16718450Y-12359028D01*
X16711622Y-12357542D01*
X16706682Y-12352602D01*
X16705197Y-12345775D01*
X16705947Y-12342326D01*
X16709152Y-12333733D01*
X16709756Y-12328109D01*
X16709792Y-12327448D01*
X16709792Y-12287996D01*
X16614792Y-12287996D01*
X16564792Y-12287996D01*
X16469792Y-12287996D01*
X16306969Y-12287996D01*
X16309011Y-12286102D01*
X16309011Y-12286101D01*
X16309453Y-12285691D01*
X16310595Y-12284203D01*
X16356802Y-12237996D01*
X16469792Y-12237996D01*
X16564792Y-12237996D01*
X16564792Y-12152996D01*
X16614792Y-12152996D01*
X16614792Y-12237996D01*
X16709792Y-12237996D01*
X16709792Y-12198544D01*
X16709756Y-12197883D01*
X16709152Y-12192259D01*
X16704127Y-12178787D01*
X16695511Y-12167277D01*
X16684001Y-12158661D01*
X16670529Y-12153636D01*
X16664905Y-12153031D01*
X16664244Y-12152996D01*
X16614792Y-12152996D01*
X16564792Y-12152996D01*
X16515340Y-12152996D01*
X16514679Y-12153031D01*
X16509055Y-12153636D01*
X16495583Y-12158661D01*
X16484073Y-12167277D01*
X16475457Y-12178787D01*
X16470432Y-12192259D01*
X16469827Y-12197883D01*
X16469792Y-12198544D01*
X16469792Y-12237996D01*
X16356802Y-12237996D01*
X16837117Y-11757682D01*
X16843249Y-11754333D01*
X16845885Y-11754050D01*
X18341203Y-11754050D01*
X18347907Y-11756018D01*
X18349972Y-11757682D01*
X18504318Y-11912028D01*
X18507667Y-11918161D01*
X18507950Y-11920797D01*
X18507950Y-12012203D01*
X18505982Y-12018907D01*
X18504318Y-12020971D01*
X18415076Y-12110214D01*
X18408943Y-12113563D01*
X18406308Y-12113846D01*
X18387632Y-12113846D01*
X18380928Y-12111877D01*
X18376352Y-12106597D01*
X18375303Y-12100120D01*
X18375397Y-12099249D01*
X18375432Y-12098588D01*
X18375432Y-12094136D01*
X18204312Y-12094136D01*
X18204312Y-12098588D01*
X18204347Y-12099249D01*
X18204952Y-12104873D01*
X18209977Y-12118345D01*
X18218593Y-12129855D01*
X18229293Y-12137865D01*
X18233480Y-12143458D01*
X18234262Y-12147792D01*
X18234262Y-12176111D01*
X18235425Y-12181959D01*
X18239857Y-12188591D01*
X18246489Y-12193023D01*
X18252337Y-12194186D01*
X18252337Y-12194186D01*
X18257836Y-12194186D01*
X18264540Y-12196154D01*
X18264819Y-12196340D01*
X18270105Y-12199943D01*
X18278549Y-12202548D01*
X18283082Y-12203946D01*
X18283082Y-12203946D01*
X18372654Y-12203946D01*
X18379358Y-12205914D01*
X18383933Y-12211195D01*
X18385054Y-12216346D01*
X18385054Y-13977748D01*
X18383086Y-13984452D01*
X18381422Y-13986516D01*
X18107318Y-14260620D01*
X18106282Y-14261546D01*
X18103495Y-14263768D01*
X18100274Y-14268492D01*
X18100006Y-14268870D01*
X18096255Y-14273952D01*
X18096022Y-14274415D01*
X18094160Y-14280450D01*
X18094016Y-14280890D01*
X18091929Y-14286854D01*
X18091842Y-14287365D01*
X18091842Y-14293683D01*
X18091833Y-14294146D01*
X18091597Y-14300459D01*
X18091842Y-14302320D01*
X18091842Y-14517807D01*
X18089874Y-14524511D01*
X18084593Y-14529086D01*
X18077677Y-14530080D01*
X18077023Y-14529968D01*
X18068867Y-14528346D01*
X18068867Y-14528346D01*
X17979917Y-14528346D01*
X17979917Y-14528346D01*
X17974069Y-14529509D01*
X17967437Y-14533941D01*
X17963005Y-14540573D01*
X17961842Y-14546421D01*
X17961842Y-14677277D01*
X17959874Y-14683981D01*
X17958210Y-14686045D01*
X17864541Y-14779714D01*
X17858409Y-14783063D01*
X17855773Y-14783346D01*
X17699342Y-14783346D01*
X17692638Y-14781378D01*
X17688063Y-14776097D01*
X17686942Y-14770946D01*
X17686942Y-14546421D01*
X17685779Y-14540573D01*
X17681347Y-14533941D01*
X17674715Y-14529509D01*
X17668867Y-14528346D01*
X17668867Y-14528346D01*
X17579917Y-14528346D01*
X17579917Y-14528346D01*
X17572661Y-14529789D01*
X17565702Y-14529167D01*
X17560184Y-14524880D01*
X17557860Y-14518291D01*
X17557842Y-14517628D01*
X17557842Y-14044813D01*
X17558106Y-14042268D01*
X17558208Y-14041781D01*
X17558296Y-14041360D01*
X17557937Y-14038480D01*
X17557846Y-14037013D01*
X17557842Y-14036989D01*
X17557842Y-14036988D01*
X17557525Y-14035088D01*
X17557452Y-14034584D01*
X17557341Y-14033697D01*
X17556849Y-14029753D01*
X17556849Y-14029752D01*
X17556757Y-14029011D01*
X17556401Y-14028354D01*
X17556401Y-14028354D01*
X17554083Y-14024071D01*
X17553850Y-14023617D01*
X17551384Y-14018572D01*
X17547251Y-14014768D01*
X17546881Y-14014413D01*
X17461319Y-13928851D01*
X17457970Y-13922718D01*
X17458469Y-13915749D01*
X17462656Y-13910156D01*
X17469202Y-13907714D01*
X17473987Y-13908312D01*
X17488027Y-13912964D01*
X17497812Y-13913964D01*
X17498444Y-13913996D01*
X17501792Y-13913996D01*
X17501792Y-13836496D01*
X17551792Y-13836496D01*
X17551792Y-13913996D01*
X17555142Y-13913996D01*
X17555770Y-13913964D01*
X17565557Y-13912964D01*
X17581922Y-13907541D01*
X17596596Y-13898490D01*
X17608786Y-13886300D01*
X17617837Y-13871626D01*
X17623260Y-13855261D01*
X17624260Y-13845474D01*
X17624292Y-13844846D01*
X17624292Y-13836496D01*
X17551792Y-13836496D01*
X17501792Y-13836496D01*
X17429292Y-13836496D01*
X17429292Y-13844846D01*
X17429324Y-13845474D01*
X17430324Y-13855261D01*
X17434976Y-13869301D01*
X17435216Y-13876284D01*
X17431643Y-13882288D01*
X17425391Y-13885407D01*
X17418445Y-13884651D01*
X17414437Y-13881969D01*
X17318964Y-13786496D01*
X17429292Y-13786496D01*
X17501792Y-13786496D01*
X17501792Y-13708996D01*
X17551792Y-13708996D01*
X17551792Y-13786496D01*
X17624292Y-13786496D01*
X17624292Y-13778146D01*
X17624260Y-13777518D01*
X17623260Y-13767731D01*
X17617837Y-13751366D01*
X17608786Y-13736692D01*
X17596596Y-13724502D01*
X17581922Y-13715451D01*
X17565557Y-13710028D01*
X17555770Y-13709028D01*
X17555142Y-13708996D01*
X17551792Y-13708996D01*
X17501792Y-13708996D01*
X17498442Y-13708996D01*
X17497814Y-13709028D01*
X17488027Y-13710028D01*
X17471662Y-13715451D01*
X17456988Y-13724502D01*
X17444798Y-13736692D01*
X17435747Y-13751366D01*
X17430324Y-13767731D01*
X17429324Y-13777518D01*
X17429292Y-13778146D01*
X17429292Y-13786496D01*
X17318964Y-13786496D01*
X17079660Y-13547192D01*
X17078047Y-13545205D01*
X17077540Y-13544429D01*
X17075249Y-13542646D01*
X17074147Y-13541673D01*
X17072561Y-13540541D01*
X17072151Y-13540234D01*
X17067719Y-13536785D01*
X17062337Y-13535183D01*
X17061849Y-13535027D01*
X17056538Y-13533203D01*
X17050929Y-13533435D01*
X17050417Y-13533446D01*
X17042704Y-13533446D01*
X17036000Y-13531478D01*
X17032866Y-13528595D01*
X17030620Y-13525668D01*
X17018076Y-13516042D01*
X17003468Y-13509992D01*
X16987792Y-13507928D01*
X16972116Y-13509992D01*
X16957508Y-13516042D01*
X16944964Y-13525668D01*
X16935338Y-13538212D01*
X16929288Y-13552820D01*
X16927224Y-13568496D01*
X16929288Y-13584172D01*
X16935338Y-13598780D01*
X16944964Y-13611324D01*
X16952974Y-13617471D01*
X16957508Y-13620950D01*
X16972116Y-13627000D01*
X16987792Y-13629064D01*
X17003468Y-13627000D01*
X17018076Y-13620950D01*
X17029935Y-13611850D01*
X17036452Y-13609331D01*
X17043296Y-13610735D01*
X17046252Y-13612920D01*
X17173110Y-13739778D01*
X17176458Y-13745910D01*
X17175960Y-13752879D01*
X17171773Y-13758473D01*
X17165226Y-13760914D01*
X17164342Y-13760946D01*
X17146213Y-13760946D01*
X17143669Y-13760682D01*
X17142760Y-13760492D01*
X17139879Y-13760851D01*
X17138346Y-13760946D01*
X17068579Y-13760946D01*
X17060542Y-13762545D01*
X17051430Y-13768634D01*
X17045341Y-13777747D01*
X17043742Y-13785783D01*
X17043742Y-13806209D01*
X17045341Y-13814246D01*
X17050956Y-13822649D01*
X17053043Y-13829317D01*
X17051195Y-13836055D01*
X17049413Y-13838306D01*
X16971988Y-13915732D01*
X16970002Y-13917344D01*
X16969225Y-13917852D01*
X16967442Y-13920143D01*
X16966469Y-13921246D01*
X16965336Y-13922832D01*
X16965031Y-13923241D01*
X16964841Y-13923485D01*
X16961581Y-13927673D01*
X16959979Y-13933054D01*
X16959823Y-13933542D01*
X16957999Y-13938854D01*
X16958231Y-13944463D01*
X16958242Y-13944975D01*
X16958242Y-14060737D01*
X16956274Y-14067441D01*
X16950993Y-14072016D01*
X16944077Y-14073010D01*
X16938294Y-14070574D01*
X16935290Y-14068270D01*
X16921303Y-14062476D01*
X16913792Y-14061487D01*
X16913792Y-14315505D01*
X16913792Y-14315505D01*
X16921302Y-14314516D01*
X16935290Y-14308722D01*
X16938293Y-14306418D01*
X16944810Y-14303898D01*
X16951655Y-14305302D01*
X16956654Y-14310184D01*
X16958242Y-14316255D01*
X16958242Y-14431892D01*
X16957978Y-14434437D01*
X16957940Y-14434619D01*
X16957788Y-14435345D01*
X16957990Y-14436964D01*
X16958147Y-14438225D01*
X16958238Y-14439693D01*
X16958559Y-14441615D01*
X16958632Y-14442121D01*
X16959327Y-14447694D01*
X16962000Y-14452634D01*
X16962234Y-14453088D01*
X16964372Y-14457462D01*
X16964372Y-14457462D01*
X16964700Y-14458133D01*
X16965250Y-14458639D01*
X16965250Y-14458639D01*
X16968034Y-14461201D01*
X16968832Y-14461936D01*
X16969202Y-14462291D01*
X16980102Y-14473192D01*
X16988293Y-14481382D01*
X16991641Y-14487515D01*
X16991925Y-14490150D01*
X16991925Y-14595659D01*
X16989956Y-14602363D01*
X16988293Y-14604427D01*
X16826402Y-14766318D01*
X16820270Y-14769667D01*
X16817634Y-14769950D01*
X16386782Y-14769950D01*
X16380078Y-14767981D01*
X16379166Y-14767335D01*
X16378002Y-14766429D01*
X16375710Y-14764646D01*
X16374609Y-14763673D01*
X16373023Y-14762541D01*
X16372612Y-14762234D01*
X16368181Y-14758785D01*
X16362799Y-14757183D01*
X16362311Y-14757027D01*
X16357000Y-14755203D01*
X16351391Y-14755435D01*
X16350879Y-14755446D01*
X16294647Y-14755446D01*
X16292102Y-14755182D01*
X16291194Y-14754992D01*
X16288314Y-14755351D01*
X16286846Y-14755442D01*
X16284924Y-14755763D01*
X16284418Y-14755836D01*
X16278845Y-14756531D01*
X16273907Y-14759203D01*
X16273452Y-14759438D01*
X16268406Y-14761904D01*
X16266317Y-14764174D01*
X16264683Y-14765948D01*
X16258695Y-14769547D01*
X16255561Y-14769950D01*
X15981654Y-14769950D01*
X15974950Y-14767981D01*
X15972886Y-14766318D01*
X15908264Y-14701696D01*
X15906651Y-14699709D01*
X15906144Y-14698933D01*
X15903853Y-14697150D01*
X15902751Y-14696177D01*
X15901165Y-14695045D01*
X15900754Y-14694738D01*
X15896323Y-14691289D01*
X15890941Y-14689687D01*
X15890453Y-14689531D01*
X15885142Y-14687707D01*
X15879533Y-14687939D01*
X15879021Y-14687950D01*
X15833721Y-14687950D01*
X15827017Y-14685981D01*
X15822673Y-14681179D01*
X15819097Y-14674162D01*
X15810126Y-14665191D01*
X15798822Y-14659431D01*
X15789444Y-14657946D01*
X15770529Y-14657946D01*
X15763825Y-14655978D01*
X15759250Y-14650697D01*
X15758255Y-14643781D01*
X15761158Y-14637426D01*
X15761759Y-14636779D01*
X15810174Y-14588365D01*
X15816306Y-14585016D01*
X15823276Y-14585515D01*
X15828869Y-14589702D01*
X15831236Y-14595514D01*
X15833496Y-14612676D01*
X15839546Y-14627284D01*
X15849172Y-14639828D01*
X15854058Y-14643577D01*
X15861716Y-14649454D01*
X15876324Y-14655504D01*
X15889524Y-14657242D01*
X15892000Y-14657568D01*
X15892000Y-14657568D01*
X15892000Y-14657568D01*
X15907676Y-14655504D01*
X15922284Y-14649454D01*
X15934828Y-14639828D01*
X15938992Y-14634401D01*
X15944635Y-14630281D01*
X15948830Y-14629550D01*
X16122394Y-14629550D01*
X16123475Y-14629597D01*
X16127237Y-14629926D01*
X16130889Y-14628948D01*
X16131940Y-14628715D01*
X16135661Y-14628059D01*
X16135661Y-14628059D01*
X16135768Y-14628040D01*
X16138236Y-14627017D01*
X16138325Y-14626955D01*
X16138325Y-14626955D01*
X16141419Y-14624789D01*
X16142329Y-14624209D01*
X16145602Y-14622319D01*
X16148031Y-14619424D01*
X16148760Y-14618629D01*
X16312660Y-14454728D01*
X16318793Y-14451380D01*
X16325762Y-14451879D01*
X16331355Y-14456066D01*
X16333722Y-14461878D01*
X16333777Y-14462291D01*
X16334288Y-14466172D01*
X16340338Y-14480780D01*
X16349964Y-14493324D01*
X16362508Y-14502950D01*
X16362508Y-14502950D01*
X16377116Y-14509000D01*
X16387461Y-14510362D01*
X16393850Y-14513189D01*
X16397697Y-14519021D01*
X16398242Y-14522656D01*
X16398242Y-14595666D01*
X16396273Y-14602370D01*
X16393391Y-14605503D01*
X16387964Y-14609668D01*
X16378338Y-14622212D01*
X16372288Y-14636820D01*
X16370224Y-14652496D01*
X16372288Y-14668172D01*
X16378338Y-14682780D01*
X16387964Y-14695324D01*
X16399838Y-14704435D01*
X16400508Y-14704950D01*
X16415116Y-14711000D01*
X16430792Y-14713064D01*
X16446468Y-14711000D01*
X16461076Y-14704950D01*
X16473620Y-14695324D01*
X16483246Y-14682780D01*
X16489296Y-14668172D01*
X16491360Y-14652496D01*
X16489296Y-14636820D01*
X16483246Y-14622212D01*
X16473620Y-14609668D01*
X16472938Y-14609144D01*
X16468193Y-14605503D01*
X16464073Y-14599861D01*
X16463342Y-14595666D01*
X16463342Y-14544496D01*
X16538224Y-14544496D01*
X16540288Y-14560172D01*
X16546338Y-14574780D01*
X16555964Y-14587324D01*
X16565039Y-14594288D01*
X16568508Y-14596950D01*
X16583116Y-14603000D01*
X16598792Y-14605064D01*
X16614468Y-14603000D01*
X16629076Y-14596950D01*
X16635385Y-14592108D01*
X16641902Y-14589589D01*
X16642934Y-14589546D01*
X16843595Y-14589546D01*
X16850299Y-14591515D01*
X16851144Y-14592108D01*
X16855582Y-14595514D01*
X16860716Y-14599454D01*
X16875324Y-14605504D01*
X16891000Y-14607568D01*
X16906676Y-14605504D01*
X16921284Y-14599454D01*
X16933828Y-14589828D01*
X16943454Y-14577284D01*
X16949504Y-14562676D01*
X16951568Y-14547000D01*
X16949504Y-14531324D01*
X16943454Y-14516716D01*
X16941429Y-14514077D01*
X16933828Y-14504172D01*
X16921284Y-14494546D01*
X16906676Y-14488496D01*
X16891000Y-14486432D01*
X16875324Y-14488496D01*
X16860716Y-14494546D01*
X16857670Y-14496884D01*
X16851153Y-14499403D01*
X16850121Y-14499446D01*
X16642934Y-14499446D01*
X16636230Y-14497478D01*
X16635386Y-14496884D01*
X16629076Y-14492042D01*
X16629076Y-14492042D01*
X16629076Y-14492042D01*
X16614468Y-14485992D01*
X16598792Y-14483928D01*
X16583116Y-14485992D01*
X16568508Y-14492042D01*
X16555964Y-14501668D01*
X16546338Y-14514212D01*
X16540288Y-14528820D01*
X16538224Y-14544496D01*
X16463342Y-14544496D01*
X16463342Y-14486459D01*
X16463389Y-14485378D01*
X16463549Y-14483546D01*
X16463718Y-14481615D01*
X16463656Y-14481382D01*
X16462741Y-14477967D01*
X16462506Y-14476910D01*
X16462016Y-14474131D01*
X16461851Y-14473192D01*
X16461851Y-14473191D01*
X16461832Y-14473085D01*
X16460809Y-14470616D01*
X16460747Y-14470528D01*
X16460747Y-14470528D01*
X16458581Y-14467434D01*
X16458000Y-14466522D01*
X16455018Y-14461357D01*
X16455288Y-14461201D01*
X16453463Y-14458458D01*
X16453010Y-14453158D01*
X16453360Y-14450496D01*
X16451296Y-14434820D01*
X16445246Y-14420212D01*
X16443333Y-14417720D01*
X16435620Y-14407668D01*
X16423076Y-14398042D01*
X16408468Y-14391992D01*
X16408161Y-14391951D01*
X16404174Y-14391426D01*
X16397785Y-14388600D01*
X16393937Y-14382767D01*
X16393854Y-14375781D01*
X16397025Y-14370364D01*
X16421439Y-14345950D01*
X16470422Y-14296967D01*
X16471217Y-14296239D01*
X16474111Y-14293810D01*
X16476002Y-14290535D01*
X16476580Y-14289628D01*
X16478747Y-14286533D01*
X16478747Y-14286533D01*
X16478809Y-14286445D01*
X16479832Y-14283975D01*
X16479851Y-14283869D01*
X16479851Y-14283869D01*
X16480507Y-14280147D01*
X16480740Y-14279096D01*
X16481718Y-14275445D01*
X16481656Y-14274737D01*
X16481847Y-14271237D01*
X16482243Y-14269245D01*
X16483842Y-14261209D01*
X16483842Y-14115783D01*
X16482243Y-14107747D01*
X16476154Y-14098634D01*
X16467041Y-14092545D01*
X16463023Y-14091745D01*
X16459005Y-14090946D01*
X16438579Y-14090946D01*
X16430112Y-14092630D01*
X16424013Y-14094540D01*
X16417275Y-14092691D01*
X16417049Y-14092546D01*
X16409005Y-14090946D01*
X16388579Y-14090946D01*
X16380112Y-14092630D01*
X16374013Y-14094540D01*
X16367275Y-14092691D01*
X16367049Y-14092546D01*
X16359005Y-14090946D01*
X16338579Y-14090946D01*
X16330542Y-14092545D01*
X16321430Y-14098634D01*
X16315340Y-14107747D01*
X16313742Y-14115783D01*
X16313742Y-14261209D01*
X16314159Y-14263303D01*
X16313536Y-14270263D01*
X16310765Y-14274490D01*
X16302782Y-14282474D01*
X16296649Y-14285822D01*
X16289680Y-14285324D01*
X16284087Y-14281137D01*
X16281659Y-14274768D01*
X16281655Y-14274718D01*
X16281847Y-14271236D01*
X16282734Y-14266781D01*
X16283842Y-14261209D01*
X16283842Y-14115783D01*
X16282243Y-14107747D01*
X16276154Y-14098634D01*
X16267041Y-14092545D01*
X16263023Y-14091745D01*
X16259005Y-14090946D01*
X16238579Y-14090946D01*
X16230112Y-14092630D01*
X16224013Y-14094540D01*
X16217275Y-14092691D01*
X16217049Y-14092546D01*
X16209005Y-14090946D01*
X16188579Y-14090946D01*
X16180542Y-14092545D01*
X16171430Y-14098634D01*
X16165340Y-14107747D01*
X16163742Y-14115783D01*
X16163742Y-14143546D01*
X16161773Y-14150250D01*
X16156493Y-14154825D01*
X16151342Y-14155946D01*
X15788629Y-14155946D01*
X15781925Y-14153978D01*
X15779861Y-14152314D01*
X15595228Y-13967681D01*
X15591879Y-13961548D01*
X15591919Y-13960996D01*
X15879283Y-13960996D01*
X15880272Y-13968507D01*
X15886066Y-13982494D01*
X15895282Y-13994505D01*
X15907294Y-14003722D01*
X15921281Y-14009516D01*
X15932121Y-14010943D01*
X15932928Y-14010996D01*
X15991292Y-14010996D01*
X15991292Y-13960996D01*
X16021292Y-13960996D01*
X16021292Y-14010996D01*
X16079656Y-14010996D01*
X16080463Y-14010943D01*
X16091302Y-14009516D01*
X16105290Y-14003722D01*
X16117301Y-13994505D01*
X16126518Y-13982494D01*
X16132312Y-13968507D01*
X16133301Y-13960996D01*
X16021292Y-13960996D01*
X15991292Y-13960996D01*
X15879283Y-13960996D01*
X15591919Y-13960996D01*
X15592377Y-13954579D01*
X15596565Y-13948986D01*
X15600095Y-13947142D01*
X15612141Y-13943151D01*
X15626565Y-13934253D01*
X15629823Y-13930996D01*
X15879283Y-13930996D01*
X15879283Y-13930996D01*
X15991292Y-13930996D01*
X15991292Y-13880996D01*
X16021292Y-13880996D01*
X16021292Y-13930996D01*
X16133301Y-13930996D01*
X16133301Y-13930996D01*
X16132312Y-13923485D01*
X16126518Y-13909498D01*
X16117301Y-13897487D01*
X16105290Y-13888270D01*
X16091302Y-13882476D01*
X16080463Y-13881049D01*
X16079656Y-13880996D01*
X16021292Y-13880996D01*
X15991292Y-13880996D01*
X15932928Y-13880996D01*
X15932121Y-13881049D01*
X15921281Y-13882476D01*
X15907294Y-13888270D01*
X15895282Y-13897487D01*
X15886066Y-13909498D01*
X15880272Y-13923485D01*
X15879283Y-13930996D01*
X15629823Y-13930996D01*
X15638549Y-13922269D01*
X15647447Y-13907845D01*
X15652778Y-13891757D01*
X15653760Y-13882141D01*
X15653792Y-13881513D01*
X15653792Y-13876996D01*
X15546192Y-13876996D01*
X15539488Y-13875028D01*
X15534913Y-13869747D01*
X15533792Y-13864596D01*
X15533792Y-13754496D01*
X15583792Y-13754496D01*
X15583792Y-13826996D01*
X15653792Y-13826996D01*
X15653792Y-13822479D01*
X15653760Y-13821851D01*
X15652778Y-13812235D01*
X15647447Y-13796147D01*
X15638549Y-13781723D01*
X15626565Y-13769739D01*
X15612141Y-13760841D01*
X15596053Y-13755510D01*
X15586436Y-13754528D01*
X15585809Y-13754496D01*
X15583792Y-13754496D01*
X15533792Y-13754496D01*
X15531776Y-13754496D01*
X15531147Y-13754528D01*
X15521531Y-13755510D01*
X15505443Y-13760841D01*
X15491019Y-13769739D01*
X15479035Y-13781723D01*
X15470137Y-13796147D01*
X15464901Y-13811948D01*
X15460924Y-13817693D01*
X15454473Y-13820375D01*
X15447595Y-13819144D01*
X15444363Y-13816816D01*
X15425415Y-13797868D01*
X15424684Y-13797070D01*
X15422256Y-13794177D01*
X15418984Y-13792288D01*
X15418073Y-13791707D01*
X15414979Y-13789541D01*
X15414891Y-13789479D01*
X15412421Y-13788456D01*
X15408595Y-13787781D01*
X15407540Y-13787547D01*
X15403891Y-13786570D01*
X15400128Y-13786899D01*
X15399047Y-13786946D01*
X12894242Y-13786946D01*
X12887538Y-13784978D01*
X12882963Y-13779697D01*
X12881842Y-13774546D01*
X12881842Y-13767521D01*
X12880679Y-13761673D01*
X12876247Y-13755041D01*
X12869615Y-13750609D01*
X12863767Y-13749446D01*
X12863767Y-13749446D01*
X12669817Y-13749446D01*
X12669817Y-13749446D01*
X12663969Y-13750609D01*
X12657337Y-13755041D01*
X12652905Y-13761673D01*
X12651742Y-13767521D01*
X12651742Y-13871471D01*
X12652905Y-13877319D01*
X12657337Y-13883951D01*
X12663969Y-13888383D01*
X12669817Y-13889546D01*
X12669817Y-13889546D01*
X12863767Y-13889546D01*
X12866691Y-13888964D01*
X12869615Y-13888383D01*
X12876247Y-13883951D01*
X12880679Y-13877319D01*
X12881842Y-13871471D01*
X12881842Y-13864446D01*
X12883810Y-13857742D01*
X12889091Y-13853167D01*
X12894242Y-13852046D01*
X13915347Y-13852046D01*
X13922051Y-13854015D01*
X13926626Y-13859295D01*
X13927621Y-13866211D01*
X13927186Y-13868135D01*
X13923933Y-13878574D01*
X13923317Y-13885346D01*
X13923292Y-13885908D01*
X13923292Y-13893784D01*
X14103292Y-13893784D01*
X14103292Y-13885909D01*
X14103266Y-13885345D01*
X14102651Y-13878574D01*
X14099398Y-13868135D01*
X14099283Y-13861149D01*
X14102963Y-13855210D01*
X14109270Y-13852203D01*
X14111237Y-13852046D01*
X14560493Y-13852046D01*
X14567197Y-13854015D01*
X14571773Y-13859295D01*
X14572767Y-13866211D01*
X14570420Y-13871877D01*
X14562337Y-13882675D01*
X14557312Y-13896147D01*
X14556707Y-13901771D01*
X14556672Y-13902432D01*
X14556672Y-13907284D01*
X14682137Y-13907284D01*
X14688841Y-13909253D01*
X14693416Y-13914533D01*
X14694537Y-13919684D01*
X14694537Y-14007684D01*
X14696006Y-14007684D01*
X14702710Y-14009653D01*
X14707285Y-14014933D01*
X14708280Y-14021849D01*
X14705377Y-14028204D01*
X14704774Y-14028852D01*
X14699663Y-14033963D01*
X14698866Y-14034693D01*
X14695973Y-14037121D01*
X14694083Y-14040393D01*
X14693503Y-14041305D01*
X14691275Y-14044486D01*
X14690252Y-14046957D01*
X14689577Y-14050782D01*
X14689343Y-14051837D01*
X14688366Y-14055486D01*
X14688695Y-14059249D01*
X14688742Y-14060329D01*
X14688742Y-14099088D01*
X14686773Y-14105792D01*
X14686652Y-14105977D01*
X14683355Y-14110911D01*
X14682192Y-14116759D01*
X14682192Y-14242629D01*
X14683355Y-14248477D01*
X14685483Y-14251661D01*
X14687571Y-14258329D01*
X14685722Y-14265067D01*
X14684544Y-14266670D01*
X14683254Y-14268159D01*
X14677275Y-14281250D01*
X14675353Y-14294623D01*
X14675227Y-14295496D01*
X14675439Y-14296969D01*
X14677275Y-14309742D01*
X14683204Y-14322723D01*
X14683254Y-14322833D01*
X14687713Y-14327979D01*
X14690616Y-14334335D01*
X14690742Y-14336100D01*
X14690742Y-14358842D01*
X14688773Y-14365545D01*
X14687110Y-14367610D01*
X14674906Y-14379814D01*
X14668773Y-14383163D01*
X14666137Y-14383446D01*
X14656596Y-14383446D01*
X14642787Y-14387501D01*
X14630679Y-14395282D01*
X14621254Y-14406159D01*
X14615275Y-14419250D01*
X14613227Y-14433496D01*
X14615275Y-14447742D01*
X14621254Y-14460833D01*
X14630679Y-14471710D01*
X14630679Y-14471710D01*
X14630679Y-14471710D01*
X14641799Y-14478857D01*
X14646375Y-14484137D01*
X14647369Y-14491053D01*
X14644467Y-14497408D01*
X14643863Y-14498056D01*
X14575506Y-14566414D01*
X14569373Y-14569763D01*
X14566737Y-14570046D01*
X14303216Y-14570046D01*
X14297587Y-14568695D01*
X14287822Y-14563719D01*
X14278444Y-14562234D01*
X14217140Y-14562234D01*
X14212451Y-14562977D01*
X14207762Y-14563719D01*
X14207761Y-14563719D01*
X14207761Y-14563720D01*
X14196458Y-14569479D01*
X14191690Y-14574247D01*
X14185557Y-14577595D01*
X14185228Y-14577662D01*
X14184396Y-14577819D01*
X14183939Y-14577897D01*
X14177692Y-14578839D01*
X14177200Y-14579001D01*
X14171612Y-14581954D01*
X14171201Y-14582161D01*
X14168122Y-14583645D01*
X14165511Y-14584902D01*
X14165087Y-14585203D01*
X14160622Y-14589668D01*
X14160288Y-14589989D01*
X14155655Y-14594288D01*
X14154513Y-14595777D01*
X13929875Y-14820414D01*
X13923743Y-14823763D01*
X13921107Y-14824046D01*
X13761988Y-14824046D01*
X13755285Y-14822078D01*
X13753220Y-14820414D01*
X13637242Y-14704435D01*
X13720242Y-14704435D01*
X13720605Y-14706729D01*
X13721727Y-14713814D01*
X13721727Y-14713815D01*
X13721727Y-14713815D01*
X13727487Y-14725118D01*
X13736458Y-14734089D01*
X13736458Y-14734089D01*
X13747762Y-14739849D01*
X13757140Y-14741334D01*
X13803444Y-14741334D01*
X13812822Y-14739849D01*
X13824126Y-14734089D01*
X13833097Y-14725118D01*
X13838857Y-14713814D01*
X13840342Y-14704436D01*
X13840342Y-14643132D01*
X13838857Y-14633754D01*
X13835560Y-14627284D01*
X13833097Y-14622450D01*
X13829275Y-14618628D01*
X13824126Y-14613479D01*
X13819612Y-14611179D01*
X13814533Y-14606382D01*
X13812842Y-14600131D01*
X13812842Y-14497903D01*
X13814810Y-14491199D01*
X13816474Y-14489135D01*
X13857143Y-14448466D01*
X13863275Y-14445117D01*
X13865911Y-14444834D01*
X13871988Y-14444834D01*
X13885797Y-14440779D01*
X13897905Y-14432998D01*
X13907330Y-14422121D01*
X13913308Y-14409030D01*
X13915357Y-14394784D01*
X13913308Y-14380538D01*
X13910798Y-14375042D01*
X13907330Y-14367447D01*
X13897905Y-14356570D01*
X13897905Y-14356570D01*
X13885797Y-14348789D01*
X13871988Y-14344734D01*
X13857596Y-14344734D01*
X13843787Y-14348789D01*
X13831679Y-14356570D01*
X13822254Y-14367447D01*
X13816275Y-14380538D01*
X13814054Y-14395992D01*
X13811151Y-14402347D01*
X13810548Y-14402995D01*
X13758663Y-14454880D01*
X13757866Y-14455610D01*
X13754973Y-14458038D01*
X13753083Y-14461310D01*
X13752503Y-14462222D01*
X13750275Y-14465403D01*
X13749252Y-14467874D01*
X13748577Y-14471699D01*
X13748343Y-14472754D01*
X13747365Y-14476403D01*
X13747695Y-14480166D01*
X13747742Y-14481247D01*
X13747742Y-14600131D01*
X13745773Y-14606835D01*
X13740972Y-14611179D01*
X13736458Y-14613479D01*
X13727487Y-14622450D01*
X13721727Y-14633754D01*
X13720242Y-14643132D01*
X13720242Y-14704435D01*
X13637242Y-14704435D01*
X13525219Y-14592413D01*
X13521870Y-14586280D01*
X13521587Y-14583645D01*
X13521587Y-14512134D01*
X13523555Y-14505430D01*
X13528836Y-14500855D01*
X13533987Y-14499734D01*
X13541377Y-14499734D01*
X13544580Y-14499097D01*
X13547225Y-14498571D01*
X13553857Y-14494139D01*
X13558289Y-14487507D01*
X13559452Y-14481659D01*
X13559452Y-14426909D01*
X13559440Y-14426848D01*
X13558289Y-14421061D01*
X13553857Y-14414429D01*
X13547225Y-14409997D01*
X13541377Y-14408834D01*
X13541377Y-14408834D01*
X13411697Y-14408834D01*
X13411697Y-14408834D01*
X13405849Y-14409997D01*
X13399217Y-14414429D01*
X13394785Y-14421061D01*
X13393622Y-14426909D01*
X13393622Y-14481659D01*
X13394785Y-14487507D01*
X13399217Y-14494139D01*
X13405849Y-14498571D01*
X13411697Y-14499734D01*
X13411697Y-14499734D01*
X13419087Y-14499734D01*
X13425791Y-14501703D01*
X13430366Y-14506983D01*
X13431487Y-14512134D01*
X13431487Y-14604215D01*
X13431409Y-14605603D01*
X13431010Y-14609144D01*
X13431395Y-14611179D01*
X13432040Y-14614589D01*
X13432073Y-14614760D01*
X13432150Y-14615218D01*
X13433092Y-14621466D01*
X13433253Y-14621956D01*
X13436206Y-14627542D01*
X13436415Y-14627956D01*
X13439155Y-14633647D01*
X13439455Y-14634070D01*
X13443922Y-14638536D01*
X13444243Y-14638870D01*
X13448541Y-14643502D01*
X13450030Y-14644644D01*
X13704055Y-14898670D01*
X13704982Y-14899707D01*
X13707204Y-14902493D01*
X13711926Y-14905712D01*
X13712304Y-14905980D01*
X13717389Y-14909733D01*
X13717850Y-14909966D01*
X13718425Y-14910143D01*
X13718425Y-14910143D01*
X13723892Y-14911830D01*
X13724326Y-14911972D01*
X13729722Y-14913861D01*
X13729722Y-14913861D01*
X13730291Y-14914060D01*
X13730799Y-14914146D01*
X13731402Y-14914146D01*
X13737118Y-14914146D01*
X13737582Y-14914155D01*
X13743293Y-14914368D01*
X13743293Y-14914368D01*
X13743895Y-14914391D01*
X13745755Y-14914146D01*
X13941678Y-14914146D01*
X13943066Y-14914224D01*
X13946607Y-14914623D01*
X13946607Y-14914623D01*
X13946607Y-14914623D01*
X13952227Y-14913560D01*
X13952676Y-14913483D01*
X13958333Y-14912631D01*
X13958333Y-14912631D01*
X13958931Y-14912541D01*
X13959417Y-14912381D01*
X13959951Y-14912098D01*
X13959951Y-14912098D01*
X13965008Y-14909425D01*
X13965417Y-14909219D01*
X13970568Y-14906739D01*
X13970568Y-14906738D01*
X13971112Y-14906477D01*
X13971531Y-14906179D01*
X13971957Y-14905753D01*
X13971958Y-14905753D01*
X13976004Y-14901706D01*
X13976330Y-14901392D01*
X13980523Y-14897502D01*
X13980523Y-14897501D01*
X13980965Y-14897091D01*
X13982107Y-14895603D01*
X14194170Y-14683540D01*
X14200303Y-14680191D01*
X14205815Y-14680586D01*
X14205822Y-14680541D01*
X14206335Y-14680623D01*
X14207272Y-14680690D01*
X14207561Y-14680817D01*
X14207761Y-14680849D01*
X14207762Y-14680849D01*
X14217140Y-14682334D01*
X14278444Y-14682334D01*
X14287822Y-14680849D01*
X14299126Y-14675089D01*
X14304268Y-14669947D01*
X14309486Y-14664730D01*
X14309625Y-14664868D01*
X14312488Y-14661837D01*
X14318739Y-14660146D01*
X14552595Y-14660146D01*
X14559299Y-14662115D01*
X14561363Y-14663778D01*
X14580113Y-14682528D01*
X14583462Y-14688660D01*
X14583667Y-14692684D01*
X14583473Y-14694407D01*
X14583805Y-14696162D01*
X14584476Y-14699709D01*
X14584536Y-14700023D01*
X14584613Y-14700481D01*
X14585555Y-14706729D01*
X14585716Y-14707219D01*
X14588669Y-14712805D01*
X14588878Y-14713219D01*
X14591618Y-14718910D01*
X14591918Y-14719333D01*
X14596385Y-14723799D01*
X14596706Y-14724133D01*
X14601004Y-14728765D01*
X14602493Y-14729907D01*
X14675032Y-14802446D01*
X14746724Y-14874138D01*
X14750072Y-14880270D01*
X14750249Y-14881288D01*
X14751288Y-14889172D01*
X14756348Y-14901389D01*
X14757338Y-14903780D01*
X14766964Y-14916324D01*
X14775263Y-14922692D01*
X14779508Y-14925950D01*
X14794116Y-14932000D01*
X14809792Y-14934064D01*
X14825468Y-14932000D01*
X14840076Y-14925950D01*
X14852620Y-14916324D01*
X14862246Y-14903780D01*
X14868296Y-14889172D01*
X14870360Y-14873496D01*
X14868296Y-14857820D01*
X14862246Y-14843212D01*
X14860168Y-14840504D01*
X14852620Y-14830668D01*
X14840076Y-14821042D01*
X14828361Y-14816190D01*
X14822921Y-14811806D01*
X14820715Y-14805177D01*
X14822443Y-14798407D01*
X14827556Y-14793646D01*
X14833107Y-14792334D01*
X15060829Y-14792334D01*
X15061910Y-14792381D01*
X15065673Y-14792710D01*
X15069324Y-14791732D01*
X15070375Y-14791499D01*
X15074096Y-14790843D01*
X15074097Y-14790843D01*
X15074203Y-14790824D01*
X15076672Y-14789801D01*
X15076760Y-14789739D01*
X15076760Y-14789739D01*
X15079854Y-14787573D01*
X15080764Y-14786993D01*
X15084037Y-14785103D01*
X15086467Y-14782208D01*
X15087196Y-14781413D01*
X15356143Y-14512466D01*
X15362275Y-14509117D01*
X15364911Y-14508834D01*
X15429139Y-14508834D01*
X15435842Y-14510803D01*
X15440187Y-14515605D01*
X15442487Y-14520118D01*
X15451458Y-14529089D01*
X15451458Y-14529089D01*
X15462762Y-14534849D01*
X15472140Y-14536334D01*
X15488985Y-14536334D01*
X15495689Y-14538302D01*
X15500264Y-14543583D01*
X15501259Y-14550499D01*
X15498356Y-14556854D01*
X15497753Y-14557502D01*
X14875212Y-15180043D01*
X14869080Y-15183391D01*
X14862111Y-15182893D01*
X14856607Y-15178823D01*
X14856053Y-15178102D01*
X14856053Y-15178102D01*
X14856053Y-15178102D01*
X14843509Y-15168477D01*
X14828901Y-15162426D01*
X14813225Y-15160362D01*
X14797549Y-15162426D01*
X14782941Y-15168477D01*
X14770397Y-15178102D01*
X14760771Y-15190646D01*
X14754721Y-15205254D01*
X14752657Y-15220931D01*
X14754721Y-15236607D01*
X14760771Y-15251215D01*
X14770397Y-15263759D01*
X14778151Y-15269708D01*
X14782271Y-15275351D01*
X14782687Y-15282326D01*
X14779265Y-15288418D01*
X14773094Y-15291693D01*
X14770602Y-15291946D01*
X14547547Y-15291946D01*
X14540843Y-15289978D01*
X14536268Y-15284697D01*
X14535147Y-15279546D01*
X14535147Y-15277284D01*
X14309417Y-15277284D01*
X14309417Y-15279546D01*
X14307448Y-15286250D01*
X14302168Y-15290825D01*
X14297017Y-15291946D01*
X14288767Y-15291946D01*
X14282063Y-15289978D01*
X14277488Y-15284697D01*
X14276473Y-15281165D01*
X14276296Y-15279820D01*
X14270246Y-15265212D01*
X14266168Y-15259897D01*
X14260620Y-15252668D01*
X14248076Y-15243042D01*
X14238776Y-15239190D01*
X14233335Y-15234806D01*
X14231129Y-15228177D01*
X14232857Y-15221407D01*
X14237970Y-15216646D01*
X14243521Y-15215334D01*
X14266444Y-15215334D01*
X14275822Y-15213849D01*
X14287126Y-15208089D01*
X14288936Y-15206279D01*
X14295068Y-15202931D01*
X14302037Y-15203429D01*
X14307630Y-15207616D01*
X14310072Y-15214163D01*
X14310033Y-15216373D01*
X14309452Y-15221772D01*
X14309417Y-15222432D01*
X14309417Y-15227284D01*
X14535147Y-15227284D01*
X14535147Y-15222432D01*
X14535111Y-15221771D01*
X14534507Y-15216147D01*
X14529482Y-15202675D01*
X14520866Y-15191165D01*
X14509356Y-15182549D01*
X14506920Y-15181640D01*
X14501326Y-15177453D01*
X14498885Y-15170907D01*
X14500370Y-15164079D01*
X14500943Y-15163133D01*
X14504034Y-15158507D01*
X14505197Y-15152659D01*
X14505197Y-15097909D01*
X14504034Y-15092061D01*
X14500801Y-15087223D01*
X14499602Y-15085429D01*
X14492970Y-15080997D01*
X14487122Y-15079834D01*
X14487122Y-15079834D01*
X14357442Y-15079834D01*
X14357442Y-15079834D01*
X14351594Y-15080997D01*
X14344962Y-15085429D01*
X14343763Y-15087223D01*
X14338401Y-15091704D01*
X14333453Y-15092734D01*
X14280742Y-15092734D01*
X14274038Y-15090766D01*
X14269463Y-15085485D01*
X14268342Y-15080334D01*
X14268342Y-15060259D01*
X14270310Y-15053555D01*
X14275112Y-15049210D01*
X14275822Y-15048849D01*
X14287126Y-15043089D01*
X14296097Y-15034118D01*
X14301857Y-15022814D01*
X14303342Y-15013436D01*
X14303342Y-14967132D01*
X14301857Y-14957754D01*
X14299088Y-14952321D01*
X14296097Y-14946450D01*
X14287126Y-14937479D01*
X14275112Y-14931358D01*
X14270033Y-14926560D01*
X14268342Y-14920309D01*
X14268342Y-14859524D01*
X14270310Y-14852821D01*
X14275591Y-14848245D01*
X14278802Y-14847277D01*
X14287822Y-14845849D01*
X14299126Y-14840089D01*
X14308097Y-14831118D01*
X14313857Y-14819814D01*
X14315342Y-14810436D01*
X14315342Y-14764132D01*
X14313857Y-14754754D01*
X14308298Y-14743844D01*
X14308097Y-14743450D01*
X14299126Y-14734479D01*
X14287822Y-14728719D01*
X14278444Y-14727234D01*
X14217140Y-14727234D01*
X14212451Y-14727977D01*
X14207762Y-14728719D01*
X14207761Y-14728719D01*
X14207761Y-14728720D01*
X14196458Y-14734479D01*
X14187487Y-14743450D01*
X14181727Y-14754754D01*
X14180242Y-14764132D01*
X14180242Y-14810435D01*
X14180242Y-14810436D01*
X14181727Y-14819814D01*
X14181727Y-14819815D01*
X14181727Y-14819815D01*
X14187487Y-14831118D01*
X14196457Y-14840089D01*
X14196458Y-14840089D01*
X14196458Y-14840089D01*
X14196471Y-14840096D01*
X14201551Y-14844893D01*
X14203242Y-14851144D01*
X14203242Y-14920309D01*
X14201273Y-14927013D01*
X14196471Y-14931358D01*
X14184458Y-14937479D01*
X14175487Y-14946450D01*
X14169727Y-14957754D01*
X14168242Y-14967132D01*
X14168242Y-15013435D01*
X14168242Y-15013436D01*
X14169727Y-15022814D01*
X14169727Y-15022815D01*
X14169727Y-15022815D01*
X14175487Y-15034118D01*
X14184458Y-15043089D01*
X14189278Y-15045545D01*
X14195762Y-15048849D01*
X14195762Y-15048849D01*
X14196471Y-15049210D01*
X14201551Y-15054008D01*
X14203242Y-15060259D01*
X14203242Y-15085309D01*
X14201273Y-15092013D01*
X14196471Y-15096358D01*
X14184458Y-15102479D01*
X14175487Y-15111450D01*
X14169727Y-15122754D01*
X14168242Y-15132132D01*
X14168242Y-15178435D01*
X14168488Y-15179990D01*
X14169727Y-15187814D01*
X14169727Y-15187815D01*
X14169727Y-15187815D01*
X14175487Y-15199118D01*
X14184458Y-15208089D01*
X14184458Y-15208089D01*
X14195762Y-15213849D01*
X14196217Y-15213921D01*
X14197350Y-15214100D01*
X14203663Y-15217093D01*
X14207357Y-15223024D01*
X14207257Y-15230011D01*
X14203396Y-15235834D01*
X14200155Y-15237804D01*
X14187508Y-15243042D01*
X14174964Y-15252668D01*
X14165338Y-15265212D01*
X14159288Y-15279820D01*
X14157224Y-15295496D01*
X14159288Y-15311172D01*
X14165338Y-15325780D01*
X14174964Y-15338324D01*
X14187508Y-15347950D01*
X14202116Y-15354000D01*
X14215728Y-15355792D01*
X14217792Y-15356064D01*
X14217792Y-15356064D01*
X14217792Y-15356064D01*
X14228747Y-15354622D01*
X14233306Y-15355333D01*
X14233334Y-15355175D01*
X14235487Y-15355555D01*
X14235487Y-15355555D01*
X14239206Y-15356211D01*
X14240263Y-15356445D01*
X14243911Y-15357422D01*
X14243911Y-15357422D01*
X14243911Y-15357422D01*
X14247674Y-15357093D01*
X14248755Y-15357046D01*
X14919491Y-15357046D01*
X14926195Y-15359015D01*
X14930771Y-15364295D01*
X14931765Y-15371211D01*
X14928863Y-15377566D01*
X14928260Y-15378214D01*
X14914160Y-15392314D01*
X14908027Y-15395663D01*
X14905391Y-15395946D01*
X14096411Y-15395946D01*
X14089707Y-15393978D01*
X14087643Y-15392314D01*
X12793613Y-14098284D01*
X13888182Y-14098284D01*
X13888182Y-14103136D01*
X13888217Y-14103797D01*
X13888822Y-14109421D01*
X13893847Y-14122893D01*
X13902463Y-14134403D01*
X13913973Y-14143019D01*
X13916409Y-14143928D01*
X13922002Y-14148115D01*
X13924444Y-14154661D01*
X13922959Y-14161489D01*
X13922386Y-14162435D01*
X13919295Y-14167061D01*
X13918132Y-14172909D01*
X13918132Y-14227659D01*
X13919295Y-14233507D01*
X13923727Y-14240139D01*
X13930359Y-14244571D01*
X13936207Y-14245734D01*
X13936207Y-14245734D01*
X14065887Y-14245734D01*
X14068811Y-14245152D01*
X14071735Y-14244571D01*
X14078367Y-14240139D01*
X14078367Y-14240139D01*
X14079566Y-14238345D01*
X14084928Y-14233864D01*
X14089876Y-14232834D01*
X14315008Y-14232834D01*
X14318217Y-14233256D01*
X14319911Y-14233710D01*
X14323674Y-14233381D01*
X14324755Y-14233334D01*
X14534841Y-14233334D01*
X14541545Y-14235303D01*
X14542994Y-14236558D01*
X14550787Y-14241566D01*
X14555787Y-14244779D01*
X14569596Y-14248834D01*
X14583988Y-14248834D01*
X14597797Y-14244779D01*
X14609905Y-14236998D01*
X14619330Y-14226121D01*
X14625308Y-14213030D01*
X14627357Y-14198784D01*
X14625308Y-14184538D01*
X14619330Y-14171447D01*
X14619330Y-14171447D01*
X14619330Y-14171447D01*
X14609905Y-14160570D01*
X14609905Y-14160570D01*
X14597797Y-14152789D01*
X14583988Y-14148734D01*
X14569596Y-14148734D01*
X14555787Y-14152789D01*
X14543679Y-14160570D01*
X14542063Y-14162435D01*
X14540746Y-14163954D01*
X14534869Y-14167732D01*
X14531375Y-14168234D01*
X14330076Y-14168234D01*
X14326867Y-14167812D01*
X14325173Y-14167358D01*
X14321410Y-14167687D01*
X14320329Y-14167734D01*
X14090587Y-14167734D01*
X14083883Y-14165766D01*
X14079307Y-14160485D01*
X14078313Y-14153569D01*
X14081215Y-14147214D01*
X14086253Y-14143716D01*
X14088121Y-14143019D01*
X14099631Y-14134403D01*
X14108247Y-14122893D01*
X14113272Y-14109421D01*
X14113876Y-14103797D01*
X14113912Y-14103136D01*
X14113912Y-14098284D01*
X13888182Y-14098284D01*
X12793613Y-14098284D01*
X12747196Y-14051868D01*
X12746465Y-14051070D01*
X12744128Y-14048284D01*
X13888182Y-14048284D01*
X13976047Y-14048284D01*
X14026047Y-14048284D01*
X14113912Y-14048284D01*
X14113912Y-14043432D01*
X14113876Y-14042771D01*
X14113272Y-14037147D01*
X14108247Y-14023675D01*
X14099631Y-14012165D01*
X14091845Y-14006337D01*
X14087658Y-14000743D01*
X14087159Y-13993774D01*
X14088664Y-13989995D01*
X14097594Y-13975224D01*
X14102651Y-13958995D01*
X14102806Y-13957284D01*
X14556672Y-13957284D01*
X14556672Y-13962136D01*
X14556707Y-13962797D01*
X14557312Y-13968421D01*
X14562337Y-13981893D01*
X14570953Y-13993403D01*
X14582463Y-14002019D01*
X14595935Y-14007044D01*
X14601559Y-14007649D01*
X14602220Y-14007684D01*
X14644537Y-14007684D01*
X14644537Y-13957284D01*
X14556672Y-13957284D01*
X14102806Y-13957284D01*
X14103266Y-13952222D01*
X14103292Y-13951660D01*
X14103292Y-13943784D01*
X14038292Y-13943784D01*
X14038292Y-14007884D01*
X14036323Y-14014588D01*
X14031043Y-14019163D01*
X14026090Y-14020241D01*
X14026047Y-14020284D01*
X14026047Y-14048284D01*
X13976047Y-14048284D01*
X13976047Y-14006284D01*
X13978015Y-13999580D01*
X13983296Y-13995005D01*
X13988249Y-13993927D01*
X13988292Y-13993884D01*
X13988292Y-13943784D01*
X13923292Y-13943784D01*
X13923292Y-13951659D01*
X13923318Y-13952223D01*
X13923933Y-13958994D01*
X13928990Y-13975224D01*
X13932459Y-13980962D01*
X13934243Y-13987718D01*
X13932091Y-13994365D01*
X13926687Y-13998794D01*
X13926181Y-13998995D01*
X13913973Y-14003549D01*
X13902463Y-14012165D01*
X13893847Y-14023675D01*
X13888822Y-14037147D01*
X13888217Y-14042771D01*
X13888182Y-14043432D01*
X13888182Y-14048284D01*
X12744128Y-14048284D01*
X12744037Y-14048177D01*
X12740766Y-14046288D01*
X12739855Y-14045707D01*
X12736760Y-14043541D01*
X12736672Y-14043479D01*
X12734203Y-14042456D01*
X12730377Y-14041781D01*
X12729322Y-14041547D01*
X12725673Y-14040570D01*
X12721910Y-14040899D01*
X12720829Y-14040946D01*
X12564242Y-14040946D01*
X12557538Y-14038978D01*
X12552963Y-14033697D01*
X12551842Y-14028546D01*
X12551842Y-14021521D01*
X12550679Y-14015673D01*
X12546247Y-14009041D01*
X12539615Y-14004609D01*
X12533767Y-14003446D01*
X12533767Y-14003446D01*
X12340423Y-14003446D01*
X12333719Y-14001478D01*
X12329144Y-13996197D01*
X12328023Y-13991097D01*
X12327843Y-13947142D01*
X12326618Y-13647997D01*
X12328559Y-13641285D01*
X12333821Y-13636688D01*
X12339018Y-13635546D01*
X12533767Y-13635546D01*
X12535229Y-13635255D01*
X12539615Y-13634383D01*
X12546247Y-13629951D01*
X12546247Y-13629951D01*
X12546581Y-13629728D01*
X12553248Y-13627641D01*
X12559986Y-13629489D01*
X12562238Y-13631270D01*
X12568595Y-13637628D01*
X12569326Y-13638425D01*
X12571754Y-13641319D01*
X12574159Y-13642708D01*
X12575026Y-13643208D01*
X12575938Y-13643789D01*
X12579032Y-13645955D01*
X12579032Y-13645955D01*
X12579120Y-13646017D01*
X12581589Y-13647040D01*
X12581695Y-13647059D01*
X12581695Y-13647059D01*
X12585414Y-13647714D01*
X12586471Y-13647949D01*
X12590119Y-13648926D01*
X12590119Y-13648926D01*
X12590119Y-13648926D01*
X12593882Y-13648597D01*
X12594963Y-13648550D01*
X15870037Y-13648550D01*
X15871118Y-13648597D01*
X15874881Y-13648926D01*
X15878532Y-13647948D01*
X15879583Y-13647715D01*
X15883304Y-13647059D01*
X15883305Y-13647059D01*
X15883411Y-13647040D01*
X15885880Y-13646017D01*
X15885968Y-13645955D01*
X15885968Y-13645955D01*
X15889062Y-13643789D01*
X15889972Y-13643209D01*
X15893245Y-13641319D01*
X15895675Y-13638424D01*
X15896404Y-13637629D01*
X15949355Y-13584678D01*
X15955487Y-13581329D01*
X15958123Y-13581046D01*
X16079005Y-13581046D01*
X16079005Y-13581046D01*
X16087041Y-13579448D01*
X16096154Y-13573358D01*
X16102243Y-13564246D01*
X16103842Y-13556209D01*
X16103842Y-13535783D01*
X16102243Y-13527747D01*
X16102243Y-13527746D01*
X16102158Y-13527316D01*
X16100248Y-13521217D01*
X16102097Y-13514479D01*
X16102242Y-13514253D01*
X16102243Y-13514246D01*
X16102243Y-13514246D01*
X16103842Y-13506209D01*
X16103842Y-13485783D01*
X16102243Y-13477747D01*
X16102243Y-13477746D01*
X16102158Y-13477316D01*
X16100248Y-13471217D01*
X16102097Y-13464479D01*
X16102242Y-13464253D01*
X16102243Y-13464246D01*
X16102243Y-13464246D01*
X16103842Y-13456209D01*
X16103842Y-13435783D01*
X16102243Y-13427747D01*
X16102243Y-13427746D01*
X16102158Y-13427316D01*
X16100248Y-13421217D01*
X16102097Y-13414479D01*
X16102242Y-13414253D01*
X16102243Y-13414246D01*
X16102243Y-13414246D01*
X16103842Y-13406209D01*
X16103842Y-13385783D01*
X16102243Y-13377747D01*
X16099453Y-13373570D01*
X16098725Y-13372481D01*
X16096638Y-13365814D01*
X16098486Y-13359076D01*
X16103684Y-13354407D01*
X16104291Y-13354136D01*
X16105290Y-13353722D01*
X16117301Y-13344505D01*
X16126518Y-13332494D01*
X16132312Y-13318507D01*
X16133301Y-13310996D01*
X15879283Y-13310996D01*
X15880272Y-13318507D01*
X15886066Y-13332494D01*
X15895252Y-13344465D01*
X15897771Y-13350982D01*
X15896367Y-13357827D01*
X15891486Y-13362826D01*
X15888625Y-13363991D01*
X15888417Y-13364047D01*
X15887359Y-13364281D01*
X15883534Y-13364956D01*
X15881064Y-13365979D01*
X15877882Y-13368207D01*
X15876971Y-13368787D01*
X15873699Y-13370677D01*
X15871270Y-13373570D01*
X15870540Y-13374368D01*
X15830090Y-13414818D01*
X15823957Y-13418167D01*
X15821322Y-13418450D01*
X15654037Y-13418450D01*
X15647333Y-13416481D01*
X15642757Y-13411201D01*
X15641763Y-13404285D01*
X15644665Y-13397930D01*
X15650543Y-13394152D01*
X15652777Y-13393714D01*
X15655052Y-13393482D01*
X15671141Y-13388151D01*
X15685565Y-13379253D01*
X15697549Y-13367269D01*
X15706447Y-13352845D01*
X15711778Y-13336757D01*
X15712760Y-13327141D01*
X15712792Y-13326513D01*
X15712792Y-13321996D01*
X15522792Y-13321996D01*
X15522792Y-13326513D01*
X15522824Y-13327141D01*
X15523806Y-13336757D01*
X15529137Y-13352845D01*
X15538035Y-13367269D01*
X15550019Y-13379253D01*
X15564443Y-13388151D01*
X15580531Y-13393482D01*
X15582807Y-13393714D01*
X15589276Y-13396354D01*
X15593291Y-13402072D01*
X15593578Y-13409053D01*
X15590044Y-13415081D01*
X15583813Y-13418241D01*
X15581547Y-13418450D01*
X15336845Y-13418450D01*
X15330141Y-13416481D01*
X15328077Y-13414818D01*
X15194255Y-13280996D01*
X15879283Y-13280996D01*
X15879283Y-13280996D01*
X15991292Y-13280996D01*
X15991292Y-13230996D01*
X16021292Y-13230996D01*
X16021292Y-13280996D01*
X16133301Y-13280996D01*
X16133301Y-13280996D01*
X16132312Y-13273485D01*
X16126518Y-13259498D01*
X16117301Y-13247487D01*
X16105290Y-13238270D01*
X16091302Y-13232476D01*
X16080463Y-13231049D01*
X16079656Y-13230996D01*
X16021292Y-13230996D01*
X15991292Y-13230996D01*
X15932928Y-13230996D01*
X15932121Y-13231049D01*
X15921281Y-13232476D01*
X15907294Y-13238270D01*
X15895282Y-13247487D01*
X15886066Y-13259498D01*
X15880272Y-13273485D01*
X15879283Y-13280996D01*
X15194255Y-13280996D01*
X15185255Y-13271996D01*
X15522792Y-13271996D01*
X15592792Y-13271996D01*
X15592792Y-13199496D01*
X15642792Y-13199496D01*
X15642792Y-13271996D01*
X15712792Y-13271996D01*
X15712792Y-13267479D01*
X15712760Y-13266851D01*
X15711778Y-13257235D01*
X15706447Y-13241147D01*
X15697549Y-13226723D01*
X15685565Y-13214739D01*
X15671141Y-13205841D01*
X15655053Y-13200510D01*
X15645436Y-13199528D01*
X15644809Y-13199496D01*
X15642792Y-13199496D01*
X15592792Y-13199496D01*
X15590776Y-13199496D01*
X15590147Y-13199528D01*
X15580531Y-13200510D01*
X15564443Y-13205841D01*
X15550019Y-13214739D01*
X15538035Y-13226723D01*
X15529137Y-13241147D01*
X15523806Y-13257235D01*
X15522824Y-13266851D01*
X15522792Y-13267479D01*
X15522792Y-13271996D01*
X15185255Y-13271996D01*
X15175188Y-13261929D01*
X15171840Y-13255797D01*
X15172338Y-13248828D01*
X15176525Y-13243234D01*
X15183072Y-13240793D01*
X15189899Y-13242278D01*
X15190941Y-13242916D01*
X15191232Y-13243114D01*
X15191610Y-13243382D01*
X15192118Y-13243757D01*
X15196693Y-13247134D01*
X15197153Y-13247366D01*
X15197729Y-13247543D01*
X15197729Y-13247543D01*
X15200231Y-13248315D01*
X15203194Y-13249229D01*
X15203633Y-13249373D01*
X15209026Y-13251261D01*
X15209026Y-13251261D01*
X15209595Y-13251460D01*
X15210103Y-13251546D01*
X15210706Y-13251546D01*
X15216422Y-13251546D01*
X15216886Y-13251555D01*
X15222597Y-13251768D01*
X15222597Y-13251768D01*
X15223199Y-13251791D01*
X15225060Y-13251546D01*
X15343858Y-13251546D01*
X15350562Y-13253515D01*
X15351405Y-13254108D01*
X15357716Y-13258950D01*
X15357716Y-13258950D01*
X15357716Y-13258950D01*
X15359877Y-13259845D01*
X15372324Y-13265000D01*
X15388000Y-13267064D01*
X15403676Y-13265000D01*
X15418284Y-13258950D01*
X15430828Y-13249324D01*
X15440454Y-13236780D01*
X15446504Y-13222172D01*
X15448568Y-13206496D01*
X15446504Y-13190820D01*
X15440454Y-13176212D01*
X15432118Y-13165349D01*
X15430828Y-13163668D01*
X15418284Y-13154042D01*
X15403676Y-13147992D01*
X15388000Y-13145928D01*
X15372324Y-13147992D01*
X15357716Y-13154042D01*
X15355402Y-13155818D01*
X15351406Y-13158884D01*
X15344890Y-13161403D01*
X15343858Y-13161446D01*
X15241293Y-13161446D01*
X15234589Y-13159478D01*
X15232524Y-13157814D01*
X15205206Y-13130496D01*
X15705292Y-13130496D01*
X15705292Y-13135013D01*
X15705324Y-13135641D01*
X15706306Y-13145257D01*
X15711637Y-13161345D01*
X15720535Y-13175769D01*
X15732519Y-13187753D01*
X15746943Y-13196651D01*
X15763031Y-13201982D01*
X15772646Y-13202964D01*
X15773277Y-13202996D01*
X15775292Y-13202996D01*
X15775292Y-13130496D01*
X15705292Y-13130496D01*
X15205206Y-13130496D01*
X15200632Y-13125921D01*
X15197283Y-13119789D01*
X15197000Y-13117153D01*
X15197000Y-13006000D01*
X15127000Y-13006000D01*
X15127000Y-13022353D01*
X15125031Y-13029057D01*
X15119751Y-13033633D01*
X15112835Y-13034627D01*
X15106480Y-13031725D01*
X15105832Y-13031122D01*
X15057682Y-12982972D01*
X15054333Y-12976839D01*
X15054050Y-12974203D01*
X15054050Y-12956000D01*
X15127000Y-12956000D01*
X15197000Y-12956000D01*
X15197000Y-12846000D01*
X15247000Y-12846000D01*
X15247000Y-13116000D01*
X15271452Y-13116000D01*
X15272113Y-13115964D01*
X15277737Y-13115360D01*
X15291209Y-13110335D01*
X15302719Y-13101719D01*
X15311335Y-13090209D01*
X15316360Y-13076737D01*
X15316964Y-13071113D01*
X15317000Y-13070452D01*
X15317000Y-13026901D01*
X15318968Y-13020197D01*
X15324249Y-13015622D01*
X15331165Y-13014627D01*
X15337520Y-13017530D01*
X15339870Y-13020257D01*
X15341480Y-13022794D01*
X15348365Y-13029260D01*
X15353461Y-13034045D01*
X15367863Y-13041963D01*
X15367863Y-13041963D01*
X15383782Y-13046050D01*
X15383782Y-13046050D01*
X15395703Y-13046050D01*
X15396092Y-13046050D01*
X15406277Y-13044763D01*
X15408306Y-13044507D01*
X15416377Y-13041311D01*
X15423587Y-13038457D01*
X15436884Y-13028796D01*
X15447360Y-13016133D01*
X15454358Y-13001261D01*
X15457438Y-12985117D01*
X15457360Y-12983883D01*
X15456406Y-12968714D01*
X15456390Y-12968666D01*
X15451327Y-12953083D01*
X15445939Y-12944593D01*
X15442520Y-12939206D01*
X15430539Y-12927955D01*
X15416136Y-12920037D01*
X15400218Y-12915950D01*
X15400218Y-12915950D01*
X15387907Y-12915950D01*
X15387522Y-12915999D01*
X15387521Y-12915999D01*
X15375694Y-12917493D01*
X15360413Y-12923543D01*
X15347116Y-12933204D01*
X15338954Y-12943070D01*
X15333164Y-12946980D01*
X15326179Y-12947140D01*
X15320217Y-12943498D01*
X15317170Y-12937210D01*
X15317000Y-12935166D01*
X15317000Y-12891548D01*
X15316964Y-12890887D01*
X15316360Y-12885263D01*
X15311335Y-12871791D01*
X15302719Y-12860281D01*
X15291209Y-12851665D01*
X15277737Y-12846640D01*
X15272113Y-12846035D01*
X15271452Y-12846000D01*
X15247000Y-12846000D01*
X15197000Y-12846000D01*
X15172548Y-12846000D01*
X15171887Y-12846035D01*
X15166263Y-12846640D01*
X15152791Y-12851665D01*
X15141281Y-12860281D01*
X15132665Y-12871791D01*
X15127640Y-12885263D01*
X15127035Y-12890887D01*
X15127000Y-12891548D01*
X15127000Y-12956000D01*
X15054050Y-12956000D01*
X15054050Y-12838796D01*
X15056018Y-12832093D01*
X15057682Y-12830028D01*
X15126332Y-12761378D01*
X15132465Y-12758029D01*
X15135100Y-12757746D01*
X15530066Y-12757746D01*
X15536769Y-12759715D01*
X15541345Y-12764995D01*
X15542339Y-12771911D01*
X15541950Y-12773684D01*
X15541479Y-12775266D01*
X15541323Y-12775754D01*
X15539499Y-12781066D01*
X15539731Y-12786675D01*
X15539742Y-12787187D01*
X15539742Y-12863550D01*
X15537773Y-12870254D01*
X15532493Y-12874829D01*
X15527342Y-12875950D01*
X15515025Y-12875950D01*
X15509177Y-12877113D01*
X15502545Y-12881545D01*
X15498113Y-12888177D01*
X15496950Y-12894025D01*
X15496950Y-13067975D01*
X15498113Y-13073823D01*
X15502545Y-13080455D01*
X15509177Y-13084887D01*
X15515025Y-13086050D01*
X15515025Y-13086050D01*
X15608975Y-13086050D01*
X15611899Y-13085468D01*
X15614823Y-13084887D01*
X15621455Y-13080455D01*
X15625887Y-13073823D01*
X15627050Y-13067975D01*
X15627050Y-12894025D01*
X15626474Y-12891129D01*
X15625887Y-12888177D01*
X15621455Y-12881545D01*
X15615353Y-12877467D01*
X15610872Y-12872106D01*
X15609842Y-12867157D01*
X15609842Y-12820696D01*
X15611810Y-12813992D01*
X15617091Y-12809417D01*
X15622242Y-12808296D01*
X15676044Y-12808296D01*
X15682748Y-12810265D01*
X15687324Y-12815545D01*
X15687748Y-12816601D01*
X15689880Y-12822694D01*
X15698831Y-12834821D01*
X15698610Y-12834984D01*
X15701092Y-12838251D01*
X15701638Y-12845217D01*
X15698331Y-12851372D01*
X15696013Y-12853218D01*
X15682988Y-12861252D01*
X15670798Y-12873442D01*
X15661747Y-12888116D01*
X15656324Y-12904481D01*
X15655324Y-12914268D01*
X15655292Y-12914896D01*
X15655292Y-12923246D01*
X15848088Y-12923246D01*
X15854791Y-12925215D01*
X15856856Y-12926878D01*
X15886778Y-12956800D01*
X15888391Y-12958786D01*
X15888898Y-12959563D01*
X15891189Y-12961346D01*
X15892292Y-12962320D01*
X15893877Y-12963452D01*
X15894288Y-12963758D01*
X15898784Y-12967258D01*
X15900302Y-12968039D01*
X15901119Y-12968622D01*
X15901088Y-12968666D01*
X15903788Y-12970275D01*
X15919110Y-12985597D01*
X15922459Y-12991729D01*
X15922742Y-12994365D01*
X15922742Y-13030263D01*
X15920773Y-13036967D01*
X15915971Y-13041311D01*
X15907470Y-13045643D01*
X15905574Y-13047539D01*
X15899442Y-13050887D01*
X15892473Y-13050388D01*
X15886880Y-13046201D01*
X15886253Y-13045280D01*
X15880049Y-13035223D01*
X15868065Y-13023239D01*
X15852407Y-13013580D01*
X15852627Y-13013223D01*
X15849050Y-13010745D01*
X15846370Y-13004292D01*
X15846926Y-12999053D01*
X15849260Y-12992011D01*
X15850260Y-12982224D01*
X15850292Y-12981596D01*
X15850292Y-12973246D01*
X15655292Y-12973246D01*
X15655292Y-12981596D01*
X15655324Y-12982224D01*
X15656324Y-12992011D01*
X15661747Y-13008376D01*
X15670798Y-13023050D01*
X15682988Y-13035240D01*
X15697662Y-13044291D01*
X15700083Y-13045094D01*
X15705828Y-13049071D01*
X15708510Y-13055522D01*
X15707953Y-13060764D01*
X15706306Y-13065735D01*
X15705324Y-13075351D01*
X15705292Y-13075979D01*
X15705292Y-13080496D01*
X15812892Y-13080496D01*
X15819596Y-13082465D01*
X15824171Y-13087745D01*
X15825292Y-13092896D01*
X15825292Y-13202996D01*
X15827308Y-13202996D01*
X15827937Y-13202964D01*
X15837552Y-13201982D01*
X15853641Y-13196651D01*
X15868065Y-13187753D01*
X15880049Y-13175769D01*
X15886253Y-13165712D01*
X15891447Y-13161040D01*
X15898344Y-13159917D01*
X15904752Y-13162702D01*
X15905575Y-13163454D01*
X15907470Y-13165349D01*
X15907470Y-13165349D01*
X15919479Y-13171468D01*
X15922801Y-13171994D01*
X15929443Y-13173046D01*
X15929443Y-13173046D01*
X15981141Y-13173046D01*
X15986123Y-13172257D01*
X15991105Y-13171468D01*
X16003114Y-13165349D01*
X16012645Y-13155818D01*
X16018764Y-13143809D01*
X16020095Y-13135406D01*
X16020342Y-13133845D01*
X16020342Y-13077147D01*
X16018972Y-13068496D01*
X16333792Y-13068496D01*
X16333792Y-13126860D01*
X16333845Y-13127667D01*
X16335272Y-13138507D01*
X16341066Y-13152494D01*
X16350282Y-13164505D01*
X16362294Y-13173722D01*
X16376282Y-13179516D01*
X16383792Y-13180505D01*
X16383792Y-13180505D01*
X16383792Y-13068496D01*
X16413792Y-13068496D01*
X16413792Y-13180505D01*
X16413792Y-13180505D01*
X16421302Y-13179516D01*
X16435290Y-13173722D01*
X16447301Y-13164505D01*
X16456518Y-13152494D01*
X16462312Y-13138507D01*
X16463739Y-13127667D01*
X16463792Y-13126860D01*
X16463792Y-13068496D01*
X16413792Y-13068496D01*
X16383792Y-13068496D01*
X16333792Y-13068496D01*
X16018972Y-13068496D01*
X16018764Y-13067184D01*
X16018764Y-13067183D01*
X16012645Y-13055174D01*
X16012645Y-13055174D01*
X16003114Y-13045643D01*
X15994612Y-13041311D01*
X15989533Y-13036514D01*
X15987842Y-13030263D01*
X15987842Y-12982946D01*
X15989810Y-12976242D01*
X15995091Y-12971667D01*
X16000242Y-12970546D01*
X16321392Y-12970546D01*
X16328096Y-12972515D01*
X16332671Y-12977795D01*
X16333792Y-12982946D01*
X16333792Y-13038496D01*
X16463792Y-13038496D01*
X16463792Y-12980132D01*
X16463739Y-12979325D01*
X16462312Y-12968485D01*
X16456832Y-12955256D01*
X16456085Y-12948309D01*
X16459213Y-12942061D01*
X16460740Y-12940673D01*
X16471620Y-12932324D01*
X16475060Y-12927841D01*
X16481246Y-12919780D01*
X16487296Y-12905172D01*
X16489360Y-12889496D01*
X16487296Y-12873820D01*
X16481246Y-12859212D01*
X16478375Y-12855471D01*
X16471620Y-12846668D01*
X16459076Y-12837042D01*
X16444468Y-12830992D01*
X16428792Y-12828928D01*
X16413116Y-12830992D01*
X16398508Y-12837042D01*
X16385964Y-12846668D01*
X16376338Y-12859212D01*
X16370288Y-12873820D01*
X16368202Y-12889665D01*
X16365375Y-12896054D01*
X16359542Y-12899901D01*
X16355908Y-12900446D01*
X16165585Y-12900446D01*
X16158881Y-12898478D01*
X16154306Y-12893197D01*
X16153311Y-12886281D01*
X16153769Y-12884337D01*
X16154760Y-12874641D01*
X16154792Y-12874013D01*
X16154792Y-12869496D01*
X15964792Y-12869496D01*
X15964792Y-12874013D01*
X15964824Y-12874641D01*
X15965944Y-12885608D01*
X15965820Y-12885620D01*
X15966010Y-12891129D01*
X15962436Y-12897133D01*
X15956184Y-12900252D01*
X15953999Y-12900446D01*
X15934696Y-12900446D01*
X15927992Y-12898478D01*
X15925928Y-12896814D01*
X15848610Y-12819496D01*
X15964792Y-12819496D01*
X16034792Y-12819496D01*
X16034792Y-12819496D01*
X16084792Y-12819496D01*
X16084792Y-12819496D01*
X16154792Y-12819496D01*
X16154792Y-12814979D01*
X16154760Y-12814351D01*
X16153778Y-12804735D01*
X16148447Y-12788647D01*
X16139549Y-12774223D01*
X16127565Y-12762239D01*
X16125663Y-12761066D01*
X16563499Y-12761066D01*
X16563731Y-12766675D01*
X16563742Y-12767187D01*
X16563742Y-14261209D01*
X16565340Y-14269246D01*
X16570974Y-14277677D01*
X16571430Y-14278358D01*
X16580542Y-14284448D01*
X16588579Y-14286046D01*
X16609005Y-14286046D01*
X16617041Y-14284448D01*
X16626154Y-14278358D01*
X16632243Y-14269246D01*
X16633842Y-14261209D01*
X16633842Y-14203496D01*
X16833792Y-14203496D01*
X16833792Y-14261860D01*
X16833845Y-14262667D01*
X16835272Y-14273507D01*
X16841066Y-14287494D01*
X16850283Y-14299505D01*
X16862294Y-14308722D01*
X16876282Y-14314516D01*
X16883792Y-14315505D01*
X16883792Y-14315505D01*
X16883792Y-14203496D01*
X16833792Y-14203496D01*
X16633842Y-14203496D01*
X16633842Y-14190230D01*
X16633842Y-14173496D01*
X16833792Y-14173496D01*
X16883792Y-14173496D01*
X16883792Y-14061487D01*
X16883792Y-14061487D01*
X16876281Y-14062476D01*
X16862294Y-14068270D01*
X16850283Y-14077487D01*
X16841066Y-14089498D01*
X16835272Y-14103485D01*
X16833845Y-14114325D01*
X16833792Y-14115132D01*
X16833792Y-14173496D01*
X16633842Y-14173496D01*
X16633842Y-12785862D01*
X16635810Y-12779158D01*
X16637474Y-12777094D01*
X16742572Y-12671996D01*
X16869292Y-12671996D01*
X16869292Y-12676513D01*
X16869324Y-12677141D01*
X16870306Y-12686757D01*
X16875637Y-12702845D01*
X16884535Y-12717269D01*
X16896519Y-12729253D01*
X16910943Y-12738151D01*
X16927031Y-12743482D01*
X16936646Y-12744464D01*
X16937277Y-12744496D01*
X16939292Y-12744496D01*
X16939292Y-12671996D01*
X16989292Y-12671996D01*
X16989292Y-12744496D01*
X16991309Y-12744496D01*
X16991937Y-12744464D01*
X17001553Y-12743482D01*
X17017641Y-12738151D01*
X17032065Y-12729253D01*
X17044049Y-12717269D01*
X17052947Y-12702845D01*
X17058278Y-12686757D01*
X17059260Y-12677141D01*
X17059292Y-12676513D01*
X17059292Y-12671996D01*
X16989292Y-12671996D01*
X16939292Y-12671996D01*
X16869292Y-12671996D01*
X16742572Y-12671996D01*
X16827890Y-12586678D01*
X16834023Y-12583329D01*
X16836658Y-12583046D01*
X16861150Y-12583046D01*
X16867854Y-12585015D01*
X16872429Y-12590295D01*
X16873424Y-12597211D01*
X16872921Y-12599346D01*
X16870306Y-12607235D01*
X16869324Y-12616851D01*
X16869292Y-12617479D01*
X16869292Y-12621996D01*
X17059292Y-12621996D01*
X17059292Y-12617479D01*
X17059260Y-12616851D01*
X17058278Y-12607235D01*
X17055664Y-12599346D01*
X17055423Y-12592364D01*
X17058997Y-12586359D01*
X17065249Y-12583240D01*
X17067434Y-12583046D01*
X17174083Y-12583046D01*
X17176627Y-12583310D01*
X17176760Y-12583338D01*
X17177535Y-12583500D01*
X17180140Y-12583176D01*
X17180416Y-12583141D01*
X17181883Y-12583050D01*
X17183805Y-12582729D01*
X17184310Y-12582656D01*
X17188856Y-12582089D01*
X17195752Y-12583213D01*
X17200945Y-12587887D01*
X17202787Y-12594627D01*
X17200693Y-12601293D01*
X17199158Y-12603162D01*
X16828488Y-12973832D01*
X16826502Y-12975444D01*
X16825725Y-12975952D01*
X16823942Y-12978243D01*
X16822969Y-12979346D01*
X16821836Y-12980932D01*
X16821531Y-12981341D01*
X16820425Y-12982762D01*
X16818081Y-12985773D01*
X16816479Y-12991154D01*
X16816323Y-12991642D01*
X16814499Y-12996954D01*
X16814731Y-13002563D01*
X16814742Y-13003075D01*
X16814742Y-13694515D01*
X16812774Y-13701219D01*
X16809891Y-13704352D01*
X16802964Y-13709668D01*
X16793338Y-13722212D01*
X16787288Y-13736820D01*
X16785224Y-13752496D01*
X16787288Y-13768172D01*
X16793338Y-13782780D01*
X16802964Y-13795324D01*
X16815508Y-13804950D01*
X16815508Y-13804950D01*
X16830116Y-13811000D01*
X16845792Y-13813064D01*
X16861468Y-13811000D01*
X16876076Y-13804950D01*
X16888620Y-13795324D01*
X16898246Y-13782780D01*
X16904296Y-13768172D01*
X16906360Y-13752496D01*
X16904296Y-13736820D01*
X16898246Y-13722212D01*
X16888620Y-13709668D01*
X16888620Y-13709668D01*
X16887626Y-13708373D01*
X16887960Y-13708117D01*
X16885572Y-13704847D01*
X16884842Y-13700654D01*
X16884842Y-13310996D01*
X17014283Y-13310996D01*
X17015272Y-13318507D01*
X17021066Y-13332494D01*
X17030283Y-13344505D01*
X17042294Y-13353722D01*
X17056281Y-13359516D01*
X17067121Y-13360943D01*
X17067928Y-13360996D01*
X17126292Y-13360996D01*
X17126292Y-13310996D01*
X17156292Y-13310996D01*
X17156292Y-13360996D01*
X17214656Y-13360996D01*
X17215463Y-13360943D01*
X17226303Y-13359516D01*
X17240290Y-13353722D01*
X17252301Y-13344505D01*
X17261518Y-13332494D01*
X17267312Y-13318507D01*
X17268301Y-13310996D01*
X17156292Y-13310996D01*
X17126292Y-13310996D01*
X17014283Y-13310996D01*
X16884842Y-13310996D01*
X16884842Y-13280996D01*
X17014283Y-13280996D01*
X17014283Y-13280996D01*
X17126292Y-13280996D01*
X17126292Y-13230996D01*
X17156292Y-13230996D01*
X17156292Y-13280996D01*
X17268301Y-13280996D01*
X17268301Y-13280996D01*
X17267312Y-13273485D01*
X17261518Y-13259498D01*
X17252301Y-13247487D01*
X17240290Y-13238270D01*
X17226303Y-13232476D01*
X17215463Y-13231049D01*
X17214656Y-13230996D01*
X17156292Y-13230996D01*
X17126292Y-13230996D01*
X17067928Y-13230996D01*
X17067121Y-13231049D01*
X17056281Y-13232476D01*
X17042294Y-13238270D01*
X17030283Y-13247487D01*
X17021066Y-13259498D01*
X17015272Y-13273485D01*
X17014283Y-13280996D01*
X16884842Y-13280996D01*
X16884842Y-13228996D01*
X17389292Y-13228996D01*
X17389292Y-13233513D01*
X17389324Y-13234141D01*
X17390306Y-13243757D01*
X17395637Y-13259845D01*
X17404535Y-13274269D01*
X17416519Y-13286253D01*
X17430943Y-13295151D01*
X17447031Y-13300482D01*
X17456646Y-13301464D01*
X17457277Y-13301496D01*
X17459292Y-13301496D01*
X17459292Y-13228996D01*
X17509292Y-13228996D01*
X17509292Y-13301496D01*
X17511309Y-13301496D01*
X17511937Y-13301464D01*
X17521553Y-13300482D01*
X17537641Y-13295151D01*
X17552065Y-13286253D01*
X17564049Y-13274269D01*
X17572947Y-13259845D01*
X17578278Y-13243757D01*
X17579260Y-13234141D01*
X17579292Y-13233513D01*
X17579292Y-13228996D01*
X17509292Y-13228996D01*
X17459292Y-13228996D01*
X17389292Y-13228996D01*
X16884842Y-13228996D01*
X16884842Y-13178996D01*
X17389292Y-13178996D01*
X17459292Y-13178996D01*
X17459292Y-13106496D01*
X17509292Y-13106496D01*
X17509292Y-13178996D01*
X17579292Y-13178996D01*
X17579292Y-13174479D01*
X17579260Y-13173851D01*
X17578278Y-13164235D01*
X17572947Y-13148147D01*
X17565452Y-13135996D01*
X17951792Y-13135996D01*
X17951792Y-13237448D01*
X17951827Y-13238109D01*
X17952432Y-13243733D01*
X17957457Y-13257205D01*
X17966073Y-13268715D01*
X17977583Y-13277331D01*
X17991055Y-13282356D01*
X17996679Y-13282961D01*
X17997340Y-13282996D01*
X18032792Y-13282996D01*
X18032792Y-13135996D01*
X18082792Y-13135996D01*
X18082792Y-13282996D01*
X18118244Y-13282996D01*
X18118905Y-13282961D01*
X18124529Y-13282356D01*
X18138001Y-13277331D01*
X18149511Y-13268715D01*
X18158127Y-13257205D01*
X18163152Y-13243733D01*
X18163757Y-13238109D01*
X18163792Y-13237448D01*
X18163792Y-13135996D01*
X18082792Y-13135996D01*
X18032792Y-13135996D01*
X17951792Y-13135996D01*
X17565452Y-13135996D01*
X17564049Y-13133723D01*
X17552065Y-13121739D01*
X17537641Y-13112841D01*
X17521553Y-13107510D01*
X17511937Y-13106528D01*
X17511309Y-13106496D01*
X17509292Y-13106496D01*
X17459292Y-13106496D01*
X17459292Y-13106496D01*
X17458642Y-13106496D01*
X17451938Y-13104528D01*
X17447362Y-13099248D01*
X17446367Y-13092332D01*
X17448087Y-13087586D01*
X17449068Y-13085996D01*
X17951792Y-13085996D01*
X18032792Y-13085996D01*
X18032792Y-12938996D01*
X18082792Y-12938996D01*
X18082792Y-13085996D01*
X18163792Y-13085996D01*
X18163792Y-12984544D01*
X18163757Y-12983883D01*
X18163152Y-12978259D01*
X18158127Y-12964787D01*
X18149511Y-12953277D01*
X18138001Y-12944661D01*
X18124529Y-12939636D01*
X18118905Y-12939031D01*
X18118244Y-12938996D01*
X18082792Y-12938996D01*
X18032792Y-12938996D01*
X17997340Y-12938996D01*
X17996679Y-12939031D01*
X17991055Y-12939636D01*
X17977583Y-12944661D01*
X17966073Y-12953277D01*
X17957457Y-12964787D01*
X17952432Y-12978259D01*
X17951827Y-12983883D01*
X17951792Y-12984544D01*
X17951792Y-13085996D01*
X17449068Y-13085996D01*
X17455947Y-13074845D01*
X17461278Y-13058757D01*
X17462260Y-13049141D01*
X17462292Y-13048513D01*
X17462292Y-13043996D01*
X17392292Y-13043996D01*
X17392292Y-13116496D01*
X17392943Y-13116496D01*
X17399647Y-13118464D01*
X17404222Y-13123745D01*
X17405217Y-13130661D01*
X17403497Y-13135406D01*
X17395637Y-13148148D01*
X17390306Y-13164235D01*
X17389324Y-13173851D01*
X17389292Y-13174479D01*
X17389292Y-13178996D01*
X16884842Y-13178996D01*
X16884842Y-13043996D01*
X17272292Y-13043996D01*
X17272292Y-13048513D01*
X17272324Y-13049141D01*
X17273306Y-13058757D01*
X17278637Y-13074845D01*
X17287535Y-13089269D01*
X17299519Y-13101253D01*
X17313943Y-13110151D01*
X17330031Y-13115482D01*
X17339646Y-13116464D01*
X17340277Y-13116496D01*
X17342292Y-13116496D01*
X17342292Y-13043996D01*
X17272292Y-13043996D01*
X16884842Y-13043996D01*
X16884842Y-13021750D01*
X16886811Y-13015046D01*
X16888474Y-13012982D01*
X17036460Y-12864996D01*
X17186792Y-12864996D01*
X17186792Y-12892179D01*
X17186824Y-12892807D01*
X17187841Y-12902766D01*
X17193356Y-12919408D01*
X17202560Y-12934331D01*
X17214957Y-12946728D01*
X17229880Y-12955932D01*
X17246522Y-12961447D01*
X17256481Y-12962464D01*
X17257109Y-12962496D01*
X17261681Y-12962496D01*
X17268385Y-12964464D01*
X17272961Y-12969745D01*
X17273955Y-12976660D01*
X17273452Y-12978796D01*
X17273306Y-12979235D01*
X17272324Y-12988851D01*
X17272292Y-12989479D01*
X17272292Y-12993996D01*
X17272292Y-12993996D01*
X17462292Y-12993996D01*
X17462292Y-12989479D01*
X17462260Y-12988851D01*
X17461278Y-12979235D01*
X17455947Y-12963147D01*
X17447049Y-12948723D01*
X17435065Y-12936739D01*
X17420641Y-12927841D01*
X17409247Y-12924066D01*
X17403503Y-12920089D01*
X17400821Y-12913637D01*
X17401377Y-12908395D01*
X17403243Y-12902766D01*
X17404260Y-12892807D01*
X17404292Y-12892179D01*
X17404292Y-12864996D01*
X17186792Y-12864996D01*
X17036460Y-12864996D01*
X17086460Y-12814996D01*
X17186792Y-12814996D01*
X17270542Y-12814996D01*
X17270542Y-12717496D01*
X17320542Y-12717496D01*
X17320542Y-12814996D01*
X17404292Y-12814996D01*
X17404292Y-12787813D01*
X17404260Y-12787185D01*
X17403243Y-12777226D01*
X17397728Y-12760584D01*
X17388524Y-12745661D01*
X17376127Y-12733264D01*
X17361204Y-12724060D01*
X17344562Y-12718545D01*
X17334603Y-12717528D01*
X17333975Y-12717496D01*
X17320542Y-12717496D01*
X17270542Y-12717496D01*
X17257109Y-12717496D01*
X17256481Y-12717528D01*
X17246522Y-12718545D01*
X17229880Y-12724060D01*
X17214957Y-12733264D01*
X17202560Y-12745661D01*
X17193356Y-12760584D01*
X17187841Y-12777226D01*
X17186824Y-12787185D01*
X17186792Y-12787813D01*
X17186792Y-12814996D01*
X17086460Y-12814996D01*
X17683378Y-12218078D01*
X17689511Y-12214729D01*
X17692147Y-12214446D01*
X17809413Y-12214446D01*
X17816116Y-12216414D01*
X17820461Y-12221216D01*
X17821487Y-12223230D01*
X17830458Y-12232201D01*
X17841762Y-12237961D01*
X17851140Y-12239446D01*
X17912444Y-12239446D01*
X17921822Y-12237961D01*
X17933126Y-12232201D01*
X17942097Y-12223230D01*
X17947857Y-12211926D01*
X17949342Y-12202548D01*
X17949342Y-12166550D01*
X17951310Y-12159846D01*
X17952973Y-12157783D01*
X17992938Y-12117818D01*
X17999071Y-12114469D01*
X18001707Y-12114186D01*
X18068327Y-12114186D01*
X18071460Y-12113563D01*
X18074175Y-12113023D01*
X18080807Y-12108591D01*
X18085239Y-12101959D01*
X18086402Y-12096111D01*
X18086402Y-12063656D01*
X18204312Y-12063656D01*
X18274632Y-12063656D01*
X18274632Y-12013656D01*
X18305112Y-12013656D01*
X18305112Y-12063656D01*
X18375432Y-12063656D01*
X18375432Y-12059204D01*
X18375397Y-12058543D01*
X18374792Y-12052919D01*
X18369767Y-12039447D01*
X18361151Y-12027937D01*
X18349641Y-12019321D01*
X18336169Y-12014296D01*
X18330545Y-12013692D01*
X18329884Y-12013656D01*
X18305112Y-12013656D01*
X18274632Y-12013656D01*
X18249860Y-12013656D01*
X18249199Y-12013692D01*
X18243575Y-12014296D01*
X18230103Y-12019321D01*
X18218593Y-12027937D01*
X18209977Y-12039447D01*
X18204952Y-12052919D01*
X18204347Y-12058543D01*
X18204312Y-12059204D01*
X18204312Y-12063656D01*
X18086402Y-12063656D01*
X18086402Y-12061681D01*
X18085239Y-12055833D01*
X18080807Y-12049201D01*
X18080793Y-12049179D01*
X18076335Y-12043845D01*
X18075464Y-12036913D01*
X18078480Y-12030610D01*
X18080805Y-12028595D01*
X18081244Y-12027937D01*
X18085239Y-12021959D01*
X18086402Y-12016111D01*
X18086402Y-11981681D01*
X18085239Y-11975833D01*
X18085239Y-11975833D01*
X18080807Y-11969201D01*
X18074175Y-11964769D01*
X18068327Y-11963606D01*
X18068327Y-11963606D01*
X18059707Y-11963606D01*
X18053003Y-11961638D01*
X18050938Y-11959974D01*
X17954974Y-11864009D01*
X17951625Y-11857877D01*
X17951342Y-11855241D01*
X17951342Y-11819244D01*
X17951342Y-11819244D01*
X17949857Y-11809866D01*
X17947089Y-11804433D01*
X17944097Y-11798562D01*
X17935126Y-11789591D01*
X17923822Y-11783831D01*
X17914444Y-11782346D01*
X17853141Y-11782346D01*
X17848451Y-11783089D01*
X17843762Y-11783831D01*
X17843761Y-11783831D01*
X17843761Y-11783831D01*
X17832458Y-11789591D01*
X17823487Y-11798562D01*
X17817727Y-11809866D01*
X17816242Y-11819244D01*
X17816242Y-11856053D01*
X17814274Y-11862757D01*
X17812610Y-11864822D01*
X17168118Y-12509314D01*
X17161985Y-12512663D01*
X17159350Y-12512946D01*
X16962192Y-12512946D01*
X16955488Y-12510978D01*
X16950913Y-12505697D01*
X16949792Y-12500546D01*
X16949792Y-12477996D01*
X16709792Y-12477996D01*
X16709792Y-12517448D01*
X16709827Y-12518109D01*
X16710432Y-12523733D01*
X16715457Y-12537205D01*
X16724073Y-12548715D01*
X16737004Y-12558395D01*
X16741191Y-12563989D01*
X16741690Y-12570958D01*
X16738341Y-12577090D01*
X16577487Y-12737944D01*
X16575503Y-12739556D01*
X16575386Y-12739632D01*
X16574300Y-12739960D01*
X16574183Y-12740498D01*
X16573086Y-12742170D01*
X16572943Y-12742353D01*
X16571968Y-12743458D01*
X16570836Y-12745044D01*
X16570531Y-12745452D01*
X16570360Y-12745673D01*
X16567081Y-12749885D01*
X16565479Y-12755266D01*
X16565323Y-12755754D01*
X16563499Y-12761066D01*
X16125663Y-12761066D01*
X16113141Y-12753341D01*
X16097053Y-12748010D01*
X16087436Y-12747028D01*
X16086809Y-12746996D01*
X16084792Y-12746996D01*
X16084792Y-12819496D01*
X16034792Y-12819496D01*
X16034792Y-12746996D01*
X16032776Y-12746996D01*
X16032147Y-12747028D01*
X16022531Y-12748010D01*
X16006443Y-12753341D01*
X15992019Y-12762239D01*
X15980035Y-12774223D01*
X15971137Y-12788647D01*
X15965806Y-12804735D01*
X15964824Y-12814351D01*
X15964792Y-12814979D01*
X15964792Y-12819496D01*
X15848610Y-12819496D01*
X15823974Y-12794860D01*
X15820625Y-12788727D01*
X15820342Y-12786092D01*
X15820342Y-12754876D01*
X15822310Y-12748172D01*
X15827591Y-12743597D01*
X15834507Y-12742602D01*
X15839252Y-12744322D01*
X15851943Y-12752151D01*
X15868031Y-12757482D01*
X15877646Y-12758464D01*
X15878277Y-12758496D01*
X15880292Y-12758496D01*
X15880292Y-12685996D01*
X15930292Y-12685996D01*
X15930292Y-12758496D01*
X15932308Y-12758496D01*
X15932937Y-12758464D01*
X15942552Y-12757482D01*
X15958641Y-12752151D01*
X15973065Y-12743253D01*
X15985049Y-12731269D01*
X15993947Y-12716845D01*
X15999278Y-12700757D01*
X16000260Y-12691141D01*
X16000292Y-12690513D01*
X16000292Y-12685996D01*
X15930292Y-12685996D01*
X15880292Y-12685996D01*
X15810292Y-12685996D01*
X15810292Y-12690513D01*
X15810324Y-12691142D01*
X15810330Y-12691204D01*
X15810328Y-12691217D01*
X15810340Y-12691457D01*
X15810324Y-12691240D01*
X15809052Y-12698073D01*
X15804263Y-12703160D01*
X15797483Y-12704851D01*
X15793899Y-12704166D01*
X15784777Y-12700974D01*
X15784777Y-12700973D01*
X15784776Y-12700973D01*
X15782106Y-12700723D01*
X15782105Y-12700723D01*
X15781818Y-12700696D01*
X15723766Y-12700696D01*
X15723479Y-12700723D01*
X15723478Y-12700723D01*
X15720807Y-12700973D01*
X15708344Y-12705335D01*
X15697721Y-12713175D01*
X15689880Y-12723798D01*
X15687748Y-12729891D01*
X15683676Y-12735569D01*
X15677181Y-12738144D01*
X15676044Y-12738196D01*
X15613738Y-12738196D01*
X15607034Y-12736228D01*
X15602459Y-12730947D01*
X15601465Y-12724031D01*
X15604367Y-12717676D01*
X15604970Y-12717028D01*
X15645486Y-12676513D01*
X15652002Y-12669996D01*
X16390292Y-12669996D01*
X16390292Y-12674513D01*
X16390324Y-12675141D01*
X16391306Y-12684757D01*
X16396637Y-12700845D01*
X16405535Y-12715269D01*
X16417519Y-12727253D01*
X16431943Y-12736151D01*
X16448031Y-12741482D01*
X16457646Y-12742464D01*
X16458277Y-12742496D01*
X16460292Y-12742496D01*
X16460292Y-12669996D01*
X16510292Y-12669996D01*
X16510292Y-12742496D01*
X16512308Y-12742496D01*
X16512937Y-12742464D01*
X16522552Y-12741482D01*
X16538641Y-12736151D01*
X16553065Y-12727253D01*
X16554531Y-12725787D01*
X16557955Y-12723918D01*
X16559169Y-12721205D01*
X16559834Y-12720484D01*
X16565049Y-12715269D01*
X16573947Y-12700845D01*
X16579278Y-12684757D01*
X16580260Y-12675141D01*
X16580292Y-12674513D01*
X16580292Y-12669996D01*
X16510292Y-12669996D01*
X16460292Y-12669996D01*
X16390292Y-12669996D01*
X15652002Y-12669996D01*
X15768286Y-12553712D01*
X15774418Y-12550364D01*
X15775434Y-12550187D01*
X15783320Y-12549148D01*
X15797928Y-12543098D01*
X15810472Y-12533472D01*
X15811966Y-12531525D01*
X15817608Y-12527405D01*
X15824583Y-12526990D01*
X15830572Y-12530306D01*
X15839519Y-12539253D01*
X15853488Y-12547870D01*
X15858160Y-12553064D01*
X15859283Y-12559961D01*
X15856498Y-12566369D01*
X15852981Y-12568763D01*
X15853177Y-12569080D01*
X15837519Y-12578739D01*
X15825535Y-12590723D01*
X15816637Y-12605147D01*
X15811306Y-12621235D01*
X15810324Y-12630851D01*
X15810292Y-12631479D01*
X15810292Y-12635996D01*
X16000292Y-12635996D01*
X16000292Y-12631479D01*
X16000260Y-12630851D01*
X15999278Y-12621235D01*
X15998867Y-12619996D01*
X16390292Y-12619996D01*
X16460292Y-12619996D01*
X16460292Y-12547496D01*
X16510292Y-12547496D01*
X16510292Y-12619996D01*
X16580292Y-12619996D01*
X16580292Y-12615479D01*
X16580260Y-12614851D01*
X16579278Y-12605235D01*
X16573947Y-12589147D01*
X16565049Y-12574723D01*
X16553065Y-12562739D01*
X16538641Y-12553841D01*
X16522553Y-12548510D01*
X16512936Y-12547528D01*
X16512309Y-12547496D01*
X16510292Y-12547496D01*
X16460292Y-12547496D01*
X16458276Y-12547496D01*
X16457647Y-12547528D01*
X16448031Y-12548510D01*
X16431943Y-12553841D01*
X16417519Y-12562739D01*
X16405535Y-12574723D01*
X16396637Y-12589147D01*
X16391306Y-12605235D01*
X16390324Y-12614851D01*
X16390292Y-12615479D01*
X16390292Y-12619996D01*
X15998867Y-12619996D01*
X15993947Y-12605147D01*
X15985049Y-12590723D01*
X15973065Y-12578739D01*
X15959096Y-12570122D01*
X15954423Y-12564927D01*
X15953301Y-12558031D01*
X15956086Y-12551623D01*
X15959603Y-12549229D01*
X15959407Y-12548912D01*
X15975065Y-12539253D01*
X15987049Y-12527269D01*
X15995947Y-12512845D01*
X16001278Y-12496757D01*
X16002260Y-12487141D01*
X16002292Y-12486513D01*
X16002292Y-12481996D01*
X15894692Y-12481996D01*
X15887988Y-12480028D01*
X15883413Y-12474747D01*
X15882292Y-12469596D01*
X15882292Y-12359496D01*
X15932292Y-12359496D01*
X15932292Y-12431996D01*
X16002292Y-12431996D01*
X16002292Y-12427479D01*
X16002260Y-12426851D01*
X16001278Y-12417235D01*
X15995947Y-12401147D01*
X15987049Y-12386723D01*
X15975065Y-12374739D01*
X15960641Y-12365841D01*
X15944553Y-12360510D01*
X15934936Y-12359528D01*
X15934309Y-12359496D01*
X15932292Y-12359496D01*
X15882292Y-12359496D01*
X15880276Y-12359496D01*
X15879647Y-12359528D01*
X15870031Y-12360510D01*
X15853943Y-12365841D01*
X15839519Y-12374739D01*
X15827535Y-12386723D01*
X15818637Y-12401147D01*
X15813306Y-12417235D01*
X15812321Y-12426881D01*
X15809681Y-12433350D01*
X15803963Y-12437365D01*
X15796982Y-12437652D01*
X15795240Y-12437077D01*
X15783320Y-12432140D01*
X15767644Y-12430076D01*
X15751968Y-12432140D01*
X15737360Y-12438190D01*
X15724816Y-12447816D01*
X15715190Y-12460360D01*
X15709140Y-12474968D01*
X15708101Y-12482852D01*
X15705275Y-12489242D01*
X15704576Y-12490002D01*
X15530563Y-12664014D01*
X15524431Y-12667363D01*
X15521795Y-12667646D01*
X15480792Y-12667646D01*
X15474088Y-12665678D01*
X15469513Y-12660397D01*
X15468392Y-12655246D01*
X15468392Y-12582696D01*
X15208392Y-12582696D01*
X15208392Y-12655246D01*
X15206423Y-12661950D01*
X15201143Y-12666525D01*
X15195992Y-12667646D01*
X15114530Y-12667646D01*
X15113142Y-12667568D01*
X15109600Y-12667169D01*
X15103982Y-12668232D01*
X15103526Y-12668309D01*
X15097280Y-12669251D01*
X15096788Y-12669413D01*
X15091200Y-12672366D01*
X15090789Y-12672573D01*
X15087405Y-12674203D01*
X15085099Y-12675314D01*
X15084675Y-12675615D01*
X15080210Y-12680080D01*
X15079876Y-12680401D01*
X15075243Y-12684700D01*
X15074101Y-12686189D01*
X14979426Y-12780863D01*
X14978390Y-12781789D01*
X14975603Y-12784012D01*
X14972382Y-12788736D01*
X14972114Y-12789113D01*
X14968363Y-12794196D01*
X14968130Y-12794658D01*
X14966267Y-12800697D01*
X14966122Y-12801137D01*
X14964037Y-12807097D01*
X14963950Y-12807609D01*
X14963950Y-12813926D01*
X14963941Y-12814390D01*
X14963705Y-12820703D01*
X14963950Y-12822563D01*
X14963950Y-12994774D01*
X14963872Y-12996162D01*
X14963473Y-12999703D01*
X14964536Y-13005319D01*
X14964613Y-13005775D01*
X14964961Y-13008082D01*
X14965555Y-13012025D01*
X14965716Y-13012515D01*
X14968669Y-13018101D01*
X14968878Y-13018515D01*
X14971679Y-13024331D01*
X14972814Y-13031225D01*
X14970042Y-13037639D01*
X14964242Y-13041535D01*
X14957257Y-13041678D01*
X14951739Y-13038480D01*
X14695127Y-12781868D01*
X14694396Y-12781070D01*
X14691968Y-12778177D01*
X14688696Y-12776288D01*
X14687785Y-12775707D01*
X14684691Y-12773541D01*
X14684603Y-12773479D01*
X14682133Y-12772456D01*
X14678308Y-12771781D01*
X14677252Y-12771547D01*
X14673603Y-12770570D01*
X14669840Y-12770899D01*
X14668760Y-12770946D01*
X12894242Y-12770946D01*
X12887538Y-12768978D01*
X12882963Y-12763697D01*
X12881842Y-12758546D01*
X12881842Y-12751521D01*
X12880679Y-12745673D01*
X12876247Y-12739041D01*
X12869615Y-12734609D01*
X12863767Y-12733446D01*
X12863767Y-12733446D01*
X12669817Y-12733446D01*
X12669817Y-12733446D01*
X12663969Y-12734609D01*
X12657337Y-12739041D01*
X12652905Y-12745673D01*
X12651742Y-12751521D01*
X12651742Y-12855471D01*
X12652905Y-12861319D01*
X12657337Y-12867951D01*
X12663969Y-12872383D01*
X12669817Y-12873546D01*
X12669817Y-12873546D01*
X12863767Y-12873546D01*
X12866691Y-12872964D01*
X12869615Y-12872383D01*
X12876247Y-12867951D01*
X12880679Y-12861319D01*
X12881842Y-12855471D01*
X12881842Y-12848446D01*
X12883810Y-12841742D01*
X12889091Y-12837167D01*
X12894242Y-12836046D01*
X14652104Y-12836046D01*
X14658808Y-12838015D01*
X14660872Y-12839678D01*
X14859041Y-13037847D01*
X14862390Y-13043980D01*
X14861891Y-13050949D01*
X14857704Y-13056542D01*
X14851158Y-13058984D01*
X14847064Y-13058593D01*
X14846977Y-13058570D01*
X14843214Y-13058899D01*
X14842133Y-13058946D01*
X12564242Y-13058946D01*
X12557538Y-13056978D01*
X12552963Y-13051697D01*
X12551842Y-13046546D01*
X12551842Y-13005521D01*
X12550679Y-12999673D01*
X12546247Y-12993041D01*
X12539615Y-12988609D01*
X12533767Y-12987446D01*
X12533767Y-12987446D01*
X12339817Y-12987446D01*
X12339817Y-12987446D01*
X12338683Y-12987672D01*
X12331724Y-12987049D01*
X12326206Y-12982762D01*
X12323882Y-12976173D01*
X12323864Y-12975565D01*
X12321423Y-12379496D01*
X14594492Y-12379496D01*
X14594492Y-12389179D01*
X14594524Y-12389807D01*
X14595541Y-12399766D01*
X14601056Y-12416408D01*
X14610260Y-12431331D01*
X14622657Y-12443728D01*
X14637580Y-12452932D01*
X14654222Y-12458447D01*
X14664181Y-12459464D01*
X14664809Y-12459496D01*
X14849492Y-12459496D01*
X14849492Y-12459496D01*
X14849492Y-12379496D01*
X14899492Y-12379496D01*
X14899492Y-12459496D01*
X15084175Y-12459496D01*
X15084803Y-12459464D01*
X15094761Y-12458447D01*
X15111404Y-12452932D01*
X15126326Y-12443728D01*
X15138724Y-12431331D01*
X15147928Y-12416408D01*
X15153443Y-12399766D01*
X15154460Y-12389807D01*
X15154492Y-12389179D01*
X15154492Y-12379496D01*
X14899492Y-12379496D01*
X14849492Y-12379496D01*
X14594492Y-12379496D01*
X12321423Y-12379496D01*
X12321218Y-12329496D01*
X14594492Y-12329496D01*
X14849492Y-12329496D01*
X14849492Y-12249496D01*
X14899492Y-12249496D01*
X14899492Y-12329496D01*
X15154492Y-12329496D01*
X15154492Y-12319813D01*
X15154460Y-12319185D01*
X15153443Y-12309226D01*
X15147928Y-12292584D01*
X15138724Y-12277661D01*
X15126326Y-12265264D01*
X15111404Y-12256060D01*
X15094762Y-12250545D01*
X15084803Y-12249528D01*
X15084175Y-12249496D01*
X14899492Y-12249496D01*
X14849492Y-12249496D01*
X14664809Y-12249496D01*
X14664181Y-12249528D01*
X14654222Y-12250545D01*
X14637580Y-12256060D01*
X14622657Y-12265264D01*
X14610260Y-12277661D01*
X14601056Y-12292584D01*
X14595541Y-12309226D01*
X14594524Y-12319185D01*
X14594492Y-12319813D01*
X14594492Y-12329496D01*
X12321218Y-12329496D01*
X12320804Y-12228399D01*
X12322070Y-12222890D01*
X12371250Y-12122602D01*
X12372541Y-12120519D01*
X12655900Y-11750872D01*
X12661541Y-11746749D01*
X12668515Y-11746331D01*
X12669894Y-11746732D01*
X12690989Y-11754229D01*
X12719123Y-11760076D01*
X12740617Y-11761546D01*
X12740829Y-11761546D01*
X12754755Y-11761546D01*
X12754967Y-11761546D01*
X12776461Y-11760076D01*
X12804595Y-11754229D01*
X12831672Y-11744606D01*
X12857186Y-11731386D01*
X12880662Y-11714815D01*
X12901663Y-11695201D01*
X12919797Y-11672911D01*
X12934728Y-11648359D01*
X12946176Y-11622002D01*
X12953929Y-11594332D01*
X12957842Y-11565864D01*
X12957842Y-11537128D01*
X12955253Y-11518296D01*
X15208392Y-11518296D01*
X15208392Y-11607748D01*
X15208427Y-11608409D01*
X15209032Y-11614033D01*
X15214057Y-11627505D01*
X15222673Y-11639015D01*
X15234183Y-11647631D01*
X15247655Y-11652656D01*
X15253279Y-11653261D01*
X15253940Y-11653296D01*
X15313392Y-11653296D01*
X15313392Y-11518296D01*
X15363392Y-11518296D01*
X15363392Y-11653296D01*
X15422844Y-11653296D01*
X15423505Y-11653261D01*
X15429129Y-11652656D01*
X15442601Y-11647631D01*
X15454111Y-11639015D01*
X15462727Y-11627505D01*
X15467752Y-11614033D01*
X15468356Y-11608409D01*
X15468392Y-11607748D01*
X15468392Y-11518296D01*
X15363392Y-11518296D01*
X15313392Y-11518296D01*
X15208392Y-11518296D01*
X12955253Y-11518296D01*
X12953929Y-11508660D01*
X12946176Y-11480990D01*
X12940662Y-11468296D01*
X15208392Y-11468296D01*
X15313392Y-11468296D01*
X15313392Y-11333296D01*
X15363392Y-11333296D01*
X15363392Y-11468296D01*
X15468392Y-11468296D01*
X15468392Y-11378844D01*
X15468356Y-11378183D01*
X15467752Y-11372559D01*
X15462727Y-11359087D01*
X15454111Y-11347577D01*
X15442601Y-11338961D01*
X15429129Y-11333936D01*
X15423505Y-11333331D01*
X15422844Y-11333296D01*
X15363392Y-11333296D01*
X15313392Y-11333296D01*
X15253940Y-11333296D01*
X15253279Y-11333331D01*
X15247655Y-11333936D01*
X15234183Y-11338961D01*
X15222673Y-11347577D01*
X15214057Y-11359087D01*
X15209032Y-11372559D01*
X15208427Y-11378183D01*
X15208392Y-11378844D01*
X15208392Y-11468296D01*
X12940662Y-11468296D01*
X12934897Y-11455022D01*
X12934897Y-11455022D01*
X12934728Y-11454634D01*
X12919797Y-11430081D01*
X12916716Y-11426293D01*
X12914012Y-11419851D01*
X12915220Y-11412969D01*
X12916493Y-11410925D01*
X13143093Y-11115321D01*
X13148734Y-11111198D01*
X13152871Y-11110465D01*
X18066344Y-11085529D01*
X18073058Y-11087463D01*
G37*
%TD.AperFunction*%
%TA.AperFunction,Conductor*%
G36*
X15389095Y-13854015D02*
G01*
X15391160Y-13855678D01*
X15745605Y-14210124D01*
X15746336Y-14210921D01*
X15748765Y-14213815D01*
X15751170Y-14215204D01*
X15752036Y-14215704D01*
X15752948Y-14216285D01*
X15756042Y-14218451D01*
X15756042Y-14218451D01*
X15756130Y-14218513D01*
X15758599Y-14219536D01*
X15758706Y-14219555D01*
X15758706Y-14219555D01*
X15762425Y-14220211D01*
X15763481Y-14220445D01*
X15767129Y-14221422D01*
X15767129Y-14221422D01*
X15767130Y-14221422D01*
X15770892Y-14221093D01*
X15771973Y-14221046D01*
X15894038Y-14221046D01*
X15900742Y-14223015D01*
X15905318Y-14228295D01*
X15906312Y-14235211D01*
X15903410Y-14241566D01*
X15901587Y-14243284D01*
X15891964Y-14250668D01*
X15887800Y-14256095D01*
X15882157Y-14260215D01*
X15877962Y-14260946D01*
X15765223Y-14260946D01*
X15764143Y-14260899D01*
X15763891Y-14260877D01*
X15760381Y-14260570D01*
X15756732Y-14261547D01*
X15755677Y-14261781D01*
X15754543Y-14261981D01*
X15751957Y-14262437D01*
X15751957Y-14262437D01*
X15751851Y-14262456D01*
X15749381Y-14263479D01*
X15746199Y-14265707D01*
X15745288Y-14266287D01*
X15742016Y-14268177D01*
X15739588Y-14271070D01*
X15738857Y-14271868D01*
X15579454Y-14431271D01*
X15573322Y-14434619D01*
X15566353Y-14434121D01*
X15561918Y-14431271D01*
X15554126Y-14423479D01*
X15542822Y-14417719D01*
X15533444Y-14416234D01*
X15472140Y-14416234D01*
X15467451Y-14416977D01*
X15462762Y-14417719D01*
X15462761Y-14417719D01*
X15462761Y-14417720D01*
X15451458Y-14423479D01*
X15442487Y-14432450D01*
X15440187Y-14436964D01*
X15435390Y-14442043D01*
X15429139Y-14443734D01*
X15348254Y-14443734D01*
X15347173Y-14443687D01*
X15343411Y-14443358D01*
X15339764Y-14444335D01*
X15338708Y-14444569D01*
X15334882Y-14445244D01*
X15332411Y-14446267D01*
X15329230Y-14448495D01*
X15328318Y-14449076D01*
X15325046Y-14450964D01*
X15322618Y-14453858D01*
X15321888Y-14454656D01*
X15052941Y-14723602D01*
X15046809Y-14726951D01*
X15044173Y-14727234D01*
X14972675Y-14727234D01*
X14965971Y-14725266D01*
X14961396Y-14719985D01*
X14960401Y-14713069D01*
X14963304Y-14706714D01*
X14965244Y-14704907D01*
X14971061Y-14700553D01*
X14979677Y-14689043D01*
X14984702Y-14675571D01*
X14985306Y-14669947D01*
X14985342Y-14669286D01*
X14985342Y-14622924D01*
X14847242Y-14622924D01*
X14847242Y-14669286D01*
X14847277Y-14669947D01*
X14847882Y-14675571D01*
X14852907Y-14689043D01*
X14861523Y-14700553D01*
X14867340Y-14704907D01*
X14871527Y-14710501D01*
X14872025Y-14717470D01*
X14868677Y-14723602D01*
X14862544Y-14726951D01*
X14859909Y-14727234D01*
X14798411Y-14727234D01*
X14791707Y-14725266D01*
X14789643Y-14723602D01*
X14758201Y-14692160D01*
X14754852Y-14686028D01*
X14755351Y-14679059D01*
X14756658Y-14676504D01*
X14759229Y-14672657D01*
X14760392Y-14666809D01*
X14760392Y-14584824D01*
X14847242Y-14584824D01*
X14897242Y-14584824D01*
X14897242Y-14492914D01*
X14892790Y-14492914D01*
X14892129Y-14492949D01*
X14886505Y-14493554D01*
X14873033Y-14498579D01*
X14861523Y-14507195D01*
X14852907Y-14518705D01*
X14847882Y-14532177D01*
X14847277Y-14537801D01*
X14847242Y-14538462D01*
X14847242Y-14584824D01*
X14760392Y-14584824D01*
X14760392Y-14540939D01*
X14760319Y-14540573D01*
X14759229Y-14535091D01*
X14754797Y-14528459D01*
X14748165Y-14524027D01*
X14744947Y-14523387D01*
X14738756Y-14520149D01*
X14735299Y-14514077D01*
X14735673Y-14507100D01*
X14738598Y-14502458D01*
X14825097Y-14415959D01*
X14827082Y-14414347D01*
X14827859Y-14413840D01*
X14829642Y-14411549D01*
X14830615Y-14410447D01*
X14830936Y-14409997D01*
X14831748Y-14408860D01*
X14832053Y-14408451D01*
X14835044Y-14404609D01*
X14835044Y-14404608D01*
X14835503Y-14404019D01*
X14835872Y-14402779D01*
X14839671Y-14396916D01*
X14846038Y-14394037D01*
X14852950Y-14395057D01*
X14856524Y-14397549D01*
X14934847Y-14475872D01*
X14938196Y-14482004D01*
X14937698Y-14488974D01*
X14935342Y-14492639D01*
X14935342Y-14584824D01*
X14985342Y-14584824D01*
X14985342Y-14538462D01*
X14985306Y-14537801D01*
X14984702Y-14532177D01*
X14981472Y-14523517D01*
X14980974Y-14516548D01*
X14984322Y-14510416D01*
X14990454Y-14507067D01*
X14993090Y-14506784D01*
X15028532Y-14506784D01*
X15035236Y-14508753D01*
X15039811Y-14514033D01*
X15040236Y-14515088D01*
X15041996Y-14520118D01*
X15043680Y-14524932D01*
X15051521Y-14535555D01*
X15062144Y-14543395D01*
X15062144Y-14543395D01*
X15062144Y-14543396D01*
X15074607Y-14547757D01*
X15077566Y-14548034D01*
X15077856Y-14548034D01*
X15135328Y-14548034D01*
X15135618Y-14548034D01*
X15138577Y-14547757D01*
X15151039Y-14543396D01*
X15152230Y-14542517D01*
X15161663Y-14535555D01*
X15169503Y-14524932D01*
X15169503Y-14524932D01*
X15169504Y-14524932D01*
X15173864Y-14512469D01*
X15174142Y-14509510D01*
X15174142Y-14438958D01*
X15173864Y-14435999D01*
X15169504Y-14423537D01*
X15169503Y-14423536D01*
X15169503Y-14423536D01*
X15161663Y-14412913D01*
X15151040Y-14405073D01*
X15147708Y-14403907D01*
X15138577Y-14400712D01*
X15138577Y-14400711D01*
X15138576Y-14400711D01*
X15135906Y-14400461D01*
X15135905Y-14400461D01*
X15135618Y-14400434D01*
X15077566Y-14400434D01*
X15077279Y-14400461D01*
X15077278Y-14400461D01*
X15074607Y-14400711D01*
X15062144Y-14405073D01*
X15051521Y-14412913D01*
X15043680Y-14423536D01*
X15043680Y-14423537D01*
X15040236Y-14433380D01*
X15036164Y-14439057D01*
X15029669Y-14441632D01*
X15028532Y-14441684D01*
X14997861Y-14441684D01*
X14991157Y-14439716D01*
X14989093Y-14438052D01*
X14887474Y-14336433D01*
X14884125Y-14330301D01*
X14883842Y-14327665D01*
X14883842Y-14260300D01*
X14885811Y-14253596D01*
X14885926Y-14253420D01*
X14889229Y-14248477D01*
X14890392Y-14242629D01*
X14890392Y-14116759D01*
X14890198Y-14115783D01*
X14889229Y-14110911D01*
X14888233Y-14109421D01*
X14884797Y-14104279D01*
X14884797Y-14104279D01*
X14884501Y-14103835D01*
X14882413Y-14097167D01*
X14884261Y-14090429D01*
X14889459Y-14085760D01*
X14894811Y-14084546D01*
X15121904Y-14084546D01*
X15128608Y-14086515D01*
X15130672Y-14088178D01*
X15161163Y-14118668D01*
X15163674Y-14122285D01*
X15167926Y-14131597D01*
X15177272Y-14142383D01*
X15177351Y-14142474D01*
X15189459Y-14150255D01*
X15203268Y-14154310D01*
X15217660Y-14154310D01*
X15231469Y-14150255D01*
X15243577Y-14142474D01*
X15253002Y-14131597D01*
X15256977Y-14122893D01*
X15257640Y-14121441D01*
X15262215Y-14116161D01*
X15268919Y-14114192D01*
X15275623Y-14116161D01*
X15277687Y-14117824D01*
X15358647Y-14198784D01*
X15432518Y-14272655D01*
X15435867Y-14278787D01*
X15435997Y-14283363D01*
X15435363Y-14287365D01*
X15435242Y-14288132D01*
X15435242Y-14334435D01*
X15435671Y-14337147D01*
X15436727Y-14343814D01*
X15436727Y-14343815D01*
X15436727Y-14343815D01*
X15442487Y-14355118D01*
X15451458Y-14364089D01*
X15451458Y-14364089D01*
X15462762Y-14369849D01*
X15472140Y-14371334D01*
X15533444Y-14371334D01*
X15542822Y-14369849D01*
X15554126Y-14364089D01*
X15563097Y-14355118D01*
X15568857Y-14343814D01*
X15570342Y-14334436D01*
X15570342Y-14288132D01*
X15568857Y-14278754D01*
X15564979Y-14271144D01*
X15563097Y-14267450D01*
X15554126Y-14258479D01*
X15542822Y-14252719D01*
X15533444Y-14251234D01*
X15533444Y-14251234D01*
X15508299Y-14251234D01*
X15501595Y-14249266D01*
X15499531Y-14247602D01*
X15312665Y-14060737D01*
X15125143Y-13873214D01*
X15121794Y-13867082D01*
X15122293Y-13860113D01*
X15126480Y-13854519D01*
X15133026Y-13852078D01*
X15133911Y-13852046D01*
X15382391Y-13852046D01*
X15389095Y-13854015D01*
G37*
%TD.AperFunction*%
%TA.AperFunction,Conductor*%
G36*
X15698175Y-14710615D02*
G01*
X15703769Y-14714802D01*
X15706210Y-14721348D01*
X15706242Y-14722233D01*
X15706242Y-14756147D01*
X15706543Y-14758050D01*
X15707727Y-14765526D01*
X15707727Y-14765527D01*
X15707727Y-14765527D01*
X15713487Y-14776830D01*
X15722457Y-14785801D01*
X15722458Y-14785801D01*
X15722458Y-14785801D01*
X15723471Y-14786317D01*
X15728551Y-14791115D01*
X15730242Y-14797366D01*
X15730242Y-14808796D01*
X15728273Y-14815500D01*
X15722993Y-14820075D01*
X15717842Y-14821196D01*
X15690817Y-14821196D01*
X15684969Y-14822359D01*
X15678337Y-14826791D01*
X15673905Y-14833423D01*
X15672742Y-14839271D01*
X15672742Y-14963221D01*
X15673905Y-14969069D01*
X15678337Y-14975701D01*
X15684969Y-14980133D01*
X15690817Y-14981296D01*
X15690817Y-14981296D01*
X15801773Y-14981296D01*
X15808477Y-14983265D01*
X15813053Y-14988545D01*
X15814047Y-14995461D01*
X15811144Y-15001816D01*
X15810541Y-15002464D01*
X15375691Y-15437314D01*
X15369559Y-15440663D01*
X15366923Y-15440946D01*
X14987529Y-15440946D01*
X14980825Y-15438978D01*
X14976250Y-15433697D01*
X14975255Y-15426781D01*
X14978158Y-15420426D01*
X14978761Y-15419778D01*
X15087367Y-15311172D01*
X15420108Y-14978431D01*
X15426239Y-14975083D01*
X15433209Y-14975581D01*
X15438802Y-14979769D01*
X15440646Y-14983299D01*
X15444637Y-14995345D01*
X15453535Y-15009769D01*
X15465519Y-15021753D01*
X15479943Y-15030651D01*
X15496031Y-15035982D01*
X15505645Y-15036964D01*
X15506277Y-15036996D01*
X15510792Y-15036996D01*
X15510792Y-15036996D01*
X15510792Y-14966996D01*
X15560792Y-14966996D01*
X15560792Y-15036996D01*
X15565308Y-15036996D01*
X15565937Y-15036964D01*
X15575552Y-15035982D01*
X15591641Y-15030651D01*
X15606065Y-15021753D01*
X15618049Y-15009769D01*
X15626947Y-14995345D01*
X15632278Y-14979257D01*
X15633260Y-14969641D01*
X15633292Y-14969013D01*
X15633292Y-14966996D01*
X15560792Y-14966996D01*
X15510792Y-14966996D01*
X15510792Y-14929396D01*
X15512760Y-14922692D01*
X15518041Y-14918117D01*
X15523192Y-14916996D01*
X15633292Y-14916996D01*
X15633292Y-14914979D01*
X15633260Y-14914351D01*
X15632278Y-14904735D01*
X15626947Y-14888647D01*
X15618049Y-14874223D01*
X15606065Y-14862239D01*
X15591641Y-14853341D01*
X15575840Y-14848106D01*
X15570095Y-14844128D01*
X15567413Y-14837677D01*
X15568644Y-14830799D01*
X15570972Y-14827567D01*
X15685074Y-14713465D01*
X15691206Y-14710116D01*
X15698175Y-14710615D01*
G37*
%TD.AperFunction*%
%TA.AperFunction,Conductor*%
G36*
X12884977Y-13126015D02*
G01*
X12889552Y-13131295D01*
X12890547Y-13138211D01*
X12887644Y-13144566D01*
X12887041Y-13145214D01*
X12860787Y-13171468D01*
X12817517Y-13214739D01*
X12794441Y-13237814D01*
X12788309Y-13241163D01*
X12785673Y-13241446D01*
X12669817Y-13241446D01*
X12663969Y-13242609D01*
X12657337Y-13247041D01*
X12652905Y-13253673D01*
X12651742Y-13259521D01*
X12651742Y-13363471D01*
X12652905Y-13369319D01*
X12657337Y-13375951D01*
X12663969Y-13380383D01*
X12669817Y-13381546D01*
X12669817Y-13381546D01*
X12863767Y-13381546D01*
X12866691Y-13380964D01*
X12869615Y-13380383D01*
X12876247Y-13375951D01*
X12880679Y-13369319D01*
X12881837Y-13363496D01*
X14767792Y-13363496D01*
X14836542Y-13363496D01*
X14836542Y-13290996D01*
X14835193Y-13290996D01*
X14834564Y-13291028D01*
X14825034Y-13292002D01*
X14809085Y-13297287D01*
X14794784Y-13306107D01*
X14782903Y-13317988D01*
X14774083Y-13332289D01*
X14768798Y-13348238D01*
X14767824Y-13357768D01*
X14767792Y-13358396D01*
X14767792Y-13363496D01*
X12881837Y-13363496D01*
X12881842Y-13363471D01*
X12881842Y-13259521D01*
X12880679Y-13253673D01*
X12880679Y-13253673D01*
X12880307Y-13251807D01*
X12880930Y-13244848D01*
X12883701Y-13240620D01*
X12930939Y-13193382D01*
X12937071Y-13190033D01*
X12939707Y-13189750D01*
X14817581Y-13189750D01*
X14824285Y-13191718D01*
X14826349Y-13193382D01*
X14903386Y-13270418D01*
X14906734Y-13276551D01*
X14906236Y-13283520D01*
X14902049Y-13289113D01*
X14895502Y-13291555D01*
X14893358Y-13291522D01*
X14888520Y-13291028D01*
X14887892Y-13290996D01*
X14886542Y-13290996D01*
X14886542Y-13363496D01*
X14955292Y-13363496D01*
X14955292Y-13358397D01*
X14955260Y-13357769D01*
X14954766Y-13352930D01*
X14956042Y-13346061D01*
X14960831Y-13340973D01*
X14967609Y-13339281D01*
X14974227Y-13341522D01*
X14975869Y-13342902D01*
X15195249Y-13562282D01*
X15198598Y-13568414D01*
X15198099Y-13575383D01*
X15193912Y-13580977D01*
X15187366Y-13583418D01*
X15186481Y-13583450D01*
X12611619Y-13583450D01*
X12604915Y-13581481D01*
X12602851Y-13579818D01*
X12566900Y-13543868D01*
X12566169Y-13543070D01*
X12564997Y-13541673D01*
X12563742Y-13540177D01*
X12563741Y-13540177D01*
X12560470Y-13538288D01*
X12559558Y-13537707D01*
X12557129Y-13536006D01*
X12552767Y-13530548D01*
X12551842Y-13525849D01*
X12551842Y-13513521D01*
X12550679Y-13507673D01*
X12546247Y-13501041D01*
X12539615Y-13496609D01*
X12533767Y-13495446D01*
X12533767Y-13495446D01*
X12339817Y-13495446D01*
X12338596Y-13495446D01*
X12338596Y-13495064D01*
X12333801Y-13494635D01*
X12328284Y-13490347D01*
X12325960Y-13483758D01*
X12325943Y-13483154D01*
X12325658Y-13413496D01*
X14767792Y-13413496D01*
X14767792Y-13418595D01*
X14767824Y-13419224D01*
X14768798Y-13428754D01*
X14774083Y-13444703D01*
X14782903Y-13459004D01*
X14794784Y-13470885D01*
X14809085Y-13479705D01*
X14825034Y-13484990D01*
X14834563Y-13485964D01*
X14835194Y-13485996D01*
X14836542Y-13485996D01*
X14836542Y-13413496D01*
X14886542Y-13413496D01*
X14886542Y-13485996D01*
X14887891Y-13485996D01*
X14888519Y-13485964D01*
X14898050Y-13484990D01*
X14913999Y-13479705D01*
X14928300Y-13470885D01*
X14940180Y-13459004D01*
X14949001Y-13444703D01*
X14954286Y-13428754D01*
X14955260Y-13419224D01*
X14955292Y-13418596D01*
X14955292Y-13413496D01*
X14886542Y-13413496D01*
X14836542Y-13413496D01*
X14767792Y-13413496D01*
X12325658Y-13413496D01*
X12324536Y-13139666D01*
X12326477Y-13132955D01*
X12331739Y-13128358D01*
X12338650Y-13127335D01*
X12339354Y-13127454D01*
X12339817Y-13127546D01*
X12339817Y-13127546D01*
X12533767Y-13127546D01*
X12534599Y-13127380D01*
X12539615Y-13126383D01*
X12539985Y-13126136D01*
X12546652Y-13124048D01*
X12546874Y-13124046D01*
X12878273Y-13124046D01*
X12884977Y-13126015D01*
G37*
%TD.AperFunction*%
%TD*%
M02*
