%TF.GenerationSoftware,KiCad,Pcbnew,7.0.2*%
%TF.CreationDate,2023-11-25T19:49:37-03:00*%
%TF.ProjectId,Schematic_monitor,53636865-6d61-4746-9963-5f6d6f6e6974,rev?*%
%TF.SameCoordinates,Original*%
%TF.FileFunction,Soldermask,Top*%
%TF.FilePolarity,Negative*%
%FSLAX45Y45*%
G04 Gerber Fmt 4.5, Leading zero omitted, Abs format (unit mm)*
G04 Created by KiCad (PCBNEW 7.0.2) date 2023-11-25 19:49:37*
%MOMM*%
%LPD*%
G01*
G04 APERTURE LIST*
G04 Aperture macros list*
%AMRoundRect*
0 Rectangle with rounded corners*
0 $1 Rounding radius*
0 $2 $3 $4 $5 $6 $7 $8 $9 X,Y pos of 4 corners*
0 Add a 4 corners polygon primitive as box body*
4,1,4,$2,$3,$4,$5,$6,$7,$8,$9,$2,$3,0*
0 Add four circle primitives for the rounded corners*
1,1,$1+$1,$2,$3*
1,1,$1+$1,$4,$5*
1,1,$1+$1,$6,$7*
1,1,$1+$1,$8,$9*
0 Add four rect primitives between the rounded corners*
20,1,$1+$1,$2,$3,$4,$5,0*
20,1,$1+$1,$4,$5,$6,$7,0*
20,1,$1+$1,$6,$7,$8,$9,0*
20,1,$1+$1,$8,$9,$2,$3,0*%
G04 Aperture macros list end*
%ADD10R,1.120000X2.440000*%
%ADD11RoundRect,0.200000X-0.275000X0.200000X-0.275000X-0.200000X0.275000X-0.200000X0.275000X0.200000X0*%
%ADD12RoundRect,0.237500X-0.237500X0.287500X-0.237500X-0.287500X0.237500X-0.287500X0.237500X0.287500X0*%
%ADD13RoundRect,0.250000X0.350000X0.450000X-0.350000X0.450000X-0.350000X-0.450000X0.350000X-0.450000X0*%
%ADD14RoundRect,0.200000X0.200000X0.275000X-0.200000X0.275000X-0.200000X-0.275000X0.200000X-0.275000X0*%
%ADD15RoundRect,0.200000X0.275000X-0.200000X0.275000X0.200000X-0.275000X0.200000X-0.275000X-0.200000X0*%
%ADD16R,1.400000X1.200000*%
%ADD17RoundRect,0.225000X-0.225000X-0.250000X0.225000X-0.250000X0.225000X0.250000X-0.225000X0.250000X0*%
%ADD18RoundRect,0.237500X0.250000X0.237500X-0.250000X0.237500X-0.250000X-0.237500X0.250000X-0.237500X0*%
%ADD19RoundRect,0.225000X0.225000X0.250000X-0.225000X0.250000X-0.225000X-0.250000X0.225000X-0.250000X0*%
%ADD20RoundRect,0.250000X-0.337500X-0.475000X0.337500X-0.475000X0.337500X0.475000X-0.337500X0.475000X0*%
%ADD21RoundRect,0.237500X0.237500X-0.300000X0.237500X0.300000X-0.237500X0.300000X-0.237500X-0.300000X0*%
%ADD22RoundRect,0.075000X-0.075000X0.700000X-0.075000X-0.700000X0.075000X-0.700000X0.075000X0.700000X0*%
%ADD23RoundRect,0.075000X-0.700000X0.075000X-0.700000X-0.075000X0.700000X-0.075000X0.700000X0.075000X0*%
%ADD24O,1.150000X1.800000*%
%ADD25O,1.450000X2.000000*%
%ADD26O,0.800000X0.800000*%
%ADD27R,0.450000X1.300000*%
%ADD28RoundRect,0.218750X-0.218750X-0.256250X0.218750X-0.256250X0.218750X0.256250X-0.218750X0.256250X0*%
%ADD29R,1.600000X2.200000*%
%ADD30R,0.381000X1.219200*%
%ADD31R,1.700000X1.700000*%
%ADD32C,0.800000*%
%ADD33R,0.900000X1.700000*%
%ADD34R,1.257300X0.508000*%
%ADD35RoundRect,0.225000X-0.250000X0.225000X-0.250000X-0.225000X0.250000X-0.225000X0.250000X0.225000X0*%
%ADD36RoundRect,0.250000X2.050000X0.300000X-2.050000X0.300000X-2.050000X-0.300000X2.050000X-0.300000X0*%
%ADD37RoundRect,0.250002X4.449998X5.149998X-4.449998X5.149998X-4.449998X-5.149998X4.449998X-5.149998X0*%
%ADD38RoundRect,0.218750X-0.381250X0.218750X-0.381250X-0.218750X0.381250X-0.218750X0.381250X0.218750X0*%
%ADD39RoundRect,0.237500X0.237500X-0.287500X0.237500X0.287500X-0.237500X0.287500X-0.237500X-0.287500X0*%
%ADD40RoundRect,0.200000X-0.200000X-0.275000X0.200000X-0.275000X0.200000X0.275000X-0.200000X0.275000X0*%
%ADD41R,0.850000X2.350000*%
%ADD42R,0.711200X0.304800*%
%ADD43RoundRect,0.250000X-1.075000X0.425000X-1.075000X-0.425000X1.075000X-0.425000X1.075000X0.425000X0*%
%ADD44C,3.200000*%
G04 APERTURE END LIST*
D10*
%TO.C,SW2*%
X18057792Y-13110996D03*
X18057792Y-13971996D03*
%TD*%
D11*
%TO.C,R2*%
X14247792Y-14622284D03*
X14247792Y-14787284D03*
%TD*%
D12*
%TO.C,FB2*%
X15642192Y-12185596D03*
X15642192Y-12360596D03*
%TD*%
D13*
%TO.C,R10*%
X17524292Y-15931996D03*
X17324292Y-15931996D03*
%TD*%
D14*
%TO.C,R14*%
X15766292Y-14725496D03*
X15601292Y-14725496D03*
%TD*%
D15*
%TO.C,R7*%
X14212792Y-14472284D03*
X14212792Y-14307284D03*
%TD*%
D16*
%TO.C,Y1*%
X16829792Y-12262996D03*
X16589792Y-12262996D03*
X16589792Y-12452996D03*
X16829792Y-12452996D03*
%TD*%
D14*
%TO.C,R1*%
X17483292Y-13447996D03*
X17318292Y-13447996D03*
%TD*%
D17*
%TO.C,C7*%
X17329292Y-13203996D03*
X17484292Y-13203996D03*
%TD*%
D18*
%TO.C,R15*%
X17016042Y-15177496D03*
X16833542Y-15177496D03*
%TD*%
D19*
%TO.C,C3*%
X16060292Y-12660996D03*
X15905292Y-12660996D03*
%TD*%
D11*
%TO.C,R12*%
X17881792Y-12179396D03*
X17881792Y-12344396D03*
%TD*%
D20*
%TO.C,C5*%
X17088042Y-12839996D03*
X17295542Y-12839996D03*
%TD*%
D21*
%TO.C,C15*%
X15106592Y-14474234D03*
X15106592Y-14301734D03*
%TD*%
D22*
%TO.C,U1*%
X16948792Y-13053496D03*
X16898792Y-13053496D03*
X16848792Y-13053496D03*
X16798792Y-13053496D03*
X16748792Y-13053496D03*
X16698792Y-13053496D03*
X16648792Y-13053496D03*
X16598792Y-13053496D03*
X16548792Y-13053496D03*
X16498792Y-13053496D03*
X16448792Y-13053496D03*
X16398792Y-13053496D03*
X16348792Y-13053496D03*
X16298792Y-13053496D03*
X16248792Y-13053496D03*
X16198792Y-13053496D03*
D23*
X16006292Y-13245996D03*
X16006292Y-13295996D03*
X16006292Y-13345996D03*
X16006292Y-13395996D03*
X16006292Y-13445996D03*
X16006292Y-13495996D03*
X16006292Y-13545996D03*
X16006292Y-13595996D03*
X16006292Y-13645996D03*
X16006292Y-13695996D03*
X16006292Y-13745996D03*
X16006292Y-13795996D03*
X16006292Y-13845996D03*
X16006292Y-13895996D03*
X16006292Y-13945996D03*
X16006292Y-13995996D03*
D22*
X16198792Y-14188496D03*
X16248792Y-14188496D03*
X16298792Y-14188496D03*
X16348792Y-14188496D03*
X16398792Y-14188496D03*
X16448792Y-14188496D03*
X16498792Y-14188496D03*
X16548792Y-14188496D03*
X16598792Y-14188496D03*
X16648792Y-14188496D03*
X16698792Y-14188496D03*
X16748792Y-14188496D03*
X16798792Y-14188496D03*
X16848792Y-14188496D03*
X16898792Y-14188496D03*
X16948792Y-14188496D03*
D23*
X17141292Y-13995996D03*
X17141292Y-13945996D03*
X17141292Y-13895996D03*
X17141292Y-13845996D03*
X17141292Y-13795996D03*
X17141292Y-13745996D03*
X17141292Y-13695996D03*
X17141292Y-13645996D03*
X17141292Y-13595996D03*
X17141292Y-13545996D03*
X17141292Y-13495996D03*
X17141292Y-13445996D03*
X17141292Y-13395996D03*
X17141292Y-13345996D03*
X17141292Y-13295996D03*
X17141292Y-13245996D03*
%TD*%
D19*
%TO.C,C14*%
X16640292Y-12644996D03*
X16485292Y-12644996D03*
%TD*%
D24*
%TO.C,J2*%
X17073792Y-15549996D03*
D25*
X17058792Y-15929996D03*
D26*
X16936292Y-15824996D03*
X16436292Y-15824996D03*
D25*
X16313792Y-15929996D03*
D24*
X16298792Y-15549996D03*
D27*
X16816292Y-15934996D03*
X16751292Y-15934996D03*
X16686292Y-15934996D03*
X16621292Y-15934996D03*
X16556292Y-15934996D03*
%TD*%
D14*
%TO.C,R6*%
X14178292Y-13918784D03*
X14013292Y-13918784D03*
%TD*%
D28*
%TO.C,D3*%
X14704042Y-13388496D03*
X14861542Y-13388496D03*
%TD*%
D29*
%TO.C,C1*%
X15338392Y-12257696D03*
X15338392Y-12557696D03*
%TD*%
D30*
%TO.C,U5*%
X14721292Y-14603874D03*
X14786292Y-14603874D03*
X14851292Y-14603874D03*
X14916292Y-14603874D03*
X14916292Y-14179694D03*
X14851292Y-14179694D03*
X14786292Y-14179694D03*
X14721292Y-14179694D03*
%TD*%
D19*
%TO.C,C8*%
X15772792Y-13296996D03*
X15617792Y-13296996D03*
%TD*%
D11*
%TO.C,R11*%
X17883792Y-11842396D03*
X17883792Y-12007396D03*
%TD*%
D31*
%TO.C,J4*%
X14611792Y-15831496D03*
%TD*%
D32*
%TO.C,SW1*%
X15392000Y-12981000D03*
D33*
X15222000Y-12981000D03*
X15562000Y-12981000D03*
%TD*%
D34*
%TO.C,U8*%
X14669537Y-13551284D03*
X14669537Y-13678284D03*
X14669537Y-13805284D03*
X14669537Y-13932284D03*
X15194047Y-13932284D03*
X15194047Y-13805284D03*
X15194047Y-13678284D03*
X15194047Y-13551284D03*
%TD*%
D29*
%TO.C,C2*%
X15338392Y-11793296D03*
X15338392Y-11493296D03*
%TD*%
D35*
%TO.C,C16*%
X13725792Y-13716284D03*
X13725792Y-13871284D03*
%TD*%
D19*
%TO.C,C4*%
X16214792Y-12844496D03*
X16059792Y-12844496D03*
%TD*%
D17*
%TO.C,C13*%
X16809292Y-12646996D03*
X16964292Y-12646996D03*
%TD*%
D19*
%TO.C,C17*%
X14079292Y-13702784D03*
X13924292Y-13702784D03*
%TD*%
D36*
%TO.C,U2*%
X14874492Y-12354496D03*
X14874492Y-12100496D03*
D37*
X13959492Y-12100496D03*
D36*
X14874492Y-11846496D03*
%TD*%
D19*
%TO.C,C9*%
X15713792Y-13851996D03*
X15558792Y-13851996D03*
%TD*%
D35*
%TO.C,C18*%
X15535792Y-14941996D03*
X15535792Y-15096996D03*
%TD*%
D38*
%TO.C,FB3*%
X16220792Y-12453746D03*
X16220792Y-12666246D03*
%TD*%
D31*
%TO.C,J3*%
X13986792Y-15827496D03*
%TD*%
D39*
%TO.C,FB1*%
X15643192Y-11948096D03*
X15643192Y-11773096D03*
%TD*%
D14*
%TO.C,R5*%
X13945292Y-14673784D03*
X13780292Y-14673784D03*
%TD*%
D17*
%TO.C,C6*%
X17212292Y-13018996D03*
X17367292Y-13018996D03*
%TD*%
D40*
%TO.C,R8*%
X14309292Y-14071784D03*
X14474292Y-14071784D03*
%TD*%
D12*
%TO.C,D2*%
X17526792Y-13636496D03*
X17526792Y-13811496D03*
%TD*%
D19*
%TO.C,C11*%
X16062292Y-12456996D03*
X15907292Y-12456996D03*
%TD*%
D15*
%TO.C,R9*%
X14425792Y-13512284D03*
X14425792Y-13347284D03*
%TD*%
D40*
%TO.C,R13*%
X15972292Y-14718496D03*
X16137292Y-14718496D03*
%TD*%
D41*
%TO.C,J1*%
X17624392Y-14665896D03*
X17824392Y-14430896D03*
X18024392Y-14665896D03*
X18224392Y-14430896D03*
%TD*%
D12*
%TO.C,D1*%
X15752792Y-12773246D03*
X15752792Y-12948246D03*
%TD*%
D11*
%TO.C,R3*%
X14235792Y-14990284D03*
X14235792Y-15155284D03*
%TD*%
%TO.C,R4*%
X14531592Y-14309484D03*
X14531592Y-14474484D03*
%TD*%
D16*
%TO.C,U3*%
X16016792Y-14901246D03*
X15762792Y-14901246D03*
X15762792Y-15121246D03*
X16016792Y-15121246D03*
%TD*%
D35*
%TO.C,C10*%
X17075792Y-14235496D03*
X17075792Y-14390496D03*
%TD*%
D34*
%TO.C,U7*%
X14001047Y-14454284D03*
X14001047Y-14327284D03*
X14001047Y-14200284D03*
X14001047Y-14073284D03*
X13476537Y-14073284D03*
X13476537Y-14200284D03*
X13476537Y-14327284D03*
X13476537Y-14454284D03*
%TD*%
%TO.C,U6*%
X14422282Y-14871284D03*
X14422282Y-14998284D03*
X14422282Y-15125284D03*
X14422282Y-15252284D03*
X14946792Y-15252284D03*
X14946792Y-15125284D03*
X14946792Y-14998284D03*
X14946792Y-14871284D03*
%TD*%
D42*
%TO.C,U4*%
X18030792Y-11918896D03*
X18030792Y-11998896D03*
X18030792Y-12078896D03*
X18030792Y-12158896D03*
X18030792Y-12238896D03*
X18030792Y-12318896D03*
X18030792Y-12398896D03*
X18289872Y-12398896D03*
X18289872Y-12318896D03*
X18289872Y-12238896D03*
X18289872Y-12158896D03*
X18289872Y-12078896D03*
X18289872Y-11998896D03*
X18289872Y-11918896D03*
%TD*%
D43*
%TO.C,D4*%
X17397292Y-15161996D03*
X17397292Y-15611996D03*
%TD*%
D15*
%TO.C,Rg1*%
X15502792Y-14476284D03*
X15502792Y-14311284D03*
%TD*%
D19*
%TO.C,C12*%
X15800292Y-13105496D03*
X15955292Y-13105496D03*
%TD*%
D44*
%TO.C,H2*%
X18291792Y-11440496D03*
%TD*%
%TO.C,H6*%
X12730792Y-15652496D03*
%TD*%
%TO.C,H4*%
X18263792Y-15763496D03*
%TD*%
%TO.C,H1*%
X12747792Y-11551496D03*
%TD*%
M02*
