%TF.GenerationSoftware,KiCad,Pcbnew,7.0.2*%
%TF.CreationDate,2023-11-25T19:49:37-03:00*%
%TF.ProjectId,Schematic_monitor,53636865-6d61-4746-9963-5f6d6f6e6974,rev?*%
%TF.SameCoordinates,Original*%
%TF.FileFunction,Legend,Bot*%
%TF.FilePolarity,Positive*%
%FSLAX45Y45*%
G04 Gerber Fmt 4.5, Leading zero omitted, Abs format (unit mm)*
G04 Created by KiCad (PCBNEW 7.0.2) date 2023-11-25 19:49:37*
%MOMM*%
%LPD*%
G01*
G04 APERTURE LIST*
%ADD10C,0.150000*%
%ADD11C,0.120000*%
%ADD12O,1.150000X1.800000*%
%ADD13O,1.450000X2.000000*%
%ADD14O,0.800000X0.800000*%
%ADD15R,1.700000X1.700000*%
%ADD16C,0.800000*%
%ADD17C,3.200000*%
%ADD18R,1.900000X1.000000*%
G04 APERTURE END LIST*
D10*
%TO.C,J5*%
X13120325Y-14910358D02*
X13120325Y-14981786D01*
X13120325Y-14981786D02*
X13125087Y-14996072D01*
X13125087Y-14996072D02*
X13134611Y-15005596D01*
X13134611Y-15005596D02*
X13148897Y-15010358D01*
X13148897Y-15010358D02*
X13158420Y-15010358D01*
X13025087Y-14910358D02*
X13072706Y-14910358D01*
X13072706Y-14910358D02*
X13077468Y-14957977D01*
X13077468Y-14957977D02*
X13072706Y-14953215D01*
X13072706Y-14953215D02*
X13063182Y-14948453D01*
X13063182Y-14948453D02*
X13039373Y-14948453D01*
X13039373Y-14948453D02*
X13029849Y-14953215D01*
X13029849Y-14953215D02*
X13025087Y-14957977D01*
X13025087Y-14957977D02*
X13020325Y-14967501D01*
X13020325Y-14967501D02*
X13020325Y-14991310D01*
X13020325Y-14991310D02*
X13025087Y-15000834D01*
X13025087Y-15000834D02*
X13029849Y-15005596D01*
X13029849Y-15005596D02*
X13039373Y-15010358D01*
X13039373Y-15010358D02*
X13063182Y-15010358D01*
X13063182Y-15010358D02*
X13072706Y-15005596D01*
X13072706Y-15005596D02*
X13077468Y-15000834D01*
D11*
X12468792Y-12660496D02*
X12734792Y-12660496D01*
X12468792Y-12981496D02*
X12468792Y-12660496D01*
X12468792Y-13489496D02*
X12468792Y-13133496D01*
X12468792Y-13997496D02*
X12468792Y-13641496D01*
X12468792Y-14505496D02*
X12468792Y-14149496D01*
X12468792Y-14978496D02*
X12468792Y-14657496D01*
X12468792Y-14978496D02*
X12734792Y-14978496D01*
X12734792Y-12727496D02*
X12734792Y-12660496D01*
X12734792Y-13235496D02*
X12734792Y-12879496D01*
X12734792Y-13743496D02*
X12734792Y-13387496D01*
X12734792Y-14251496D02*
X12734792Y-13895496D01*
X12734792Y-14759496D02*
X12734792Y-14403496D01*
X12734792Y-14911496D02*
X12855792Y-14911496D01*
X12734792Y-14978496D02*
X12734792Y-14911496D01*
%TD*%
%LPC*%
D12*
%TO.C,J2*%
X17073792Y-15549996D03*
D13*
X17058792Y-15929996D03*
D14*
X16936292Y-15824996D03*
X16436292Y-15824996D03*
D13*
X16313792Y-15929996D03*
D12*
X16298792Y-15549996D03*
%TD*%
D15*
%TO.C,J4*%
X14611792Y-15831496D03*
%TD*%
D16*
%TO.C,SW1*%
X15392000Y-12981000D03*
%TD*%
D15*
%TO.C,J3*%
X13986792Y-15827496D03*
%TD*%
D17*
%TO.C,H2*%
X18291792Y-11440496D03*
%TD*%
%TO.C,H6*%
X12730792Y-15652496D03*
%TD*%
%TO.C,H4*%
X18263792Y-15763496D03*
%TD*%
%TO.C,H1*%
X12747792Y-11551496D03*
%TD*%
D18*
%TO.C,J5*%
X12766792Y-14835496D03*
X12436792Y-14581496D03*
X12766792Y-14327496D03*
X12436792Y-14073496D03*
X12766792Y-13819496D03*
X12436792Y-13565496D03*
X12766792Y-13311496D03*
X12436792Y-13057496D03*
X12766792Y-12803496D03*
%TD*%
%LPD*%
M02*
