%TF.GenerationSoftware,KiCad,Pcbnew,7.0.2*%
%TF.CreationDate,2023-11-27T13:46:33-03:00*%
%TF.ProjectId,Schematic_monitor,53636865-6d61-4746-9963-5f6d6f6e6974,rev?*%
%TF.SameCoordinates,Original*%
%TF.FileFunction,Legend,Top*%
%TF.FilePolarity,Positive*%
%FSLAX45Y45*%
G04 Gerber Fmt 4.5, Leading zero omitted, Abs format (unit mm)*
G04 Created by KiCad (PCBNEW 7.0.2) date 2023-11-27 13:46:33*
%MOMM*%
%LPD*%
G01*
G04 APERTURE LIST*
G04 Aperture macros list*
%AMRoundRect*
0 Rectangle with rounded corners*
0 $1 Rounding radius*
0 $2 $3 $4 $5 $6 $7 $8 $9 X,Y pos of 4 corners*
0 Add a 4 corners polygon primitive as box body*
4,1,4,$2,$3,$4,$5,$6,$7,$8,$9,$2,$3,0*
0 Add four circle primitives for the rounded corners*
1,1,$1+$1,$2,$3*
1,1,$1+$1,$4,$5*
1,1,$1+$1,$6,$7*
1,1,$1+$1,$8,$9*
0 Add four rect primitives between the rounded corners*
20,1,$1+$1,$2,$3,$4,$5,0*
20,1,$1+$1,$4,$5,$6,$7,0*
20,1,$1+$1,$6,$7,$8,$9,0*
20,1,$1+$1,$8,$9,$2,$3,0*%
G04 Aperture macros list end*
%ADD10C,0.150000*%
%ADD11C,0.125000*%
%ADD12C,0.062500*%
%ADD13C,0.120000*%
%ADD14C,0.152400*%
%ADD15R,1.120000X2.440000*%
%ADD16RoundRect,0.200000X-0.275000X0.200000X-0.275000X-0.200000X0.275000X-0.200000X0.275000X0.200000X0*%
%ADD17RoundRect,0.237500X-0.237500X0.287500X-0.237500X-0.287500X0.237500X-0.287500X0.237500X0.287500X0*%
%ADD18RoundRect,0.250000X0.350000X0.450000X-0.350000X0.450000X-0.350000X-0.450000X0.350000X-0.450000X0*%
%ADD19RoundRect,0.200000X0.200000X0.275000X-0.200000X0.275000X-0.200000X-0.275000X0.200000X-0.275000X0*%
%ADD20RoundRect,0.200000X0.275000X-0.200000X0.275000X0.200000X-0.275000X0.200000X-0.275000X-0.200000X0*%
%ADD21R,1.400000X1.200000*%
%ADD22RoundRect,0.225000X-0.225000X-0.250000X0.225000X-0.250000X0.225000X0.250000X-0.225000X0.250000X0*%
%ADD23RoundRect,0.237500X0.250000X0.237500X-0.250000X0.237500X-0.250000X-0.237500X0.250000X-0.237500X0*%
%ADD24RoundRect,0.225000X0.225000X0.250000X-0.225000X0.250000X-0.225000X-0.250000X0.225000X-0.250000X0*%
%ADD25RoundRect,0.250000X-0.337500X-0.475000X0.337500X-0.475000X0.337500X0.475000X-0.337500X0.475000X0*%
%ADD26RoundRect,0.237500X0.237500X-0.300000X0.237500X0.300000X-0.237500X0.300000X-0.237500X-0.300000X0*%
%ADD27RoundRect,0.075000X-0.075000X0.700000X-0.075000X-0.700000X0.075000X-0.700000X0.075000X0.700000X0*%
%ADD28RoundRect,0.075000X-0.700000X0.075000X-0.700000X-0.075000X0.700000X-0.075000X0.700000X0.075000X0*%
%ADD29RoundRect,0.250000X-1.075000X0.375000X-1.075000X-0.375000X1.075000X-0.375000X1.075000X0.375000X0*%
%ADD30O,1.150000X1.800000*%
%ADD31O,1.450000X2.000000*%
%ADD32O,0.800000X0.800000*%
%ADD33R,0.450000X1.300000*%
%ADD34RoundRect,0.218750X-0.218750X-0.256250X0.218750X-0.256250X0.218750X0.256250X-0.218750X0.256250X0*%
%ADD35R,1.600000X2.200000*%
%ADD36R,0.381000X1.219200*%
%ADD37R,1.700000X1.700000*%
%ADD38C,0.800000*%
%ADD39R,0.900000X1.700000*%
%ADD40R,1.257300X0.508000*%
%ADD41RoundRect,0.225000X-0.250000X0.225000X-0.250000X-0.225000X0.250000X-0.225000X0.250000X0.225000X0*%
%ADD42RoundRect,0.250000X2.050000X0.300000X-2.050000X0.300000X-2.050000X-0.300000X2.050000X-0.300000X0*%
%ADD43RoundRect,0.250002X4.449998X5.149998X-4.449998X5.149998X-4.449998X-5.149998X4.449998X-5.149998X0*%
%ADD44RoundRect,0.218750X-0.381250X0.218750X-0.381250X-0.218750X0.381250X-0.218750X0.381250X0.218750X0*%
%ADD45RoundRect,0.237500X0.237500X-0.287500X0.237500X0.287500X-0.237500X0.287500X-0.237500X-0.287500X0*%
%ADD46RoundRect,0.200000X-0.200000X-0.275000X0.200000X-0.275000X0.200000X0.275000X-0.200000X0.275000X0*%
%ADD47R,0.850000X2.350000*%
%ADD48R,0.711200X0.304800*%
%ADD49RoundRect,0.250000X-1.075000X0.425000X-1.075000X-0.425000X1.075000X-0.425000X1.075000X0.425000X0*%
%ADD50C,3.200000*%
G04 APERTURE END LIST*
D10*
X9554724Y-10826009D02*
X9549962Y-10835533D01*
X9549962Y-10835533D02*
X9549962Y-10849819D01*
X9549962Y-10849819D02*
X9554724Y-10864104D01*
X9554724Y-10864104D02*
X9564248Y-10873628D01*
X9564248Y-10873628D02*
X9573771Y-10878390D01*
X9573771Y-10878390D02*
X9592819Y-10883152D01*
X9592819Y-10883152D02*
X9607105Y-10883152D01*
X9607105Y-10883152D02*
X9626152Y-10878390D01*
X9626152Y-10878390D02*
X9635676Y-10873628D01*
X9635676Y-10873628D02*
X9645200Y-10864104D01*
X9645200Y-10864104D02*
X9649962Y-10849819D01*
X9649962Y-10849819D02*
X9649962Y-10840295D01*
X9649962Y-10840295D02*
X9645200Y-10826009D01*
X9645200Y-10826009D02*
X9640438Y-10821247D01*
X9640438Y-10821247D02*
X9607105Y-10821247D01*
X9607105Y-10821247D02*
X9607105Y-10840295D01*
X9649962Y-10735533D02*
X9597581Y-10735533D01*
X9597581Y-10735533D02*
X9588057Y-10740295D01*
X9588057Y-10740295D02*
X9583295Y-10749819D01*
X9583295Y-10749819D02*
X9583295Y-10768866D01*
X9583295Y-10768866D02*
X9588057Y-10778390D01*
X9645200Y-10735533D02*
X9649962Y-10745057D01*
X9649962Y-10745057D02*
X9649962Y-10768866D01*
X9649962Y-10768866D02*
X9645200Y-10778390D01*
X9645200Y-10778390D02*
X9635676Y-10783152D01*
X9635676Y-10783152D02*
X9626152Y-10783152D01*
X9626152Y-10783152D02*
X9616629Y-10778390D01*
X9616629Y-10778390D02*
X9611867Y-10768866D01*
X9611867Y-10768866D02*
X9611867Y-10745057D01*
X9611867Y-10745057D02*
X9607105Y-10735533D01*
X9649962Y-10687914D02*
X9549962Y-10687914D01*
X9588057Y-10687914D02*
X9583295Y-10678390D01*
X9583295Y-10678390D02*
X9583295Y-10659343D01*
X9583295Y-10659343D02*
X9588057Y-10649819D01*
X9588057Y-10649819D02*
X9592819Y-10645057D01*
X9592819Y-10645057D02*
X9602343Y-10640295D01*
X9602343Y-10640295D02*
X9630914Y-10640295D01*
X9630914Y-10640295D02*
X9640438Y-10645057D01*
X9640438Y-10645057D02*
X9645200Y-10649819D01*
X9645200Y-10649819D02*
X9649962Y-10659343D01*
X9649962Y-10659343D02*
X9649962Y-10678390D01*
X9649962Y-10678390D02*
X9645200Y-10687914D01*
X9649962Y-10597438D02*
X9583295Y-10597438D01*
X9602343Y-10597438D02*
X9592819Y-10592676D01*
X9592819Y-10592676D02*
X9588057Y-10587914D01*
X9588057Y-10587914D02*
X9583295Y-10578390D01*
X9583295Y-10578390D02*
X9583295Y-10568866D01*
X9649962Y-10535533D02*
X9583295Y-10535533D01*
X9549962Y-10535533D02*
X9554724Y-10540295D01*
X9554724Y-10540295D02*
X9559486Y-10535533D01*
X9559486Y-10535533D02*
X9554724Y-10530771D01*
X9554724Y-10530771D02*
X9549962Y-10535533D01*
X9549962Y-10535533D02*
X9559486Y-10535533D01*
X9645200Y-10449819D02*
X9649962Y-10459343D01*
X9649962Y-10459343D02*
X9649962Y-10478390D01*
X9649962Y-10478390D02*
X9645200Y-10487914D01*
X9645200Y-10487914D02*
X9635676Y-10492676D01*
X9635676Y-10492676D02*
X9597581Y-10492676D01*
X9597581Y-10492676D02*
X9588057Y-10487914D01*
X9588057Y-10487914D02*
X9583295Y-10478390D01*
X9583295Y-10478390D02*
X9583295Y-10459343D01*
X9583295Y-10459343D02*
X9588057Y-10449819D01*
X9588057Y-10449819D02*
X9597581Y-10445057D01*
X9597581Y-10445057D02*
X9607105Y-10445057D01*
X9607105Y-10445057D02*
X9616629Y-10492676D01*
X9649962Y-10387914D02*
X9645200Y-10397438D01*
X9645200Y-10397438D02*
X9635676Y-10402200D01*
X9635676Y-10402200D02*
X9549962Y-10402200D01*
X9640438Y-10216485D02*
X9645200Y-10221247D01*
X9645200Y-10221247D02*
X9649962Y-10235533D01*
X9649962Y-10235533D02*
X9649962Y-10245057D01*
X9649962Y-10245057D02*
X9645200Y-10259342D01*
X9645200Y-10259342D02*
X9635676Y-10268866D01*
X9635676Y-10268866D02*
X9626152Y-10273628D01*
X9626152Y-10273628D02*
X9607105Y-10278390D01*
X9607105Y-10278390D02*
X9592819Y-10278390D01*
X9592819Y-10278390D02*
X9573771Y-10273628D01*
X9573771Y-10273628D02*
X9564248Y-10268866D01*
X9564248Y-10268866D02*
X9554724Y-10259342D01*
X9554724Y-10259342D02*
X9549962Y-10245057D01*
X9549962Y-10245057D02*
X9549962Y-10235533D01*
X9549962Y-10235533D02*
X9554724Y-10221247D01*
X9554724Y-10221247D02*
X9559486Y-10216485D01*
X9649962Y-10130771D02*
X9597581Y-10130771D01*
X9597581Y-10130771D02*
X9588057Y-10135533D01*
X9588057Y-10135533D02*
X9583295Y-10145057D01*
X9583295Y-10145057D02*
X9583295Y-10164104D01*
X9583295Y-10164104D02*
X9588057Y-10173628D01*
X9645200Y-10130771D02*
X9649962Y-10140295D01*
X9649962Y-10140295D02*
X9649962Y-10164104D01*
X9649962Y-10164104D02*
X9645200Y-10173628D01*
X9645200Y-10173628D02*
X9635676Y-10178390D01*
X9635676Y-10178390D02*
X9626152Y-10178390D01*
X9626152Y-10178390D02*
X9616629Y-10173628D01*
X9616629Y-10173628D02*
X9611867Y-10164104D01*
X9611867Y-10164104D02*
X9611867Y-10140295D01*
X9611867Y-10140295D02*
X9607105Y-10130771D01*
X9649962Y-10083152D02*
X9583295Y-10083152D01*
X9602343Y-10083152D02*
X9592819Y-10078390D01*
X9592819Y-10078390D02*
X9588057Y-10073628D01*
X9588057Y-10073628D02*
X9583295Y-10064104D01*
X9583295Y-10064104D02*
X9583295Y-10054581D01*
X9649962Y-10021247D02*
X9583295Y-10021247D01*
X9602343Y-10021247D02*
X9592819Y-10016485D01*
X9592819Y-10016485D02*
X9588057Y-10011723D01*
X9588057Y-10011723D02*
X9583295Y-10002200D01*
X9583295Y-10002200D02*
X9583295Y-9992676D01*
X9649962Y-9959342D02*
X9583295Y-9959342D01*
X9549962Y-9959342D02*
X9554724Y-9964104D01*
X9554724Y-9964104D02*
X9559486Y-9959342D01*
X9559486Y-9959342D02*
X9554724Y-9954580D01*
X9554724Y-9954580D02*
X9549962Y-9959342D01*
X9549962Y-9959342D02*
X9559486Y-9959342D01*
X9583295Y-9911723D02*
X9669010Y-9911723D01*
X9669010Y-9911723D02*
X9678533Y-9916485D01*
X9678533Y-9916485D02*
X9683295Y-9926009D01*
X9683295Y-9926009D02*
X9683295Y-9930771D01*
X9549962Y-9911723D02*
X9554724Y-9916485D01*
X9554724Y-9916485D02*
X9559486Y-9911723D01*
X9559486Y-9911723D02*
X9554724Y-9906961D01*
X9554724Y-9906961D02*
X9549962Y-9911723D01*
X9549962Y-9911723D02*
X9559486Y-9911723D01*
X9649962Y-9849819D02*
X9645200Y-9859342D01*
X9645200Y-9859342D02*
X9640438Y-9864104D01*
X9640438Y-9864104D02*
X9630914Y-9868866D01*
X9630914Y-9868866D02*
X9602343Y-9868866D01*
X9602343Y-9868866D02*
X9592819Y-9864104D01*
X9592819Y-9864104D02*
X9588057Y-9859342D01*
X9588057Y-9859342D02*
X9583295Y-9849819D01*
X9583295Y-9849819D02*
X9583295Y-9835533D01*
X9583295Y-9835533D02*
X9588057Y-9826009D01*
X9588057Y-9826009D02*
X9592819Y-9821247D01*
X9592819Y-9821247D02*
X9602343Y-9816485D01*
X9602343Y-9816485D02*
X9630914Y-9816485D01*
X9630914Y-9816485D02*
X9640438Y-9821247D01*
X9640438Y-9821247D02*
X9645200Y-9826009D01*
X9645200Y-9826009D02*
X9649962Y-9835533D01*
X9649962Y-9835533D02*
X9649962Y-9849819D01*
X9811962Y-10940295D02*
X9711962Y-10940295D01*
X9811962Y-10883152D02*
X9754819Y-10926010D01*
X9711962Y-10883152D02*
X9769105Y-10940295D01*
X9811962Y-10797438D02*
X9759581Y-10797438D01*
X9759581Y-10797438D02*
X9750057Y-10802200D01*
X9750057Y-10802200D02*
X9745295Y-10811724D01*
X9745295Y-10811724D02*
X9745295Y-10830771D01*
X9745295Y-10830771D02*
X9750057Y-10840295D01*
X9807200Y-10797438D02*
X9811962Y-10806962D01*
X9811962Y-10806962D02*
X9811962Y-10830771D01*
X9811962Y-10830771D02*
X9807200Y-10840295D01*
X9807200Y-10840295D02*
X9797676Y-10845057D01*
X9797676Y-10845057D02*
X9788152Y-10845057D01*
X9788152Y-10845057D02*
X9778629Y-10840295D01*
X9778629Y-10840295D02*
X9773867Y-10830771D01*
X9773867Y-10830771D02*
X9773867Y-10806962D01*
X9773867Y-10806962D02*
X9769105Y-10797438D01*
X9811962Y-10749819D02*
X9745295Y-10749819D01*
X9764343Y-10749819D02*
X9754819Y-10745057D01*
X9754819Y-10745057D02*
X9750057Y-10740295D01*
X9750057Y-10740295D02*
X9745295Y-10730771D01*
X9745295Y-10730771D02*
X9745295Y-10721248D01*
X9811962Y-10673629D02*
X9807200Y-10683152D01*
X9807200Y-10683152D02*
X9802438Y-10687914D01*
X9802438Y-10687914D02*
X9792914Y-10692676D01*
X9792914Y-10692676D02*
X9764343Y-10692676D01*
X9764343Y-10692676D02*
X9754819Y-10687914D01*
X9754819Y-10687914D02*
X9750057Y-10683152D01*
X9750057Y-10683152D02*
X9745295Y-10673629D01*
X9745295Y-10673629D02*
X9745295Y-10659343D01*
X9745295Y-10659343D02*
X9750057Y-10649819D01*
X9750057Y-10649819D02*
X9754819Y-10645057D01*
X9754819Y-10645057D02*
X9764343Y-10640295D01*
X9764343Y-10640295D02*
X9792914Y-10640295D01*
X9792914Y-10640295D02*
X9802438Y-10645057D01*
X9802438Y-10645057D02*
X9807200Y-10649819D01*
X9807200Y-10649819D02*
X9811962Y-10659343D01*
X9811962Y-10659343D02*
X9811962Y-10673629D01*
X9811962Y-10583152D02*
X9807200Y-10592676D01*
X9807200Y-10592676D02*
X9797676Y-10597438D01*
X9797676Y-10597438D02*
X9711962Y-10597438D01*
X9811962Y-10545057D02*
X9745295Y-10545057D01*
X9711962Y-10545057D02*
X9716724Y-10549819D01*
X9716724Y-10549819D02*
X9721486Y-10545057D01*
X9721486Y-10545057D02*
X9716724Y-10540295D01*
X9716724Y-10540295D02*
X9711962Y-10545057D01*
X9711962Y-10545057D02*
X9721486Y-10545057D01*
X9745295Y-10497438D02*
X9811962Y-10497438D01*
X9754819Y-10497438D02*
X9750057Y-10492676D01*
X9750057Y-10492676D02*
X9745295Y-10483152D01*
X9745295Y-10483152D02*
X9745295Y-10468867D01*
X9745295Y-10468867D02*
X9750057Y-10459343D01*
X9750057Y-10459343D02*
X9759581Y-10454581D01*
X9759581Y-10454581D02*
X9811962Y-10454581D01*
X9807200Y-10368867D02*
X9811962Y-10378390D01*
X9811962Y-10378390D02*
X9811962Y-10397438D01*
X9811962Y-10397438D02*
X9807200Y-10406962D01*
X9807200Y-10406962D02*
X9797676Y-10411724D01*
X9797676Y-10411724D02*
X9759581Y-10411724D01*
X9759581Y-10411724D02*
X9750057Y-10406962D01*
X9750057Y-10406962D02*
X9745295Y-10397438D01*
X9745295Y-10397438D02*
X9745295Y-10378390D01*
X9745295Y-10378390D02*
X9750057Y-10368867D01*
X9750057Y-10368867D02*
X9759581Y-10364105D01*
X9759581Y-10364105D02*
X9769105Y-10364105D01*
X9769105Y-10364105D02*
X9778629Y-10411724D01*
X9759581Y-10211724D02*
X9764343Y-10197438D01*
X9764343Y-10197438D02*
X9769105Y-10192676D01*
X9769105Y-10192676D02*
X9778629Y-10187914D01*
X9778629Y-10187914D02*
X9792914Y-10187914D01*
X9792914Y-10187914D02*
X9802438Y-10192676D01*
X9802438Y-10192676D02*
X9807200Y-10197438D01*
X9807200Y-10197438D02*
X9811962Y-10206962D01*
X9811962Y-10206962D02*
X9811962Y-10245057D01*
X9811962Y-10245057D02*
X9711962Y-10245057D01*
X9711962Y-10245057D02*
X9711962Y-10211724D01*
X9711962Y-10211724D02*
X9716724Y-10202200D01*
X9716724Y-10202200D02*
X9721486Y-10197438D01*
X9721486Y-10197438D02*
X9731010Y-10192676D01*
X9731010Y-10192676D02*
X9740533Y-10192676D01*
X9740533Y-10192676D02*
X9750057Y-10197438D01*
X9750057Y-10197438D02*
X9754819Y-10202200D01*
X9754819Y-10202200D02*
X9759581Y-10211724D01*
X9759581Y-10211724D02*
X9759581Y-10245057D01*
X9811962Y-10102200D02*
X9759581Y-10102200D01*
X9759581Y-10102200D02*
X9750057Y-10106962D01*
X9750057Y-10106962D02*
X9745295Y-10116486D01*
X9745295Y-10116486D02*
X9745295Y-10135533D01*
X9745295Y-10135533D02*
X9750057Y-10145057D01*
X9807200Y-10102200D02*
X9811962Y-10111724D01*
X9811962Y-10111724D02*
X9811962Y-10135533D01*
X9811962Y-10135533D02*
X9807200Y-10145057D01*
X9807200Y-10145057D02*
X9797676Y-10149819D01*
X9797676Y-10149819D02*
X9788152Y-10149819D01*
X9788152Y-10149819D02*
X9778629Y-10145057D01*
X9778629Y-10145057D02*
X9773867Y-10135533D01*
X9773867Y-10135533D02*
X9773867Y-10111724D01*
X9773867Y-10111724D02*
X9769105Y-10102200D01*
X9811962Y-10054581D02*
X9745295Y-10054581D01*
X9764343Y-10054581D02*
X9754819Y-10049819D01*
X9754819Y-10049819D02*
X9750057Y-10045057D01*
X9750057Y-10045057D02*
X9745295Y-10035533D01*
X9745295Y-10035533D02*
X9745295Y-10026009D01*
X9811962Y-9992676D02*
X9711962Y-9992676D01*
X9750057Y-9992676D02*
X9745295Y-9983152D01*
X9745295Y-9983152D02*
X9745295Y-9964105D01*
X9745295Y-9964105D02*
X9750057Y-9954581D01*
X9750057Y-9954581D02*
X9754819Y-9949819D01*
X9754819Y-9949819D02*
X9764343Y-9945057D01*
X9764343Y-9945057D02*
X9792914Y-9945057D01*
X9792914Y-9945057D02*
X9802438Y-9949819D01*
X9802438Y-9949819D02*
X9807200Y-9954581D01*
X9807200Y-9954581D02*
X9811962Y-9964105D01*
X9811962Y-9964105D02*
X9811962Y-9983152D01*
X9811962Y-9983152D02*
X9807200Y-9992676D01*
X9811962Y-9887914D02*
X9807200Y-9897438D01*
X9807200Y-9897438D02*
X9802438Y-9902200D01*
X9802438Y-9902200D02*
X9792914Y-9906962D01*
X9792914Y-9906962D02*
X9764343Y-9906962D01*
X9764343Y-9906962D02*
X9754819Y-9902200D01*
X9754819Y-9902200D02*
X9750057Y-9897438D01*
X9750057Y-9897438D02*
X9745295Y-9887914D01*
X9745295Y-9887914D02*
X9745295Y-9873628D01*
X9745295Y-9873628D02*
X9750057Y-9864105D01*
X9750057Y-9864105D02*
X9754819Y-9859343D01*
X9754819Y-9859343D02*
X9764343Y-9854581D01*
X9764343Y-9854581D02*
X9792914Y-9854581D01*
X9792914Y-9854581D02*
X9802438Y-9859343D01*
X9802438Y-9859343D02*
X9807200Y-9864105D01*
X9807200Y-9864105D02*
X9811962Y-9873628D01*
X9811962Y-9873628D02*
X9811962Y-9887914D01*
X9807200Y-9816486D02*
X9811962Y-9806962D01*
X9811962Y-9806962D02*
X9811962Y-9787914D01*
X9811962Y-9787914D02*
X9807200Y-9778390D01*
X9807200Y-9778390D02*
X9797676Y-9773628D01*
X9797676Y-9773628D02*
X9792914Y-9773628D01*
X9792914Y-9773628D02*
X9783390Y-9778390D01*
X9783390Y-9778390D02*
X9778629Y-9787914D01*
X9778629Y-9787914D02*
X9778629Y-9802200D01*
X9778629Y-9802200D02*
X9773867Y-9811724D01*
X9773867Y-9811724D02*
X9764343Y-9816486D01*
X9764343Y-9816486D02*
X9759581Y-9816486D01*
X9759581Y-9816486D02*
X9750057Y-9811724D01*
X9750057Y-9811724D02*
X9745295Y-9802200D01*
X9745295Y-9802200D02*
X9745295Y-9787914D01*
X9745295Y-9787914D02*
X9750057Y-9778390D01*
X9811962Y-9687914D02*
X9759581Y-9687914D01*
X9759581Y-9687914D02*
X9750057Y-9692676D01*
X9750057Y-9692676D02*
X9745295Y-9702200D01*
X9745295Y-9702200D02*
X9745295Y-9721247D01*
X9745295Y-9721247D02*
X9750057Y-9730771D01*
X9807200Y-9687914D02*
X9811962Y-9697438D01*
X9811962Y-9697438D02*
X9811962Y-9721247D01*
X9811962Y-9721247D02*
X9807200Y-9730771D01*
X9807200Y-9730771D02*
X9797676Y-9735533D01*
X9797676Y-9735533D02*
X9788152Y-9735533D01*
X9788152Y-9735533D02*
X9778629Y-9730771D01*
X9778629Y-9730771D02*
X9773867Y-9721247D01*
X9773867Y-9721247D02*
X9773867Y-9697438D01*
X9773867Y-9697438D02*
X9769105Y-9687914D01*
X9973962Y-10766486D02*
X9973962Y-10814105D01*
X9973962Y-10814105D02*
X9873962Y-10814105D01*
X9907295Y-10690295D02*
X9973962Y-10690295D01*
X9907295Y-10733152D02*
X9959676Y-10733152D01*
X9959676Y-10733152D02*
X9969200Y-10728390D01*
X9969200Y-10728390D02*
X9973962Y-10718867D01*
X9973962Y-10718867D02*
X9973962Y-10704581D01*
X9973962Y-10704581D02*
X9969200Y-10695057D01*
X9969200Y-10695057D02*
X9964438Y-10690295D01*
X9969200Y-10599819D02*
X9973962Y-10609343D01*
X9973962Y-10609343D02*
X9973962Y-10628390D01*
X9973962Y-10628390D02*
X9969200Y-10637914D01*
X9969200Y-10637914D02*
X9964438Y-10642676D01*
X9964438Y-10642676D02*
X9954914Y-10647438D01*
X9954914Y-10647438D02*
X9926343Y-10647438D01*
X9926343Y-10647438D02*
X9916819Y-10642676D01*
X9916819Y-10642676D02*
X9912057Y-10637914D01*
X9912057Y-10637914D02*
X9907295Y-10628390D01*
X9907295Y-10628390D02*
X9907295Y-10609343D01*
X9907295Y-10609343D02*
X9912057Y-10599819D01*
X9973962Y-10514105D02*
X9921581Y-10514105D01*
X9921581Y-10514105D02*
X9912057Y-10518867D01*
X9912057Y-10518867D02*
X9907295Y-10528390D01*
X9907295Y-10528390D02*
X9907295Y-10547438D01*
X9907295Y-10547438D02*
X9912057Y-10556962D01*
X9969200Y-10514105D02*
X9973962Y-10523629D01*
X9973962Y-10523629D02*
X9973962Y-10547438D01*
X9973962Y-10547438D02*
X9969200Y-10556962D01*
X9969200Y-10556962D02*
X9959676Y-10561724D01*
X9959676Y-10561724D02*
X9950152Y-10561724D01*
X9950152Y-10561724D02*
X9940629Y-10556962D01*
X9940629Y-10556962D02*
X9935867Y-10547438D01*
X9935867Y-10547438D02*
X9935867Y-10523629D01*
X9935867Y-10523629D02*
X9931105Y-10514105D01*
X9969200Y-10471248D02*
X9973962Y-10461724D01*
X9973962Y-10461724D02*
X9973962Y-10442676D01*
X9973962Y-10442676D02*
X9969200Y-10433152D01*
X9969200Y-10433152D02*
X9959676Y-10428390D01*
X9959676Y-10428390D02*
X9954914Y-10428390D01*
X9954914Y-10428390D02*
X9945390Y-10433152D01*
X9945390Y-10433152D02*
X9940629Y-10442676D01*
X9940629Y-10442676D02*
X9940629Y-10456962D01*
X9940629Y-10456962D02*
X9935867Y-10466486D01*
X9935867Y-10466486D02*
X9926343Y-10471248D01*
X9926343Y-10471248D02*
X9921581Y-10471248D01*
X9921581Y-10471248D02*
X9912057Y-10466486D01*
X9912057Y-10466486D02*
X9907295Y-10456962D01*
X9907295Y-10456962D02*
X9907295Y-10442676D01*
X9907295Y-10442676D02*
X9912057Y-10433152D01*
X9973962Y-10309343D02*
X9873962Y-10309343D01*
X9873962Y-10309343D02*
X9945390Y-10276009D01*
X9945390Y-10276009D02*
X9873962Y-10242676D01*
X9873962Y-10242676D02*
X9973962Y-10242676D01*
X9973962Y-10152200D02*
X9921581Y-10152200D01*
X9921581Y-10152200D02*
X9912057Y-10156962D01*
X9912057Y-10156962D02*
X9907295Y-10166486D01*
X9907295Y-10166486D02*
X9907295Y-10185533D01*
X9907295Y-10185533D02*
X9912057Y-10195057D01*
X9969200Y-10152200D02*
X9973962Y-10161724D01*
X9973962Y-10161724D02*
X9973962Y-10185533D01*
X9973962Y-10185533D02*
X9969200Y-10195057D01*
X9969200Y-10195057D02*
X9959676Y-10199819D01*
X9959676Y-10199819D02*
X9950152Y-10199819D01*
X9950152Y-10199819D02*
X9940629Y-10195057D01*
X9940629Y-10195057D02*
X9935867Y-10185533D01*
X9935867Y-10185533D02*
X9935867Y-10161724D01*
X9935867Y-10161724D02*
X9931105Y-10152200D01*
X9973962Y-10104581D02*
X9907295Y-10104581D01*
X9926343Y-10104581D02*
X9916819Y-10099819D01*
X9916819Y-10099819D02*
X9912057Y-10095057D01*
X9912057Y-10095057D02*
X9907295Y-10085533D01*
X9907295Y-10085533D02*
X9907295Y-10076009D01*
X9907295Y-10056962D02*
X9907295Y-10018867D01*
X9873962Y-10042676D02*
X9959676Y-10042676D01*
X9959676Y-10042676D02*
X9969200Y-10037914D01*
X9969200Y-10037914D02*
X9973962Y-10028390D01*
X9973962Y-10028390D02*
X9973962Y-10018867D01*
X9973962Y-9985533D02*
X9907295Y-9985533D01*
X9873962Y-9985533D02*
X9878724Y-9990295D01*
X9878724Y-9990295D02*
X9883486Y-9985533D01*
X9883486Y-9985533D02*
X9878724Y-9980771D01*
X9878724Y-9980771D02*
X9873962Y-9985533D01*
X9873962Y-9985533D02*
X9883486Y-9985533D01*
X9907295Y-9937914D02*
X9973962Y-9937914D01*
X9916819Y-9937914D02*
X9912057Y-9933152D01*
X9912057Y-9933152D02*
X9907295Y-9923628D01*
X9907295Y-9923628D02*
X9907295Y-9909343D01*
X9907295Y-9909343D02*
X9912057Y-9899819D01*
X9912057Y-9899819D02*
X9921581Y-9895057D01*
X9921581Y-9895057D02*
X9973962Y-9895057D01*
X9969200Y-9852200D02*
X9973962Y-9842676D01*
X9973962Y-9842676D02*
X9973962Y-9823628D01*
X9973962Y-9823628D02*
X9969200Y-9814105D01*
X9969200Y-9814105D02*
X9959676Y-9809343D01*
X9959676Y-9809343D02*
X9954914Y-9809343D01*
X9954914Y-9809343D02*
X9945390Y-9814105D01*
X9945390Y-9814105D02*
X9940629Y-9823628D01*
X9940629Y-9823628D02*
X9940629Y-9837914D01*
X9940629Y-9837914D02*
X9935867Y-9847438D01*
X9935867Y-9847438D02*
X9926343Y-9852200D01*
X9926343Y-9852200D02*
X9921581Y-9852200D01*
X9921581Y-9852200D02*
X9912057Y-9847438D01*
X9912057Y-9847438D02*
X9907295Y-9837914D01*
X9907295Y-9837914D02*
X9907295Y-9823628D01*
X9907295Y-9823628D02*
X9912057Y-9814105D01*
X10035962Y-10990295D02*
X10035962Y-10971248D01*
X10035962Y-10971248D02*
X10040724Y-10961724D01*
X10040724Y-10961724D02*
X10050248Y-10952200D01*
X10050248Y-10952200D02*
X10069295Y-10947438D01*
X10069295Y-10947438D02*
X10102629Y-10947438D01*
X10102629Y-10947438D02*
X10121676Y-10952200D01*
X10121676Y-10952200D02*
X10131200Y-10961724D01*
X10131200Y-10961724D02*
X10135962Y-10971248D01*
X10135962Y-10971248D02*
X10135962Y-10990295D01*
X10135962Y-10990295D02*
X10131200Y-10999819D01*
X10131200Y-10999819D02*
X10121676Y-11009343D01*
X10121676Y-11009343D02*
X10102629Y-11014105D01*
X10102629Y-11014105D02*
X10069295Y-11014105D01*
X10069295Y-11014105D02*
X10050248Y-11009343D01*
X10050248Y-11009343D02*
X10040724Y-10999819D01*
X10040724Y-10999819D02*
X10035962Y-10990295D01*
X10069295Y-10918867D02*
X10069295Y-10880771D01*
X10035962Y-10904581D02*
X10121676Y-10904581D01*
X10121676Y-10904581D02*
X10131200Y-10899819D01*
X10131200Y-10899819D02*
X10135962Y-10890295D01*
X10135962Y-10890295D02*
X10135962Y-10880771D01*
X10135962Y-10804581D02*
X10083581Y-10804581D01*
X10083581Y-10804581D02*
X10074057Y-10809343D01*
X10074057Y-10809343D02*
X10069295Y-10818867D01*
X10069295Y-10818867D02*
X10069295Y-10837914D01*
X10069295Y-10837914D02*
X10074057Y-10847438D01*
X10131200Y-10804581D02*
X10135962Y-10814105D01*
X10135962Y-10814105D02*
X10135962Y-10837914D01*
X10135962Y-10837914D02*
X10131200Y-10847438D01*
X10131200Y-10847438D02*
X10121676Y-10852200D01*
X10121676Y-10852200D02*
X10112152Y-10852200D01*
X10112152Y-10852200D02*
X10102629Y-10847438D01*
X10102629Y-10847438D02*
X10097867Y-10837914D01*
X10097867Y-10837914D02*
X10097867Y-10814105D01*
X10097867Y-10814105D02*
X10093105Y-10804581D01*
X10031200Y-10818867D02*
X10045486Y-10833152D01*
X10069295Y-10766486D02*
X10135962Y-10742676D01*
X10135962Y-10742676D02*
X10069295Y-10718867D01*
X10135962Y-10680771D02*
X10069295Y-10680771D01*
X10035962Y-10680771D02*
X10040724Y-10685533D01*
X10040724Y-10685533D02*
X10045486Y-10680771D01*
X10045486Y-10680771D02*
X10040724Y-10676009D01*
X10040724Y-10676009D02*
X10035962Y-10680771D01*
X10035962Y-10680771D02*
X10045486Y-10680771D01*
X10135962Y-10618867D02*
X10131200Y-10628390D01*
X10131200Y-10628390D02*
X10126438Y-10633152D01*
X10126438Y-10633152D02*
X10116914Y-10637914D01*
X10116914Y-10637914D02*
X10088343Y-10637914D01*
X10088343Y-10637914D02*
X10078819Y-10633152D01*
X10078819Y-10633152D02*
X10074057Y-10628390D01*
X10074057Y-10628390D02*
X10069295Y-10618867D01*
X10069295Y-10618867D02*
X10069295Y-10604581D01*
X10069295Y-10604581D02*
X10074057Y-10595057D01*
X10074057Y-10595057D02*
X10078819Y-10590295D01*
X10078819Y-10590295D02*
X10088343Y-10585533D01*
X10088343Y-10585533D02*
X10116914Y-10585533D01*
X10116914Y-10585533D02*
X10126438Y-10590295D01*
X10126438Y-10590295D02*
X10131200Y-10595057D01*
X10131200Y-10595057D02*
X10135962Y-10604581D01*
X10135962Y-10604581D02*
X10135962Y-10618867D01*
X10135962Y-10466486D02*
X10035962Y-10466486D01*
X10035962Y-10466486D02*
X10035962Y-10442676D01*
X10035962Y-10442676D02*
X10040724Y-10428390D01*
X10040724Y-10428390D02*
X10050248Y-10418867D01*
X10050248Y-10418867D02*
X10059771Y-10414105D01*
X10059771Y-10414105D02*
X10078819Y-10409343D01*
X10078819Y-10409343D02*
X10093105Y-10409343D01*
X10093105Y-10409343D02*
X10112152Y-10414105D01*
X10112152Y-10414105D02*
X10121676Y-10418867D01*
X10121676Y-10418867D02*
X10131200Y-10428390D01*
X10131200Y-10428390D02*
X10135962Y-10442676D01*
X10135962Y-10442676D02*
X10135962Y-10466486D01*
X10131200Y-10328390D02*
X10135962Y-10337914D01*
X10135962Y-10337914D02*
X10135962Y-10356962D01*
X10135962Y-10356962D02*
X10131200Y-10366486D01*
X10131200Y-10366486D02*
X10121676Y-10371248D01*
X10121676Y-10371248D02*
X10083581Y-10371248D01*
X10083581Y-10371248D02*
X10074057Y-10366486D01*
X10074057Y-10366486D02*
X10069295Y-10356962D01*
X10069295Y-10356962D02*
X10069295Y-10337914D01*
X10069295Y-10337914D02*
X10074057Y-10328390D01*
X10074057Y-10328390D02*
X10083581Y-10323629D01*
X10083581Y-10323629D02*
X10093105Y-10323629D01*
X10093105Y-10323629D02*
X10102629Y-10371248D01*
X10135962Y-10266486D02*
X10131200Y-10276009D01*
X10131200Y-10276009D02*
X10121676Y-10280771D01*
X10121676Y-10280771D02*
X10035962Y-10280771D01*
X10083581Y-10118867D02*
X10088343Y-10104581D01*
X10088343Y-10104581D02*
X10093105Y-10099819D01*
X10093105Y-10099819D02*
X10102629Y-10095057D01*
X10102629Y-10095057D02*
X10116914Y-10095057D01*
X10116914Y-10095057D02*
X10126438Y-10099819D01*
X10126438Y-10099819D02*
X10131200Y-10104581D01*
X10131200Y-10104581D02*
X10135962Y-10114105D01*
X10135962Y-10114105D02*
X10135962Y-10152200D01*
X10135962Y-10152200D02*
X10035962Y-10152200D01*
X10035962Y-10152200D02*
X10035962Y-10118867D01*
X10035962Y-10118867D02*
X10040724Y-10109343D01*
X10040724Y-10109343D02*
X10045486Y-10104581D01*
X10045486Y-10104581D02*
X10055010Y-10099819D01*
X10055010Y-10099819D02*
X10064533Y-10099819D01*
X10064533Y-10099819D02*
X10074057Y-10104581D01*
X10074057Y-10104581D02*
X10078819Y-10109343D01*
X10078819Y-10109343D02*
X10083581Y-10118867D01*
X10083581Y-10118867D02*
X10083581Y-10152200D01*
X10135962Y-10052200D02*
X10069295Y-10052200D01*
X10035962Y-10052200D02*
X10040724Y-10056962D01*
X10040724Y-10056962D02*
X10045486Y-10052200D01*
X10045486Y-10052200D02*
X10040724Y-10047438D01*
X10040724Y-10047438D02*
X10035962Y-10052200D01*
X10035962Y-10052200D02*
X10045486Y-10052200D01*
X10135962Y-9961724D02*
X10083581Y-9961724D01*
X10083581Y-9961724D02*
X10074057Y-9966486D01*
X10074057Y-9966486D02*
X10069295Y-9976009D01*
X10069295Y-9976009D02*
X10069295Y-9995057D01*
X10069295Y-9995057D02*
X10074057Y-10004581D01*
X10131200Y-9961724D02*
X10135962Y-9971248D01*
X10135962Y-9971248D02*
X10135962Y-9995057D01*
X10135962Y-9995057D02*
X10131200Y-10004581D01*
X10131200Y-10004581D02*
X10121676Y-10009343D01*
X10121676Y-10009343D02*
X10112152Y-10009343D01*
X10112152Y-10009343D02*
X10102629Y-10004581D01*
X10102629Y-10004581D02*
X10097867Y-9995057D01*
X10097867Y-9995057D02*
X10097867Y-9971248D01*
X10097867Y-9971248D02*
X10093105Y-9961724D01*
X10069295Y-9914105D02*
X10135962Y-9914105D01*
X10078819Y-9914105D02*
X10074057Y-9909343D01*
X10074057Y-9909343D02*
X10069295Y-9899819D01*
X10069295Y-9899819D02*
X10069295Y-9885533D01*
X10069295Y-9885533D02*
X10074057Y-9876009D01*
X10074057Y-9876009D02*
X10083581Y-9871248D01*
X10083581Y-9871248D02*
X10135962Y-9871248D01*
X10131200Y-9780771D02*
X10135962Y-9790295D01*
X10135962Y-9790295D02*
X10135962Y-9809343D01*
X10135962Y-9809343D02*
X10131200Y-9818867D01*
X10131200Y-9818867D02*
X10126438Y-9823628D01*
X10126438Y-9823628D02*
X10116914Y-9828390D01*
X10116914Y-9828390D02*
X10088343Y-9828390D01*
X10088343Y-9828390D02*
X10078819Y-9823628D01*
X10078819Y-9823628D02*
X10074057Y-9818867D01*
X10074057Y-9818867D02*
X10069295Y-9809343D01*
X10069295Y-9809343D02*
X10069295Y-9790295D01*
X10069295Y-9790295D02*
X10074057Y-9780771D01*
X10135962Y-9723628D02*
X10131200Y-9733152D01*
X10131200Y-9733152D02*
X10126438Y-9737914D01*
X10126438Y-9737914D02*
X10116914Y-9742676D01*
X10116914Y-9742676D02*
X10088343Y-9742676D01*
X10088343Y-9742676D02*
X10078819Y-9737914D01*
X10078819Y-9737914D02*
X10074057Y-9733152D01*
X10074057Y-9733152D02*
X10069295Y-9723628D01*
X10069295Y-9723628D02*
X10069295Y-9709343D01*
X10069295Y-9709343D02*
X10074057Y-9699819D01*
X10074057Y-9699819D02*
X10078819Y-9695057D01*
X10078819Y-9695057D02*
X10088343Y-9690295D01*
X10088343Y-9690295D02*
X10116914Y-9690295D01*
X10116914Y-9690295D02*
X10126438Y-9695057D01*
X10126438Y-9695057D02*
X10131200Y-9699819D01*
X10131200Y-9699819D02*
X10135962Y-9709343D01*
X10135962Y-9709343D02*
X10135962Y-9723628D01*
X9400962Y-11644390D02*
X9300962Y-11644390D01*
X9300962Y-11644390D02*
X9372390Y-11611057D01*
X9372390Y-11611057D02*
X9300962Y-11577724D01*
X9300962Y-11577724D02*
X9400962Y-11577724D01*
X9400962Y-11515819D02*
X9396200Y-11525343D01*
X9396200Y-11525343D02*
X9391438Y-11530105D01*
X9391438Y-11530105D02*
X9381914Y-11534867D01*
X9381914Y-11534867D02*
X9353343Y-11534867D01*
X9353343Y-11534867D02*
X9343819Y-11530105D01*
X9343819Y-11530105D02*
X9339057Y-11525343D01*
X9339057Y-11525343D02*
X9334295Y-11515819D01*
X9334295Y-11515819D02*
X9334295Y-11501533D01*
X9334295Y-11501533D02*
X9339057Y-11492009D01*
X9339057Y-11492009D02*
X9343819Y-11487248D01*
X9343819Y-11487248D02*
X9353343Y-11482486D01*
X9353343Y-11482486D02*
X9381914Y-11482486D01*
X9381914Y-11482486D02*
X9391438Y-11487248D01*
X9391438Y-11487248D02*
X9396200Y-11492009D01*
X9396200Y-11492009D02*
X9400962Y-11501533D01*
X9400962Y-11501533D02*
X9400962Y-11515819D01*
X9334295Y-11439628D02*
X9400962Y-11439628D01*
X9343819Y-11439628D02*
X9339057Y-11434867D01*
X9339057Y-11434867D02*
X9334295Y-11425343D01*
X9334295Y-11425343D02*
X9334295Y-11411057D01*
X9334295Y-11411057D02*
X9339057Y-11401533D01*
X9339057Y-11401533D02*
X9348581Y-11396771D01*
X9348581Y-11396771D02*
X9400962Y-11396771D01*
X9400962Y-11349152D02*
X9334295Y-11349152D01*
X9300962Y-11349152D02*
X9305724Y-11353914D01*
X9305724Y-11353914D02*
X9310486Y-11349152D01*
X9310486Y-11349152D02*
X9305724Y-11344390D01*
X9305724Y-11344390D02*
X9300962Y-11349152D01*
X9300962Y-11349152D02*
X9310486Y-11349152D01*
X9334295Y-11315819D02*
X9334295Y-11277724D01*
X9300962Y-11301533D02*
X9386676Y-11301533D01*
X9386676Y-11301533D02*
X9396200Y-11296771D01*
X9396200Y-11296771D02*
X9400962Y-11287248D01*
X9400962Y-11287248D02*
X9400962Y-11277724D01*
X9400962Y-11230105D02*
X9396200Y-11239628D01*
X9396200Y-11239628D02*
X9391438Y-11244390D01*
X9391438Y-11244390D02*
X9381914Y-11249152D01*
X9381914Y-11249152D02*
X9353343Y-11249152D01*
X9353343Y-11249152D02*
X9343819Y-11244390D01*
X9343819Y-11244390D02*
X9339057Y-11239628D01*
X9339057Y-11239628D02*
X9334295Y-11230105D01*
X9334295Y-11230105D02*
X9334295Y-11215819D01*
X9334295Y-11215819D02*
X9339057Y-11206295D01*
X9339057Y-11206295D02*
X9343819Y-11201533D01*
X9343819Y-11201533D02*
X9353343Y-11196771D01*
X9353343Y-11196771D02*
X9381914Y-11196771D01*
X9381914Y-11196771D02*
X9391438Y-11201533D01*
X9391438Y-11201533D02*
X9396200Y-11206295D01*
X9396200Y-11206295D02*
X9400962Y-11215819D01*
X9400962Y-11215819D02*
X9400962Y-11230105D01*
X9400962Y-11153914D02*
X9334295Y-11153914D01*
X9353343Y-11153914D02*
X9343819Y-11149152D01*
X9343819Y-11149152D02*
X9339057Y-11144390D01*
X9339057Y-11144390D02*
X9334295Y-11134867D01*
X9334295Y-11134867D02*
X9334295Y-11125343D01*
X9400962Y-11015819D02*
X9300962Y-11015819D01*
X9300962Y-11015819D02*
X9372390Y-10982486D01*
X9372390Y-10982486D02*
X9300962Y-10949152D01*
X9300962Y-10949152D02*
X9400962Y-10949152D01*
X9334295Y-10858676D02*
X9400962Y-10858676D01*
X9334295Y-10901533D02*
X9386676Y-10901533D01*
X9386676Y-10901533D02*
X9396200Y-10896771D01*
X9396200Y-10896771D02*
X9400962Y-10887248D01*
X9400962Y-10887248D02*
X9400962Y-10872962D01*
X9400962Y-10872962D02*
X9396200Y-10863438D01*
X9396200Y-10863438D02*
X9391438Y-10858676D01*
X9400962Y-10796771D02*
X9396200Y-10806295D01*
X9396200Y-10806295D02*
X9386676Y-10811057D01*
X9386676Y-10811057D02*
X9300962Y-10811057D01*
X9334295Y-10772962D02*
X9334295Y-10734867D01*
X9300962Y-10758676D02*
X9386676Y-10758676D01*
X9386676Y-10758676D02*
X9396200Y-10753914D01*
X9396200Y-10753914D02*
X9400962Y-10744390D01*
X9400962Y-10744390D02*
X9400962Y-10734867D01*
X9400962Y-10701533D02*
X9334295Y-10701533D01*
X9300962Y-10701533D02*
X9305724Y-10706295D01*
X9305724Y-10706295D02*
X9310486Y-10701533D01*
X9310486Y-10701533D02*
X9305724Y-10696771D01*
X9305724Y-10696771D02*
X9300962Y-10701533D01*
X9300962Y-10701533D02*
X9310486Y-10701533D01*
X9334295Y-10653914D02*
X9434295Y-10653914D01*
X9339057Y-10653914D02*
X9334295Y-10644390D01*
X9334295Y-10644390D02*
X9334295Y-10625343D01*
X9334295Y-10625343D02*
X9339057Y-10615819D01*
X9339057Y-10615819D02*
X9343819Y-10611057D01*
X9343819Y-10611057D02*
X9353343Y-10606295D01*
X9353343Y-10606295D02*
X9381914Y-10606295D01*
X9381914Y-10606295D02*
X9391438Y-10611057D01*
X9391438Y-10611057D02*
X9396200Y-10615819D01*
X9396200Y-10615819D02*
X9400962Y-10625343D01*
X9400962Y-10625343D02*
X9400962Y-10644390D01*
X9400962Y-10644390D02*
X9396200Y-10653914D01*
X9400962Y-10520581D02*
X9348581Y-10520581D01*
X9348581Y-10520581D02*
X9339057Y-10525343D01*
X9339057Y-10525343D02*
X9334295Y-10534867D01*
X9334295Y-10534867D02*
X9334295Y-10553914D01*
X9334295Y-10553914D02*
X9339057Y-10563438D01*
X9396200Y-10520581D02*
X9400962Y-10530105D01*
X9400962Y-10530105D02*
X9400962Y-10553914D01*
X9400962Y-10553914D02*
X9396200Y-10563438D01*
X9396200Y-10563438D02*
X9386676Y-10568200D01*
X9386676Y-10568200D02*
X9377152Y-10568200D01*
X9377152Y-10568200D02*
X9367629Y-10563438D01*
X9367629Y-10563438D02*
X9362867Y-10553914D01*
X9362867Y-10553914D02*
X9362867Y-10530105D01*
X9362867Y-10530105D02*
X9358105Y-10520581D01*
X9400962Y-10472962D02*
X9334295Y-10472962D01*
X9353343Y-10472962D02*
X9343819Y-10468200D01*
X9343819Y-10468200D02*
X9339057Y-10463438D01*
X9339057Y-10463438D02*
X9334295Y-10453914D01*
X9334295Y-10453914D02*
X9334295Y-10444390D01*
X9400962Y-10368200D02*
X9348581Y-10368200D01*
X9348581Y-10368200D02*
X9339057Y-10372962D01*
X9339057Y-10372962D02*
X9334295Y-10382486D01*
X9334295Y-10382486D02*
X9334295Y-10401533D01*
X9334295Y-10401533D02*
X9339057Y-10411057D01*
X9396200Y-10368200D02*
X9400962Y-10377724D01*
X9400962Y-10377724D02*
X9400962Y-10401533D01*
X9400962Y-10401533D02*
X9396200Y-10411057D01*
X9396200Y-10411057D02*
X9386676Y-10415819D01*
X9386676Y-10415819D02*
X9377152Y-10415819D01*
X9377152Y-10415819D02*
X9367629Y-10411057D01*
X9367629Y-10411057D02*
X9362867Y-10401533D01*
X9362867Y-10401533D02*
X9362867Y-10377724D01*
X9362867Y-10377724D02*
X9358105Y-10368200D01*
X9310486Y-10411057D02*
X9296200Y-10392009D01*
X9296200Y-10392009D02*
X9310486Y-10372962D01*
X9400962Y-10320581D02*
X9334295Y-10320581D01*
X9343819Y-10320581D02*
X9339057Y-10315819D01*
X9339057Y-10315819D02*
X9334295Y-10306295D01*
X9334295Y-10306295D02*
X9334295Y-10292009D01*
X9334295Y-10292009D02*
X9339057Y-10282486D01*
X9339057Y-10282486D02*
X9348581Y-10277724D01*
X9348581Y-10277724D02*
X9400962Y-10277724D01*
X9348581Y-10277724D02*
X9339057Y-10272962D01*
X9339057Y-10272962D02*
X9334295Y-10263438D01*
X9334295Y-10263438D02*
X9334295Y-10249152D01*
X9334295Y-10249152D02*
X9339057Y-10239628D01*
X9339057Y-10239628D02*
X9348581Y-10234866D01*
X9348581Y-10234866D02*
X9400962Y-10234866D01*
X9396200Y-10149152D02*
X9400962Y-10158676D01*
X9400962Y-10158676D02*
X9400962Y-10177724D01*
X9400962Y-10177724D02*
X9396200Y-10187247D01*
X9396200Y-10187247D02*
X9386676Y-10192009D01*
X9386676Y-10192009D02*
X9348581Y-10192009D01*
X9348581Y-10192009D02*
X9339057Y-10187247D01*
X9339057Y-10187247D02*
X9334295Y-10177724D01*
X9334295Y-10177724D02*
X9334295Y-10158676D01*
X9334295Y-10158676D02*
X9339057Y-10149152D01*
X9339057Y-10149152D02*
X9348581Y-10144390D01*
X9348581Y-10144390D02*
X9358105Y-10144390D01*
X9358105Y-10144390D02*
X9367629Y-10192009D01*
X9334295Y-10115819D02*
X9334295Y-10077724D01*
X9300962Y-10101533D02*
X9386676Y-10101533D01*
X9386676Y-10101533D02*
X9396200Y-10096771D01*
X9396200Y-10096771D02*
X9400962Y-10087247D01*
X9400962Y-10087247D02*
X9400962Y-10077724D01*
X9400962Y-10044390D02*
X9334295Y-10044390D01*
X9353343Y-10044390D02*
X9343819Y-10039628D01*
X9343819Y-10039628D02*
X9339057Y-10034866D01*
X9339057Y-10034866D02*
X9334295Y-10025343D01*
X9334295Y-10025343D02*
X9334295Y-10015819D01*
X9400962Y-9968200D02*
X9396200Y-9977724D01*
X9396200Y-9977724D02*
X9391438Y-9982485D01*
X9391438Y-9982485D02*
X9381914Y-9987247D01*
X9381914Y-9987247D02*
X9353343Y-9987247D01*
X9353343Y-9987247D02*
X9343819Y-9982485D01*
X9343819Y-9982485D02*
X9339057Y-9977724D01*
X9339057Y-9977724D02*
X9334295Y-9968200D01*
X9334295Y-9968200D02*
X9334295Y-9953914D01*
X9334295Y-9953914D02*
X9339057Y-9944390D01*
X9339057Y-9944390D02*
X9343819Y-9939628D01*
X9343819Y-9939628D02*
X9353343Y-9934866D01*
X9353343Y-9934866D02*
X9381914Y-9934866D01*
X9381914Y-9934866D02*
X9391438Y-9939628D01*
X9391438Y-9939628D02*
X9396200Y-9944390D01*
X9396200Y-9944390D02*
X9400962Y-9953914D01*
X9400962Y-9953914D02*
X9400962Y-9968200D01*
X9396200Y-9896771D02*
X9400962Y-9887247D01*
X9400962Y-9887247D02*
X9400962Y-9868200D01*
X9400962Y-9868200D02*
X9396200Y-9858676D01*
X9396200Y-9858676D02*
X9386676Y-9853914D01*
X9386676Y-9853914D02*
X9381914Y-9853914D01*
X9381914Y-9853914D02*
X9372390Y-9858676D01*
X9372390Y-9858676D02*
X9367629Y-9868200D01*
X9367629Y-9868200D02*
X9367629Y-9882485D01*
X9367629Y-9882485D02*
X9362867Y-9892009D01*
X9362867Y-9892009D02*
X9353343Y-9896771D01*
X9353343Y-9896771D02*
X9348581Y-9896771D01*
X9348581Y-9896771D02*
X9339057Y-9892009D01*
X9339057Y-9892009D02*
X9334295Y-9882485D01*
X9334295Y-9882485D02*
X9334295Y-9868200D01*
X9334295Y-9868200D02*
X9339057Y-9858676D01*
X9300962Y-9749152D02*
X9400962Y-9715819D01*
X9400962Y-9715819D02*
X9300962Y-9682485D01*
X9400962Y-9596771D02*
X9400962Y-9653914D01*
X9400962Y-9625343D02*
X9300962Y-9625343D01*
X9300962Y-9625343D02*
X9315248Y-9634866D01*
X9315248Y-9634866D02*
X9324771Y-9644390D01*
X9324771Y-9644390D02*
X9329533Y-9653914D01*
X9391438Y-9553914D02*
X9396200Y-9549152D01*
X9396200Y-9549152D02*
X9400962Y-9553914D01*
X9400962Y-9553914D02*
X9396200Y-9558676D01*
X9396200Y-9558676D02*
X9391438Y-9553914D01*
X9391438Y-9553914D02*
X9400962Y-9553914D01*
X9300962Y-9487247D02*
X9300962Y-9477724D01*
X9300962Y-9477724D02*
X9305724Y-9468200D01*
X9305724Y-9468200D02*
X9310486Y-9463438D01*
X9310486Y-9463438D02*
X9320010Y-9458676D01*
X9320010Y-9458676D02*
X9339057Y-9453914D01*
X9339057Y-9453914D02*
X9362867Y-9453914D01*
X9362867Y-9453914D02*
X9381914Y-9458676D01*
X9381914Y-9458676D02*
X9391438Y-9463438D01*
X9391438Y-9463438D02*
X9396200Y-9468200D01*
X9396200Y-9468200D02*
X9400962Y-9477724D01*
X9400962Y-9477724D02*
X9400962Y-9487247D01*
X9400962Y-9487247D02*
X9396200Y-9496771D01*
X9396200Y-9496771D02*
X9391438Y-9501533D01*
X9391438Y-9501533D02*
X9381914Y-9506295D01*
X9381914Y-9506295D02*
X9362867Y-9511057D01*
X9362867Y-9511057D02*
X9339057Y-9511057D01*
X9339057Y-9511057D02*
X9320010Y-9506295D01*
X9320010Y-9506295D02*
X9310486Y-9501533D01*
X9310486Y-9501533D02*
X9305724Y-9496771D01*
X9305724Y-9496771D02*
X9300962Y-9487247D01*
%TO.C,SW2*%
X15242700Y-10572033D02*
X15247462Y-10557748D01*
X15247462Y-10557748D02*
X15247462Y-10533938D01*
X15247462Y-10533938D02*
X15242700Y-10524414D01*
X15242700Y-10524414D02*
X15237938Y-10519652D01*
X15237938Y-10519652D02*
X15228414Y-10514890D01*
X15228414Y-10514890D02*
X15218890Y-10514890D01*
X15218890Y-10514890D02*
X15209367Y-10519652D01*
X15209367Y-10519652D02*
X15204605Y-10524414D01*
X15204605Y-10524414D02*
X15199843Y-10533938D01*
X15199843Y-10533938D02*
X15195081Y-10552986D01*
X15195081Y-10552986D02*
X15190319Y-10562509D01*
X15190319Y-10562509D02*
X15185557Y-10567271D01*
X15185557Y-10567271D02*
X15176033Y-10572033D01*
X15176033Y-10572033D02*
X15166509Y-10572033D01*
X15166509Y-10572033D02*
X15156986Y-10567271D01*
X15156986Y-10567271D02*
X15152224Y-10562509D01*
X15152224Y-10562509D02*
X15147462Y-10552986D01*
X15147462Y-10552986D02*
X15147462Y-10529176D01*
X15147462Y-10529176D02*
X15152224Y-10514890D01*
X15147462Y-10481557D02*
X15247462Y-10457748D01*
X15247462Y-10457748D02*
X15176033Y-10438700D01*
X15176033Y-10438700D02*
X15247462Y-10419652D01*
X15247462Y-10419652D02*
X15147462Y-10395843D01*
X15156986Y-10362509D02*
X15152224Y-10357748D01*
X15152224Y-10357748D02*
X15147462Y-10348224D01*
X15147462Y-10348224D02*
X15147462Y-10324414D01*
X15147462Y-10324414D02*
X15152224Y-10314890D01*
X15152224Y-10314890D02*
X15156986Y-10310129D01*
X15156986Y-10310129D02*
X15166509Y-10305367D01*
X15166509Y-10305367D02*
X15176033Y-10305367D01*
X15176033Y-10305367D02*
X15190319Y-10310129D01*
X15190319Y-10310129D02*
X15247462Y-10367271D01*
X15247462Y-10367271D02*
X15247462Y-10305367D01*
%TO.C,R2*%
X11229462Y-11634155D02*
X11181843Y-11667488D01*
X11229462Y-11691297D02*
X11129462Y-11691297D01*
X11129462Y-11691297D02*
X11129462Y-11653202D01*
X11129462Y-11653202D02*
X11134224Y-11643678D01*
X11134224Y-11643678D02*
X11138986Y-11638916D01*
X11138986Y-11638916D02*
X11148510Y-11634155D01*
X11148510Y-11634155D02*
X11162795Y-11634155D01*
X11162795Y-11634155D02*
X11172319Y-11638916D01*
X11172319Y-11638916D02*
X11177081Y-11643678D01*
X11177081Y-11643678D02*
X11181843Y-11653202D01*
X11181843Y-11653202D02*
X11181843Y-11691297D01*
X11138986Y-11596059D02*
X11134224Y-11591297D01*
X11134224Y-11591297D02*
X11129462Y-11581774D01*
X11129462Y-11581774D02*
X11129462Y-11557964D01*
X11129462Y-11557964D02*
X11134224Y-11548440D01*
X11134224Y-11548440D02*
X11138986Y-11543678D01*
X11138986Y-11543678D02*
X11148510Y-11538916D01*
X11148510Y-11538916D02*
X11158033Y-11538916D01*
X11158033Y-11538916D02*
X11172319Y-11543678D01*
X11172319Y-11543678D02*
X11229462Y-11600821D01*
X11229462Y-11600821D02*
X11229462Y-11538916D01*
%TO.C,FB2*%
X12571481Y-9269133D02*
X12571481Y-9302467D01*
X12623862Y-9302467D02*
X12523862Y-9302467D01*
X12523862Y-9302467D02*
X12523862Y-9254848D01*
X12571481Y-9183419D02*
X12576243Y-9169133D01*
X12576243Y-9169133D02*
X12581005Y-9164371D01*
X12581005Y-9164371D02*
X12590528Y-9159610D01*
X12590528Y-9159610D02*
X12604814Y-9159610D01*
X12604814Y-9159610D02*
X12614338Y-9164371D01*
X12614338Y-9164371D02*
X12619100Y-9169133D01*
X12619100Y-9169133D02*
X12623862Y-9178657D01*
X12623862Y-9178657D02*
X12623862Y-9216752D01*
X12623862Y-9216752D02*
X12523862Y-9216752D01*
X12523862Y-9216752D02*
X12523862Y-9183419D01*
X12523862Y-9183419D02*
X12528624Y-9173895D01*
X12528624Y-9173895D02*
X12533386Y-9169133D01*
X12533386Y-9169133D02*
X12542909Y-9164371D01*
X12542909Y-9164371D02*
X12552433Y-9164371D01*
X12552433Y-9164371D02*
X12561957Y-9169133D01*
X12561957Y-9169133D02*
X12566719Y-9173895D01*
X12566719Y-9173895D02*
X12571481Y-9183419D01*
X12571481Y-9183419D02*
X12571481Y-9216752D01*
X12533386Y-9121514D02*
X12528624Y-9116752D01*
X12528624Y-9116752D02*
X12523862Y-9107229D01*
X12523862Y-9107229D02*
X12523862Y-9083419D01*
X12523862Y-9083419D02*
X12528624Y-9073895D01*
X12528624Y-9073895D02*
X12533386Y-9069133D01*
X12533386Y-9069133D02*
X12542909Y-9064371D01*
X12542909Y-9064371D02*
X12552433Y-9064371D01*
X12552433Y-9064371D02*
X12566719Y-9069133D01*
X12566719Y-9069133D02*
X12623862Y-9126276D01*
X12623862Y-9126276D02*
X12623862Y-9064371D01*
%TO.C,R10*%
X14047714Y-12736962D02*
X14014381Y-12689343D01*
X13990571Y-12736962D02*
X13990571Y-12636962D01*
X13990571Y-12636962D02*
X14028667Y-12636962D01*
X14028667Y-12636962D02*
X14038190Y-12641724D01*
X14038190Y-12641724D02*
X14042952Y-12646486D01*
X14042952Y-12646486D02*
X14047714Y-12656009D01*
X14047714Y-12656009D02*
X14047714Y-12670295D01*
X14047714Y-12670295D02*
X14042952Y-12679819D01*
X14042952Y-12679819D02*
X14038190Y-12684581D01*
X14038190Y-12684581D02*
X14028667Y-12689343D01*
X14028667Y-12689343D02*
X13990571Y-12689343D01*
X14142952Y-12736962D02*
X14085809Y-12736962D01*
X14114381Y-12736962D02*
X14114381Y-12636962D01*
X14114381Y-12636962D02*
X14104857Y-12651248D01*
X14104857Y-12651248D02*
X14095333Y-12660771D01*
X14095333Y-12660771D02*
X14085809Y-12665533D01*
X14204857Y-12636962D02*
X14214381Y-12636962D01*
X14214381Y-12636962D02*
X14223905Y-12641724D01*
X14223905Y-12641724D02*
X14228667Y-12646486D01*
X14228667Y-12646486D02*
X14233428Y-12656009D01*
X14233428Y-12656009D02*
X14238190Y-12675057D01*
X14238190Y-12675057D02*
X14238190Y-12698867D01*
X14238190Y-12698867D02*
X14233428Y-12717914D01*
X14233428Y-12717914D02*
X14228667Y-12727438D01*
X14228667Y-12727438D02*
X14223905Y-12732200D01*
X14223905Y-12732200D02*
X14214381Y-12736962D01*
X14214381Y-12736962D02*
X14204857Y-12736962D01*
X14204857Y-12736962D02*
X14195333Y-12732200D01*
X14195333Y-12732200D02*
X14190571Y-12727438D01*
X14190571Y-12727438D02*
X14185809Y-12717914D01*
X14185809Y-12717914D02*
X14181048Y-12698867D01*
X14181048Y-12698867D02*
X14181048Y-12675057D01*
X14181048Y-12675057D02*
X14185809Y-12656009D01*
X14185809Y-12656009D02*
X14190571Y-12646486D01*
X14190571Y-12646486D02*
X14195333Y-12641724D01*
X14195333Y-12641724D02*
X14204857Y-12636962D01*
%TO.C,R14*%
X12431914Y-11530462D02*
X12398581Y-11482843D01*
X12374771Y-11530462D02*
X12374771Y-11430462D01*
X12374771Y-11430462D02*
X12412867Y-11430462D01*
X12412867Y-11430462D02*
X12422390Y-11435224D01*
X12422390Y-11435224D02*
X12427152Y-11439986D01*
X12427152Y-11439986D02*
X12431914Y-11449509D01*
X12431914Y-11449509D02*
X12431914Y-11463795D01*
X12431914Y-11463795D02*
X12427152Y-11473319D01*
X12427152Y-11473319D02*
X12422390Y-11478081D01*
X12422390Y-11478081D02*
X12412867Y-11482843D01*
X12412867Y-11482843D02*
X12374771Y-11482843D01*
X12527152Y-11530462D02*
X12470009Y-11530462D01*
X12498581Y-11530462D02*
X12498581Y-11430462D01*
X12498581Y-11430462D02*
X12489057Y-11444748D01*
X12489057Y-11444748D02*
X12479533Y-11454271D01*
X12479533Y-11454271D02*
X12470009Y-11459033D01*
X12612867Y-11463795D02*
X12612867Y-11530462D01*
X12589057Y-11425700D02*
X12565248Y-11497128D01*
X12565248Y-11497128D02*
X12627152Y-11497128D01*
D11*
%TO.C,R7*%
X11137931Y-11307533D02*
X11114121Y-11324200D01*
X11137931Y-11336105D02*
X11087931Y-11336105D01*
X11087931Y-11336105D02*
X11087931Y-11317057D01*
X11087931Y-11317057D02*
X11090312Y-11312295D01*
X11090312Y-11312295D02*
X11092693Y-11309914D01*
X11092693Y-11309914D02*
X11097455Y-11307533D01*
X11097455Y-11307533D02*
X11104598Y-11307533D01*
X11104598Y-11307533D02*
X11109360Y-11309914D01*
X11109360Y-11309914D02*
X11111740Y-11312295D01*
X11111740Y-11312295D02*
X11114121Y-11317057D01*
X11114121Y-11317057D02*
X11114121Y-11336105D01*
X11087931Y-11290867D02*
X11087931Y-11257533D01*
X11087931Y-11257533D02*
X11137931Y-11278962D01*
D10*
%TO.C,Y1*%
X13510581Y-8992343D02*
X13510581Y-9039962D01*
X13477248Y-8939962D02*
X13510581Y-8992343D01*
X13510581Y-8992343D02*
X13543914Y-8939962D01*
X13629628Y-9039962D02*
X13572486Y-9039962D01*
X13601057Y-9039962D02*
X13601057Y-8939962D01*
X13601057Y-8939962D02*
X13591533Y-8954248D01*
X13591533Y-8954248D02*
X13582009Y-8963771D01*
X13582009Y-8963771D02*
X13572486Y-8968533D01*
%TO.C,R1*%
X14124533Y-10559962D02*
X14091200Y-10512343D01*
X14067390Y-10559962D02*
X14067390Y-10459962D01*
X14067390Y-10459962D02*
X14105486Y-10459962D01*
X14105486Y-10459962D02*
X14115009Y-10464724D01*
X14115009Y-10464724D02*
X14119771Y-10469486D01*
X14119771Y-10469486D02*
X14124533Y-10479010D01*
X14124533Y-10479010D02*
X14124533Y-10493295D01*
X14124533Y-10493295D02*
X14119771Y-10502819D01*
X14119771Y-10502819D02*
X14115009Y-10507581D01*
X14115009Y-10507581D02*
X14105486Y-10512343D01*
X14105486Y-10512343D02*
X14067390Y-10512343D01*
X14219771Y-10559962D02*
X14162629Y-10559962D01*
X14191200Y-10559962D02*
X14191200Y-10459962D01*
X14191200Y-10459962D02*
X14181676Y-10474248D01*
X14181676Y-10474248D02*
X14172152Y-10483771D01*
X14172152Y-10483771D02*
X14162629Y-10488533D01*
%TO.C,C7*%
X14307533Y-10010438D02*
X14302771Y-10015200D01*
X14302771Y-10015200D02*
X14288486Y-10019962D01*
X14288486Y-10019962D02*
X14278962Y-10019962D01*
X14278962Y-10019962D02*
X14264676Y-10015200D01*
X14264676Y-10015200D02*
X14255152Y-10005676D01*
X14255152Y-10005676D02*
X14250390Y-9996152D01*
X14250390Y-9996152D02*
X14245629Y-9977105D01*
X14245629Y-9977105D02*
X14245629Y-9962819D01*
X14245629Y-9962819D02*
X14250390Y-9943771D01*
X14250390Y-9943771D02*
X14255152Y-9934248D01*
X14255152Y-9934248D02*
X14264676Y-9924724D01*
X14264676Y-9924724D02*
X14278962Y-9919962D01*
X14278962Y-9919962D02*
X14288486Y-9919962D01*
X14288486Y-9919962D02*
X14302771Y-9924724D01*
X14302771Y-9924724D02*
X14307533Y-9929486D01*
X14340867Y-9919962D02*
X14407533Y-9919962D01*
X14407533Y-9919962D02*
X14364676Y-10019962D01*
%TO.C,R15*%
X13797914Y-12015462D02*
X13764581Y-11967843D01*
X13740771Y-12015462D02*
X13740771Y-11915462D01*
X13740771Y-11915462D02*
X13778867Y-11915462D01*
X13778867Y-11915462D02*
X13788390Y-11920224D01*
X13788390Y-11920224D02*
X13793152Y-11924986D01*
X13793152Y-11924986D02*
X13797914Y-11934509D01*
X13797914Y-11934509D02*
X13797914Y-11948795D01*
X13797914Y-11948795D02*
X13793152Y-11958319D01*
X13793152Y-11958319D02*
X13788390Y-11963081D01*
X13788390Y-11963081D02*
X13778867Y-11967843D01*
X13778867Y-11967843D02*
X13740771Y-11967843D01*
X13893152Y-12015462D02*
X13836009Y-12015462D01*
X13864581Y-12015462D02*
X13864581Y-11915462D01*
X13864581Y-11915462D02*
X13855057Y-11929748D01*
X13855057Y-11929748D02*
X13845533Y-11939271D01*
X13845533Y-11939271D02*
X13836009Y-11944033D01*
X13983628Y-11915462D02*
X13936009Y-11915462D01*
X13936009Y-11915462D02*
X13931248Y-11963081D01*
X13931248Y-11963081D02*
X13936009Y-11958319D01*
X13936009Y-11958319D02*
X13945533Y-11953557D01*
X13945533Y-11953557D02*
X13969343Y-11953557D01*
X13969343Y-11953557D02*
X13978867Y-11958319D01*
X13978867Y-11958319D02*
X13983628Y-11963081D01*
X13983628Y-11963081D02*
X13988390Y-11972605D01*
X13988390Y-11972605D02*
X13988390Y-11996414D01*
X13988390Y-11996414D02*
X13983628Y-12005938D01*
X13983628Y-12005938D02*
X13978867Y-12010700D01*
X13978867Y-12010700D02*
X13969343Y-12015462D01*
X13969343Y-12015462D02*
X13945533Y-12015462D01*
X13945533Y-12015462D02*
X13936009Y-12010700D01*
X13936009Y-12010700D02*
X13931248Y-12005938D01*
%TO.C,C3*%
X12506533Y-9528938D02*
X12501771Y-9533700D01*
X12501771Y-9533700D02*
X12487486Y-9538462D01*
X12487486Y-9538462D02*
X12477962Y-9538462D01*
X12477962Y-9538462D02*
X12463676Y-9533700D01*
X12463676Y-9533700D02*
X12454152Y-9524176D01*
X12454152Y-9524176D02*
X12449390Y-9514652D01*
X12449390Y-9514652D02*
X12444629Y-9495605D01*
X12444629Y-9495605D02*
X12444629Y-9481319D01*
X12444629Y-9481319D02*
X12449390Y-9462271D01*
X12449390Y-9462271D02*
X12454152Y-9452748D01*
X12454152Y-9452748D02*
X12463676Y-9443224D01*
X12463676Y-9443224D02*
X12477962Y-9438462D01*
X12477962Y-9438462D02*
X12487486Y-9438462D01*
X12487486Y-9438462D02*
X12501771Y-9443224D01*
X12501771Y-9443224D02*
X12506533Y-9447986D01*
X12539867Y-9438462D02*
X12601771Y-9438462D01*
X12601771Y-9438462D02*
X12568438Y-9476557D01*
X12568438Y-9476557D02*
X12582724Y-9476557D01*
X12582724Y-9476557D02*
X12592248Y-9481319D01*
X12592248Y-9481319D02*
X12597009Y-9486081D01*
X12597009Y-9486081D02*
X12601771Y-9495605D01*
X12601771Y-9495605D02*
X12601771Y-9519414D01*
X12601771Y-9519414D02*
X12597009Y-9528938D01*
X12597009Y-9528938D02*
X12592248Y-9533700D01*
X12592248Y-9533700D02*
X12582724Y-9538462D01*
X12582724Y-9538462D02*
X12554152Y-9538462D01*
X12554152Y-9538462D02*
X12544629Y-9533700D01*
X12544629Y-9533700D02*
X12539867Y-9528938D01*
D11*
%TO.C,R12*%
X14580331Y-9177743D02*
X14556521Y-9194409D01*
X14580331Y-9206314D02*
X14530331Y-9206314D01*
X14530331Y-9206314D02*
X14530331Y-9187267D01*
X14530331Y-9187267D02*
X14532712Y-9182505D01*
X14532712Y-9182505D02*
X14535093Y-9180124D01*
X14535093Y-9180124D02*
X14539855Y-9177743D01*
X14539855Y-9177743D02*
X14546998Y-9177743D01*
X14546998Y-9177743D02*
X14551759Y-9180124D01*
X14551759Y-9180124D02*
X14554140Y-9182505D01*
X14554140Y-9182505D02*
X14556521Y-9187267D01*
X14556521Y-9187267D02*
X14556521Y-9206314D01*
X14580331Y-9130124D02*
X14580331Y-9158695D01*
X14580331Y-9144409D02*
X14530331Y-9144409D01*
X14530331Y-9144409D02*
X14537474Y-9149171D01*
X14537474Y-9149171D02*
X14542236Y-9153933D01*
X14542236Y-9153933D02*
X14544617Y-9158695D01*
X14535093Y-9111076D02*
X14532712Y-9108695D01*
X14532712Y-9108695D02*
X14530331Y-9103933D01*
X14530331Y-9103933D02*
X14530331Y-9092028D01*
X14530331Y-9092028D02*
X14532712Y-9087267D01*
X14532712Y-9087267D02*
X14535093Y-9084886D01*
X14535093Y-9084886D02*
X14539855Y-9082505D01*
X14539855Y-9082505D02*
X14544617Y-9082505D01*
X14544617Y-9082505D02*
X14551759Y-9084886D01*
X14551759Y-9084886D02*
X14580331Y-9113457D01*
X14580331Y-9113457D02*
X14580331Y-9082505D01*
D10*
%TO.C,C5*%
X13967533Y-9621438D02*
X13962771Y-9626200D01*
X13962771Y-9626200D02*
X13948486Y-9630962D01*
X13948486Y-9630962D02*
X13938962Y-9630962D01*
X13938962Y-9630962D02*
X13924676Y-9626200D01*
X13924676Y-9626200D02*
X13915152Y-9616676D01*
X13915152Y-9616676D02*
X13910390Y-9607152D01*
X13910390Y-9607152D02*
X13905629Y-9588105D01*
X13905629Y-9588105D02*
X13905629Y-9573819D01*
X13905629Y-9573819D02*
X13910390Y-9554771D01*
X13910390Y-9554771D02*
X13915152Y-9545248D01*
X13915152Y-9545248D02*
X13924676Y-9535724D01*
X13924676Y-9535724D02*
X13938962Y-9530962D01*
X13938962Y-9530962D02*
X13948486Y-9530962D01*
X13948486Y-9530962D02*
X13962771Y-9535724D01*
X13962771Y-9535724D02*
X13967533Y-9540486D01*
X14058009Y-9530962D02*
X14010390Y-9530962D01*
X14010390Y-9530962D02*
X14005629Y-9578581D01*
X14005629Y-9578581D02*
X14010390Y-9573819D01*
X14010390Y-9573819D02*
X14019914Y-9569057D01*
X14019914Y-9569057D02*
X14043724Y-9569057D01*
X14043724Y-9569057D02*
X14053248Y-9573819D01*
X14053248Y-9573819D02*
X14058009Y-9578581D01*
X14058009Y-9578581D02*
X14062771Y-9588105D01*
X14062771Y-9588105D02*
X14062771Y-9611914D01*
X14062771Y-9611914D02*
X14058009Y-9621438D01*
X14058009Y-9621438D02*
X14053248Y-9626200D01*
X14053248Y-9626200D02*
X14043724Y-9630962D01*
X14043724Y-9630962D02*
X14019914Y-9630962D01*
X14019914Y-9630962D02*
X14010390Y-9626200D01*
X14010390Y-9626200D02*
X14005629Y-9621438D01*
D12*
%TO.C,C15*%
X12054917Y-11345688D02*
X12058250Y-11349021D01*
X12058250Y-11349021D02*
X12061583Y-11359021D01*
X12061583Y-11359021D02*
X12061583Y-11365688D01*
X12061583Y-11365688D02*
X12058250Y-11375688D01*
X12058250Y-11375688D02*
X12051583Y-11382355D01*
X12051583Y-11382355D02*
X12044917Y-11385688D01*
X12044917Y-11385688D02*
X12031583Y-11389021D01*
X12031583Y-11389021D02*
X12021583Y-11389021D01*
X12021583Y-11389021D02*
X12008250Y-11385688D01*
X12008250Y-11385688D02*
X12001583Y-11382355D01*
X12001583Y-11382355D02*
X11994917Y-11375688D01*
X11994917Y-11375688D02*
X11991583Y-11365688D01*
X11991583Y-11365688D02*
X11991583Y-11359021D01*
X11991583Y-11359021D02*
X11994917Y-11349021D01*
X11994917Y-11349021D02*
X11998250Y-11345688D01*
X12061583Y-11279021D02*
X12061583Y-11319021D01*
X12061583Y-11299021D02*
X11991583Y-11299021D01*
X11991583Y-11299021D02*
X12001583Y-11305688D01*
X12001583Y-11305688D02*
X12008250Y-11312355D01*
X12008250Y-11312355D02*
X12011583Y-11319021D01*
X11991583Y-11215688D02*
X11991583Y-11249021D01*
X11991583Y-11249021D02*
X12024917Y-11252355D01*
X12024917Y-11252355D02*
X12021583Y-11249021D01*
X12021583Y-11249021D02*
X12018250Y-11242355D01*
X12018250Y-11242355D02*
X12018250Y-11225688D01*
X12018250Y-11225688D02*
X12021583Y-11219021D01*
X12021583Y-11219021D02*
X12024917Y-11215688D01*
X12024917Y-11215688D02*
X12031583Y-11212355D01*
X12031583Y-11212355D02*
X12048250Y-11212355D01*
X12048250Y-11212355D02*
X12054917Y-11215688D01*
X12054917Y-11215688D02*
X12058250Y-11219021D01*
X12058250Y-11219021D02*
X12061583Y-11225688D01*
X12061583Y-11225688D02*
X12061583Y-11242355D01*
X12061583Y-11242355D02*
X12058250Y-11249021D01*
X12058250Y-11249021D02*
X12054917Y-11252355D01*
D10*
%TO.C,U1*%
X12700009Y-10986462D02*
X12700009Y-11067414D01*
X12700009Y-11067414D02*
X12704771Y-11076938D01*
X12704771Y-11076938D02*
X12709533Y-11081700D01*
X12709533Y-11081700D02*
X12719057Y-11086462D01*
X12719057Y-11086462D02*
X12738105Y-11086462D01*
X12738105Y-11086462D02*
X12747628Y-11081700D01*
X12747628Y-11081700D02*
X12752390Y-11076938D01*
X12752390Y-11076938D02*
X12757152Y-11067414D01*
X12757152Y-11067414D02*
X12757152Y-10986462D01*
X12857152Y-11086462D02*
X12800009Y-11086462D01*
X12828581Y-11086462D02*
X12828581Y-10986462D01*
X12828581Y-10986462D02*
X12819057Y-11000748D01*
X12819057Y-11000748D02*
X12809533Y-11010271D01*
X12809533Y-11010271D02*
X12800009Y-11015033D01*
%TO.C,C14*%
X13208914Y-9753438D02*
X13204152Y-9758200D01*
X13204152Y-9758200D02*
X13189867Y-9762962D01*
X13189867Y-9762962D02*
X13180343Y-9762962D01*
X13180343Y-9762962D02*
X13166057Y-9758200D01*
X13166057Y-9758200D02*
X13156533Y-9748676D01*
X13156533Y-9748676D02*
X13151771Y-9739152D01*
X13151771Y-9739152D02*
X13147009Y-9720105D01*
X13147009Y-9720105D02*
X13147009Y-9705819D01*
X13147009Y-9705819D02*
X13151771Y-9686771D01*
X13151771Y-9686771D02*
X13156533Y-9677248D01*
X13156533Y-9677248D02*
X13166057Y-9667724D01*
X13166057Y-9667724D02*
X13180343Y-9662962D01*
X13180343Y-9662962D02*
X13189867Y-9662962D01*
X13189867Y-9662962D02*
X13204152Y-9667724D01*
X13204152Y-9667724D02*
X13208914Y-9672486D01*
X13304152Y-9762962D02*
X13247009Y-9762962D01*
X13275581Y-9762962D02*
X13275581Y-9662962D01*
X13275581Y-9662962D02*
X13266057Y-9677248D01*
X13266057Y-9677248D02*
X13256533Y-9686771D01*
X13256533Y-9686771D02*
X13247009Y-9691533D01*
X13389867Y-9696295D02*
X13389867Y-9762962D01*
X13366057Y-9658200D02*
X13342248Y-9729629D01*
X13342248Y-9729629D02*
X13404152Y-9729629D01*
%TO.C,D5*%
X14153190Y-11884262D02*
X14153190Y-11784262D01*
X14153190Y-11784262D02*
X14177000Y-11784262D01*
X14177000Y-11784262D02*
X14191286Y-11789024D01*
X14191286Y-11789024D02*
X14200809Y-11798548D01*
X14200809Y-11798548D02*
X14205571Y-11808071D01*
X14205571Y-11808071D02*
X14210333Y-11827119D01*
X14210333Y-11827119D02*
X14210333Y-11841405D01*
X14210333Y-11841405D02*
X14205571Y-11860452D01*
X14205571Y-11860452D02*
X14200809Y-11869976D01*
X14200809Y-11869976D02*
X14191286Y-11879500D01*
X14191286Y-11879500D02*
X14177000Y-11884262D01*
X14177000Y-11884262D02*
X14153190Y-11884262D01*
X14300809Y-11784262D02*
X14253190Y-11784262D01*
X14253190Y-11784262D02*
X14248429Y-11831881D01*
X14248429Y-11831881D02*
X14253190Y-11827119D01*
X14253190Y-11827119D02*
X14262714Y-11822357D01*
X14262714Y-11822357D02*
X14286524Y-11822357D01*
X14286524Y-11822357D02*
X14296048Y-11827119D01*
X14296048Y-11827119D02*
X14300809Y-11831881D01*
X14300809Y-11831881D02*
X14305571Y-11841405D01*
X14305571Y-11841405D02*
X14305571Y-11865214D01*
X14305571Y-11865214D02*
X14300809Y-11874738D01*
X14300809Y-11874738D02*
X14296048Y-11879500D01*
X14296048Y-11879500D02*
X14286524Y-11884262D01*
X14286524Y-11884262D02*
X14262714Y-11884262D01*
X14262714Y-11884262D02*
X14253190Y-11879500D01*
X14253190Y-11879500D02*
X14248429Y-11874738D01*
%TO.C,R6*%
X10729262Y-10833267D02*
X10681643Y-10866600D01*
X10729262Y-10890409D02*
X10629262Y-10890409D01*
X10629262Y-10890409D02*
X10629262Y-10852314D01*
X10629262Y-10852314D02*
X10634024Y-10842790D01*
X10634024Y-10842790D02*
X10638786Y-10838029D01*
X10638786Y-10838029D02*
X10648310Y-10833267D01*
X10648310Y-10833267D02*
X10662595Y-10833267D01*
X10662595Y-10833267D02*
X10672119Y-10838029D01*
X10672119Y-10838029D02*
X10676881Y-10842790D01*
X10676881Y-10842790D02*
X10681643Y-10852314D01*
X10681643Y-10852314D02*
X10681643Y-10890409D01*
X10629262Y-10747552D02*
X10629262Y-10766600D01*
X10629262Y-10766600D02*
X10634024Y-10776124D01*
X10634024Y-10776124D02*
X10638786Y-10780886D01*
X10638786Y-10780886D02*
X10653071Y-10790409D01*
X10653071Y-10790409D02*
X10672119Y-10795171D01*
X10672119Y-10795171D02*
X10710214Y-10795171D01*
X10710214Y-10795171D02*
X10719738Y-10790409D01*
X10719738Y-10790409D02*
X10724500Y-10785648D01*
X10724500Y-10785648D02*
X10729262Y-10776124D01*
X10729262Y-10776124D02*
X10729262Y-10757076D01*
X10729262Y-10757076D02*
X10724500Y-10747552D01*
X10724500Y-10747552D02*
X10719738Y-10742790D01*
X10719738Y-10742790D02*
X10710214Y-10738029D01*
X10710214Y-10738029D02*
X10686405Y-10738029D01*
X10686405Y-10738029D02*
X10676881Y-10742790D01*
X10676881Y-10742790D02*
X10672119Y-10747552D01*
X10672119Y-10747552D02*
X10667357Y-10757076D01*
X10667357Y-10757076D02*
X10667357Y-10776124D01*
X10667357Y-10776124D02*
X10672119Y-10785648D01*
X10672119Y-10785648D02*
X10676881Y-10790409D01*
X10676881Y-10790409D02*
X10686405Y-10795171D01*
%TO.C,D3*%
X11472790Y-10227862D02*
X11472790Y-10127862D01*
X11472790Y-10127862D02*
X11496600Y-10127862D01*
X11496600Y-10127862D02*
X11510886Y-10132624D01*
X11510886Y-10132624D02*
X11520409Y-10142148D01*
X11520409Y-10142148D02*
X11525171Y-10151671D01*
X11525171Y-10151671D02*
X11529933Y-10170719D01*
X11529933Y-10170719D02*
X11529933Y-10185005D01*
X11529933Y-10185005D02*
X11525171Y-10204052D01*
X11525171Y-10204052D02*
X11520409Y-10213576D01*
X11520409Y-10213576D02*
X11510886Y-10223100D01*
X11510886Y-10223100D02*
X11496600Y-10227862D01*
X11496600Y-10227862D02*
X11472790Y-10227862D01*
X11563267Y-10127862D02*
X11625171Y-10127862D01*
X11625171Y-10127862D02*
X11591838Y-10165957D01*
X11591838Y-10165957D02*
X11606124Y-10165957D01*
X11606124Y-10165957D02*
X11615648Y-10170719D01*
X11615648Y-10170719D02*
X11620409Y-10175481D01*
X11620409Y-10175481D02*
X11625171Y-10185005D01*
X11625171Y-10185005D02*
X11625171Y-10208814D01*
X11625171Y-10208814D02*
X11620409Y-10218338D01*
X11620409Y-10218338D02*
X11615648Y-10223100D01*
X11615648Y-10223100D02*
X11606124Y-10227862D01*
X11606124Y-10227862D02*
X11577552Y-10227862D01*
X11577552Y-10227862D02*
X11568029Y-10223100D01*
X11568029Y-10223100D02*
X11563267Y-10218338D01*
%TO.C,C1*%
X12329788Y-9118317D02*
X12334550Y-9123079D01*
X12334550Y-9123079D02*
X12339312Y-9137364D01*
X12339312Y-9137364D02*
X12339312Y-9146888D01*
X12339312Y-9146888D02*
X12334550Y-9161174D01*
X12334550Y-9161174D02*
X12325026Y-9170698D01*
X12325026Y-9170698D02*
X12315502Y-9175459D01*
X12315502Y-9175459D02*
X12296455Y-9180221D01*
X12296455Y-9180221D02*
X12282169Y-9180221D01*
X12282169Y-9180221D02*
X12263121Y-9175459D01*
X12263121Y-9175459D02*
X12253598Y-9170698D01*
X12253598Y-9170698D02*
X12244074Y-9161174D01*
X12244074Y-9161174D02*
X12239312Y-9146888D01*
X12239312Y-9146888D02*
X12239312Y-9137364D01*
X12239312Y-9137364D02*
X12244074Y-9123079D01*
X12244074Y-9123079D02*
X12248836Y-9118317D01*
X12339312Y-9023079D02*
X12339312Y-9080221D01*
X12339312Y-9051650D02*
X12239312Y-9051650D01*
X12239312Y-9051650D02*
X12253598Y-9061174D01*
X12253598Y-9061174D02*
X12263121Y-9070698D01*
X12263121Y-9070698D02*
X12267883Y-9080221D01*
%TO.C,U5*%
X11749809Y-11499462D02*
X11749809Y-11580414D01*
X11749809Y-11580414D02*
X11754571Y-11589938D01*
X11754571Y-11589938D02*
X11759333Y-11594700D01*
X11759333Y-11594700D02*
X11768857Y-11599462D01*
X11768857Y-11599462D02*
X11787905Y-11599462D01*
X11787905Y-11599462D02*
X11797428Y-11594700D01*
X11797428Y-11594700D02*
X11802190Y-11589938D01*
X11802190Y-11589938D02*
X11806952Y-11580414D01*
X11806952Y-11580414D02*
X11806952Y-11499462D01*
X11902190Y-11499462D02*
X11854571Y-11499462D01*
X11854571Y-11499462D02*
X11849809Y-11547081D01*
X11849809Y-11547081D02*
X11854571Y-11542319D01*
X11854571Y-11542319D02*
X11864095Y-11537557D01*
X11864095Y-11537557D02*
X11887905Y-11537557D01*
X11887905Y-11537557D02*
X11897428Y-11542319D01*
X11897428Y-11542319D02*
X11902190Y-11547081D01*
X11902190Y-11547081D02*
X11906952Y-11556605D01*
X11906952Y-11556605D02*
X11906952Y-11580414D01*
X11906952Y-11580414D02*
X11902190Y-11589938D01*
X11902190Y-11589938D02*
X11897428Y-11594700D01*
X11897428Y-11594700D02*
X11887905Y-11599462D01*
X11887905Y-11599462D02*
X11864095Y-11599462D01*
X11864095Y-11599462D02*
X11854571Y-11594700D01*
X11854571Y-11594700D02*
X11849809Y-11589938D01*
X11405062Y-11533088D02*
X11428871Y-11533088D01*
X11419348Y-11556897D02*
X11428871Y-11533088D01*
X11428871Y-11533088D02*
X11419348Y-11509278D01*
X11447919Y-11547374D02*
X11428871Y-11533088D01*
X11428871Y-11533088D02*
X11447919Y-11518802D01*
%TO.C,C8*%
X12471033Y-10389438D02*
X12466271Y-10394200D01*
X12466271Y-10394200D02*
X12451986Y-10398962D01*
X12451986Y-10398962D02*
X12442462Y-10398962D01*
X12442462Y-10398962D02*
X12428176Y-10394200D01*
X12428176Y-10394200D02*
X12418652Y-10384676D01*
X12418652Y-10384676D02*
X12413890Y-10375152D01*
X12413890Y-10375152D02*
X12409129Y-10356105D01*
X12409129Y-10356105D02*
X12409129Y-10341819D01*
X12409129Y-10341819D02*
X12413890Y-10322771D01*
X12413890Y-10322771D02*
X12418652Y-10313248D01*
X12418652Y-10313248D02*
X12428176Y-10303724D01*
X12428176Y-10303724D02*
X12442462Y-10298962D01*
X12442462Y-10298962D02*
X12451986Y-10298962D01*
X12451986Y-10298962D02*
X12466271Y-10303724D01*
X12466271Y-10303724D02*
X12471033Y-10308486D01*
X12528176Y-10341819D02*
X12518652Y-10337057D01*
X12518652Y-10337057D02*
X12513890Y-10332295D01*
X12513890Y-10332295D02*
X12509129Y-10322771D01*
X12509129Y-10322771D02*
X12509129Y-10318010D01*
X12509129Y-10318010D02*
X12513890Y-10308486D01*
X12513890Y-10308486D02*
X12518652Y-10303724D01*
X12518652Y-10303724D02*
X12528176Y-10298962D01*
X12528176Y-10298962D02*
X12547224Y-10298962D01*
X12547224Y-10298962D02*
X12556748Y-10303724D01*
X12556748Y-10303724D02*
X12561509Y-10308486D01*
X12561509Y-10308486D02*
X12566271Y-10318010D01*
X12566271Y-10318010D02*
X12566271Y-10322771D01*
X12566271Y-10322771D02*
X12561509Y-10332295D01*
X12561509Y-10332295D02*
X12556748Y-10337057D01*
X12556748Y-10337057D02*
X12547224Y-10341819D01*
X12547224Y-10341819D02*
X12528176Y-10341819D01*
X12528176Y-10341819D02*
X12518652Y-10346581D01*
X12518652Y-10346581D02*
X12513890Y-10351343D01*
X12513890Y-10351343D02*
X12509129Y-10360867D01*
X12509129Y-10360867D02*
X12509129Y-10379914D01*
X12509129Y-10379914D02*
X12513890Y-10389438D01*
X12513890Y-10389438D02*
X12518652Y-10394200D01*
X12518652Y-10394200D02*
X12528176Y-10398962D01*
X12528176Y-10398962D02*
X12547224Y-10398962D01*
X12547224Y-10398962D02*
X12556748Y-10394200D01*
X12556748Y-10394200D02*
X12561509Y-10389438D01*
X12561509Y-10389438D02*
X12566271Y-10379914D01*
X12566271Y-10379914D02*
X12566271Y-10360867D01*
X12566271Y-10360867D02*
X12561509Y-10351343D01*
X12561509Y-10351343D02*
X12556748Y-10346581D01*
X12556748Y-10346581D02*
X12547224Y-10341819D01*
D11*
%TO.C,R11*%
X14587331Y-8869743D02*
X14563521Y-8886409D01*
X14587331Y-8898314D02*
X14537331Y-8898314D01*
X14537331Y-8898314D02*
X14537331Y-8879267D01*
X14537331Y-8879267D02*
X14539712Y-8874505D01*
X14539712Y-8874505D02*
X14542093Y-8872124D01*
X14542093Y-8872124D02*
X14546855Y-8869743D01*
X14546855Y-8869743D02*
X14553998Y-8869743D01*
X14553998Y-8869743D02*
X14558759Y-8872124D01*
X14558759Y-8872124D02*
X14561140Y-8874505D01*
X14561140Y-8874505D02*
X14563521Y-8879267D01*
X14563521Y-8879267D02*
X14563521Y-8898314D01*
X14587331Y-8822124D02*
X14587331Y-8850695D01*
X14587331Y-8836409D02*
X14537331Y-8836409D01*
X14537331Y-8836409D02*
X14544474Y-8841171D01*
X14544474Y-8841171D02*
X14549236Y-8845933D01*
X14549236Y-8845933D02*
X14551617Y-8850695D01*
X14587331Y-8774505D02*
X14587331Y-8803076D01*
X14587331Y-8788790D02*
X14537331Y-8788790D01*
X14537331Y-8788790D02*
X14544474Y-8793552D01*
X14544474Y-8793552D02*
X14549236Y-8798314D01*
X14549236Y-8798314D02*
X14551617Y-8803076D01*
D10*
%TO.C,J4*%
X11650267Y-12792062D02*
X11650267Y-12863490D01*
X11650267Y-12863490D02*
X11645505Y-12877776D01*
X11645505Y-12877776D02*
X11635981Y-12887300D01*
X11635981Y-12887300D02*
X11621695Y-12892062D01*
X11621695Y-12892062D02*
X11612171Y-12892062D01*
X11740743Y-12825395D02*
X11740743Y-12892062D01*
X11716933Y-12787300D02*
X11693124Y-12858728D01*
X11693124Y-12858728D02*
X11755028Y-12858728D01*
%TO.C,SW1*%
X11829075Y-9716704D02*
X11843360Y-9721466D01*
X11843360Y-9721466D02*
X11867170Y-9721466D01*
X11867170Y-9721466D02*
X11876694Y-9716704D01*
X11876694Y-9716704D02*
X11881456Y-9711942D01*
X11881456Y-9711942D02*
X11886217Y-9702418D01*
X11886217Y-9702418D02*
X11886217Y-9692894D01*
X11886217Y-9692894D02*
X11881456Y-9683371D01*
X11881456Y-9683371D02*
X11876694Y-9678609D01*
X11876694Y-9678609D02*
X11867170Y-9673847D01*
X11867170Y-9673847D02*
X11848122Y-9669085D01*
X11848122Y-9669085D02*
X11838598Y-9664323D01*
X11838598Y-9664323D02*
X11833837Y-9659561D01*
X11833837Y-9659561D02*
X11829075Y-9650037D01*
X11829075Y-9650037D02*
X11829075Y-9640513D01*
X11829075Y-9640513D02*
X11833837Y-9630990D01*
X11833837Y-9630990D02*
X11838598Y-9626228D01*
X11838598Y-9626228D02*
X11848122Y-9621466D01*
X11848122Y-9621466D02*
X11871932Y-9621466D01*
X11871932Y-9621466D02*
X11886217Y-9626228D01*
X11919551Y-9621466D02*
X11943360Y-9721466D01*
X11943360Y-9721466D02*
X11962408Y-9650037D01*
X11962408Y-9650037D02*
X11981456Y-9721466D01*
X11981456Y-9721466D02*
X12005265Y-9621466D01*
X12095741Y-9721466D02*
X12038598Y-9721466D01*
X12067170Y-9721466D02*
X12067170Y-9621466D01*
X12067170Y-9621466D02*
X12057646Y-9635752D01*
X12057646Y-9635752D02*
X12048122Y-9645275D01*
X12048122Y-9645275D02*
X12038598Y-9650037D01*
%TO.C,U8*%
X11366267Y-10905983D02*
X11366267Y-10962650D01*
X11366267Y-10962650D02*
X11369600Y-10969317D01*
X11369600Y-10969317D02*
X11372933Y-10972650D01*
X11372933Y-10972650D02*
X11379600Y-10975983D01*
X11379600Y-10975983D02*
X11392933Y-10975983D01*
X11392933Y-10975983D02*
X11399600Y-10972650D01*
X11399600Y-10972650D02*
X11402933Y-10969317D01*
X11402933Y-10969317D02*
X11406267Y-10962650D01*
X11406267Y-10962650D02*
X11406267Y-10905983D01*
X11449600Y-10935983D02*
X11442933Y-10932650D01*
X11442933Y-10932650D02*
X11439600Y-10929317D01*
X11439600Y-10929317D02*
X11436267Y-10922650D01*
X11436267Y-10922650D02*
X11436267Y-10919317D01*
X11436267Y-10919317D02*
X11439600Y-10912650D01*
X11439600Y-10912650D02*
X11442933Y-10909317D01*
X11442933Y-10909317D02*
X11449600Y-10905983D01*
X11449600Y-10905983D02*
X11462933Y-10905983D01*
X11462933Y-10905983D02*
X11469600Y-10909317D01*
X11469600Y-10909317D02*
X11472933Y-10912650D01*
X11472933Y-10912650D02*
X11476267Y-10919317D01*
X11476267Y-10919317D02*
X11476267Y-10922650D01*
X11476267Y-10922650D02*
X11472933Y-10929317D01*
X11472933Y-10929317D02*
X11469600Y-10932650D01*
X11469600Y-10932650D02*
X11462933Y-10935983D01*
X11462933Y-10935983D02*
X11449600Y-10935983D01*
X11449600Y-10935983D02*
X11442933Y-10939317D01*
X11442933Y-10939317D02*
X11439600Y-10942650D01*
X11439600Y-10942650D02*
X11436267Y-10949317D01*
X11436267Y-10949317D02*
X11436267Y-10962650D01*
X11436267Y-10962650D02*
X11439600Y-10969317D01*
X11439600Y-10969317D02*
X11442933Y-10972650D01*
X11442933Y-10972650D02*
X11449600Y-10975983D01*
X11449600Y-10975983D02*
X11462933Y-10975983D01*
X11462933Y-10975983D02*
X11469600Y-10972650D01*
X11469600Y-10972650D02*
X11472933Y-10969317D01*
X11472933Y-10969317D02*
X11476267Y-10962650D01*
X11476267Y-10962650D02*
X11476267Y-10949317D01*
X11476267Y-10949317D02*
X11472933Y-10942650D01*
X11472933Y-10942650D02*
X11469600Y-10939317D01*
X11469600Y-10939317D02*
X11462933Y-10935983D01*
%TO.C,C2*%
X12352538Y-8819667D02*
X12357300Y-8824429D01*
X12357300Y-8824429D02*
X12362062Y-8838714D01*
X12362062Y-8838714D02*
X12362062Y-8848238D01*
X12362062Y-8848238D02*
X12357300Y-8862524D01*
X12357300Y-8862524D02*
X12347776Y-8872048D01*
X12347776Y-8872048D02*
X12338252Y-8876809D01*
X12338252Y-8876809D02*
X12319205Y-8881571D01*
X12319205Y-8881571D02*
X12304919Y-8881571D01*
X12304919Y-8881571D02*
X12285871Y-8876809D01*
X12285871Y-8876809D02*
X12276348Y-8872048D01*
X12276348Y-8872048D02*
X12266824Y-8862524D01*
X12266824Y-8862524D02*
X12262062Y-8848238D01*
X12262062Y-8848238D02*
X12262062Y-8838714D01*
X12262062Y-8838714D02*
X12266824Y-8824429D01*
X12266824Y-8824429D02*
X12271586Y-8819667D01*
X12271586Y-8781571D02*
X12266824Y-8776809D01*
X12266824Y-8776809D02*
X12262062Y-8767286D01*
X12262062Y-8767286D02*
X12262062Y-8743476D01*
X12262062Y-8743476D02*
X12266824Y-8733952D01*
X12266824Y-8733952D02*
X12271586Y-8729190D01*
X12271586Y-8729190D02*
X12281109Y-8724429D01*
X12281109Y-8724429D02*
X12290633Y-8724429D01*
X12290633Y-8724429D02*
X12304919Y-8729190D01*
X12304919Y-8729190D02*
X12362062Y-8786333D01*
X12362062Y-8786333D02*
X12362062Y-8724429D01*
%TO.C,C16*%
X10414938Y-10779286D02*
X10419700Y-10784048D01*
X10419700Y-10784048D02*
X10424462Y-10798333D01*
X10424462Y-10798333D02*
X10424462Y-10807857D01*
X10424462Y-10807857D02*
X10419700Y-10822143D01*
X10419700Y-10822143D02*
X10410176Y-10831667D01*
X10410176Y-10831667D02*
X10400652Y-10836429D01*
X10400652Y-10836429D02*
X10381605Y-10841190D01*
X10381605Y-10841190D02*
X10367319Y-10841190D01*
X10367319Y-10841190D02*
X10348271Y-10836429D01*
X10348271Y-10836429D02*
X10338748Y-10831667D01*
X10338748Y-10831667D02*
X10329224Y-10822143D01*
X10329224Y-10822143D02*
X10324462Y-10807857D01*
X10324462Y-10807857D02*
X10324462Y-10798333D01*
X10324462Y-10798333D02*
X10329224Y-10784048D01*
X10329224Y-10784048D02*
X10333986Y-10779286D01*
X10424462Y-10684048D02*
X10424462Y-10741190D01*
X10424462Y-10712619D02*
X10324462Y-10712619D01*
X10324462Y-10712619D02*
X10338748Y-10722143D01*
X10338748Y-10722143D02*
X10348271Y-10731667D01*
X10348271Y-10731667D02*
X10353033Y-10741190D01*
X10324462Y-10598333D02*
X10324462Y-10617381D01*
X10324462Y-10617381D02*
X10329224Y-10626905D01*
X10329224Y-10626905D02*
X10333986Y-10631667D01*
X10333986Y-10631667D02*
X10348271Y-10641190D01*
X10348271Y-10641190D02*
X10367319Y-10645952D01*
X10367319Y-10645952D02*
X10405414Y-10645952D01*
X10405414Y-10645952D02*
X10414938Y-10641190D01*
X10414938Y-10641190D02*
X10419700Y-10636429D01*
X10419700Y-10636429D02*
X10424462Y-10626905D01*
X10424462Y-10626905D02*
X10424462Y-10607857D01*
X10424462Y-10607857D02*
X10419700Y-10598333D01*
X10419700Y-10598333D02*
X10414938Y-10593571D01*
X10414938Y-10593571D02*
X10405414Y-10588810D01*
X10405414Y-10588810D02*
X10381605Y-10588810D01*
X10381605Y-10588810D02*
X10372081Y-10593571D01*
X10372081Y-10593571D02*
X10367319Y-10598333D01*
X10367319Y-10598333D02*
X10362557Y-10607857D01*
X10362557Y-10607857D02*
X10362557Y-10626905D01*
X10362557Y-10626905D02*
X10367319Y-10636429D01*
X10367319Y-10636429D02*
X10372081Y-10641190D01*
X10372081Y-10641190D02*
X10381605Y-10645952D01*
D11*
%TO.C,C4*%
X12733369Y-9758133D02*
X12735750Y-9760514D01*
X12735750Y-9760514D02*
X12738131Y-9767657D01*
X12738131Y-9767657D02*
X12738131Y-9772419D01*
X12738131Y-9772419D02*
X12735750Y-9779562D01*
X12735750Y-9779562D02*
X12730988Y-9784324D01*
X12730988Y-9784324D02*
X12726226Y-9786705D01*
X12726226Y-9786705D02*
X12716702Y-9789086D01*
X12716702Y-9789086D02*
X12709559Y-9789086D01*
X12709559Y-9789086D02*
X12700036Y-9786705D01*
X12700036Y-9786705D02*
X12695274Y-9784324D01*
X12695274Y-9784324D02*
X12690512Y-9779562D01*
X12690512Y-9779562D02*
X12688131Y-9772419D01*
X12688131Y-9772419D02*
X12688131Y-9767657D01*
X12688131Y-9767657D02*
X12690512Y-9760514D01*
X12690512Y-9760514D02*
X12692893Y-9758133D01*
X12704798Y-9715276D02*
X12738131Y-9715276D01*
X12685750Y-9727181D02*
X12721464Y-9739086D01*
X12721464Y-9739086D02*
X12721464Y-9708133D01*
D10*
%TO.C,C13*%
X13810914Y-9445438D02*
X13806152Y-9450200D01*
X13806152Y-9450200D02*
X13791867Y-9454962D01*
X13791867Y-9454962D02*
X13782343Y-9454962D01*
X13782343Y-9454962D02*
X13768057Y-9450200D01*
X13768057Y-9450200D02*
X13758533Y-9440676D01*
X13758533Y-9440676D02*
X13753771Y-9431152D01*
X13753771Y-9431152D02*
X13749009Y-9412105D01*
X13749009Y-9412105D02*
X13749009Y-9397819D01*
X13749009Y-9397819D02*
X13753771Y-9378771D01*
X13753771Y-9378771D02*
X13758533Y-9369248D01*
X13758533Y-9369248D02*
X13768057Y-9359724D01*
X13768057Y-9359724D02*
X13782343Y-9354962D01*
X13782343Y-9354962D02*
X13791867Y-9354962D01*
X13791867Y-9354962D02*
X13806152Y-9359724D01*
X13806152Y-9359724D02*
X13810914Y-9364486D01*
X13906152Y-9454962D02*
X13849009Y-9454962D01*
X13877581Y-9454962D02*
X13877581Y-9354962D01*
X13877581Y-9354962D02*
X13868057Y-9369248D01*
X13868057Y-9369248D02*
X13858533Y-9378771D01*
X13858533Y-9378771D02*
X13849009Y-9383533D01*
X13939486Y-9354962D02*
X14001390Y-9354962D01*
X14001390Y-9354962D02*
X13968057Y-9393057D01*
X13968057Y-9393057D02*
X13982343Y-9393057D01*
X13982343Y-9393057D02*
X13991867Y-9397819D01*
X13991867Y-9397819D02*
X13996628Y-9402581D01*
X13996628Y-9402581D02*
X14001390Y-9412105D01*
X14001390Y-9412105D02*
X14001390Y-9435914D01*
X14001390Y-9435914D02*
X13996628Y-9445438D01*
X13996628Y-9445438D02*
X13991867Y-9450200D01*
X13991867Y-9450200D02*
X13982343Y-9454962D01*
X13982343Y-9454962D02*
X13953771Y-9454962D01*
X13953771Y-9454962D02*
X13944248Y-9450200D01*
X13944248Y-9450200D02*
X13939486Y-9445438D01*
%TO.C,C17*%
X10999714Y-10650138D02*
X10994952Y-10654900D01*
X10994952Y-10654900D02*
X10980667Y-10659662D01*
X10980667Y-10659662D02*
X10971143Y-10659662D01*
X10971143Y-10659662D02*
X10956857Y-10654900D01*
X10956857Y-10654900D02*
X10947333Y-10645376D01*
X10947333Y-10645376D02*
X10942571Y-10635852D01*
X10942571Y-10635852D02*
X10937810Y-10616805D01*
X10937810Y-10616805D02*
X10937810Y-10602519D01*
X10937810Y-10602519D02*
X10942571Y-10583471D01*
X10942571Y-10583471D02*
X10947333Y-10573948D01*
X10947333Y-10573948D02*
X10956857Y-10564424D01*
X10956857Y-10564424D02*
X10971143Y-10559662D01*
X10971143Y-10559662D02*
X10980667Y-10559662D01*
X10980667Y-10559662D02*
X10994952Y-10564424D01*
X10994952Y-10564424D02*
X10999714Y-10569186D01*
X11094952Y-10659662D02*
X11037810Y-10659662D01*
X11066381Y-10659662D02*
X11066381Y-10559662D01*
X11066381Y-10559662D02*
X11056857Y-10573948D01*
X11056857Y-10573948D02*
X11047333Y-10583471D01*
X11047333Y-10583471D02*
X11037810Y-10588233D01*
X11128286Y-10559662D02*
X11194952Y-10559662D01*
X11194952Y-10559662D02*
X11152095Y-10659662D01*
%TO.C,U2*%
X10825710Y-9624462D02*
X10825710Y-9705414D01*
X10825710Y-9705414D02*
X10830471Y-9714938D01*
X10830471Y-9714938D02*
X10835233Y-9719700D01*
X10835233Y-9719700D02*
X10844757Y-9724462D01*
X10844757Y-9724462D02*
X10863805Y-9724462D01*
X10863805Y-9724462D02*
X10873329Y-9719700D01*
X10873329Y-9719700D02*
X10878090Y-9714938D01*
X10878090Y-9714938D02*
X10882852Y-9705414D01*
X10882852Y-9705414D02*
X10882852Y-9624462D01*
X10925710Y-9633986D02*
X10930471Y-9629224D01*
X10930471Y-9629224D02*
X10939995Y-9624462D01*
X10939995Y-9624462D02*
X10963805Y-9624462D01*
X10963805Y-9624462D02*
X10973329Y-9629224D01*
X10973329Y-9629224D02*
X10978090Y-9633986D01*
X10978090Y-9633986D02*
X10982852Y-9643510D01*
X10982852Y-9643510D02*
X10982852Y-9653033D01*
X10982852Y-9653033D02*
X10978090Y-9667319D01*
X10978090Y-9667319D02*
X10920948Y-9724462D01*
X10920948Y-9724462D02*
X10982852Y-9724462D01*
%TO.C,C9*%
X12412033Y-10944438D02*
X12407271Y-10949200D01*
X12407271Y-10949200D02*
X12392986Y-10953962D01*
X12392986Y-10953962D02*
X12383462Y-10953962D01*
X12383462Y-10953962D02*
X12369176Y-10949200D01*
X12369176Y-10949200D02*
X12359652Y-10939676D01*
X12359652Y-10939676D02*
X12354890Y-10930152D01*
X12354890Y-10930152D02*
X12350129Y-10911105D01*
X12350129Y-10911105D02*
X12350129Y-10896819D01*
X12350129Y-10896819D02*
X12354890Y-10877771D01*
X12354890Y-10877771D02*
X12359652Y-10868248D01*
X12359652Y-10868248D02*
X12369176Y-10858724D01*
X12369176Y-10858724D02*
X12383462Y-10853962D01*
X12383462Y-10853962D02*
X12392986Y-10853962D01*
X12392986Y-10853962D02*
X12407271Y-10858724D01*
X12407271Y-10858724D02*
X12412033Y-10863486D01*
X12459652Y-10953962D02*
X12478700Y-10953962D01*
X12478700Y-10953962D02*
X12488224Y-10949200D01*
X12488224Y-10949200D02*
X12492986Y-10944438D01*
X12492986Y-10944438D02*
X12502509Y-10930152D01*
X12502509Y-10930152D02*
X12507271Y-10911105D01*
X12507271Y-10911105D02*
X12507271Y-10873010D01*
X12507271Y-10873010D02*
X12502509Y-10863486D01*
X12502509Y-10863486D02*
X12497748Y-10858724D01*
X12497748Y-10858724D02*
X12488224Y-10853962D01*
X12488224Y-10853962D02*
X12469176Y-10853962D01*
X12469176Y-10853962D02*
X12459652Y-10858724D01*
X12459652Y-10858724D02*
X12454890Y-10863486D01*
X12454890Y-10863486D02*
X12450129Y-10873010D01*
X12450129Y-10873010D02*
X12450129Y-10896819D01*
X12450129Y-10896819D02*
X12454890Y-10906343D01*
X12454890Y-10906343D02*
X12459652Y-10911105D01*
X12459652Y-10911105D02*
X12469176Y-10915867D01*
X12469176Y-10915867D02*
X12488224Y-10915867D01*
X12488224Y-10915867D02*
X12497748Y-10911105D01*
X12497748Y-10911105D02*
X12502509Y-10906343D01*
X12502509Y-10906343D02*
X12507271Y-10896819D01*
%TO.C,C18*%
X12263914Y-12197438D02*
X12259152Y-12202200D01*
X12259152Y-12202200D02*
X12244867Y-12206962D01*
X12244867Y-12206962D02*
X12235343Y-12206962D01*
X12235343Y-12206962D02*
X12221057Y-12202200D01*
X12221057Y-12202200D02*
X12211533Y-12192676D01*
X12211533Y-12192676D02*
X12206771Y-12183152D01*
X12206771Y-12183152D02*
X12202009Y-12164105D01*
X12202009Y-12164105D02*
X12202009Y-12149819D01*
X12202009Y-12149819D02*
X12206771Y-12130771D01*
X12206771Y-12130771D02*
X12211533Y-12121248D01*
X12211533Y-12121248D02*
X12221057Y-12111724D01*
X12221057Y-12111724D02*
X12235343Y-12106962D01*
X12235343Y-12106962D02*
X12244867Y-12106962D01*
X12244867Y-12106962D02*
X12259152Y-12111724D01*
X12259152Y-12111724D02*
X12263914Y-12116486D01*
X12359152Y-12206962D02*
X12302009Y-12206962D01*
X12330581Y-12206962D02*
X12330581Y-12106962D01*
X12330581Y-12106962D02*
X12321057Y-12121248D01*
X12321057Y-12121248D02*
X12311533Y-12130771D01*
X12311533Y-12130771D02*
X12302009Y-12135533D01*
X12416295Y-12149819D02*
X12406771Y-12145057D01*
X12406771Y-12145057D02*
X12402009Y-12140295D01*
X12402009Y-12140295D02*
X12397248Y-12130771D01*
X12397248Y-12130771D02*
X12397248Y-12126009D01*
X12397248Y-12126009D02*
X12402009Y-12116486D01*
X12402009Y-12116486D02*
X12406771Y-12111724D01*
X12406771Y-12111724D02*
X12416295Y-12106962D01*
X12416295Y-12106962D02*
X12435343Y-12106962D01*
X12435343Y-12106962D02*
X12444867Y-12111724D01*
X12444867Y-12111724D02*
X12449628Y-12116486D01*
X12449628Y-12116486D02*
X12454390Y-12126009D01*
X12454390Y-12126009D02*
X12454390Y-12130771D01*
X12454390Y-12130771D02*
X12449628Y-12140295D01*
X12449628Y-12140295D02*
X12444867Y-12145057D01*
X12444867Y-12145057D02*
X12435343Y-12149819D01*
X12435343Y-12149819D02*
X12416295Y-12149819D01*
X12416295Y-12149819D02*
X12406771Y-12154581D01*
X12406771Y-12154581D02*
X12402009Y-12159343D01*
X12402009Y-12159343D02*
X12397248Y-12168867D01*
X12397248Y-12168867D02*
X12397248Y-12187914D01*
X12397248Y-12187914D02*
X12402009Y-12197438D01*
X12402009Y-12197438D02*
X12406771Y-12202200D01*
X12406771Y-12202200D02*
X12416295Y-12206962D01*
X12416295Y-12206962D02*
X12435343Y-12206962D01*
X12435343Y-12206962D02*
X12444867Y-12202200D01*
X12444867Y-12202200D02*
X12449628Y-12197438D01*
X12449628Y-12197438D02*
X12454390Y-12187914D01*
X12454390Y-12187914D02*
X12454390Y-12168867D01*
X12454390Y-12168867D02*
X12449628Y-12159343D01*
X12449628Y-12159343D02*
X12444867Y-12154581D01*
X12444867Y-12154581D02*
X12435343Y-12149819D01*
%TO.C,FB3*%
X13023867Y-9228581D02*
X12990533Y-9228581D01*
X12990533Y-9280962D02*
X12990533Y-9180962D01*
X12990533Y-9180962D02*
X13038152Y-9180962D01*
X13109581Y-9228581D02*
X13123867Y-9233343D01*
X13123867Y-9233343D02*
X13128628Y-9238105D01*
X13128628Y-9238105D02*
X13133390Y-9247629D01*
X13133390Y-9247629D02*
X13133390Y-9261914D01*
X13133390Y-9261914D02*
X13128628Y-9271438D01*
X13128628Y-9271438D02*
X13123867Y-9276200D01*
X13123867Y-9276200D02*
X13114343Y-9280962D01*
X13114343Y-9280962D02*
X13076248Y-9280962D01*
X13076248Y-9280962D02*
X13076248Y-9180962D01*
X13076248Y-9180962D02*
X13109581Y-9180962D01*
X13109581Y-9180962D02*
X13119105Y-9185724D01*
X13119105Y-9185724D02*
X13123867Y-9190486D01*
X13123867Y-9190486D02*
X13128628Y-9200010D01*
X13128628Y-9200010D02*
X13128628Y-9209533D01*
X13128628Y-9209533D02*
X13123867Y-9219057D01*
X13123867Y-9219057D02*
X13119105Y-9223819D01*
X13119105Y-9223819D02*
X13109581Y-9228581D01*
X13109581Y-9228581D02*
X13076248Y-9228581D01*
X13166724Y-9180962D02*
X13228628Y-9180962D01*
X13228628Y-9180962D02*
X13195295Y-9219057D01*
X13195295Y-9219057D02*
X13209581Y-9219057D01*
X13209581Y-9219057D02*
X13219105Y-9223819D01*
X13219105Y-9223819D02*
X13223867Y-9228581D01*
X13223867Y-9228581D02*
X13228628Y-9238105D01*
X13228628Y-9238105D02*
X13228628Y-9261914D01*
X13228628Y-9261914D02*
X13223867Y-9271438D01*
X13223867Y-9271438D02*
X13219105Y-9276200D01*
X13219105Y-9276200D02*
X13209581Y-9280962D01*
X13209581Y-9280962D02*
X13181009Y-9280962D01*
X13181009Y-9280962D02*
X13171486Y-9276200D01*
X13171486Y-9276200D02*
X13166724Y-9271438D01*
%TO.C,J3*%
X10466467Y-12788062D02*
X10466467Y-12859490D01*
X10466467Y-12859490D02*
X10461705Y-12873776D01*
X10461705Y-12873776D02*
X10452181Y-12883300D01*
X10452181Y-12883300D02*
X10437895Y-12888062D01*
X10437895Y-12888062D02*
X10428371Y-12888062D01*
X10504562Y-12788062D02*
X10566467Y-12788062D01*
X10566467Y-12788062D02*
X10533133Y-12826157D01*
X10533133Y-12826157D02*
X10547419Y-12826157D01*
X10547419Y-12826157D02*
X10556943Y-12830919D01*
X10556943Y-12830919D02*
X10561705Y-12835681D01*
X10561705Y-12835681D02*
X10566467Y-12845205D01*
X10566467Y-12845205D02*
X10566467Y-12869014D01*
X10566467Y-12869014D02*
X10561705Y-12878538D01*
X10561705Y-12878538D02*
X10556943Y-12883300D01*
X10556943Y-12883300D02*
X10547419Y-12888062D01*
X10547419Y-12888062D02*
X10518848Y-12888062D01*
X10518848Y-12888062D02*
X10509324Y-12883300D01*
X10509324Y-12883300D02*
X10504562Y-12878538D01*
%TO.C,FB1*%
X12427981Y-8509133D02*
X12427981Y-8542467D01*
X12480362Y-8542467D02*
X12380362Y-8542467D01*
X12380362Y-8542467D02*
X12380362Y-8494848D01*
X12427981Y-8423419D02*
X12432743Y-8409133D01*
X12432743Y-8409133D02*
X12437505Y-8404371D01*
X12437505Y-8404371D02*
X12447028Y-8399610D01*
X12447028Y-8399610D02*
X12461314Y-8399610D01*
X12461314Y-8399610D02*
X12470838Y-8404371D01*
X12470838Y-8404371D02*
X12475600Y-8409133D01*
X12475600Y-8409133D02*
X12480362Y-8418657D01*
X12480362Y-8418657D02*
X12480362Y-8456752D01*
X12480362Y-8456752D02*
X12380362Y-8456752D01*
X12380362Y-8456752D02*
X12380362Y-8423419D01*
X12380362Y-8423419D02*
X12385124Y-8413895D01*
X12385124Y-8413895D02*
X12389886Y-8409133D01*
X12389886Y-8409133D02*
X12399409Y-8404371D01*
X12399409Y-8404371D02*
X12408933Y-8404371D01*
X12408933Y-8404371D02*
X12418457Y-8409133D01*
X12418457Y-8409133D02*
X12423219Y-8413895D01*
X12423219Y-8413895D02*
X12427981Y-8423419D01*
X12427981Y-8423419D02*
X12427981Y-8456752D01*
X12480362Y-8304371D02*
X12480362Y-8361514D01*
X12480362Y-8332943D02*
X12380362Y-8332943D01*
X12380362Y-8332943D02*
X12394648Y-8342467D01*
X12394648Y-8342467D02*
X12404171Y-8351990D01*
X12404171Y-8351990D02*
X12408933Y-8361514D01*
%TO.C,R5*%
X10638533Y-11775750D02*
X10605200Y-11728131D01*
X10581391Y-11775750D02*
X10581391Y-11675750D01*
X10581391Y-11675750D02*
X10619486Y-11675750D01*
X10619486Y-11675750D02*
X10629010Y-11680512D01*
X10629010Y-11680512D02*
X10633771Y-11685274D01*
X10633771Y-11685274D02*
X10638533Y-11694797D01*
X10638533Y-11694797D02*
X10638533Y-11709083D01*
X10638533Y-11709083D02*
X10633771Y-11718607D01*
X10633771Y-11718607D02*
X10629010Y-11723369D01*
X10629010Y-11723369D02*
X10619486Y-11728131D01*
X10619486Y-11728131D02*
X10581391Y-11728131D01*
X10729010Y-11675750D02*
X10681391Y-11675750D01*
X10681391Y-11675750D02*
X10676629Y-11723369D01*
X10676629Y-11723369D02*
X10681391Y-11718607D01*
X10681391Y-11718607D02*
X10690914Y-11713845D01*
X10690914Y-11713845D02*
X10714724Y-11713845D01*
X10714724Y-11713845D02*
X10724248Y-11718607D01*
X10724248Y-11718607D02*
X10729010Y-11723369D01*
X10729010Y-11723369D02*
X10733771Y-11732893D01*
X10733771Y-11732893D02*
X10733771Y-11756702D01*
X10733771Y-11756702D02*
X10729010Y-11766226D01*
X10729010Y-11766226D02*
X10724248Y-11770988D01*
X10724248Y-11770988D02*
X10714724Y-11775750D01*
X10714724Y-11775750D02*
X10690914Y-11775750D01*
X10690914Y-11775750D02*
X10681391Y-11770988D01*
X10681391Y-11770988D02*
X10676629Y-11766226D01*
%TO.C,C6*%
X14268533Y-9812438D02*
X14263771Y-9817200D01*
X14263771Y-9817200D02*
X14249486Y-9821962D01*
X14249486Y-9821962D02*
X14239962Y-9821962D01*
X14239962Y-9821962D02*
X14225676Y-9817200D01*
X14225676Y-9817200D02*
X14216152Y-9807676D01*
X14216152Y-9807676D02*
X14211390Y-9798152D01*
X14211390Y-9798152D02*
X14206629Y-9779105D01*
X14206629Y-9779105D02*
X14206629Y-9764819D01*
X14206629Y-9764819D02*
X14211390Y-9745771D01*
X14211390Y-9745771D02*
X14216152Y-9736248D01*
X14216152Y-9736248D02*
X14225676Y-9726724D01*
X14225676Y-9726724D02*
X14239962Y-9721962D01*
X14239962Y-9721962D02*
X14249486Y-9721962D01*
X14249486Y-9721962D02*
X14263771Y-9726724D01*
X14263771Y-9726724D02*
X14268533Y-9731486D01*
X14354248Y-9721962D02*
X14335200Y-9721962D01*
X14335200Y-9721962D02*
X14325676Y-9726724D01*
X14325676Y-9726724D02*
X14320914Y-9731486D01*
X14320914Y-9731486D02*
X14311390Y-9745771D01*
X14311390Y-9745771D02*
X14306629Y-9764819D01*
X14306629Y-9764819D02*
X14306629Y-9802914D01*
X14306629Y-9802914D02*
X14311390Y-9812438D01*
X14311390Y-9812438D02*
X14316152Y-9817200D01*
X14316152Y-9817200D02*
X14325676Y-9821962D01*
X14325676Y-9821962D02*
X14344724Y-9821962D01*
X14344724Y-9821962D02*
X14354248Y-9817200D01*
X14354248Y-9817200D02*
X14359009Y-9812438D01*
X14359009Y-9812438D02*
X14363771Y-9802914D01*
X14363771Y-9802914D02*
X14363771Y-9779105D01*
X14363771Y-9779105D02*
X14359009Y-9769581D01*
X14359009Y-9769581D02*
X14354248Y-9764819D01*
X14354248Y-9764819D02*
X14344724Y-9760057D01*
X14344724Y-9760057D02*
X14325676Y-9760057D01*
X14325676Y-9760057D02*
X14316152Y-9764819D01*
X14316152Y-9764819D02*
X14311390Y-9769581D01*
X14311390Y-9769581D02*
X14306629Y-9779105D01*
%TO.C,R8*%
X11167533Y-10887750D02*
X11134200Y-10840131D01*
X11110391Y-10887750D02*
X11110391Y-10787750D01*
X11110391Y-10787750D02*
X11148486Y-10787750D01*
X11148486Y-10787750D02*
X11158010Y-10792512D01*
X11158010Y-10792512D02*
X11162771Y-10797274D01*
X11162771Y-10797274D02*
X11167533Y-10806798D01*
X11167533Y-10806798D02*
X11167533Y-10821083D01*
X11167533Y-10821083D02*
X11162771Y-10830607D01*
X11162771Y-10830607D02*
X11158010Y-10835369D01*
X11158010Y-10835369D02*
X11148486Y-10840131D01*
X11148486Y-10840131D02*
X11110391Y-10840131D01*
X11224676Y-10830607D02*
X11215152Y-10825845D01*
X11215152Y-10825845D02*
X11210390Y-10821083D01*
X11210390Y-10821083D02*
X11205629Y-10811559D01*
X11205629Y-10811559D02*
X11205629Y-10806798D01*
X11205629Y-10806798D02*
X11210390Y-10797274D01*
X11210390Y-10797274D02*
X11215152Y-10792512D01*
X11215152Y-10792512D02*
X11224676Y-10787750D01*
X11224676Y-10787750D02*
X11243724Y-10787750D01*
X11243724Y-10787750D02*
X11253248Y-10792512D01*
X11253248Y-10792512D02*
X11258009Y-10797274D01*
X11258009Y-10797274D02*
X11262771Y-10806798D01*
X11262771Y-10806798D02*
X11262771Y-10811559D01*
X11262771Y-10811559D02*
X11258009Y-10821083D01*
X11258009Y-10821083D02*
X11253248Y-10825845D01*
X11253248Y-10825845D02*
X11243724Y-10830607D01*
X11243724Y-10830607D02*
X11224676Y-10830607D01*
X11224676Y-10830607D02*
X11215152Y-10835369D01*
X11215152Y-10835369D02*
X11210390Y-10840131D01*
X11210390Y-10840131D02*
X11205629Y-10849655D01*
X11205629Y-10849655D02*
X11205629Y-10868702D01*
X11205629Y-10868702D02*
X11210390Y-10878226D01*
X11210390Y-10878226D02*
X11215152Y-10882988D01*
X11215152Y-10882988D02*
X11224676Y-10887750D01*
X11224676Y-10887750D02*
X11243724Y-10887750D01*
X11243724Y-10887750D02*
X11253248Y-10882988D01*
X11253248Y-10882988D02*
X11258009Y-10878226D01*
X11258009Y-10878226D02*
X11262771Y-10868702D01*
X11262771Y-10868702D02*
X11262771Y-10849655D01*
X11262771Y-10849655D02*
X11258009Y-10840131D01*
X11258009Y-10840131D02*
X11253248Y-10835369D01*
X11253248Y-10835369D02*
X11243724Y-10830607D01*
%TO.C,D2*%
X14240390Y-10924962D02*
X14240390Y-10824962D01*
X14240390Y-10824962D02*
X14264200Y-10824962D01*
X14264200Y-10824962D02*
X14278486Y-10829724D01*
X14278486Y-10829724D02*
X14288009Y-10839248D01*
X14288009Y-10839248D02*
X14292771Y-10848771D01*
X14292771Y-10848771D02*
X14297533Y-10867819D01*
X14297533Y-10867819D02*
X14297533Y-10882105D01*
X14297533Y-10882105D02*
X14292771Y-10901152D01*
X14292771Y-10901152D02*
X14288009Y-10910676D01*
X14288009Y-10910676D02*
X14278486Y-10920200D01*
X14278486Y-10920200D02*
X14264200Y-10924962D01*
X14264200Y-10924962D02*
X14240390Y-10924962D01*
X14335629Y-10834486D02*
X14340390Y-10829724D01*
X14340390Y-10829724D02*
X14349914Y-10824962D01*
X14349914Y-10824962D02*
X14373724Y-10824962D01*
X14373724Y-10824962D02*
X14383248Y-10829724D01*
X14383248Y-10829724D02*
X14388009Y-10834486D01*
X14388009Y-10834486D02*
X14392771Y-10844010D01*
X14392771Y-10844010D02*
X14392771Y-10853533D01*
X14392771Y-10853533D02*
X14388009Y-10867819D01*
X14388009Y-10867819D02*
X14330867Y-10924962D01*
X14330867Y-10924962D02*
X14392771Y-10924962D01*
%TO.C,C11*%
X12730914Y-9263938D02*
X12726152Y-9268700D01*
X12726152Y-9268700D02*
X12711867Y-9273462D01*
X12711867Y-9273462D02*
X12702343Y-9273462D01*
X12702343Y-9273462D02*
X12688057Y-9268700D01*
X12688057Y-9268700D02*
X12678533Y-9259176D01*
X12678533Y-9259176D02*
X12673771Y-9249652D01*
X12673771Y-9249652D02*
X12669009Y-9230605D01*
X12669009Y-9230605D02*
X12669009Y-9216319D01*
X12669009Y-9216319D02*
X12673771Y-9197271D01*
X12673771Y-9197271D02*
X12678533Y-9187748D01*
X12678533Y-9187748D02*
X12688057Y-9178224D01*
X12688057Y-9178224D02*
X12702343Y-9173462D01*
X12702343Y-9173462D02*
X12711867Y-9173462D01*
X12711867Y-9173462D02*
X12726152Y-9178224D01*
X12726152Y-9178224D02*
X12730914Y-9182986D01*
X12826152Y-9273462D02*
X12769009Y-9273462D01*
X12797581Y-9273462D02*
X12797581Y-9173462D01*
X12797581Y-9173462D02*
X12788057Y-9187748D01*
X12788057Y-9187748D02*
X12778533Y-9197271D01*
X12778533Y-9197271D02*
X12769009Y-9202033D01*
X12921390Y-9273462D02*
X12864248Y-9273462D01*
X12892819Y-9273462D02*
X12892819Y-9173462D01*
X12892819Y-9173462D02*
X12883295Y-9187748D01*
X12883295Y-9187748D02*
X12873771Y-9197271D01*
X12873771Y-9197271D02*
X12864248Y-9202033D01*
%TO.C,R9*%
X11121462Y-10359155D02*
X11073843Y-10392488D01*
X11121462Y-10416297D02*
X11021462Y-10416297D01*
X11021462Y-10416297D02*
X11021462Y-10378202D01*
X11021462Y-10378202D02*
X11026224Y-10368678D01*
X11026224Y-10368678D02*
X11030986Y-10363917D01*
X11030986Y-10363917D02*
X11040510Y-10359155D01*
X11040510Y-10359155D02*
X11054795Y-10359155D01*
X11054795Y-10359155D02*
X11064319Y-10363917D01*
X11064319Y-10363917D02*
X11069081Y-10368678D01*
X11069081Y-10368678D02*
X11073843Y-10378202D01*
X11073843Y-10378202D02*
X11073843Y-10416297D01*
X11121462Y-10311536D02*
X11121462Y-10292488D01*
X11121462Y-10292488D02*
X11116700Y-10282964D01*
X11116700Y-10282964D02*
X11111938Y-10278202D01*
X11111938Y-10278202D02*
X11097652Y-10268678D01*
X11097652Y-10268678D02*
X11078605Y-10263917D01*
X11078605Y-10263917D02*
X11040510Y-10263917D01*
X11040510Y-10263917D02*
X11030986Y-10268678D01*
X11030986Y-10268678D02*
X11026224Y-10273440D01*
X11026224Y-10273440D02*
X11021462Y-10282964D01*
X11021462Y-10282964D02*
X11021462Y-10302012D01*
X11021462Y-10302012D02*
X11026224Y-10311536D01*
X11026224Y-10311536D02*
X11030986Y-10316297D01*
X11030986Y-10316297D02*
X11040510Y-10321059D01*
X11040510Y-10321059D02*
X11064319Y-10321059D01*
X11064319Y-10321059D02*
X11073843Y-10316297D01*
X11073843Y-10316297D02*
X11078605Y-10311536D01*
X11078605Y-10311536D02*
X11083367Y-10302012D01*
X11083367Y-10302012D02*
X11083367Y-10282964D01*
X11083367Y-10282964D02*
X11078605Y-10273440D01*
X11078605Y-10273440D02*
X11073843Y-10268678D01*
X11073843Y-10268678D02*
X11064319Y-10263917D01*
%TO.C,R13*%
X12784914Y-11530462D02*
X12751581Y-11482843D01*
X12727771Y-11530462D02*
X12727771Y-11430462D01*
X12727771Y-11430462D02*
X12765867Y-11430462D01*
X12765867Y-11430462D02*
X12775390Y-11435224D01*
X12775390Y-11435224D02*
X12780152Y-11439986D01*
X12780152Y-11439986D02*
X12784914Y-11449509D01*
X12784914Y-11449509D02*
X12784914Y-11463795D01*
X12784914Y-11463795D02*
X12780152Y-11473319D01*
X12780152Y-11473319D02*
X12775390Y-11478081D01*
X12775390Y-11478081D02*
X12765867Y-11482843D01*
X12765867Y-11482843D02*
X12727771Y-11482843D01*
X12880152Y-11530462D02*
X12823009Y-11530462D01*
X12851581Y-11530462D02*
X12851581Y-11430462D01*
X12851581Y-11430462D02*
X12842057Y-11444748D01*
X12842057Y-11444748D02*
X12832533Y-11454271D01*
X12832533Y-11454271D02*
X12823009Y-11459033D01*
X12913486Y-11430462D02*
X12975390Y-11430462D01*
X12975390Y-11430462D02*
X12942057Y-11468557D01*
X12942057Y-11468557D02*
X12956343Y-11468557D01*
X12956343Y-11468557D02*
X12965867Y-11473319D01*
X12965867Y-11473319D02*
X12970628Y-11478081D01*
X12970628Y-11478081D02*
X12975390Y-11487605D01*
X12975390Y-11487605D02*
X12975390Y-11511414D01*
X12975390Y-11511414D02*
X12970628Y-11520938D01*
X12970628Y-11520938D02*
X12965867Y-11525700D01*
X12965867Y-11525700D02*
X12956343Y-11530462D01*
X12956343Y-11530462D02*
X12927771Y-11530462D01*
X12927771Y-11530462D02*
X12918248Y-11525700D01*
X12918248Y-11525700D02*
X12913486Y-11520938D01*
%TO.C,J1*%
X14157062Y-11494433D02*
X14228490Y-11494433D01*
X14228490Y-11494433D02*
X14242776Y-11499195D01*
X14242776Y-11499195D02*
X14252300Y-11508719D01*
X14252300Y-11508719D02*
X14257062Y-11523005D01*
X14257062Y-11523005D02*
X14257062Y-11532528D01*
X14257062Y-11394433D02*
X14257062Y-11451576D01*
X14257062Y-11423005D02*
X14157062Y-11423005D01*
X14157062Y-11423005D02*
X14171348Y-11432528D01*
X14171348Y-11432528D02*
X14180871Y-11442052D01*
X14180871Y-11442052D02*
X14185633Y-11451576D01*
%TO.C,D1*%
X12285590Y-9719862D02*
X12285590Y-9619862D01*
X12285590Y-9619862D02*
X12309400Y-9619862D01*
X12309400Y-9619862D02*
X12323686Y-9624624D01*
X12323686Y-9624624D02*
X12333209Y-9634148D01*
X12333209Y-9634148D02*
X12337971Y-9643671D01*
X12337971Y-9643671D02*
X12342733Y-9662719D01*
X12342733Y-9662719D02*
X12342733Y-9677005D01*
X12342733Y-9677005D02*
X12337971Y-9696052D01*
X12337971Y-9696052D02*
X12333209Y-9705576D01*
X12333209Y-9705576D02*
X12323686Y-9715100D01*
X12323686Y-9715100D02*
X12309400Y-9719862D01*
X12309400Y-9719862D02*
X12285590Y-9719862D01*
X12437971Y-9719862D02*
X12380829Y-9719862D01*
X12409400Y-9719862D02*
X12409400Y-9619862D01*
X12409400Y-9619862D02*
X12399876Y-9634148D01*
X12399876Y-9634148D02*
X12390352Y-9643671D01*
X12390352Y-9643671D02*
X12380829Y-9648433D01*
%TO.C,R3*%
X10932462Y-12001667D02*
X10884843Y-12035000D01*
X10932462Y-12058809D02*
X10832462Y-12058809D01*
X10832462Y-12058809D02*
X10832462Y-12020714D01*
X10832462Y-12020714D02*
X10837224Y-12011190D01*
X10837224Y-12011190D02*
X10841986Y-12006428D01*
X10841986Y-12006428D02*
X10851510Y-12001667D01*
X10851510Y-12001667D02*
X10865795Y-12001667D01*
X10865795Y-12001667D02*
X10875319Y-12006428D01*
X10875319Y-12006428D02*
X10880081Y-12011190D01*
X10880081Y-12011190D02*
X10884843Y-12020714D01*
X10884843Y-12020714D02*
X10884843Y-12058809D01*
X10832462Y-11968333D02*
X10832462Y-11906428D01*
X10832462Y-11906428D02*
X10870557Y-11939762D01*
X10870557Y-11939762D02*
X10870557Y-11925476D01*
X10870557Y-11925476D02*
X10875319Y-11915952D01*
X10875319Y-11915952D02*
X10880081Y-11911190D01*
X10880081Y-11911190D02*
X10889605Y-11906428D01*
X10889605Y-11906428D02*
X10913414Y-11906428D01*
X10913414Y-11906428D02*
X10922938Y-11911190D01*
X10922938Y-11911190D02*
X10927700Y-11915952D01*
X10927700Y-11915952D02*
X10932462Y-11925476D01*
X10932462Y-11925476D02*
X10932462Y-11954047D01*
X10932462Y-11954047D02*
X10927700Y-11963571D01*
X10927700Y-11963571D02*
X10922938Y-11968333D01*
D11*
%TO.C,R4*%
X11239531Y-11307533D02*
X11215721Y-11324200D01*
X11239531Y-11336105D02*
X11189531Y-11336105D01*
X11189531Y-11336105D02*
X11189531Y-11317057D01*
X11189531Y-11317057D02*
X11191912Y-11312295D01*
X11191912Y-11312295D02*
X11194293Y-11309914D01*
X11194293Y-11309914D02*
X11199055Y-11307533D01*
X11199055Y-11307533D02*
X11206198Y-11307533D01*
X11206198Y-11307533D02*
X11210959Y-11309914D01*
X11210959Y-11309914D02*
X11213340Y-11312295D01*
X11213340Y-11312295D02*
X11215721Y-11317057D01*
X11215721Y-11317057D02*
X11215721Y-11336105D01*
X11206198Y-11264676D02*
X11239531Y-11264676D01*
X11187150Y-11276581D02*
X11222864Y-11288486D01*
X11222864Y-11288486D02*
X11222864Y-11257533D01*
D10*
%TO.C,U3*%
X12606009Y-12150212D02*
X12606009Y-12231164D01*
X12606009Y-12231164D02*
X12610771Y-12240688D01*
X12610771Y-12240688D02*
X12615533Y-12245450D01*
X12615533Y-12245450D02*
X12625057Y-12250212D01*
X12625057Y-12250212D02*
X12644105Y-12250212D01*
X12644105Y-12250212D02*
X12653628Y-12245450D01*
X12653628Y-12245450D02*
X12658390Y-12240688D01*
X12658390Y-12240688D02*
X12663152Y-12231164D01*
X12663152Y-12231164D02*
X12663152Y-12150212D01*
X12701248Y-12150212D02*
X12763152Y-12150212D01*
X12763152Y-12150212D02*
X12729819Y-12188307D01*
X12729819Y-12188307D02*
X12744105Y-12188307D01*
X12744105Y-12188307D02*
X12753628Y-12193069D01*
X12753628Y-12193069D02*
X12758390Y-12197831D01*
X12758390Y-12197831D02*
X12763152Y-12207355D01*
X12763152Y-12207355D02*
X12763152Y-12231164D01*
X12763152Y-12231164D02*
X12758390Y-12240688D01*
X12758390Y-12240688D02*
X12753628Y-12245450D01*
X12753628Y-12245450D02*
X12744105Y-12250212D01*
X12744105Y-12250212D02*
X12715533Y-12250212D01*
X12715533Y-12250212D02*
X12706009Y-12245450D01*
X12706009Y-12245450D02*
X12701248Y-12240688D01*
%TO.C,R16*%
X13244714Y-12143262D02*
X13211381Y-12095643D01*
X13187571Y-12143262D02*
X13187571Y-12043262D01*
X13187571Y-12043262D02*
X13225667Y-12043262D01*
X13225667Y-12043262D02*
X13235190Y-12048024D01*
X13235190Y-12048024D02*
X13239952Y-12052786D01*
X13239952Y-12052786D02*
X13244714Y-12062309D01*
X13244714Y-12062309D02*
X13244714Y-12076595D01*
X13244714Y-12076595D02*
X13239952Y-12086119D01*
X13239952Y-12086119D02*
X13235190Y-12090881D01*
X13235190Y-12090881D02*
X13225667Y-12095643D01*
X13225667Y-12095643D02*
X13187571Y-12095643D01*
X13339952Y-12143262D02*
X13282809Y-12143262D01*
X13311381Y-12143262D02*
X13311381Y-12043262D01*
X13311381Y-12043262D02*
X13301857Y-12057548D01*
X13301857Y-12057548D02*
X13292333Y-12067071D01*
X13292333Y-12067071D02*
X13282809Y-12071833D01*
X13425667Y-12043262D02*
X13406619Y-12043262D01*
X13406619Y-12043262D02*
X13397095Y-12048024D01*
X13397095Y-12048024D02*
X13392333Y-12052786D01*
X13392333Y-12052786D02*
X13382809Y-12067071D01*
X13382809Y-12067071D02*
X13378048Y-12086119D01*
X13378048Y-12086119D02*
X13378048Y-12124214D01*
X13378048Y-12124214D02*
X13382809Y-12133738D01*
X13382809Y-12133738D02*
X13387571Y-12138500D01*
X13387571Y-12138500D02*
X13397095Y-12143262D01*
X13397095Y-12143262D02*
X13416143Y-12143262D01*
X13416143Y-12143262D02*
X13425667Y-12138500D01*
X13425667Y-12138500D02*
X13430428Y-12133738D01*
X13430428Y-12133738D02*
X13435190Y-12124214D01*
X13435190Y-12124214D02*
X13435190Y-12100405D01*
X13435190Y-12100405D02*
X13430428Y-12090881D01*
X13430428Y-12090881D02*
X13425667Y-12086119D01*
X13425667Y-12086119D02*
X13416143Y-12081357D01*
X13416143Y-12081357D02*
X13397095Y-12081357D01*
X13397095Y-12081357D02*
X13387571Y-12086119D01*
X13387571Y-12086119D02*
X13382809Y-12090881D01*
X13382809Y-12090881D02*
X13378048Y-12100405D01*
%TO.C,C10*%
X14047938Y-11289986D02*
X14052700Y-11294748D01*
X14052700Y-11294748D02*
X14057462Y-11309033D01*
X14057462Y-11309033D02*
X14057462Y-11318557D01*
X14057462Y-11318557D02*
X14052700Y-11332843D01*
X14052700Y-11332843D02*
X14043176Y-11342367D01*
X14043176Y-11342367D02*
X14033652Y-11347128D01*
X14033652Y-11347128D02*
X14014605Y-11351890D01*
X14014605Y-11351890D02*
X14000319Y-11351890D01*
X14000319Y-11351890D02*
X13981271Y-11347128D01*
X13981271Y-11347128D02*
X13971748Y-11342367D01*
X13971748Y-11342367D02*
X13962224Y-11332843D01*
X13962224Y-11332843D02*
X13957462Y-11318557D01*
X13957462Y-11318557D02*
X13957462Y-11309033D01*
X13957462Y-11309033D02*
X13962224Y-11294748D01*
X13962224Y-11294748D02*
X13966986Y-11289986D01*
X14057462Y-11194748D02*
X14057462Y-11251890D01*
X14057462Y-11223319D02*
X13957462Y-11223319D01*
X13957462Y-11223319D02*
X13971748Y-11232843D01*
X13971748Y-11232843D02*
X13981271Y-11242367D01*
X13981271Y-11242367D02*
X13986033Y-11251890D01*
X13957462Y-11132843D02*
X13957462Y-11123319D01*
X13957462Y-11123319D02*
X13962224Y-11113795D01*
X13962224Y-11113795D02*
X13966986Y-11109033D01*
X13966986Y-11109033D02*
X13976509Y-11104271D01*
X13976509Y-11104271D02*
X13995557Y-11099510D01*
X13995557Y-11099510D02*
X14019367Y-11099510D01*
X14019367Y-11099510D02*
X14038414Y-11104271D01*
X14038414Y-11104271D02*
X14047938Y-11109033D01*
X14047938Y-11109033D02*
X14052700Y-11113795D01*
X14052700Y-11113795D02*
X14057462Y-11123319D01*
X14057462Y-11123319D02*
X14057462Y-11132843D01*
X14057462Y-11132843D02*
X14052700Y-11142367D01*
X14052700Y-11142367D02*
X14047938Y-11147129D01*
X14047938Y-11147129D02*
X14038414Y-11151890D01*
X14038414Y-11151890D02*
X14019367Y-11156652D01*
X14019367Y-11156652D02*
X13995557Y-11156652D01*
X13995557Y-11156652D02*
X13976509Y-11151890D01*
X13976509Y-11151890D02*
X13966986Y-11147129D01*
X13966986Y-11147129D02*
X13962224Y-11142367D01*
X13962224Y-11142367D02*
X13957462Y-11132843D01*
%TO.C,U7*%
X10124210Y-11448662D02*
X10124210Y-11529614D01*
X10124210Y-11529614D02*
X10128971Y-11539138D01*
X10128971Y-11539138D02*
X10133733Y-11543900D01*
X10133733Y-11543900D02*
X10143257Y-11548662D01*
X10143257Y-11548662D02*
X10162305Y-11548662D01*
X10162305Y-11548662D02*
X10171829Y-11543900D01*
X10171829Y-11543900D02*
X10176590Y-11539138D01*
X10176590Y-11539138D02*
X10181352Y-11529614D01*
X10181352Y-11529614D02*
X10181352Y-11448662D01*
X10219448Y-11448662D02*
X10286114Y-11448662D01*
X10286114Y-11448662D02*
X10243257Y-11548662D01*
X10658200Y-11408026D02*
X10658200Y-11384216D01*
X10682009Y-11393740D02*
X10658200Y-11384216D01*
X10658200Y-11384216D02*
X10634390Y-11393740D01*
X10672486Y-11365169D02*
X10658200Y-11384216D01*
X10658200Y-11384216D02*
X10643914Y-11365169D01*
%TO.C,U6*%
X11724154Y-12236062D02*
X11724154Y-12317014D01*
X11724154Y-12317014D02*
X11728916Y-12326538D01*
X11728916Y-12326538D02*
X11733678Y-12331300D01*
X11733678Y-12331300D02*
X11743202Y-12336062D01*
X11743202Y-12336062D02*
X11762250Y-12336062D01*
X11762250Y-12336062D02*
X11771773Y-12331300D01*
X11771773Y-12331300D02*
X11776535Y-12326538D01*
X11776535Y-12326538D02*
X11781297Y-12317014D01*
X11781297Y-12317014D02*
X11781297Y-12236062D01*
X11871773Y-12236062D02*
X11852726Y-12236062D01*
X11852726Y-12236062D02*
X11843202Y-12240824D01*
X11843202Y-12240824D02*
X11838440Y-12245586D01*
X11838440Y-12245586D02*
X11828916Y-12259871D01*
X11828916Y-12259871D02*
X11824154Y-12278919D01*
X11824154Y-12278919D02*
X11824154Y-12317014D01*
X11824154Y-12317014D02*
X11828916Y-12326538D01*
X11828916Y-12326538D02*
X11833678Y-12331300D01*
X11833678Y-12331300D02*
X11843202Y-12336062D01*
X11843202Y-12336062D02*
X11862250Y-12336062D01*
X11862250Y-12336062D02*
X11871773Y-12331300D01*
X11871773Y-12331300D02*
X11876535Y-12326538D01*
X11876535Y-12326538D02*
X11881297Y-12317014D01*
X11881297Y-12317014D02*
X11881297Y-12293205D01*
X11881297Y-12293205D02*
X11876535Y-12283681D01*
X11876535Y-12283681D02*
X11871773Y-12278919D01*
X11871773Y-12278919D02*
X11862250Y-12274157D01*
X11862250Y-12274157D02*
X11843202Y-12274157D01*
X11843202Y-12274157D02*
X11833678Y-12278919D01*
X11833678Y-12278919D02*
X11828916Y-12283681D01*
X11828916Y-12283681D02*
X11824154Y-12293205D01*
%TO.C,U4*%
X14876549Y-9017862D02*
X14876549Y-9098814D01*
X14876549Y-9098814D02*
X14881311Y-9108338D01*
X14881311Y-9108338D02*
X14886073Y-9113100D01*
X14886073Y-9113100D02*
X14895597Y-9117862D01*
X14895597Y-9117862D02*
X14914645Y-9117862D01*
X14914645Y-9117862D02*
X14924168Y-9113100D01*
X14924168Y-9113100D02*
X14928930Y-9108338D01*
X14928930Y-9108338D02*
X14933692Y-9098814D01*
X14933692Y-9098814D02*
X14933692Y-9017862D01*
X15024168Y-9051195D02*
X15024168Y-9117862D01*
X15000359Y-9013100D02*
X14976549Y-9084528D01*
X14976549Y-9084528D02*
X15038454Y-9084528D01*
%TO.C,D4*%
X14463962Y-12373509D02*
X14363962Y-12373509D01*
X14363962Y-12373509D02*
X14363962Y-12349700D01*
X14363962Y-12349700D02*
X14368724Y-12335414D01*
X14368724Y-12335414D02*
X14378248Y-12325890D01*
X14378248Y-12325890D02*
X14387771Y-12321128D01*
X14387771Y-12321128D02*
X14406819Y-12316367D01*
X14406819Y-12316367D02*
X14421105Y-12316367D01*
X14421105Y-12316367D02*
X14440152Y-12321128D01*
X14440152Y-12321128D02*
X14449676Y-12325890D01*
X14449676Y-12325890D02*
X14459200Y-12335414D01*
X14459200Y-12335414D02*
X14463962Y-12349700D01*
X14463962Y-12349700D02*
X14463962Y-12373509D01*
X14397295Y-12230652D02*
X14463962Y-12230652D01*
X14359200Y-12254462D02*
X14430628Y-12278271D01*
X14430628Y-12278271D02*
X14430628Y-12216367D01*
%TO.C,Rg1*%
X12214462Y-11368393D02*
X12166843Y-11401726D01*
X12214462Y-11425535D02*
X12114462Y-11425535D01*
X12114462Y-11425535D02*
X12114462Y-11387440D01*
X12114462Y-11387440D02*
X12119224Y-11377916D01*
X12119224Y-11377916D02*
X12123986Y-11373155D01*
X12123986Y-11373155D02*
X12133509Y-11368393D01*
X12133509Y-11368393D02*
X12147795Y-11368393D01*
X12147795Y-11368393D02*
X12157319Y-11373155D01*
X12157319Y-11373155D02*
X12162081Y-11377916D01*
X12162081Y-11377916D02*
X12166843Y-11387440D01*
X12166843Y-11387440D02*
X12166843Y-11425535D01*
X12147795Y-11282678D02*
X12228748Y-11282678D01*
X12228748Y-11282678D02*
X12238271Y-11287440D01*
X12238271Y-11287440D02*
X12243033Y-11292202D01*
X12243033Y-11292202D02*
X12247795Y-11301726D01*
X12247795Y-11301726D02*
X12247795Y-11316012D01*
X12247795Y-11316012D02*
X12243033Y-11325535D01*
X12209700Y-11282678D02*
X12214462Y-11292202D01*
X12214462Y-11292202D02*
X12214462Y-11311250D01*
X12214462Y-11311250D02*
X12209700Y-11320774D01*
X12209700Y-11320774D02*
X12204938Y-11325535D01*
X12204938Y-11325535D02*
X12195414Y-11330297D01*
X12195414Y-11330297D02*
X12166843Y-11330297D01*
X12166843Y-11330297D02*
X12157319Y-11325535D01*
X12157319Y-11325535D02*
X12152557Y-11320774D01*
X12152557Y-11320774D02*
X12147795Y-11311250D01*
X12147795Y-11311250D02*
X12147795Y-11292202D01*
X12147795Y-11292202D02*
X12152557Y-11282678D01*
X12214462Y-11182678D02*
X12214462Y-11239821D01*
X12214462Y-11211250D02*
X12114462Y-11211250D01*
X12114462Y-11211250D02*
X12128748Y-11220774D01*
X12128748Y-11220774D02*
X12138271Y-11230297D01*
X12138271Y-11230297D02*
X12143033Y-11239821D01*
D11*
%TO.C,C12*%
X12504769Y-10061343D02*
X12507150Y-10063724D01*
X12507150Y-10063724D02*
X12509531Y-10070867D01*
X12509531Y-10070867D02*
X12509531Y-10075629D01*
X12509531Y-10075629D02*
X12507150Y-10082771D01*
X12507150Y-10082771D02*
X12502388Y-10087533D01*
X12502388Y-10087533D02*
X12497626Y-10089914D01*
X12497626Y-10089914D02*
X12488102Y-10092295D01*
X12488102Y-10092295D02*
X12480959Y-10092295D01*
X12480959Y-10092295D02*
X12471436Y-10089914D01*
X12471436Y-10089914D02*
X12466674Y-10087533D01*
X12466674Y-10087533D02*
X12461912Y-10082771D01*
X12461912Y-10082771D02*
X12459531Y-10075629D01*
X12459531Y-10075629D02*
X12459531Y-10070867D01*
X12459531Y-10070867D02*
X12461912Y-10063724D01*
X12461912Y-10063724D02*
X12464293Y-10061343D01*
X12509531Y-10013724D02*
X12509531Y-10042295D01*
X12509531Y-10028009D02*
X12459531Y-10028009D01*
X12459531Y-10028009D02*
X12466674Y-10032771D01*
X12466674Y-10032771D02*
X12471436Y-10037533D01*
X12471436Y-10037533D02*
X12473817Y-10042295D01*
X12464293Y-9994676D02*
X12461912Y-9992295D01*
X12461912Y-9992295D02*
X12459531Y-9987533D01*
X12459531Y-9987533D02*
X12459531Y-9975629D01*
X12459531Y-9975629D02*
X12461912Y-9970867D01*
X12461912Y-9970867D02*
X12464293Y-9968486D01*
X12464293Y-9968486D02*
X12469055Y-9966105D01*
X12469055Y-9966105D02*
X12473817Y-9966105D01*
X12473817Y-9966105D02*
X12480959Y-9968486D01*
X12480959Y-9968486D02*
X12509531Y-9997057D01*
X12509531Y-9997057D02*
X12509531Y-9966105D01*
D13*
%TO.C,SW2*%
X15116200Y-9935200D02*
X14977900Y-9935200D01*
X15116200Y-9935200D02*
X15116200Y-10073600D01*
X15092200Y-9959200D02*
X14930200Y-9959200D01*
X15092200Y-9959200D02*
X15092200Y-10949200D01*
X14770200Y-9959200D02*
X14608200Y-9959200D01*
X14608200Y-9959200D02*
X14608200Y-10949200D01*
X14913700Y-10251200D02*
X14786700Y-10251200D01*
X14901700Y-10251200D02*
X14901700Y-10386533D01*
X14889700Y-10251200D02*
X14889700Y-10386533D01*
X14877700Y-10251200D02*
X14877700Y-10386533D01*
X14865700Y-10251200D02*
X14865700Y-10386533D01*
X14853700Y-10251200D02*
X14853700Y-10386533D01*
X14841700Y-10251200D02*
X14841700Y-10386533D01*
X14829700Y-10251200D02*
X14829700Y-10386533D01*
X14817700Y-10251200D02*
X14817700Y-10386533D01*
X14805700Y-10251200D02*
X14805700Y-10386533D01*
X14793700Y-10251200D02*
X14793700Y-10386533D01*
X14786700Y-10251200D02*
X14786700Y-10657200D01*
X14913700Y-10386533D02*
X14786700Y-10386533D01*
X14913700Y-10657200D02*
X14913700Y-10251200D01*
X14786700Y-10657200D02*
X14913700Y-10657200D01*
X15092200Y-10949200D02*
X14930200Y-10949200D01*
X14770200Y-10949200D02*
X14608200Y-10949200D01*
%TO.C,R2*%
X11092450Y-11593762D02*
X11092450Y-11641214D01*
X10987950Y-11593762D02*
X10987950Y-11641214D01*
%TO.C,FB2*%
X12485600Y-9168673D02*
X12485600Y-9202927D01*
X12383600Y-9168673D02*
X12383600Y-9202927D01*
%TO.C,R10*%
X14239406Y-12918200D02*
X14193994Y-12918200D01*
X14239406Y-12771200D02*
X14193994Y-12771200D01*
%TO.C,R14*%
X12499926Y-11690450D02*
X12452474Y-11690450D01*
X12499926Y-11585950D02*
X12452474Y-11585950D01*
%TO.C,R7*%
X10952950Y-11326214D02*
X10952950Y-11278762D01*
X11057450Y-11326214D02*
X11057450Y-11278762D01*
%TO.C,Y1*%
X13712200Y-9445700D02*
X13712200Y-9095700D01*
X13712200Y-9095700D02*
X13292200Y-9095700D01*
%TO.C,R1*%
X14216926Y-10412950D02*
X14169474Y-10412950D01*
X14216926Y-10308450D02*
X14169474Y-10308450D01*
%TO.C,C7*%
X14185142Y-10065700D02*
X14213258Y-10065700D01*
X14185142Y-10167700D02*
X14213258Y-10167700D01*
%TO.C,R15*%
X13742672Y-12142450D02*
X13691728Y-12142450D01*
X13742672Y-12037950D02*
X13691728Y-12037950D01*
%TO.C,C3*%
X12789258Y-9624700D02*
X12761142Y-9624700D01*
X12789258Y-9522700D02*
X12761142Y-9522700D01*
%TO.C,R12*%
X14726450Y-9150874D02*
X14726450Y-9198326D01*
X14621950Y-9150874D02*
X14621950Y-9198326D01*
%TO.C,C5*%
X13958075Y-9679200D02*
X14010325Y-9679200D01*
X13958075Y-9826200D02*
X14010325Y-9826200D01*
%TO.C,C15*%
X11848000Y-11315315D02*
X11848000Y-11286061D01*
X11950000Y-11315315D02*
X11950000Y-11286061D01*
%TO.C,U1*%
X13877200Y-10022700D02*
X13782200Y-10022700D01*
X13782200Y-10022700D02*
X13782200Y-9888700D01*
X12855200Y-10022700D02*
X12950200Y-10022700D01*
X13877200Y-10117700D02*
X13877200Y-10022700D01*
X12855200Y-10117700D02*
X12855200Y-10022700D01*
X13877200Y-10949700D02*
X13877200Y-11044700D01*
X12855200Y-10949700D02*
X12855200Y-11044700D01*
X13877200Y-11044700D02*
X13782200Y-11044700D01*
X12855200Y-11044700D02*
X12950200Y-11044700D01*
%TO.C,C14*%
X13369258Y-9608700D02*
X13341142Y-9608700D01*
X13369258Y-9506700D02*
X13341142Y-9506700D01*
%TO.C,D5*%
X14121500Y-11435500D02*
X13804500Y-11435500D01*
X13804500Y-11435500D02*
X13804500Y-11824000D01*
X14121500Y-11824000D02*
X14121500Y-11435500D01*
D10*
%TO.C,J2*%
X13893700Y-12722700D02*
X13893700Y-12582700D01*
X13893700Y-12342700D02*
X13893700Y-12327700D01*
X13893700Y-12327700D02*
X13863700Y-12327700D01*
X13863700Y-12327700D02*
X13863700Y-12282700D01*
X13658700Y-12940200D02*
X13658700Y-12897700D01*
X13658700Y-12897700D02*
X13758700Y-12897700D01*
X13586200Y-12940200D02*
X13658700Y-12940200D01*
X13298700Y-12897700D02*
X13198700Y-12897700D01*
X13093700Y-12327700D02*
X13063700Y-12327700D01*
X13093700Y-12282700D02*
X13093700Y-12327700D01*
X13063700Y-12582700D02*
X13063700Y-12722700D01*
X13063700Y-12327700D02*
X13063700Y-12342700D01*
D13*
%TO.C,R6*%
X10911926Y-10883738D02*
X10864474Y-10883738D01*
X10911926Y-10779238D02*
X10864474Y-10779238D01*
%TO.C,D3*%
X11426700Y-10227700D02*
X11426700Y-10374700D01*
X11426700Y-10374700D02*
X11655200Y-10374700D01*
X11655200Y-10227700D02*
X11426700Y-10227700D01*
%TO.C,C1*%
X12274300Y-9082900D02*
X12274300Y-9120400D01*
X12293050Y-9101650D02*
X12255550Y-9101650D01*
X12236800Y-9163344D02*
X12306800Y-9233344D01*
X12024800Y-9163344D02*
X11954800Y-9233344D01*
X12306800Y-9233344D02*
X12306800Y-9496400D01*
X11954800Y-9233344D02*
X11954800Y-9496400D01*
X12306800Y-9496400D02*
X12236800Y-9496400D01*
X11954800Y-9496400D02*
X12024800Y-9496400D01*
D14*
%TO.C,U5*%
X11783920Y-11477208D02*
X11783920Y-11131768D01*
X11438480Y-11131768D02*
X11438480Y-11477208D01*
D13*
%TO.C,C8*%
X12501758Y-10260700D02*
X12473642Y-10260700D01*
X12501758Y-10158700D02*
X12473642Y-10158700D01*
%TO.C,R11*%
X14728450Y-8813874D02*
X14728450Y-8861326D01*
X14623950Y-8813874D02*
X14623950Y-8861326D01*
%TO.C,G\u002A\u002A\u002A*%
G36*
X12494425Y-12564541D02*
G01*
X12574862Y-12564740D01*
X12575060Y-12696385D01*
X12575258Y-12828030D01*
X12470758Y-12932532D01*
X12366258Y-13037034D01*
X12286956Y-13037034D01*
X12207655Y-13037034D01*
X12307855Y-12936832D01*
X12408055Y-12836629D01*
X12408055Y-12703382D01*
X12408055Y-12570135D01*
X12411022Y-12567239D01*
X12413989Y-12564342D01*
X12494425Y-12564541D01*
G37*
G36*
X12440543Y-12398519D02*
G01*
X12449494Y-12407411D01*
X12458135Y-12416004D01*
X12466400Y-12424231D01*
X12474225Y-12432028D01*
X12481546Y-12439332D01*
X12488298Y-12446077D01*
X12494417Y-12452199D01*
X12499838Y-12457634D01*
X12504497Y-12462316D01*
X12508330Y-12466182D01*
X12511272Y-12469168D01*
X12513258Y-12471207D01*
X12514224Y-12472237D01*
X12514311Y-12472351D01*
X12513548Y-12472435D01*
X12511330Y-12472516D01*
X12507764Y-12472592D01*
X12502960Y-12472663D01*
X12497024Y-12472727D01*
X12490064Y-12472785D01*
X12482187Y-12472835D01*
X12473503Y-12472875D01*
X12464117Y-12472907D01*
X12454139Y-12472927D01*
X12443676Y-12472937D01*
X12440670Y-12472937D01*
X12367029Y-12472937D01*
X12339883Y-12500091D01*
X12312737Y-12527246D01*
X12312737Y-12661618D01*
X12312737Y-12795990D01*
X12296532Y-12812209D01*
X12280327Y-12828428D01*
X12192417Y-12828428D01*
X12104507Y-12828428D01*
X12088693Y-12812600D01*
X12072878Y-12796771D01*
X12072878Y-12561022D01*
X12072878Y-12325272D01*
X12219827Y-12325272D01*
X12366776Y-12325272D01*
X12440543Y-12398519D01*
G37*
G36*
X11996558Y-12403391D02*
G01*
X11996607Y-12405661D01*
X11996654Y-12409367D01*
X11996700Y-12414446D01*
X11996744Y-12420833D01*
X11996786Y-12428467D01*
X11996827Y-12437283D01*
X11996865Y-12447219D01*
X11996901Y-12458210D01*
X11996934Y-12470194D01*
X11996965Y-12483107D01*
X11996993Y-12496887D01*
X11997017Y-12511468D01*
X11997039Y-12526789D01*
X11997057Y-12542786D01*
X11997072Y-12559395D01*
X11997083Y-12576554D01*
X11997090Y-12594198D01*
X11997092Y-12612265D01*
X11997093Y-12615722D01*
X11997093Y-12828824D01*
X12035184Y-12866910D01*
X12073275Y-12904995D01*
X12160510Y-12904995D01*
X12247745Y-12904995D01*
X12296240Y-12855969D01*
X12344735Y-12806942D01*
X12344753Y-12674115D01*
X12344770Y-12541289D01*
X12363723Y-12522348D01*
X12382675Y-12503408D01*
X12463932Y-12503408D01*
X12545188Y-12503408D01*
X12560408Y-12518643D01*
X12575629Y-12533878D01*
X12486948Y-12533878D01*
X12398267Y-12533878D01*
X12387926Y-12544241D01*
X12377585Y-12554604D01*
X12377585Y-12688978D01*
X12377585Y-12823352D01*
X12270741Y-12930193D01*
X12163898Y-13037034D01*
X12118192Y-13037034D01*
X12072486Y-13037034D01*
X11968379Y-12932925D01*
X11864272Y-12828816D01*
X11864272Y-12681541D01*
X11864272Y-12534266D01*
X11930098Y-12468443D01*
X11938537Y-12460010D01*
X11946671Y-12451890D01*
X11954432Y-12444151D01*
X11961752Y-12436862D01*
X11968563Y-12430090D01*
X11974795Y-12423904D01*
X11980380Y-12418370D01*
X11985250Y-12413557D01*
X11989336Y-12409533D01*
X11992570Y-12406365D01*
X11994884Y-12404121D01*
X11996208Y-12402870D01*
X11996508Y-12402620D01*
X11996558Y-12403391D01*
G37*
%TO.C,J4*%
X11271200Y-12611200D02*
X11404200Y-12611200D01*
X11271200Y-12744200D02*
X11271200Y-12611200D01*
X11271200Y-12871200D02*
X11271200Y-12877200D01*
X11271200Y-12871200D02*
X11537200Y-12871200D01*
X11271200Y-12877200D02*
X11537200Y-12877200D01*
X11537200Y-12871200D02*
X11537200Y-12877200D01*
%TO.C,SW1*%
X12019408Y-9753704D02*
X12349408Y-9753704D01*
X12019408Y-9783704D02*
X12019408Y-9753704D01*
X12019408Y-10003704D02*
X12019408Y-10033704D01*
X12019408Y-10033704D02*
X12349408Y-10033704D01*
X12349408Y-9753704D02*
X12349408Y-9783704D01*
X12349408Y-10033704D02*
X12349408Y-10003704D01*
D14*
%TO.C,U8*%
X11512110Y-10917378D02*
X11936290Y-10917378D01*
X11936290Y-10391598D02*
X11512110Y-10391598D01*
D13*
%TO.C,C2*%
X11987300Y-8793500D02*
X11987300Y-8756000D01*
X11968550Y-8774750D02*
X12006050Y-8774750D01*
X12024800Y-8713056D02*
X11954800Y-8643056D01*
X12236800Y-8713056D02*
X12306800Y-8643056D01*
X11954800Y-8643056D02*
X11954800Y-8380000D01*
X12306800Y-8643056D02*
X12306800Y-8380000D01*
X11954800Y-8380000D02*
X12024800Y-8380000D01*
X12306800Y-8380000D02*
X12236800Y-8380000D01*
%TO.C,C16*%
X10569200Y-10692430D02*
X10569200Y-10720546D01*
X10467200Y-10692430D02*
X10467200Y-10720546D01*
%TO.C,C4*%
X12943758Y-9808200D02*
X12915642Y-9808200D01*
X12943758Y-9706200D02*
X12915642Y-9706200D01*
%TO.C,C13*%
X13665142Y-9508700D02*
X13693258Y-9508700D01*
X13665142Y-9610700D02*
X13693258Y-9610700D01*
%TO.C,C17*%
X10808258Y-10666488D02*
X10780142Y-10666488D01*
X10808258Y-10564488D02*
X10780142Y-10564488D01*
%TO.C,U2*%
X11384400Y-9533200D02*
X11384400Y-9352200D01*
X11384400Y-9352200D02*
X11896900Y-9352200D01*
X11384400Y-8674200D02*
X11494400Y-8674200D01*
X11384400Y-8493200D02*
X11384400Y-8674200D01*
X11234400Y-9533200D02*
X11384400Y-9533200D01*
X11234400Y-8493200D02*
X11384400Y-8493200D01*
%TO.C,C9*%
X12442758Y-10815700D02*
X12414642Y-10815700D01*
X12442758Y-10713700D02*
X12414642Y-10713700D01*
%TO.C,C18*%
X12379200Y-11918142D02*
X12379200Y-11946258D01*
X12277200Y-11918142D02*
X12277200Y-11946258D01*
%TO.C,FB3*%
X13069200Y-9432738D02*
X13069200Y-9512662D01*
X12957200Y-9432738D02*
X12957200Y-9512662D01*
%TO.C,J3*%
X10646200Y-12873200D02*
X10646200Y-12740200D01*
X10779200Y-12873200D02*
X10646200Y-12873200D01*
X10906200Y-12873200D02*
X10912200Y-12873200D01*
X10906200Y-12873200D02*
X10906200Y-12607200D01*
X10912200Y-12873200D02*
X10912200Y-12607200D01*
X10906200Y-12607200D02*
X10912200Y-12607200D01*
%TO.C,FB1*%
X12384600Y-8790427D02*
X12384600Y-8756173D01*
X12486600Y-8790427D02*
X12486600Y-8756173D01*
%TO.C,R5*%
X10678926Y-11638738D02*
X10631474Y-11638738D01*
X10678926Y-11534238D02*
X10631474Y-11534238D01*
%TO.C,C6*%
X14068142Y-9880700D02*
X14096258Y-9880700D01*
X14068142Y-9982700D02*
X14096258Y-9982700D01*
%TO.C,R8*%
X11160474Y-10932238D02*
X11207926Y-10932238D01*
X11160474Y-11036738D02*
X11207926Y-11036738D01*
%TO.C,D2*%
X14392700Y-10470700D02*
X14245700Y-10470700D01*
X14245700Y-10470700D02*
X14245700Y-10716700D01*
X14392700Y-10716700D02*
X14392700Y-10470700D01*
%TO.C,C11*%
X12791258Y-9420700D02*
X12763142Y-9420700D01*
X12791258Y-9318700D02*
X12763142Y-9318700D01*
%TO.C,R9*%
X11165950Y-10366214D02*
X11165950Y-10318762D01*
X11270450Y-10366214D02*
X11270450Y-10318762D01*
%TO.C,R13*%
X12823474Y-11578950D02*
X12870926Y-11578950D01*
X12823474Y-11683450D02*
X12870926Y-11683450D01*
%TO.C,J1*%
X14310800Y-11567100D02*
X14348300Y-11567100D01*
X14310800Y-11567100D02*
X14310800Y-11355100D01*
X14348300Y-11567100D02*
X14348300Y-11690100D01*
X14485300Y-11567100D02*
X14748300Y-11567100D01*
X14885300Y-11567100D02*
X15122800Y-11567100D01*
X15122800Y-11567100D02*
X15122800Y-11355100D01*
X14310800Y-11355100D02*
X14548300Y-11355100D01*
X14685300Y-11355100D02*
X14948300Y-11355100D01*
X15085300Y-11355100D02*
X15122800Y-11355100D01*
%TO.C,D1*%
X12618700Y-9607450D02*
X12471700Y-9607450D01*
X12471700Y-9607450D02*
X12471700Y-9853450D01*
X12618700Y-9853450D02*
X12618700Y-9607450D01*
%TO.C,R3*%
X11080450Y-11961762D02*
X11080450Y-12009214D01*
X10975950Y-11961762D02*
X10975950Y-12009214D01*
%TO.C,R4*%
X11376250Y-11280962D02*
X11376250Y-11328414D01*
X11271750Y-11280962D02*
X11271750Y-11328414D01*
%TO.C,U3*%
X12952200Y-12103950D02*
X12899200Y-12103950D01*
X12952200Y-11743950D02*
X12952200Y-12103950D01*
X12899200Y-11743950D02*
X12952200Y-11743950D01*
X12899200Y-11719950D02*
X12899200Y-11743950D01*
X12719200Y-12103950D02*
X12645200Y-12103950D01*
X12719200Y-11743950D02*
X12719200Y-11719950D01*
X12645200Y-11743950D02*
X12719200Y-11743950D01*
X12465200Y-12103950D02*
X12412200Y-12103950D01*
X12412200Y-12103950D02*
X12412200Y-11743950D01*
X12412200Y-11743950D02*
X12465200Y-11743950D01*
%TO.C,R16*%
X13331706Y-12005500D02*
X13286294Y-12005500D01*
X13331706Y-11858500D02*
X13286294Y-11858500D01*
%TO.C,C10*%
X13919200Y-11211642D02*
X13919200Y-11239758D01*
X13817200Y-11211642D02*
X13817200Y-11239758D01*
D14*
%TO.C,U7*%
X10743290Y-10913598D02*
X10319110Y-10913598D01*
X10319110Y-11439378D02*
X10743290Y-11439378D01*
%TO.C,U6*%
X11264855Y-12237378D02*
X11689035Y-12237378D01*
X11689035Y-11711598D02*
X11264855Y-11711598D01*
%TO.C,U4*%
X14795260Y-9368780D02*
X15110220Y-9368780D01*
X15110220Y-8774420D02*
X14795260Y-8774420D01*
X14712720Y-8831600D02*
G75*
G03*
X14712720Y-8831600I-10160J0D01*
G01*
D13*
%TO.C,D4*%
X14348200Y-11981200D02*
X14031200Y-11981200D01*
X14031200Y-11981200D02*
X14031200Y-12549700D01*
X14348200Y-12549700D02*
X14348200Y-11981200D01*
%TO.C,Rg1*%
X12242950Y-11330214D02*
X12242950Y-11282762D01*
X12347450Y-11330214D02*
X12347450Y-11282762D01*
%TO.C,C12*%
X12684258Y-10069200D02*
X12656142Y-10069200D01*
X12684258Y-9967200D02*
X12656142Y-9967200D01*
%TD*%
%LPC*%
D15*
%TO.C,SW2*%
X14850200Y-10023700D03*
X14850200Y-10884700D03*
%TD*%
D16*
%TO.C,R2*%
X11040200Y-11534988D03*
X11040200Y-11699988D03*
%TD*%
D17*
%TO.C,FB2*%
X12434600Y-9098300D03*
X12434600Y-9273300D03*
%TD*%
D18*
%TO.C,R10*%
X14316700Y-12844700D03*
X14116700Y-12844700D03*
%TD*%
D19*
%TO.C,R14*%
X12558700Y-11638200D03*
X12393700Y-11638200D03*
%TD*%
D20*
%TO.C,R7*%
X11005200Y-11384988D03*
X11005200Y-11219988D03*
%TD*%
D21*
%TO.C,Y1*%
X13622200Y-9175700D03*
X13382200Y-9175700D03*
X13382200Y-9365700D03*
X13622200Y-9365700D03*
%TD*%
D19*
%TO.C,R1*%
X14275700Y-10360700D03*
X14110700Y-10360700D03*
%TD*%
D22*
%TO.C,C7*%
X14121700Y-10116700D03*
X14276700Y-10116700D03*
%TD*%
D23*
%TO.C,R15*%
X13808450Y-12090200D03*
X13625950Y-12090200D03*
%TD*%
D24*
%TO.C,C3*%
X12852700Y-9573700D03*
X12697700Y-9573700D03*
%TD*%
D16*
%TO.C,R12*%
X14674200Y-9092100D03*
X14674200Y-9257100D03*
%TD*%
D25*
%TO.C,C5*%
X13880450Y-9752700D03*
X14087950Y-9752700D03*
%TD*%
D26*
%TO.C,C15*%
X11899000Y-11386938D03*
X11899000Y-11214438D03*
%TD*%
D27*
%TO.C,U1*%
X13741200Y-9966200D03*
X13691200Y-9966200D03*
X13641200Y-9966200D03*
X13591200Y-9966200D03*
X13541200Y-9966200D03*
X13491200Y-9966200D03*
X13441200Y-9966200D03*
X13391200Y-9966200D03*
X13341200Y-9966200D03*
X13291200Y-9966200D03*
X13241200Y-9966200D03*
X13191200Y-9966200D03*
X13141200Y-9966200D03*
X13091200Y-9966200D03*
X13041200Y-9966200D03*
X12991200Y-9966200D03*
D28*
X12798700Y-10158700D03*
X12798700Y-10208700D03*
X12798700Y-10258700D03*
X12798700Y-10308700D03*
X12798700Y-10358700D03*
X12798700Y-10408700D03*
X12798700Y-10458700D03*
X12798700Y-10508700D03*
X12798700Y-10558700D03*
X12798700Y-10608700D03*
X12798700Y-10658700D03*
X12798700Y-10708700D03*
X12798700Y-10758700D03*
X12798700Y-10808700D03*
X12798700Y-10858700D03*
X12798700Y-10908700D03*
D27*
X12991200Y-11101200D03*
X13041200Y-11101200D03*
X13091200Y-11101200D03*
X13141200Y-11101200D03*
X13191200Y-11101200D03*
X13241200Y-11101200D03*
X13291200Y-11101200D03*
X13341200Y-11101200D03*
X13391200Y-11101200D03*
X13441200Y-11101200D03*
X13491200Y-11101200D03*
X13541200Y-11101200D03*
X13591200Y-11101200D03*
X13641200Y-11101200D03*
X13691200Y-11101200D03*
X13741200Y-11101200D03*
D28*
X13933700Y-10908700D03*
X13933700Y-10858700D03*
X13933700Y-10808700D03*
X13933700Y-10758700D03*
X13933700Y-10708700D03*
X13933700Y-10658700D03*
X13933700Y-10608700D03*
X13933700Y-10558700D03*
X13933700Y-10508700D03*
X13933700Y-10458700D03*
X13933700Y-10408700D03*
X13933700Y-10358700D03*
X13933700Y-10308700D03*
X13933700Y-10258700D03*
X13933700Y-10208700D03*
X13933700Y-10158700D03*
%TD*%
D24*
%TO.C,C14*%
X13432700Y-9557700D03*
X13277700Y-9557700D03*
%TD*%
D29*
%TO.C,D5*%
X13963000Y-11524000D03*
X13963000Y-11804000D03*
%TD*%
D30*
%TO.C,J2*%
X13866200Y-12462700D03*
D31*
X13851200Y-12842700D03*
D32*
X13728700Y-12737700D03*
X13228700Y-12737700D03*
D31*
X13106200Y-12842700D03*
D30*
X13091200Y-12462700D03*
D33*
X13608700Y-12847700D03*
X13543700Y-12847700D03*
X13478700Y-12847700D03*
X13413700Y-12847700D03*
X13348700Y-12847700D03*
%TD*%
D19*
%TO.C,R6*%
X10970700Y-10831488D03*
X10805700Y-10831488D03*
%TD*%
D34*
%TO.C,D3*%
X11496450Y-10301200D03*
X11653950Y-10301200D03*
%TD*%
D35*
%TO.C,C1*%
X12130800Y-9170400D03*
X12130800Y-9470400D03*
%TD*%
D36*
%TO.C,U5*%
X11513700Y-11516578D03*
X11578700Y-11516578D03*
X11643700Y-11516578D03*
X11708700Y-11516578D03*
X11708700Y-11092398D03*
X11643700Y-11092398D03*
X11578700Y-11092398D03*
X11513700Y-11092398D03*
%TD*%
D24*
%TO.C,C8*%
X12565200Y-10209700D03*
X12410200Y-10209700D03*
%TD*%
D16*
%TO.C,R11*%
X14676200Y-8755100D03*
X14676200Y-8920100D03*
%TD*%
D37*
%TO.C,J4*%
X11404200Y-12744200D03*
%TD*%
D38*
%TO.C,SW1*%
X12184408Y-9893704D03*
D39*
X12014408Y-9893704D03*
X12354408Y-9893704D03*
%TD*%
D40*
%TO.C,U8*%
X11461945Y-10463988D03*
X11461945Y-10590988D03*
X11461945Y-10717988D03*
X11461945Y-10844988D03*
X11986455Y-10844988D03*
X11986455Y-10717988D03*
X11986455Y-10590988D03*
X11986455Y-10463988D03*
%TD*%
D35*
%TO.C,C2*%
X12130800Y-8706000D03*
X12130800Y-8406000D03*
%TD*%
D41*
%TO.C,C16*%
X10518200Y-10628988D03*
X10518200Y-10783988D03*
%TD*%
D24*
%TO.C,C4*%
X13007200Y-9757200D03*
X12852200Y-9757200D03*
%TD*%
D22*
%TO.C,C13*%
X13601700Y-9559700D03*
X13756700Y-9559700D03*
%TD*%
D24*
%TO.C,C17*%
X10871700Y-10615488D03*
X10716700Y-10615488D03*
%TD*%
D42*
%TO.C,U2*%
X11666900Y-9267200D03*
X11666900Y-9013200D03*
D43*
X10751900Y-9013200D03*
D42*
X11666900Y-8759200D03*
%TD*%
D24*
%TO.C,C9*%
X12506200Y-10764700D03*
X12351200Y-10764700D03*
%TD*%
D41*
%TO.C,C18*%
X12328200Y-11854700D03*
X12328200Y-12009700D03*
%TD*%
D44*
%TO.C,FB3*%
X13013200Y-9366450D03*
X13013200Y-9578950D03*
%TD*%
D37*
%TO.C,J3*%
X10779200Y-12740200D03*
%TD*%
D45*
%TO.C,FB1*%
X12435600Y-8860800D03*
X12435600Y-8685800D03*
%TD*%
D19*
%TO.C,R5*%
X10737700Y-11586488D03*
X10572700Y-11586488D03*
%TD*%
D22*
%TO.C,C6*%
X14004700Y-9931700D03*
X14159700Y-9931700D03*
%TD*%
D46*
%TO.C,R8*%
X11101700Y-10984488D03*
X11266700Y-10984488D03*
%TD*%
D17*
%TO.C,D2*%
X14319200Y-10549200D03*
X14319200Y-10724200D03*
%TD*%
D24*
%TO.C,C11*%
X12854700Y-9369700D03*
X12699700Y-9369700D03*
%TD*%
D20*
%TO.C,R9*%
X11218200Y-10424988D03*
X11218200Y-10259988D03*
%TD*%
D46*
%TO.C,R13*%
X12764700Y-11631200D03*
X12929700Y-11631200D03*
%TD*%
D47*
%TO.C,J1*%
X14416800Y-11578600D03*
X14616800Y-11343600D03*
X14816800Y-11578600D03*
X15016800Y-11343600D03*
%TD*%
D17*
%TO.C,D1*%
X12545200Y-9685950D03*
X12545200Y-9860950D03*
%TD*%
D16*
%TO.C,R3*%
X11028200Y-11902988D03*
X11028200Y-12067988D03*
%TD*%
%TO.C,R4*%
X11324000Y-11222188D03*
X11324000Y-11387188D03*
%TD*%
D21*
%TO.C,U3*%
X12809200Y-11813950D03*
X12555200Y-11813950D03*
X12555200Y-12033950D03*
X12809200Y-12033950D03*
%TD*%
D18*
%TO.C,R16*%
X13409000Y-11932000D03*
X13209000Y-11932000D03*
%TD*%
D41*
%TO.C,C10*%
X13868200Y-11148200D03*
X13868200Y-11303200D03*
%TD*%
D40*
%TO.C,U7*%
X10793455Y-11366988D03*
X10793455Y-11239988D03*
X10793455Y-11112988D03*
X10793455Y-10985988D03*
X10268945Y-10985988D03*
X10268945Y-11112988D03*
X10268945Y-11239988D03*
X10268945Y-11366988D03*
%TD*%
%TO.C,U6*%
X11214690Y-11783988D03*
X11214690Y-11910988D03*
X11214690Y-12037988D03*
X11214690Y-12164988D03*
X11739200Y-12164988D03*
X11739200Y-12037988D03*
X11739200Y-11910988D03*
X11739200Y-11783988D03*
%TD*%
D48*
%TO.C,U4*%
X14823200Y-8831600D03*
X14823200Y-8911600D03*
X14823200Y-8991600D03*
X14823200Y-9071600D03*
X14823200Y-9151600D03*
X14823200Y-9231600D03*
X14823200Y-9311600D03*
X15082280Y-9311600D03*
X15082280Y-9231600D03*
X15082280Y-9151600D03*
X15082280Y-9071600D03*
X15082280Y-8991600D03*
X15082280Y-8911600D03*
X15082280Y-8831600D03*
%TD*%
D49*
%TO.C,D4*%
X14189700Y-12074700D03*
X14189700Y-12524700D03*
%TD*%
D20*
%TO.C,Rg1*%
X12295200Y-11388988D03*
X12295200Y-11223988D03*
%TD*%
D24*
%TO.C,C12*%
X12747700Y-10018200D03*
X12592700Y-10018200D03*
%TD*%
D50*
%TO.C,H2*%
X15084200Y-8353200D03*
%TD*%
%TO.C,H6*%
X9523200Y-12565200D03*
%TD*%
%TO.C,H4*%
X15056200Y-12676200D03*
%TD*%
%TO.C,H1*%
X9540200Y-8464200D03*
%TD*%
%LPD*%
M02*
