%TF.GenerationSoftware,KiCad,Pcbnew,7.0.2*%
%TF.CreationDate,2023-11-27T13:46:33-03:00*%
%TF.ProjectId,Schematic_monitor,53636865-6d61-4746-9963-5f6d6f6e6974,rev?*%
%TF.SameCoordinates,Original*%
%TF.FileFunction,Soldermask,Top*%
%TF.FilePolarity,Negative*%
%FSLAX45Y45*%
G04 Gerber Fmt 4.5, Leading zero omitted, Abs format (unit mm)*
G04 Created by KiCad (PCBNEW 7.0.2) date 2023-11-27 13:46:33*
%MOMM*%
%LPD*%
G01*
G04 APERTURE LIST*
G04 Aperture macros list*
%AMRoundRect*
0 Rectangle with rounded corners*
0 $1 Rounding radius*
0 $2 $3 $4 $5 $6 $7 $8 $9 X,Y pos of 4 corners*
0 Add a 4 corners polygon primitive as box body*
4,1,4,$2,$3,$4,$5,$6,$7,$8,$9,$2,$3,0*
0 Add four circle primitives for the rounded corners*
1,1,$1+$1,$2,$3*
1,1,$1+$1,$4,$5*
1,1,$1+$1,$6,$7*
1,1,$1+$1,$8,$9*
0 Add four rect primitives between the rounded corners*
20,1,$1+$1,$2,$3,$4,$5,0*
20,1,$1+$1,$4,$5,$6,$7,0*
20,1,$1+$1,$6,$7,$8,$9,0*
20,1,$1+$1,$8,$9,$2,$3,0*%
G04 Aperture macros list end*
%ADD10R,1.120000X2.440000*%
%ADD11RoundRect,0.200000X-0.275000X0.200000X-0.275000X-0.200000X0.275000X-0.200000X0.275000X0.200000X0*%
%ADD12RoundRect,0.237500X-0.237500X0.287500X-0.237500X-0.287500X0.237500X-0.287500X0.237500X0.287500X0*%
%ADD13RoundRect,0.250000X0.350000X0.450000X-0.350000X0.450000X-0.350000X-0.450000X0.350000X-0.450000X0*%
%ADD14RoundRect,0.200000X0.200000X0.275000X-0.200000X0.275000X-0.200000X-0.275000X0.200000X-0.275000X0*%
%ADD15RoundRect,0.200000X0.275000X-0.200000X0.275000X0.200000X-0.275000X0.200000X-0.275000X-0.200000X0*%
%ADD16R,1.400000X1.200000*%
%ADD17RoundRect,0.225000X-0.225000X-0.250000X0.225000X-0.250000X0.225000X0.250000X-0.225000X0.250000X0*%
%ADD18RoundRect,0.237500X0.250000X0.237500X-0.250000X0.237500X-0.250000X-0.237500X0.250000X-0.237500X0*%
%ADD19RoundRect,0.225000X0.225000X0.250000X-0.225000X0.250000X-0.225000X-0.250000X0.225000X-0.250000X0*%
%ADD20RoundRect,0.250000X-0.337500X-0.475000X0.337500X-0.475000X0.337500X0.475000X-0.337500X0.475000X0*%
%ADD21RoundRect,0.237500X0.237500X-0.300000X0.237500X0.300000X-0.237500X0.300000X-0.237500X-0.300000X0*%
%ADD22RoundRect,0.075000X-0.075000X0.700000X-0.075000X-0.700000X0.075000X-0.700000X0.075000X0.700000X0*%
%ADD23RoundRect,0.075000X-0.700000X0.075000X-0.700000X-0.075000X0.700000X-0.075000X0.700000X0.075000X0*%
%ADD24RoundRect,0.250000X-1.075000X0.375000X-1.075000X-0.375000X1.075000X-0.375000X1.075000X0.375000X0*%
%ADD25O,1.150000X1.800000*%
%ADD26O,1.450000X2.000000*%
%ADD27O,0.800000X0.800000*%
%ADD28R,0.450000X1.300000*%
%ADD29RoundRect,0.218750X-0.218750X-0.256250X0.218750X-0.256250X0.218750X0.256250X-0.218750X0.256250X0*%
%ADD30R,1.600000X2.200000*%
%ADD31R,0.381000X1.219200*%
%ADD32R,1.700000X1.700000*%
%ADD33C,0.800000*%
%ADD34R,0.900000X1.700000*%
%ADD35R,1.257300X0.508000*%
%ADD36RoundRect,0.225000X-0.250000X0.225000X-0.250000X-0.225000X0.250000X-0.225000X0.250000X0.225000X0*%
%ADD37RoundRect,0.250000X2.050000X0.300000X-2.050000X0.300000X-2.050000X-0.300000X2.050000X-0.300000X0*%
%ADD38RoundRect,0.250002X4.449998X5.149998X-4.449998X5.149998X-4.449998X-5.149998X4.449998X-5.149998X0*%
%ADD39RoundRect,0.218750X-0.381250X0.218750X-0.381250X-0.218750X0.381250X-0.218750X0.381250X0.218750X0*%
%ADD40RoundRect,0.237500X0.237500X-0.287500X0.237500X0.287500X-0.237500X0.287500X-0.237500X-0.287500X0*%
%ADD41RoundRect,0.200000X-0.200000X-0.275000X0.200000X-0.275000X0.200000X0.275000X-0.200000X0.275000X0*%
%ADD42R,0.850000X2.350000*%
%ADD43R,0.711200X0.304800*%
%ADD44RoundRect,0.250000X-1.075000X0.425000X-1.075000X-0.425000X1.075000X-0.425000X1.075000X0.425000X0*%
%ADD45C,3.200000*%
G04 APERTURE END LIST*
D10*
%TO.C,SW2*%
X14850200Y-10023700D03*
X14850200Y-10884700D03*
%TD*%
D11*
%TO.C,R2*%
X11040200Y-11534988D03*
X11040200Y-11699988D03*
%TD*%
D12*
%TO.C,FB2*%
X12434600Y-9098300D03*
X12434600Y-9273300D03*
%TD*%
D13*
%TO.C,R10*%
X14316700Y-12844700D03*
X14116700Y-12844700D03*
%TD*%
D14*
%TO.C,R14*%
X12558700Y-11638200D03*
X12393700Y-11638200D03*
%TD*%
D15*
%TO.C,R7*%
X11005200Y-11384988D03*
X11005200Y-11219988D03*
%TD*%
D16*
%TO.C,Y1*%
X13622200Y-9175700D03*
X13382200Y-9175700D03*
X13382200Y-9365700D03*
X13622200Y-9365700D03*
%TD*%
D14*
%TO.C,R1*%
X14275700Y-10360700D03*
X14110700Y-10360700D03*
%TD*%
D17*
%TO.C,C7*%
X14121700Y-10116700D03*
X14276700Y-10116700D03*
%TD*%
D18*
%TO.C,R15*%
X13808450Y-12090200D03*
X13625950Y-12090200D03*
%TD*%
D19*
%TO.C,C3*%
X12852700Y-9573700D03*
X12697700Y-9573700D03*
%TD*%
D11*
%TO.C,R12*%
X14674200Y-9092100D03*
X14674200Y-9257100D03*
%TD*%
D20*
%TO.C,C5*%
X13880450Y-9752700D03*
X14087950Y-9752700D03*
%TD*%
D21*
%TO.C,C15*%
X11899000Y-11386938D03*
X11899000Y-11214438D03*
%TD*%
D22*
%TO.C,U1*%
X13741200Y-9966200D03*
X13691200Y-9966200D03*
X13641200Y-9966200D03*
X13591200Y-9966200D03*
X13541200Y-9966200D03*
X13491200Y-9966200D03*
X13441200Y-9966200D03*
X13391200Y-9966200D03*
X13341200Y-9966200D03*
X13291200Y-9966200D03*
X13241200Y-9966200D03*
X13191200Y-9966200D03*
X13141200Y-9966200D03*
X13091200Y-9966200D03*
X13041200Y-9966200D03*
X12991200Y-9966200D03*
D23*
X12798700Y-10158700D03*
X12798700Y-10208700D03*
X12798700Y-10258700D03*
X12798700Y-10308700D03*
X12798700Y-10358700D03*
X12798700Y-10408700D03*
X12798700Y-10458700D03*
X12798700Y-10508700D03*
X12798700Y-10558700D03*
X12798700Y-10608700D03*
X12798700Y-10658700D03*
X12798700Y-10708700D03*
X12798700Y-10758700D03*
X12798700Y-10808700D03*
X12798700Y-10858700D03*
X12798700Y-10908700D03*
D22*
X12991200Y-11101200D03*
X13041200Y-11101200D03*
X13091200Y-11101200D03*
X13141200Y-11101200D03*
X13191200Y-11101200D03*
X13241200Y-11101200D03*
X13291200Y-11101200D03*
X13341200Y-11101200D03*
X13391200Y-11101200D03*
X13441200Y-11101200D03*
X13491200Y-11101200D03*
X13541200Y-11101200D03*
X13591200Y-11101200D03*
X13641200Y-11101200D03*
X13691200Y-11101200D03*
X13741200Y-11101200D03*
D23*
X13933700Y-10908700D03*
X13933700Y-10858700D03*
X13933700Y-10808700D03*
X13933700Y-10758700D03*
X13933700Y-10708700D03*
X13933700Y-10658700D03*
X13933700Y-10608700D03*
X13933700Y-10558700D03*
X13933700Y-10508700D03*
X13933700Y-10458700D03*
X13933700Y-10408700D03*
X13933700Y-10358700D03*
X13933700Y-10308700D03*
X13933700Y-10258700D03*
X13933700Y-10208700D03*
X13933700Y-10158700D03*
%TD*%
D19*
%TO.C,C14*%
X13432700Y-9557700D03*
X13277700Y-9557700D03*
%TD*%
D24*
%TO.C,D5*%
X13963000Y-11524000D03*
X13963000Y-11804000D03*
%TD*%
D25*
%TO.C,J2*%
X13866200Y-12462700D03*
D26*
X13851200Y-12842700D03*
D27*
X13728700Y-12737700D03*
X13228700Y-12737700D03*
D26*
X13106200Y-12842700D03*
D25*
X13091200Y-12462700D03*
D28*
X13608700Y-12847700D03*
X13543700Y-12847700D03*
X13478700Y-12847700D03*
X13413700Y-12847700D03*
X13348700Y-12847700D03*
%TD*%
D14*
%TO.C,R6*%
X10970700Y-10831488D03*
X10805700Y-10831488D03*
%TD*%
D29*
%TO.C,D3*%
X11496450Y-10301200D03*
X11653950Y-10301200D03*
%TD*%
D30*
%TO.C,C1*%
X12130800Y-9170400D03*
X12130800Y-9470400D03*
%TD*%
D31*
%TO.C,U5*%
X11513700Y-11516578D03*
X11578700Y-11516578D03*
X11643700Y-11516578D03*
X11708700Y-11516578D03*
X11708700Y-11092398D03*
X11643700Y-11092398D03*
X11578700Y-11092398D03*
X11513700Y-11092398D03*
%TD*%
D19*
%TO.C,C8*%
X12565200Y-10209700D03*
X12410200Y-10209700D03*
%TD*%
D11*
%TO.C,R11*%
X14676200Y-8755100D03*
X14676200Y-8920100D03*
%TD*%
D32*
%TO.C,J4*%
X11404200Y-12744200D03*
%TD*%
D33*
%TO.C,SW1*%
X12184408Y-9893704D03*
D34*
X12014408Y-9893704D03*
X12354408Y-9893704D03*
%TD*%
D35*
%TO.C,U8*%
X11461945Y-10463988D03*
X11461945Y-10590988D03*
X11461945Y-10717988D03*
X11461945Y-10844988D03*
X11986455Y-10844988D03*
X11986455Y-10717988D03*
X11986455Y-10590988D03*
X11986455Y-10463988D03*
%TD*%
D30*
%TO.C,C2*%
X12130800Y-8706000D03*
X12130800Y-8406000D03*
%TD*%
D36*
%TO.C,C16*%
X10518200Y-10628988D03*
X10518200Y-10783988D03*
%TD*%
D19*
%TO.C,C4*%
X13007200Y-9757200D03*
X12852200Y-9757200D03*
%TD*%
D17*
%TO.C,C13*%
X13601700Y-9559700D03*
X13756700Y-9559700D03*
%TD*%
D19*
%TO.C,C17*%
X10871700Y-10615488D03*
X10716700Y-10615488D03*
%TD*%
D37*
%TO.C,U2*%
X11666900Y-9267200D03*
X11666900Y-9013200D03*
D38*
X10751900Y-9013200D03*
D37*
X11666900Y-8759200D03*
%TD*%
D19*
%TO.C,C9*%
X12506200Y-10764700D03*
X12351200Y-10764700D03*
%TD*%
D36*
%TO.C,C18*%
X12328200Y-11854700D03*
X12328200Y-12009700D03*
%TD*%
D39*
%TO.C,FB3*%
X13013200Y-9366450D03*
X13013200Y-9578950D03*
%TD*%
D32*
%TO.C,J3*%
X10779200Y-12740200D03*
%TD*%
D40*
%TO.C,FB1*%
X12435600Y-8860800D03*
X12435600Y-8685800D03*
%TD*%
D14*
%TO.C,R5*%
X10737700Y-11586488D03*
X10572700Y-11586488D03*
%TD*%
D17*
%TO.C,C6*%
X14004700Y-9931700D03*
X14159700Y-9931700D03*
%TD*%
D41*
%TO.C,R8*%
X11101700Y-10984488D03*
X11266700Y-10984488D03*
%TD*%
D12*
%TO.C,D2*%
X14319200Y-10549200D03*
X14319200Y-10724200D03*
%TD*%
D19*
%TO.C,C11*%
X12854700Y-9369700D03*
X12699700Y-9369700D03*
%TD*%
D15*
%TO.C,R9*%
X11218200Y-10424988D03*
X11218200Y-10259988D03*
%TD*%
D41*
%TO.C,R13*%
X12764700Y-11631200D03*
X12929700Y-11631200D03*
%TD*%
D42*
%TO.C,J1*%
X14416800Y-11578600D03*
X14616800Y-11343600D03*
X14816800Y-11578600D03*
X15016800Y-11343600D03*
%TD*%
D12*
%TO.C,D1*%
X12545200Y-9685950D03*
X12545200Y-9860950D03*
%TD*%
D11*
%TO.C,R3*%
X11028200Y-11902988D03*
X11028200Y-12067988D03*
%TD*%
%TO.C,R4*%
X11324000Y-11222188D03*
X11324000Y-11387188D03*
%TD*%
D16*
%TO.C,U3*%
X12809200Y-11813950D03*
X12555200Y-11813950D03*
X12555200Y-12033950D03*
X12809200Y-12033950D03*
%TD*%
D13*
%TO.C,R16*%
X13409000Y-11932000D03*
X13209000Y-11932000D03*
%TD*%
D36*
%TO.C,C10*%
X13868200Y-11148200D03*
X13868200Y-11303200D03*
%TD*%
D35*
%TO.C,U7*%
X10793455Y-11366988D03*
X10793455Y-11239988D03*
X10793455Y-11112988D03*
X10793455Y-10985988D03*
X10268945Y-10985988D03*
X10268945Y-11112988D03*
X10268945Y-11239988D03*
X10268945Y-11366988D03*
%TD*%
%TO.C,U6*%
X11214690Y-11783988D03*
X11214690Y-11910988D03*
X11214690Y-12037988D03*
X11214690Y-12164988D03*
X11739200Y-12164988D03*
X11739200Y-12037988D03*
X11739200Y-11910988D03*
X11739200Y-11783988D03*
%TD*%
D43*
%TO.C,U4*%
X14823200Y-8831600D03*
X14823200Y-8911600D03*
X14823200Y-8991600D03*
X14823200Y-9071600D03*
X14823200Y-9151600D03*
X14823200Y-9231600D03*
X14823200Y-9311600D03*
X15082280Y-9311600D03*
X15082280Y-9231600D03*
X15082280Y-9151600D03*
X15082280Y-9071600D03*
X15082280Y-8991600D03*
X15082280Y-8911600D03*
X15082280Y-8831600D03*
%TD*%
D44*
%TO.C,D4*%
X14189700Y-12074700D03*
X14189700Y-12524700D03*
%TD*%
D15*
%TO.C,Rg1*%
X12295200Y-11388988D03*
X12295200Y-11223988D03*
%TD*%
D19*
%TO.C,C12*%
X12747700Y-10018200D03*
X12592700Y-10018200D03*
%TD*%
D45*
%TO.C,H2*%
X15084200Y-8353200D03*
%TD*%
%TO.C,H6*%
X9523200Y-12565200D03*
%TD*%
%TO.C,H4*%
X15056200Y-12676200D03*
%TD*%
%TO.C,H1*%
X9540200Y-8464200D03*
%TD*%
M02*
