%TF.GenerationSoftware,KiCad,Pcbnew,7.0.2*%
%TF.CreationDate,2023-11-28T02:03:26-03:00*%
%TF.ProjectId,Schematic_monitor,53636865-6d61-4746-9963-5f6d6f6e6974,rev?*%
%TF.SameCoordinates,Original*%
%TF.FileFunction,Legend,Bot*%
%TF.FilePolarity,Positive*%
%FSLAX45Y45*%
G04 Gerber Fmt 4.5, Leading zero omitted, Abs format (unit mm)*
G04 Created by KiCad (PCBNEW 7.0.2) date 2023-11-28 02:03:26*
%MOMM*%
%LPD*%
G01*
G04 APERTURE LIST*
%ADD10C,0.150000*%
%ADD11C,0.120000*%
%ADD12O,1.150000X1.800000*%
%ADD13O,1.450000X2.000000*%
%ADD14O,0.800000X0.800000*%
%ADD15R,1.700000X1.700000*%
%ADD16C,0.800000*%
%ADD17C,3.200000*%
%ADD18R,1.900000X1.000000*%
G04 APERTURE END LIST*
D10*
%TO.C,J5*%
X9967333Y-11823062D02*
X9967333Y-11894490D01*
X9967333Y-11894490D02*
X9972095Y-11908776D01*
X9972095Y-11908776D02*
X9981619Y-11918300D01*
X9981619Y-11918300D02*
X9995905Y-11923062D01*
X9995905Y-11923062D02*
X10005429Y-11923062D01*
X9872095Y-11823062D02*
X9919714Y-11823062D01*
X9919714Y-11823062D02*
X9924476Y-11870681D01*
X9924476Y-11870681D02*
X9919714Y-11865919D01*
X9919714Y-11865919D02*
X9910190Y-11861157D01*
X9910190Y-11861157D02*
X9886381Y-11861157D01*
X9886381Y-11861157D02*
X9876857Y-11865919D01*
X9876857Y-11865919D02*
X9872095Y-11870681D01*
X9872095Y-11870681D02*
X9867333Y-11880205D01*
X9867333Y-11880205D02*
X9867333Y-11904014D01*
X9867333Y-11904014D02*
X9872095Y-11913538D01*
X9872095Y-11913538D02*
X9876857Y-11918300D01*
X9876857Y-11918300D02*
X9886381Y-11923062D01*
X9886381Y-11923062D02*
X9910190Y-11923062D01*
X9910190Y-11923062D02*
X9919714Y-11918300D01*
X9919714Y-11918300D02*
X9924476Y-11913538D01*
D11*
X9315800Y-9573200D02*
X9581800Y-9573200D01*
X9315800Y-9894200D02*
X9315800Y-9573200D01*
X9315800Y-10402200D02*
X9315800Y-10046200D01*
X9315800Y-10910200D02*
X9315800Y-10554200D01*
X9315800Y-11418200D02*
X9315800Y-11062200D01*
X9315800Y-11891200D02*
X9315800Y-11570200D01*
X9315800Y-11891200D02*
X9581800Y-11891200D01*
X9581800Y-9640200D02*
X9581800Y-9573200D01*
X9581800Y-10148200D02*
X9581800Y-9792200D01*
X9581800Y-10656200D02*
X9581800Y-10300200D01*
X9581800Y-11164200D02*
X9581800Y-10808200D01*
X9581800Y-11672200D02*
X9581800Y-11316200D01*
X9581800Y-11824200D02*
X9702800Y-11824200D01*
X9581800Y-11891200D02*
X9581800Y-11824200D01*
%TD*%
%LPC*%
D12*
%TO.C,J2*%
X13866200Y-12462700D03*
D13*
X13851200Y-12842700D03*
D14*
X13728700Y-12737700D03*
X13228700Y-12737700D03*
D13*
X13106200Y-12842700D03*
D12*
X13091200Y-12462700D03*
%TD*%
D15*
%TO.C,J4*%
X11404200Y-12744200D03*
%TD*%
D16*
%TO.C,SW1*%
X12184408Y-9893704D03*
%TD*%
D15*
%TO.C,J3*%
X10779200Y-12740200D03*
%TD*%
D17*
%TO.C,H2*%
X15084200Y-8353200D03*
%TD*%
%TO.C,H6*%
X9523200Y-12565200D03*
%TD*%
%TO.C,H4*%
X15056200Y-12676200D03*
%TD*%
%TO.C,H1*%
X9540200Y-8464200D03*
%TD*%
D18*
%TO.C,J5*%
X9613800Y-11748200D03*
X9283800Y-11494200D03*
X9613800Y-11240200D03*
X9283800Y-10986200D03*
X9613800Y-10732200D03*
X9283800Y-10478200D03*
X9613800Y-10224200D03*
X9283800Y-9970200D03*
X9613800Y-9716200D03*
%TD*%
%LPD*%
M02*
