%TF.GenerationSoftware,KiCad,Pcbnew,7.0.2*%
%TF.CreationDate,2023-11-27T13:46:33-03:00*%
%TF.ProjectId,Schematic_monitor,53636865-6d61-4746-9963-5f6d6f6e6974,rev?*%
%TF.SameCoordinates,Original*%
%TF.FileFunction,Copper,L2,Bot*%
%TF.FilePolarity,Positive*%
%FSLAX45Y45*%
G04 Gerber Fmt 4.5, Leading zero omitted, Abs format (unit mm)*
G04 Created by KiCad (PCBNEW 7.0.2) date 2023-11-27 13:46:33*
%MOMM*%
%LPD*%
G01*
G04 APERTURE LIST*
G04 Aperture macros list*
%AMRoundRect*
0 Rectangle with rounded corners*
0 $1 Rounding radius*
0 $2 $3 $4 $5 $6 $7 $8 $9 X,Y pos of 4 corners*
0 Add a 4 corners polygon primitive as box body*
4,1,4,$2,$3,$4,$5,$6,$7,$8,$9,$2,$3,0*
0 Add four circle primitives for the rounded corners*
1,1,$1+$1,$2,$3*
1,1,$1+$1,$4,$5*
1,1,$1+$1,$6,$7*
1,1,$1+$1,$8,$9*
0 Add four rect primitives between the rounded corners*
20,1,$1+$1,$2,$3,$4,$5,0*
20,1,$1+$1,$4,$5,$6,$7,0*
20,1,$1+$1,$6,$7,$8,$9,0*
20,1,$1+$1,$8,$9,$2,$3,0*%
G04 Aperture macros list end*
%ADD10C,0.300000*%
%TA.AperFunction,NonConductor*%
%ADD11C,0.300000*%
%TD*%
%TA.AperFunction,NonConductor*%
%ADD12C,0.200000*%
%TD*%
%TA.AperFunction,SMDPad,CuDef*%
%ADD13R,1.120000X2.440000*%
%TD*%
%TA.AperFunction,SMDPad,CuDef*%
%ADD14RoundRect,0.200000X-0.275000X0.200000X-0.275000X-0.200000X0.275000X-0.200000X0.275000X0.200000X0*%
%TD*%
%TA.AperFunction,SMDPad,CuDef*%
%ADD15RoundRect,0.200000X0.200000X0.275000X-0.200000X0.275000X-0.200000X-0.275000X0.200000X-0.275000X0*%
%TD*%
%TA.AperFunction,SMDPad,CuDef*%
%ADD16R,1.400000X1.200000*%
%TD*%
%TA.AperFunction,SMDPad,CuDef*%
%ADD17RoundRect,0.225000X-0.225000X-0.250000X0.225000X-0.250000X0.225000X0.250000X-0.225000X0.250000X0*%
%TD*%
%TA.AperFunction,SMDPad,CuDef*%
%ADD18RoundRect,0.225000X0.225000X0.250000X-0.225000X0.250000X-0.225000X-0.250000X0.225000X-0.250000X0*%
%TD*%
%TA.AperFunction,SMDPad,CuDef*%
%ADD19RoundRect,0.250000X-0.337500X-0.475000X0.337500X-0.475000X0.337500X0.475000X-0.337500X0.475000X0*%
%TD*%
%TA.AperFunction,SMDPad,CuDef*%
%ADD20RoundRect,0.237500X0.237500X-0.300000X0.237500X0.300000X-0.237500X0.300000X-0.237500X-0.300000X0*%
%TD*%
%TA.AperFunction,SMDPad,CuDef*%
%ADD21RoundRect,0.075000X-0.075000X0.700000X-0.075000X-0.700000X0.075000X-0.700000X0.075000X0.700000X0*%
%TD*%
%TA.AperFunction,SMDPad,CuDef*%
%ADD22RoundRect,0.075000X-0.700000X0.075000X-0.700000X-0.075000X0.700000X-0.075000X0.700000X0.075000X0*%
%TD*%
%TA.AperFunction,SMDPad,CuDef*%
%ADD23RoundRect,0.250000X-1.075000X0.375000X-1.075000X-0.375000X1.075000X-0.375000X1.075000X0.375000X0*%
%TD*%
%TA.AperFunction,SMDPad,CuDef*%
%ADD24R,0.450000X1.300000*%
%TD*%
%TA.AperFunction,SMDPad,CuDef*%
%ADD25RoundRect,0.218750X-0.218750X-0.256250X0.218750X-0.256250X0.218750X0.256250X-0.218750X0.256250X0*%
%TD*%
%TA.AperFunction,SMDPad,CuDef*%
%ADD26R,1.600000X2.200000*%
%TD*%
%TA.AperFunction,SMDPad,CuDef*%
%ADD27R,0.381000X1.219200*%
%TD*%
%TA.AperFunction,ComponentPad*%
%ADD28R,1.700000X1.700000*%
%TD*%
%TA.AperFunction,SMDPad,CuDef*%
%ADD29R,0.900000X1.700000*%
%TD*%
%TA.AperFunction,SMDPad,CuDef*%
%ADD30R,1.257300X0.508000*%
%TD*%
%TA.AperFunction,SMDPad,CuDef*%
%ADD31RoundRect,0.250000X2.050000X0.300000X-2.050000X0.300000X-2.050000X-0.300000X2.050000X-0.300000X0*%
%TD*%
%TA.AperFunction,SMDPad,CuDef*%
%ADD32RoundRect,0.225000X-0.250000X0.225000X-0.250000X-0.225000X0.250000X-0.225000X0.250000X0.225000X0*%
%TD*%
%TA.AperFunction,SMDPad,CuDef*%
%ADD33RoundRect,0.237500X-0.237500X0.287500X-0.237500X-0.287500X0.237500X-0.287500X0.237500X0.287500X0*%
%TD*%
%TA.AperFunction,SMDPad,CuDef*%
%ADD34R,0.850000X2.350000*%
%TD*%
%TA.AperFunction,SMDPad,CuDef*%
%ADD35RoundRect,0.250000X0.350000X0.450000X-0.350000X0.450000X-0.350000X-0.450000X0.350000X-0.450000X0*%
%TD*%
%TA.AperFunction,SMDPad,CuDef*%
%ADD36R,0.711200X0.304800*%
%TD*%
%TA.AperFunction,SMDPad,CuDef*%
%ADD37RoundRect,0.250000X-1.075000X0.425000X-1.075000X-0.425000X1.075000X-0.425000X1.075000X0.425000X0*%
%TD*%
%TA.AperFunction,SMDPad,CuDef*%
%ADD38RoundRect,0.200000X0.275000X-0.200000X0.275000X0.200000X-0.275000X0.200000X-0.275000X-0.200000X0*%
%TD*%
%TA.AperFunction,SMDPad,CuDef*%
%ADD39R,1.900000X1.000000*%
%TD*%
%TA.AperFunction,ViaPad*%
%ADD40C,0.800000*%
%TD*%
%TA.AperFunction,ViaPad*%
%ADD41C,0.600000*%
%TD*%
%TA.AperFunction,Conductor*%
%ADD42C,0.300000*%
%TD*%
%TA.AperFunction,Conductor*%
%ADD43C,0.500000*%
%TD*%
%TA.AperFunction,Conductor*%
%ADD44C,0.700000*%
%TD*%
%TA.AperFunction,Conductor*%
%ADD45C,0.250000*%
%TD*%
G04 APERTURE END LIST*
D10*
D11*
X11676783Y-6598166D02*
X11648211Y-6598125D01*
X11648211Y-6598125D02*
X11633915Y-6605247D01*
X11633915Y-6605247D02*
X11626762Y-6612379D01*
X11626762Y-6612379D02*
X11612445Y-6633787D01*
X11612445Y-6633787D02*
X11605260Y-6662348D01*
X11605260Y-6662348D02*
X11605177Y-6719491D01*
X11605177Y-6719491D02*
X11612299Y-6733787D01*
X11612299Y-6733787D02*
X11619432Y-6740940D01*
X11619432Y-6740940D02*
X11633707Y-6748104D01*
X11633707Y-6748104D02*
X11662278Y-6748145D01*
X11662278Y-6748145D02*
X11676574Y-6741023D01*
X11676574Y-6741023D02*
X11683728Y-6733891D01*
X11683728Y-6733891D02*
X11690891Y-6719616D01*
X11690891Y-6719616D02*
X11690943Y-6683901D01*
X11690943Y-6683901D02*
X11683821Y-6669605D01*
X11683821Y-6669605D02*
X11676689Y-6662452D01*
X11676689Y-6662452D02*
X11662414Y-6655288D01*
X11662414Y-6655288D02*
X11633842Y-6655247D01*
X11633842Y-6655247D02*
X11619546Y-6662369D01*
X11619546Y-6662369D02*
X11612393Y-6669501D01*
X11612393Y-6669501D02*
X11605229Y-6683776D01*
X11783925Y-6598323D02*
X11798211Y-6598344D01*
X11798211Y-6598344D02*
X11812486Y-6605507D01*
X11812486Y-6605507D02*
X11819619Y-6612661D01*
X11819619Y-6612661D02*
X11826741Y-6626957D01*
X11826741Y-6626957D02*
X11833842Y-6655539D01*
X11833842Y-6655539D02*
X11833790Y-6691253D01*
X11833790Y-6691253D02*
X11826605Y-6719814D01*
X11826605Y-6719814D02*
X11819442Y-6734089D01*
X11819442Y-6734089D02*
X11812288Y-6741221D01*
X11812288Y-6741221D02*
X11797992Y-6748343D01*
X11797992Y-6748343D02*
X11783707Y-6748323D01*
X11783707Y-6748323D02*
X11769431Y-6741159D01*
X11769431Y-6741159D02*
X11762299Y-6734006D01*
X11762299Y-6734006D02*
X11755177Y-6719710D01*
X11755177Y-6719710D02*
X11748076Y-6691128D01*
X11748076Y-6691128D02*
X11748128Y-6655413D01*
X11748128Y-6655413D02*
X11755312Y-6626852D01*
X11755312Y-6626852D02*
X11762476Y-6612577D01*
X11762476Y-6612577D02*
X11769629Y-6605445D01*
X11769629Y-6605445D02*
X11783925Y-6598323D01*
X11905145Y-6741357D02*
X11905135Y-6748500D01*
X11905135Y-6748500D02*
X11897971Y-6762775D01*
X11897971Y-6762775D02*
X11890818Y-6769907D01*
X11955354Y-6598573D02*
X12055354Y-6598719D01*
X12055354Y-6598719D02*
X11990849Y-6748625D01*
X12190849Y-6748917D02*
X12105135Y-6748792D01*
X12147992Y-6748854D02*
X12148211Y-6598854D01*
X12148211Y-6598854D02*
X12133894Y-6620262D01*
X12133894Y-6620262D02*
X12119587Y-6634527D01*
X12119587Y-6634527D02*
X12105291Y-6641649D01*
X12326782Y-6599115D02*
X12255353Y-6599011D01*
X12255353Y-6599011D02*
X12248106Y-6670429D01*
X12248106Y-6670429D02*
X12255260Y-6663296D01*
X12255260Y-6663296D02*
X12269556Y-6656174D01*
X12269556Y-6656174D02*
X12305270Y-6656226D01*
X12305270Y-6656226D02*
X12319545Y-6663390D01*
X12319545Y-6663390D02*
X12326678Y-6670543D01*
X12326678Y-6670543D02*
X12333800Y-6684839D01*
X12333800Y-6684839D02*
X12333748Y-6720554D01*
X12333748Y-6720554D02*
X12326584Y-6734829D01*
X12326584Y-6734829D02*
X12319431Y-6741961D01*
X12319431Y-6741961D02*
X12305135Y-6749083D01*
X12305135Y-6749083D02*
X12269420Y-6749031D01*
X12269420Y-6749031D02*
X12255145Y-6741868D01*
X12255145Y-6741868D02*
X12248013Y-6734714D01*
X12462496Y-6599313D02*
X12433925Y-6599271D01*
X12433925Y-6599271D02*
X12419629Y-6606393D01*
X12419629Y-6606393D02*
X12412475Y-6613526D01*
X12412475Y-6613526D02*
X12398158Y-6634933D01*
X12398158Y-6634933D02*
X12390974Y-6663494D01*
X12390974Y-6663494D02*
X12390890Y-6720637D01*
X12390890Y-6720637D02*
X12398012Y-6734933D01*
X12398012Y-6734933D02*
X12405145Y-6742086D01*
X12405145Y-6742086D02*
X12419420Y-6749250D01*
X12419420Y-6749250D02*
X12447991Y-6749292D01*
X12447991Y-6749292D02*
X12462288Y-6742170D01*
X12462288Y-6742170D02*
X12469441Y-6735037D01*
X12469441Y-6735037D02*
X12476605Y-6720762D01*
X12476605Y-6720762D02*
X12476657Y-6685048D01*
X12476657Y-6685048D02*
X12469535Y-6670752D01*
X12469535Y-6670752D02*
X12462402Y-6663598D01*
X12462402Y-6663598D02*
X12448127Y-6656435D01*
X12448127Y-6656435D02*
X12419556Y-6656393D01*
X12419556Y-6656393D02*
X12405259Y-6663515D01*
X12405259Y-6663515D02*
X12398106Y-6670648D01*
X12398106Y-6670648D02*
X12390942Y-6684923D01*
X12655134Y-6749594D02*
X12655280Y-6649594D01*
X12655259Y-6663880D02*
X12662412Y-6656747D01*
X12662412Y-6656747D02*
X12676709Y-6649625D01*
X12676709Y-6649625D02*
X12698137Y-6649657D01*
X12698137Y-6649657D02*
X12712412Y-6656820D01*
X12712412Y-6656820D02*
X12719534Y-6671117D01*
X12719534Y-6671117D02*
X12719420Y-6749688D01*
X12719534Y-6671117D02*
X12726698Y-6656841D01*
X12726698Y-6656841D02*
X12740994Y-6649719D01*
X12740994Y-6649719D02*
X12762423Y-6649751D01*
X12762423Y-6649751D02*
X12776698Y-6656914D01*
X12776698Y-6656914D02*
X12783820Y-6671210D01*
X12783820Y-6671210D02*
X12783705Y-6749782D01*
X12855134Y-6749886D02*
X12855280Y-6649886D01*
X12855259Y-6664172D02*
X12862412Y-6657039D01*
X12862412Y-6657039D02*
X12876708Y-6649917D01*
X12876708Y-6649917D02*
X12898137Y-6649949D01*
X12898137Y-6649949D02*
X12912412Y-6657112D01*
X12912412Y-6657112D02*
X12919534Y-6671408D01*
X12919534Y-6671408D02*
X12919419Y-6749980D01*
X12919534Y-6671408D02*
X12926698Y-6657133D01*
X12926698Y-6657133D02*
X12940994Y-6650011D01*
X12940994Y-6650011D02*
X12962422Y-6650042D01*
X12962422Y-6650042D02*
X12976698Y-6657206D01*
X12976698Y-6657206D02*
X12983820Y-6671502D01*
X12983820Y-6671502D02*
X12983705Y-6750074D01*
D12*
X9260272Y-8077199D02*
X9262141Y-6796609D01*
X15331823Y-8086058D02*
X15333691Y-6805468D01*
X9262055Y-6855251D02*
X15333606Y-6864109D01*
X9262055Y-6855251D02*
X15333606Y-6864109D01*
X9262055Y-6855251D02*
X9374791Y-6796773D01*
X9262055Y-6855251D02*
X9374620Y-6914057D01*
X15333606Y-6864109D02*
X15220870Y-6922587D01*
X15333606Y-6864109D02*
X15221041Y-6805303D01*
D10*
D11*
X16415820Y-9903350D02*
X16315820Y-9903406D01*
X16472943Y-9867604D02*
X16365780Y-9831950D01*
X16365780Y-9831950D02*
X16365832Y-9924807D01*
X16465856Y-9967608D02*
X16465911Y-10067608D01*
X16465911Y-10067608D02*
X16315876Y-10003406D01*
X16323090Y-10131973D02*
X16315947Y-10131977D01*
X16315947Y-10131977D02*
X16301657Y-10124842D01*
X16301657Y-10124842D02*
X16294511Y-10117703D01*
X16465975Y-10181894D02*
X16466030Y-10281894D01*
X16466030Y-10281894D02*
X16315995Y-10217692D01*
X16401788Y-10360501D02*
X16408923Y-10346211D01*
X16408923Y-10346211D02*
X16416062Y-10339064D01*
X16416062Y-10339064D02*
X16430344Y-10331914D01*
X16430344Y-10331914D02*
X16437487Y-10331910D01*
X16437487Y-10331910D02*
X16451777Y-10339045D01*
X16451777Y-10339045D02*
X16458923Y-10346183D01*
X16458923Y-10346183D02*
X16466074Y-10360465D01*
X16466074Y-10360465D02*
X16466090Y-10389037D01*
X16466090Y-10389037D02*
X16458955Y-10403326D01*
X16458955Y-10403326D02*
X16451816Y-10410473D01*
X16451816Y-10410473D02*
X16437535Y-10417624D01*
X16437535Y-10417624D02*
X16430392Y-10417628D01*
X16430392Y-10417628D02*
X16416102Y-10410493D01*
X16416102Y-10410493D02*
X16408955Y-10403354D01*
X16408955Y-10403354D02*
X16401804Y-10389072D01*
X16401804Y-10389072D02*
X16401788Y-10360501D01*
X16401788Y-10360501D02*
X16394638Y-10346219D01*
X16394638Y-10346219D02*
X16387491Y-10339080D01*
X16387491Y-10339080D02*
X16373201Y-10331945D01*
X16373201Y-10331945D02*
X16344630Y-10331961D01*
X16344630Y-10331961D02*
X16330348Y-10339112D01*
X16330348Y-10339112D02*
X16323209Y-10346259D01*
X16323209Y-10346259D02*
X16316074Y-10360549D01*
X16316074Y-10360549D02*
X16316090Y-10389120D01*
X16316090Y-10389120D02*
X16323241Y-10403402D01*
X16323241Y-10403402D02*
X16330388Y-10410541D01*
X16330388Y-10410541D02*
X16344677Y-10417676D01*
X16344677Y-10417676D02*
X16373249Y-10417660D01*
X16373249Y-10417660D02*
X16387531Y-10410509D01*
X16387531Y-10410509D02*
X16394669Y-10403362D01*
X16394669Y-10403362D02*
X16401804Y-10389072D01*
X16466177Y-10546179D02*
X16466162Y-10517608D01*
X16466162Y-10517608D02*
X16459011Y-10503326D01*
X16459011Y-10503326D02*
X16451864Y-10496187D01*
X16451864Y-10496187D02*
X16430427Y-10481914D01*
X16430427Y-10481914D02*
X16401852Y-10474787D01*
X16401852Y-10474787D02*
X16344709Y-10474818D01*
X16344709Y-10474818D02*
X16330427Y-10481969D01*
X16330427Y-10481969D02*
X16323289Y-10489116D01*
X16323289Y-10489116D02*
X16316154Y-10503406D01*
X16316154Y-10503406D02*
X16316170Y-10531977D01*
X16316170Y-10531977D02*
X16323320Y-10546259D01*
X16323320Y-10546259D02*
X16330467Y-10553398D01*
X16330467Y-10553398D02*
X16344757Y-10560533D01*
X16344757Y-10560533D02*
X16380471Y-10560513D01*
X16380471Y-10560513D02*
X16394753Y-10553362D01*
X16394753Y-10553362D02*
X16401892Y-10546215D01*
X16401892Y-10546215D02*
X16409027Y-10531925D01*
X16409027Y-10531925D02*
X16409011Y-10503354D01*
X16409011Y-10503354D02*
X16401860Y-10489072D01*
X16401860Y-10489072D02*
X16394713Y-10481933D01*
X16394713Y-10481933D02*
X16380423Y-10474798D01*
X16466261Y-10696179D02*
X16466221Y-10624751D01*
X16466221Y-10624751D02*
X16394789Y-10617648D01*
X16394789Y-10617648D02*
X16401935Y-10624786D01*
X16401935Y-10624786D02*
X16409086Y-10639068D01*
X16409086Y-10639068D02*
X16409106Y-10674783D01*
X16409106Y-10674783D02*
X16401971Y-10689072D01*
X16401971Y-10689072D02*
X16394832Y-10696219D01*
X16394832Y-10696219D02*
X16380551Y-10703370D01*
X16380551Y-10703370D02*
X16344836Y-10703390D01*
X16344836Y-10703390D02*
X16330547Y-10696255D01*
X16330547Y-10696255D02*
X16323400Y-10689116D01*
X16323400Y-10689116D02*
X16316249Y-10674834D01*
X16316249Y-10674834D02*
X16316229Y-10639120D01*
X16316229Y-10639120D02*
X16323364Y-10624830D01*
X16323364Y-10624830D02*
X16330503Y-10617683D01*
X16316364Y-10881977D02*
X16416364Y-10881921D01*
X16402078Y-10881929D02*
X16409225Y-10889068D01*
X16409225Y-10889068D02*
X16416376Y-10903350D01*
X16416376Y-10903350D02*
X16416388Y-10924778D01*
X16416388Y-10924778D02*
X16409253Y-10939068D01*
X16409253Y-10939068D02*
X16394971Y-10946219D01*
X16394971Y-10946219D02*
X16316400Y-10946263D01*
X16394971Y-10946219D02*
X16409261Y-10953354D01*
X16409261Y-10953354D02*
X16416412Y-10967636D01*
X16416412Y-10967636D02*
X16416424Y-10989064D01*
X16416424Y-10989064D02*
X16409289Y-11003354D01*
X16409289Y-11003354D02*
X16395007Y-11010505D01*
X16395007Y-11010505D02*
X16316436Y-11010548D01*
X16316475Y-11081977D02*
X16416475Y-11081921D01*
X16402190Y-11081929D02*
X16409337Y-11089068D01*
X16409337Y-11089068D02*
X16416487Y-11103350D01*
X16416487Y-11103350D02*
X16416499Y-11124778D01*
X16416499Y-11124778D02*
X16409364Y-11139068D01*
X16409364Y-11139068D02*
X16395083Y-11146219D01*
X16395083Y-11146219D02*
X16316511Y-11146263D01*
X16395083Y-11146219D02*
X16409372Y-11153354D01*
X16409372Y-11153354D02*
X16416523Y-11167636D01*
X16416523Y-11167636D02*
X16416535Y-11189064D01*
X16416535Y-11189064D02*
X16409400Y-11203354D01*
X16409400Y-11203354D02*
X16395118Y-11210505D01*
X16395118Y-11210505D02*
X16316547Y-11210548D01*
D12*
X15381750Y-8136030D02*
X16262871Y-8135540D01*
X15384408Y-12914676D02*
X16265530Y-12914186D01*
X16204229Y-8135573D02*
X16206888Y-12914219D01*
X16204229Y-8135573D02*
X16206888Y-12914219D01*
X16204229Y-8135573D02*
X16262934Y-8248190D01*
X16204229Y-8135573D02*
X16145650Y-8248256D01*
X16206888Y-12914219D02*
X16148183Y-12801601D01*
X16206888Y-12914219D02*
X16265467Y-12801536D01*
D13*
%TO.P,SW2,1,A*%
%TO.N,GND*%
X14850200Y-10023700D03*
%TD*%
D14*
%TO.P,R2,1*%
%TO.N,VBUS*%
X11040200Y-11534988D03*
%TO.P,R2,2*%
%TO.N,Net-(U6A-+)*%
X11040200Y-11699988D03*
%TD*%
D15*
%TO.P,R14,1*%
%TO.N,Temp_SDA*%
X12558700Y-11638200D03*
%TD*%
D16*
%TO.P,Y1,2,2*%
%TO.N,GND*%
X13382200Y-9175700D03*
%TO.P,Y1,4,4*%
X13622200Y-9365700D03*
%TD*%
D17*
%TO.P,C7,2*%
%TO.N,GND*%
X14276700Y-10116700D03*
%TD*%
D18*
%TO.P,C3,2*%
%TO.N,GND*%
X12697700Y-9573700D03*
%TD*%
D14*
%TO.P,R12,1*%
%TO.N,oxi_sda*%
X14674200Y-9092100D03*
%TD*%
D19*
%TO.P,C5,2*%
%TO.N,GND*%
X14087950Y-9752700D03*
%TD*%
D20*
%TO.P,C15,1*%
%TO.N,Net-(C15-Pad1)*%
X11899000Y-11386938D03*
%TD*%
D21*
%TO.P,U1,12,VSSA*%
%TO.N,GND*%
X13191200Y-9966200D03*
D22*
%TO.P,U1,18,VSS*%
X12798700Y-10208700D03*
%TO.P,U1,20,PA4*%
%TO.N,touch_int*%
X12798700Y-10308700D03*
%TO.P,U1,21,PA5*%
%TO.N,displ_sck*%
X12798700Y-10358700D03*
%TO.P,U1,22,PA6*%
%TO.N,touch_mosi*%
X12798700Y-10408700D03*
%TO.P,U1,23,PA7*%
%TO.N,displ_mosi*%
X12798700Y-10458700D03*
%TO.P,U1,31,VSS*%
%TO.N,GND*%
X12798700Y-10858700D03*
D21*
%TO.P,U1,33,PB12*%
%TO.N,displ_cs*%
X12991200Y-11101200D03*
%TO.P,U1,34,PB13*%
%TO.N,touch_cs*%
X13041200Y-11101200D03*
%TO.P,U1,36,PB15*%
%TO.N,displ_rst*%
X13141200Y-11101200D03*
%TO.P,U1,37,PC6*%
%TO.N,unconnected-(U1-PC6-Pad37)*%
X13191200Y-11101200D03*
%TO.P,U1,38,PC7*%
%TO.N,displ_led*%
X13241200Y-11101200D03*
%TO.P,U1,41,PA8*%
%TO.N,oxi_scl*%
X13391200Y-11101200D03*
%TO.P,U1,47,VSS*%
%TO.N,GND*%
X13691200Y-11101200D03*
D22*
%TO.P,U1,49,PA14*%
%TO.N,SWCLK*%
X13933700Y-10908700D03*
%TO.P,U1,53,PC12*%
%TO.N,Temp_SDA*%
X13933700Y-10708700D03*
%TO.P,U1,63,VSS*%
%TO.N,GND*%
X13933700Y-10208700D03*
%TD*%
D18*
%TO.P,C14,2*%
%TO.N,GND*%
X13277700Y-9557700D03*
%TD*%
D23*
%TO.P,D5,1,K*%
%TO.N,led_pin*%
X13963000Y-11524000D03*
%TO.P,D5,2,A*%
%TO.N,Net-(D5-A)*%
X13963000Y-11804000D03*
%TD*%
D24*
%TO.P,J2,5,GND*%
%TO.N,GND*%
X13348700Y-12847700D03*
%TD*%
D15*
%TO.P,R6,2*%
%TO.N,GND*%
X10805700Y-10831488D03*
%TD*%
D25*
%TO.P,D3,2,A*%
%TO.N,GND*%
X11653950Y-10301200D03*
%TD*%
D26*
%TO.P,C1,1*%
%TO.N,VBUS*%
X12130800Y-9170400D03*
%TO.P,C1,2*%
%TO.N,GND*%
X12130800Y-9470400D03*
%TD*%
D27*
%TO.P,U5,1,Rg*%
%TO.N,Net-(Rg1-Pad1)*%
X11513700Y-11516578D03*
%TO.P,U5,4,Vs-*%
%TO.N,GND*%
X11708700Y-11516578D03*
%TO.P,U5,6*%
%TO.N,Net-(C15-Pad1)*%
X11643700Y-11092398D03*
%TO.P,U5,7,Vs+*%
%TO.N,VBUS*%
X11578700Y-11092398D03*
%TO.P,U5,8,Rg*%
%TO.N,Net-(Rg1-Pad2)*%
X11513700Y-11092398D03*
%TD*%
D18*
%TO.P,C8,2*%
%TO.N,GND*%
X12410200Y-10209700D03*
%TD*%
D14*
%TO.P,R11,1*%
%TO.N,oxi_scl*%
X14676200Y-8755100D03*
%TD*%
D28*
%TO.P,J4,1,Pin_1*%
%TO.N,Net-(J4-Pin_1)*%
X11404200Y-12744200D03*
%TD*%
D29*
%TO.P,SW1,1,1*%
%TO.N,GND*%
X12014408Y-9893704D03*
%TO.P,SW1,2,2*%
%TO.N,NRST*%
X12354408Y-9893704D03*
%TD*%
D30*
%TO.P,U8,4,V-*%
%TO.N,GND*%
X11461945Y-10844988D03*
%TD*%
D26*
%TO.P,C2,2*%
%TO.N,GND*%
X12130800Y-8406000D03*
%TD*%
D18*
%TO.P,C4,2*%
%TO.N,GND*%
X12852200Y-9757200D03*
%TD*%
D17*
%TO.P,C13,2*%
%TO.N,GND*%
X13756700Y-9559700D03*
%TD*%
D31*
%TO.P,U2,1,GND*%
%TO.N,GND*%
X11666900Y-9267200D03*
%TO.P,U2,3,VI*%
%TO.N,VBUS*%
X11666900Y-8759200D03*
%TD*%
D18*
%TO.P,C9,2*%
%TO.N,GND*%
X12351200Y-10764700D03*
%TD*%
D32*
%TO.P,C18,1*%
%TO.N,GND*%
X12328200Y-11854700D03*
%TD*%
D15*
%TO.P,R5,2*%
%TO.N,Net-(U7A--)*%
X10572700Y-11586488D03*
%TD*%
D17*
%TO.P,C6,2*%
%TO.N,GND*%
X14159700Y-9931700D03*
%TD*%
D33*
%TO.P,D2,2,A2*%
%TO.N,GND*%
X14319200Y-10724200D03*
%TD*%
D18*
%TO.P,C11,2*%
%TO.N,GND*%
X12699700Y-9369700D03*
%TD*%
D34*
%TO.P,J1,1,Pin_1*%
%TO.N,+3.3VA*%
X14416800Y-11578600D03*
%TO.P,J1,3,Pin_3*%
%TO.N,SWCLK*%
X14816800Y-11578600D03*
%TO.P,J1,4,Pin_4*%
%TO.N,GND*%
X15016800Y-11343600D03*
%TD*%
D33*
%TO.P,D1,1,A1*%
%TO.N,NRST*%
X12545200Y-9685950D03*
%TO.P,D1,2,A2*%
%TO.N,GND*%
X12545200Y-9860950D03*
%TD*%
D14*
%TO.P,R3,1*%
%TO.N,Net-(U6A-+)*%
X11028200Y-11902988D03*
X11028200Y-12067988D03*
%TD*%
D16*
%TO.P,U3,2,SDA/PWM*%
%TO.N,Temp_SDA*%
X12555200Y-11813950D03*
%TO.P,U3,4,VSS*%
%TO.N,GND*%
X12809200Y-12033950D03*
%TD*%
D35*
%TO.P,R16,1*%
%TO.N,Net-(D5-A)*%
X13409000Y-11932000D03*
%TD*%
D32*
%TO.P,C10,2*%
%TO.N,GND*%
X13868200Y-11303200D03*
%TD*%
D30*
%TO.P,U7,3,+*%
%TO.N,Net-(U7A-+)*%
X10793455Y-11112988D03*
%TO.P,U7,4,V-*%
%TO.N,GND*%
X10793455Y-10985988D03*
%TO.P,U7,8,V+*%
%TO.N,VBUS*%
X10268945Y-11366988D03*
%TD*%
%TO.P,U6,3,+*%
%TO.N,Net-(U6A-+)*%
X11214690Y-12037988D03*
%TO.P,U6,4,V-*%
%TO.N,GND*%
X11214690Y-12164988D03*
%TD*%
D36*
%TO.P,U4,2,SCL*%
%TO.N,oxi_scl*%
X14823200Y-8911600D03*
%TO.P,U4,3,SDA*%
%TO.N,oxi_sda*%
X14823200Y-8991600D03*
%TO.P,U4,11,VDD*%
%TO.N,VBUS*%
X15082280Y-9071600D03*
%TO.P,U4,12,GND*%
%TO.N,GND*%
X15082280Y-8991600D03*
%TD*%
D37*
%TO.P,D4,1,K*%
%TO.N,GND*%
X14189700Y-12074700D03*
%TD*%
D38*
%TO.P,Rg1,1*%
%TO.N,Net-(Rg1-Pad1)*%
X12295200Y-11388988D03*
%TO.P,Rg1,2*%
%TO.N,Net-(Rg1-Pad2)*%
X12295200Y-11223988D03*
%TD*%
D18*
%TO.P,C12,1*%
%TO.N,NRST*%
X12747700Y-10018200D03*
%TO.P,C12,2*%
%TO.N,GND*%
X12592700Y-10018200D03*
%TD*%
D39*
%TO.P,J5,2,Pin_2*%
%TO.N,displ_rst*%
X9229200Y-11494200D03*
%TO.P,J5,3,Pin_3*%
%TO.N,displ_dc*%
X9559200Y-11240200D03*
%TO.P,J5,4,Pin_4*%
%TO.N,touch_cs*%
X9229200Y-10986200D03*
%TO.P,J5,5,Pin_5*%
%TO.N,displ_cs*%
X9559200Y-10732200D03*
%TO.P,J5,6,Pin_6*%
%TO.N,displ_mosi*%
X9229200Y-10478200D03*
%TO.P,J5,7,Pin_7*%
%TO.N,touch_mosi*%
X9559200Y-10224200D03*
%TO.P,J5,8,Pin_8*%
%TO.N,displ_sck*%
X9229200Y-9970200D03*
%TO.P,J5,9,Pin_9*%
%TO.N,touch_int*%
X9559200Y-9716200D03*
%TD*%
D40*
%TO.N,VBUS*%
X11602200Y-11786200D03*
D41*
X12002872Y-11016964D03*
D40*
X14575408Y-12882704D03*
%TO.N,GND*%
X12811200Y-11019200D03*
X12150408Y-11508704D03*
X9184408Y-10230704D03*
X14686408Y-13012704D03*
X12084408Y-11264704D03*
X12134008Y-12152704D03*
X12398408Y-11103704D03*
%TO.N,+3.3VA*%
X13780200Y-10481200D03*
%TO.N,+3.3V*%
X12560052Y-9403348D03*
X12180408Y-10119200D03*
X13391200Y-11457200D03*
X13683408Y-11459704D03*
%TO.N,NRST*%
X13221200Y-9802200D03*
%TO.N,displ_led*%
X12684408Y-11509704D03*
X11010200Y-12208200D03*
X12545408Y-11393704D03*
%TO.N,displ_rst*%
X11528200Y-12484200D03*
X12727200Y-11206200D03*
X12829200Y-11340200D03*
X11605633Y-12133634D03*
%TO.N,displ_dc*%
X13185200Y-11363200D03*
X13223200Y-11565200D03*
X13113200Y-11778200D03*
%TO.N,led_pin*%
X13473000Y-11604000D03*
%TO.N,oxi_sda*%
X13638200Y-10665200D03*
D41*
%TO.N,Net-(U7A-+)*%
X11369200Y-11111488D03*
%TO.N,Vref*%
X11456200Y-11346200D03*
X11518200Y-11208200D03*
%TO.N,Net-(U7A--)*%
X10657200Y-11307488D03*
%TD*%
D42*
%TO.N,VBUS*%
X11596200Y-11200858D02*
X11596200Y-11300400D01*
D43*
X14575408Y-12882704D02*
X14575408Y-12258192D01*
D42*
X11578700Y-11092398D02*
X11578700Y-11183358D01*
D43*
X11666900Y-8759200D02*
X11800600Y-8759200D01*
X11578700Y-10987388D02*
X11578700Y-11092398D01*
X10268945Y-11520145D02*
X10530600Y-11781800D01*
X15222512Y-9071600D02*
X15082280Y-9071600D01*
X11938108Y-10952200D02*
X11615365Y-10952200D01*
X10984124Y-11534988D02*
X11040200Y-11534988D01*
X11421408Y-11605408D02*
X11602200Y-11786200D01*
X11421408Y-11605408D02*
X11421408Y-11580408D01*
D42*
X11596200Y-11300400D02*
X11368800Y-11527800D01*
D43*
X10530600Y-11781800D02*
X10737312Y-11781800D01*
X11421408Y-11580408D02*
X11368800Y-11527800D01*
X12130800Y-9170400D02*
X13065800Y-9170400D01*
X13065800Y-9170400D02*
X13614496Y-8621704D01*
X11615365Y-10952200D02*
X11581127Y-10986438D01*
D42*
X11578700Y-11183358D02*
X11596200Y-11200858D01*
D43*
X14929300Y-11207460D02*
X15222512Y-10914248D01*
X11581127Y-10986438D02*
X11579650Y-10986438D01*
X15157408Y-8621704D02*
X15345408Y-8809704D01*
X13614496Y-8621704D02*
X15157408Y-8621704D01*
X14575408Y-12258192D02*
X14929300Y-11904300D01*
X11368800Y-11527800D02*
X11047388Y-11527800D01*
X11579650Y-10986438D02*
X11578700Y-10987388D01*
D42*
X11578700Y-11092398D02*
X11578700Y-11162634D01*
D43*
X15345408Y-8809704D02*
X15345408Y-8948704D01*
X12002872Y-11016964D02*
X11938108Y-10952200D01*
X15345408Y-8948704D02*
X15222512Y-9071600D01*
X14929300Y-11904300D02*
X14929300Y-11207460D01*
D44*
X11800600Y-8759200D02*
X12130800Y-9089400D01*
D43*
X10268945Y-11366988D02*
X10268945Y-11520145D01*
X10737312Y-11781800D02*
X10984124Y-11534988D01*
X12130800Y-9089400D02*
X12130800Y-9170400D01*
X15222512Y-10914248D02*
X15222512Y-9071600D01*
D45*
%TO.N,GND*%
X11214945Y-12164988D02*
X11223700Y-12164988D01*
D42*
X12394700Y-10194200D02*
X12410200Y-10209700D01*
D45*
X10793455Y-10985988D02*
X10790700Y-10985988D01*
X10790700Y-10985988D02*
X10790200Y-10986488D01*
X10805700Y-10831488D02*
X10805700Y-10794988D01*
X10790200Y-10846988D02*
X10805700Y-10831488D01*
D42*
%TO.N,+3.3VA*%
X14315200Y-10952596D02*
X14315200Y-11477000D01*
X13843804Y-10481200D02*
X14315200Y-10952596D01*
X13780200Y-10481200D02*
X13843804Y-10481200D01*
X14315200Y-11477000D02*
X14416800Y-11578600D01*
D43*
%TO.N,+3.3V*%
X13680904Y-11457200D02*
X13391200Y-11457200D01*
X11801408Y-9727704D02*
X11801408Y-9910704D01*
X13683408Y-11459704D02*
X13680904Y-11457200D01*
X12338000Y-9625400D02*
X11903712Y-9625400D01*
X12560052Y-9403348D02*
X12338000Y-9625400D01*
X11903712Y-9625400D02*
X11801408Y-9727704D01*
X11801408Y-9910704D02*
X12009904Y-10119200D01*
X12009904Y-10119200D02*
X12180408Y-10119200D01*
D45*
%TO.N,NRST*%
X12747700Y-9888450D02*
X12707450Y-9848200D01*
D42*
X12380162Y-9685950D02*
X12545200Y-9685950D01*
D45*
X12747700Y-10018200D02*
X12747700Y-9888450D01*
D42*
X13221200Y-9802200D02*
X13175200Y-9848200D01*
X12707450Y-9848200D02*
X12545200Y-9685950D01*
X12367200Y-9904700D02*
X12367200Y-9698912D01*
X13175200Y-9848200D02*
X12707450Y-9848200D01*
X12367200Y-9698912D02*
X12380162Y-9685950D01*
D45*
%TO.N,SWCLK*%
X14666800Y-11728600D02*
X14341800Y-11728600D01*
X14816800Y-11578600D02*
X14666800Y-11728600D01*
X14240408Y-11361408D02*
X14239000Y-11360000D01*
X14240408Y-11627208D02*
X14240408Y-11361408D01*
X14341800Y-11728600D02*
X14240408Y-11627208D01*
D42*
X14239000Y-11360000D02*
X13933700Y-11054700D01*
X13933700Y-11054700D02*
X13933700Y-10908700D01*
X14239000Y-11360000D02*
X14239200Y-11360200D01*
D45*
%TO.N,displ_led*%
X11010200Y-12208200D02*
X11039200Y-12237200D01*
X12499912Y-11439200D02*
X12545408Y-11393704D01*
X12479200Y-11459912D02*
X12499912Y-11439200D01*
X11745200Y-12237200D02*
X12479200Y-11503200D01*
X12916765Y-11509704D02*
X13241200Y-11185268D01*
X12479200Y-11503200D02*
X12479200Y-11459912D01*
X13241200Y-11185268D02*
X13241200Y-11101200D01*
X12684408Y-11509704D02*
X12916765Y-11509704D01*
X11039200Y-12237200D02*
X11745200Y-12237200D01*
%TO.N,displ_rst*%
X12375200Y-11431200D02*
X11671200Y-12135200D01*
X11671200Y-12135200D02*
X11607200Y-12135200D01*
X13141200Y-11101200D02*
X13141200Y-11195200D01*
X10063904Y-12484200D02*
X9229200Y-11649496D01*
X9229200Y-11649496D02*
X9229200Y-11494200D01*
X11528200Y-12484200D02*
X10063904Y-12484200D01*
X13141200Y-11195200D02*
X12996200Y-11340200D01*
X12727200Y-11206200D02*
X12555669Y-11206200D01*
X12996200Y-11340200D02*
X12829200Y-11340200D01*
X12555669Y-11206200D02*
X12375200Y-11386669D01*
X12375200Y-11386669D02*
X12375200Y-11431200D01*
%TO.N,displ_dc*%
X12177950Y-12386200D02*
X12787950Y-11776200D01*
X13223200Y-11565200D02*
X13223200Y-11397200D01*
X12787950Y-11776200D02*
X13117200Y-11776200D01*
X9559200Y-11240200D02*
X10705200Y-12386200D01*
X10705200Y-12386200D02*
X12177950Y-12386200D01*
X13223200Y-11397200D02*
X13189200Y-11363200D01*
%TO.N,touch_cs*%
X13041200Y-11185268D02*
X13041200Y-11101200D01*
X10870200Y-12341200D02*
X11716418Y-12341200D01*
X13015268Y-11211200D02*
X13041200Y-11185268D01*
X9515200Y-10986200D02*
X10870200Y-12341200D01*
X11716418Y-12341200D02*
X12846418Y-11211200D01*
X9229200Y-10986200D02*
X9515200Y-10986200D01*
X12846418Y-11211200D02*
X13015268Y-11211200D01*
%TO.N,displ_cs*%
X12562418Y-11101200D02*
X12991200Y-11101200D01*
X9559200Y-10732200D02*
X12193418Y-10732200D01*
X12193418Y-10732200D02*
X12562418Y-11101200D01*
%TO.N,displ_mosi*%
X12664408Y-10528704D02*
X9385408Y-10528704D01*
X9385408Y-10528704D02*
X9334904Y-10478200D01*
X12798700Y-10458700D02*
X12734412Y-10458700D01*
X12734412Y-10458700D02*
X12664408Y-10528704D01*
X9334904Y-10478200D02*
X9229200Y-10478200D01*
%TO.N,touch_mosi*%
X9713496Y-10069904D02*
X11628608Y-10069904D01*
X9559200Y-10224200D02*
X9713496Y-10069904D01*
X12020408Y-10461704D02*
X12661628Y-10461704D01*
X11628608Y-10069904D02*
X12020408Y-10461704D01*
X12714631Y-10408700D02*
X12798700Y-10408700D01*
X12661628Y-10461704D02*
X12714631Y-10408700D01*
%TO.N,displ_sck*%
X12798700Y-10358700D02*
X12700992Y-10358700D01*
X12650988Y-10408704D02*
X12041008Y-10408704D01*
X11636504Y-10004200D02*
X9263200Y-10004200D01*
X12041008Y-10408704D02*
X11636504Y-10004200D01*
X12700992Y-10358700D02*
X12650988Y-10408704D01*
X9263200Y-10004200D02*
X9229200Y-9970200D01*
%TO.N,touch_int*%
X12110634Y-10363704D02*
X12632348Y-10363704D01*
X12632348Y-10363704D02*
X12687352Y-10308700D01*
X9559200Y-9716200D02*
X11463130Y-9716200D01*
X11463130Y-9716200D02*
X12110634Y-10363704D01*
X12687352Y-10308700D02*
X12798700Y-10308700D01*
%TO.N,led_pin*%
X13883000Y-11604000D02*
X13473000Y-11604000D01*
X13963000Y-11524000D02*
X13883000Y-11604000D01*
D42*
%TO.N,oxi_scl*%
X14676200Y-8755912D02*
X13971412Y-9460700D01*
X14823200Y-8911600D02*
X14823200Y-8902100D01*
X14823200Y-8902100D02*
X14676200Y-8755100D01*
X13971412Y-9460700D02*
X13609412Y-9460700D01*
X13391200Y-9678912D02*
X13391200Y-11101200D01*
X14676200Y-8755100D02*
X14676200Y-8755912D01*
X13609412Y-9460700D02*
X13391200Y-9678912D01*
%TO.N,oxi_sda*%
X13642200Y-9914800D02*
X13642200Y-10665200D01*
X14464900Y-9092100D02*
X13642200Y-9914800D01*
X14674200Y-9092100D02*
X14464900Y-9092100D01*
X14823200Y-8991600D02*
X14774700Y-8991600D01*
X14774700Y-8991600D02*
X14674200Y-9092100D01*
D45*
%TO.N,Net-(Rg1-Pad2)*%
X11878800Y-10793200D02*
X11608100Y-10793200D01*
X11513700Y-10971071D02*
X11513700Y-11092398D01*
X11608100Y-10793200D02*
X11557310Y-10843990D01*
X12295200Y-11209600D02*
X11878800Y-10793200D01*
X12295200Y-11223988D02*
X12295200Y-11209600D01*
X11557310Y-10843990D02*
X11557310Y-10928938D01*
X11555833Y-10928938D02*
X11513700Y-10971071D01*
%TO.N,Temp_SDA*%
X12555200Y-11813950D02*
X12555200Y-11641700D01*
D42*
X12561196Y-11635704D02*
X12672408Y-11635704D01*
D45*
X12555200Y-11641700D02*
X12558700Y-11638200D01*
D42*
X13067630Y-11717704D02*
X13082134Y-11703200D01*
X13830647Y-11706500D02*
X14095353Y-11706500D01*
X13082134Y-11703200D02*
X13827347Y-11703200D01*
X14095353Y-11706500D02*
X14106557Y-11717704D01*
X14152529Y-11344239D02*
X13785700Y-10977411D01*
X14106557Y-11717704D02*
X14152529Y-11717704D01*
X12558700Y-11638200D02*
X12561196Y-11635704D01*
X14152529Y-11717704D02*
X14152529Y-11344239D01*
X13785700Y-10977411D02*
X13785700Y-10856700D01*
X12754408Y-11717704D02*
X13067630Y-11717704D01*
X13785700Y-10856700D02*
X13933700Y-10708700D01*
X12672408Y-11635704D02*
X12754408Y-11717704D01*
X13827347Y-11703200D02*
X13830647Y-11706500D01*
D45*
%TO.N,Net-(Rg1-Pad1)*%
X12138700Y-11388988D02*
X11855200Y-11672488D01*
X12295200Y-11388988D02*
X12138700Y-11388988D01*
X11513200Y-11613488D02*
X11513700Y-11612988D01*
X11572200Y-11672488D02*
X11513200Y-11613488D01*
X11513700Y-11612988D02*
X11513700Y-11516578D01*
X11855200Y-11672488D02*
X11572200Y-11672488D01*
%TO.N,Net-(C15-Pad1)*%
X11771650Y-11386938D02*
X11643700Y-11258988D01*
X11643700Y-11258988D02*
X11643700Y-11092398D01*
X11899000Y-11386938D02*
X11771650Y-11386938D01*
%TO.N,Net-(U7A-+)*%
X11114700Y-11112988D02*
X11115200Y-11113488D01*
X11115200Y-11113488D02*
X11367200Y-11113488D01*
X10793455Y-11112988D02*
X11114700Y-11112988D01*
X11367200Y-11113488D02*
X11369200Y-11111488D01*
D42*
%TO.N,Vref*%
X11518200Y-11291200D02*
X11518200Y-11208200D01*
X11463200Y-11346200D02*
X11518200Y-11291200D01*
X11456200Y-11346200D02*
X11463200Y-11346200D01*
D45*
%TO.N,Net-(U6A-+)*%
X11214945Y-12037988D02*
X11058200Y-12037988D01*
X11028200Y-12067988D02*
X11028200Y-11902988D01*
X11028200Y-11902988D02*
X11028200Y-11711988D01*
X11058200Y-12037988D02*
X11028200Y-12067988D01*
%TO.N,Net-(U7A--)*%
X10572700Y-11391988D02*
X10657200Y-11307488D01*
X10572700Y-11586488D02*
X10572700Y-11391988D01*
%TO.N,Net-(D5-A)*%
X13963000Y-11804000D02*
X13537000Y-11804000D01*
X13537000Y-11804000D02*
X13409000Y-11932000D01*
%TD*%
%TA.AperFunction,Conductor*%
%TO.N,GND*%
G36*
X14865466Y-8000167D02*
G01*
X14868930Y-8003460D01*
X14992007Y-8177025D01*
X14994279Y-8183632D01*
X14992618Y-8190419D01*
X14987961Y-8195011D01*
X14981822Y-8198456D01*
X14960382Y-8215011D01*
X14941581Y-8234512D01*
X14925820Y-8256542D01*
X14913434Y-8280633D01*
X14904688Y-8306269D01*
X14899768Y-8332907D01*
X14898779Y-8359976D01*
X14901741Y-8386902D01*
X14903624Y-8394101D01*
X14908593Y-8413109D01*
X14916211Y-8431037D01*
X14919187Y-8438039D01*
X14933298Y-8461161D01*
X14950625Y-8481982D01*
X14950625Y-8481982D01*
X14970800Y-8500058D01*
X14993391Y-8515004D01*
X15004021Y-8519988D01*
X15017918Y-8526502D01*
X15043832Y-8534299D01*
X15043857Y-8534306D01*
X15070656Y-8538250D01*
X15070656Y-8538250D01*
X15090737Y-8538250D01*
X15090963Y-8538250D01*
X15111216Y-8536768D01*
X15137655Y-8530878D01*
X15162956Y-8521201D01*
X15186578Y-8507944D01*
X15202260Y-8495835D01*
X15208769Y-8493296D01*
X15215617Y-8494679D01*
X15219953Y-8498477D01*
X15351616Y-8684150D01*
X15426101Y-8789189D01*
X15430889Y-8795941D01*
X15433161Y-8802548D01*
X15433173Y-8803196D01*
X15410231Y-12263577D01*
X15408218Y-12270268D01*
X15407150Y-12271674D01*
X15183946Y-12525979D01*
X15178044Y-12529719D01*
X15171057Y-12529674D01*
X15167784Y-12528140D01*
X15164517Y-12525979D01*
X15147009Y-12514396D01*
X15147009Y-12514395D01*
X15122482Y-12502898D01*
X15096544Y-12495094D01*
X15096543Y-12495094D01*
X15069744Y-12491150D01*
X15049437Y-12491150D01*
X15049212Y-12491166D01*
X15049211Y-12491166D01*
X15029184Y-12492632D01*
X15002745Y-12498522D01*
X14977444Y-12508199D01*
X14953822Y-12521456D01*
X14932382Y-12538011D01*
X14913581Y-12557512D01*
X14897820Y-12579542D01*
X14885434Y-12603633D01*
X14876688Y-12629269D01*
X14871768Y-12655907D01*
X14870779Y-12682976D01*
X14873741Y-12709902D01*
X14876367Y-12719944D01*
X14880593Y-12736109D01*
X14890649Y-12759773D01*
X14891187Y-12761039D01*
X14905298Y-12784161D01*
X14922625Y-12804982D01*
X14922685Y-12805035D01*
X14922729Y-12805107D01*
X14923206Y-12805680D01*
X14923126Y-12805746D01*
X14926365Y-12810975D01*
X14926249Y-12817961D01*
X14923730Y-12822451D01*
X14724979Y-13048895D01*
X14719077Y-13052635D01*
X14715472Y-13053113D01*
X10022234Y-12982261D01*
X10015561Y-12980191D01*
X10014975Y-12979778D01*
X9874529Y-12874286D01*
X13038650Y-12874286D01*
X13038695Y-12874656D01*
X13038695Y-12874658D01*
X13040131Y-12886484D01*
X13045948Y-12901822D01*
X13055267Y-12915323D01*
X13067545Y-12926200D01*
X13067545Y-12926200D01*
X13067545Y-12926201D01*
X13082070Y-12933824D01*
X13097998Y-12937750D01*
X13097998Y-12937750D01*
X13114402Y-12937750D01*
X13114402Y-12937750D01*
X13130329Y-12933824D01*
X13144855Y-12926201D01*
X13157133Y-12915323D01*
X13166452Y-12901823D01*
X13172269Y-12886484D01*
X13173750Y-12874286D01*
X13173750Y-12870200D01*
X13276200Y-12870200D01*
X13276200Y-12917152D01*
X13276235Y-12917813D01*
X13276840Y-12923437D01*
X13281865Y-12936909D01*
X13290481Y-12948419D01*
X13301991Y-12957035D01*
X13315463Y-12962060D01*
X13321087Y-12962664D01*
X13321748Y-12962700D01*
X13326200Y-12962700D01*
X13326200Y-12962700D01*
X13371200Y-12962700D01*
X13371200Y-12962700D01*
X13375652Y-12962700D01*
X13376313Y-12962664D01*
X13381937Y-12962060D01*
X13395409Y-12957035D01*
X13406919Y-12948419D01*
X13415535Y-12936909D01*
X13420560Y-12923437D01*
X13421164Y-12917813D01*
X13421200Y-12917152D01*
X13421200Y-12870200D01*
X13371200Y-12870200D01*
X13371200Y-12962700D01*
X13326200Y-12962700D01*
X13326200Y-12870200D01*
X13276200Y-12870200D01*
X13173750Y-12870200D01*
X13173750Y-12811114D01*
X13172842Y-12803636D01*
X13173988Y-12796744D01*
X13178678Y-12791565D01*
X13185424Y-12789744D01*
X13191125Y-12791275D01*
X13204563Y-12798663D01*
X13204563Y-12798663D01*
X13204563Y-12798663D01*
X13220482Y-12802750D01*
X13220482Y-12802750D01*
X13232403Y-12802750D01*
X13232792Y-12802750D01*
X13245006Y-12801207D01*
X13259235Y-12795573D01*
X13266193Y-12794936D01*
X13272391Y-12798161D01*
X13275861Y-12804225D01*
X13276200Y-12807102D01*
X13276200Y-12825200D01*
X13276200Y-12825200D01*
X13326200Y-12825200D01*
X13326200Y-12825200D01*
X13371200Y-12825200D01*
X13371200Y-12825200D01*
X13421200Y-12825200D01*
X13421200Y-12778248D01*
X13421164Y-12777587D01*
X13420560Y-12771963D01*
X13415535Y-12758491D01*
X13406919Y-12746981D01*
X13395409Y-12738365D01*
X13382589Y-12733583D01*
X13663262Y-12733583D01*
X13664294Y-12749986D01*
X13666886Y-12757961D01*
X13669373Y-12765617D01*
X13671400Y-12768811D01*
X13678180Y-12779494D01*
X13684572Y-12785496D01*
X13690161Y-12790745D01*
X13703650Y-12798161D01*
X13704563Y-12798663D01*
X13720482Y-12802750D01*
X13720482Y-12802750D01*
X13732403Y-12802750D01*
X13732792Y-12802750D01*
X13742977Y-12801463D01*
X13745006Y-12801207D01*
X13756279Y-12796744D01*
X13760287Y-12795157D01*
X13765006Y-12791728D01*
X13771587Y-12789380D01*
X13778392Y-12790963D01*
X13783262Y-12795973D01*
X13784649Y-12802821D01*
X13784604Y-12803255D01*
X13783695Y-12810742D01*
X13783695Y-12810744D01*
X13783650Y-12811114D01*
X13783650Y-12874286D01*
X13783695Y-12874656D01*
X13783695Y-12874658D01*
X13785131Y-12886484D01*
X13790948Y-12901822D01*
X13800267Y-12915323D01*
X13812545Y-12926200D01*
X13812545Y-12926200D01*
X13812545Y-12926201D01*
X13827070Y-12933824D01*
X13842998Y-12937750D01*
X13842998Y-12937750D01*
X13859402Y-12937750D01*
X13859402Y-12937750D01*
X13875329Y-12933824D01*
X13889855Y-12926201D01*
X13902133Y-12915323D01*
X13911452Y-12901823D01*
X13917269Y-12886484D01*
X13918750Y-12874286D01*
X13918750Y-12811114D01*
X13917269Y-12798915D01*
X13911452Y-12783577D01*
X13908633Y-12779494D01*
X13902133Y-12770077D01*
X13889855Y-12759199D01*
X13889855Y-12759199D01*
X13889855Y-12759199D01*
X13875329Y-12751576D01*
X13859402Y-12747650D01*
X13842998Y-12747650D01*
X13827070Y-12751576D01*
X13812545Y-12759199D01*
X13812545Y-12759199D01*
X13811212Y-12759899D01*
X13810993Y-12759482D01*
X13807289Y-12761220D01*
X13800364Y-12760298D01*
X13795036Y-12755777D01*
X13792998Y-12749094D01*
X13793217Y-12746642D01*
X13793281Y-12746306D01*
X13794138Y-12741817D01*
X13793106Y-12725414D01*
X13788027Y-12709783D01*
X13780535Y-12697978D01*
X13779220Y-12695906D01*
X13767239Y-12684655D01*
X13752836Y-12676737D01*
X13736918Y-12672650D01*
X13736918Y-12672650D01*
X13724607Y-12672650D01*
X13724222Y-12672699D01*
X13724221Y-12672699D01*
X13712394Y-12674193D01*
X13697113Y-12680243D01*
X13683816Y-12689903D01*
X13673340Y-12702567D01*
X13671331Y-12706838D01*
X13666342Y-12717439D01*
X13664617Y-12726483D01*
X13663262Y-12733583D01*
X13382589Y-12733583D01*
X13381937Y-12733340D01*
X13376313Y-12732735D01*
X13375652Y-12732700D01*
X13371200Y-12732700D01*
X13371200Y-12825200D01*
X13326200Y-12825200D01*
X13326200Y-12732700D01*
X13321748Y-12732700D01*
X13321087Y-12732735D01*
X13315462Y-12733340D01*
X13309765Y-12735465D01*
X13302796Y-12735964D01*
X13296663Y-12732615D01*
X13293315Y-12726483D01*
X13293211Y-12725739D01*
X13290976Y-12718860D01*
X13288027Y-12709783D01*
X13280535Y-12697978D01*
X13279220Y-12695906D01*
X13267239Y-12684655D01*
X13252836Y-12676737D01*
X13236918Y-12672650D01*
X13236918Y-12672650D01*
X13224607Y-12672650D01*
X13224222Y-12672699D01*
X13224221Y-12672699D01*
X13212394Y-12674193D01*
X13197113Y-12680243D01*
X13183816Y-12689903D01*
X13173340Y-12702567D01*
X13171331Y-12706838D01*
X13166342Y-12717439D01*
X13164617Y-12726483D01*
X13163262Y-12733583D01*
X13164173Y-12748060D01*
X13162630Y-12754875D01*
X13157647Y-12759773D01*
X13150807Y-12761199D01*
X13146035Y-12759819D01*
X13139971Y-12756636D01*
X13130329Y-12751576D01*
X13114402Y-12747650D01*
X13097998Y-12747650D01*
X13082070Y-12751576D01*
X13069904Y-12757961D01*
X13067545Y-12759199D01*
X13055267Y-12770077D01*
X13045948Y-12783577D01*
X13040131Y-12798915D01*
X13038695Y-12810742D01*
X13038695Y-12810743D01*
X13038650Y-12811114D01*
X13038650Y-12874286D01*
X9874529Y-12874286D01*
X9817134Y-12831175D01*
X11299150Y-12831175D01*
X11300313Y-12837023D01*
X11304745Y-12843655D01*
X11311377Y-12848087D01*
X11317225Y-12849250D01*
X11317225Y-12849250D01*
X11491175Y-12849250D01*
X11494099Y-12848668D01*
X11497023Y-12848087D01*
X11503655Y-12843655D01*
X11508087Y-12837023D01*
X11509250Y-12831175D01*
X11509250Y-12657225D01*
X11508087Y-12651377D01*
X11507193Y-12650039D01*
X11503655Y-12644745D01*
X11497023Y-12640313D01*
X11491175Y-12639150D01*
X11491175Y-12639150D01*
X11317225Y-12639150D01*
X11317225Y-12639150D01*
X11311377Y-12640313D01*
X11304745Y-12644745D01*
X11300313Y-12651377D01*
X11299150Y-12657225D01*
X11299150Y-12831175D01*
X9817134Y-12831175D01*
X9701864Y-12744593D01*
X10703767Y-12744593D01*
X10704764Y-12750250D01*
X10706814Y-12761871D01*
X10710353Y-12770077D01*
X10713762Y-12777980D01*
X10724239Y-12792053D01*
X10737678Y-12803330D01*
X10737678Y-12803330D01*
X10737679Y-12803330D01*
X10753357Y-12811204D01*
X10753357Y-12811204D01*
X10753357Y-12811204D01*
X10770428Y-12815250D01*
X10770428Y-12815250D01*
X10783211Y-12815250D01*
X10783571Y-12815250D01*
X10783929Y-12815208D01*
X10783930Y-12815208D01*
X10788956Y-12814620D01*
X10796626Y-12813724D01*
X10813112Y-12807724D01*
X10827770Y-12798083D01*
X10839809Y-12785322D01*
X10848581Y-12770128D01*
X10853613Y-12753321D01*
X10854633Y-12735806D01*
X10851587Y-12718529D01*
X10844638Y-12702420D01*
X10834161Y-12688347D01*
X10834161Y-12688347D01*
X10820722Y-12677070D01*
X10805043Y-12669196D01*
X10787972Y-12665150D01*
X10787972Y-12665150D01*
X10774829Y-12665150D01*
X10774473Y-12665192D01*
X10774470Y-12665192D01*
X10761775Y-12666676D01*
X10745288Y-12672676D01*
X10730630Y-12682317D01*
X10718591Y-12695078D01*
X10709819Y-12710272D01*
X10709284Y-12712058D01*
X10704787Y-12727079D01*
X10704686Y-12728816D01*
X10703767Y-12744593D01*
X9701864Y-12744593D01*
X9658228Y-12711817D01*
X9654050Y-12706217D01*
X9653563Y-12699247D01*
X9656748Y-12693296D01*
X9665819Y-12683888D01*
X9681580Y-12661858D01*
X9693966Y-12637767D01*
X9702712Y-12612130D01*
X9707632Y-12585493D01*
X9708621Y-12558423D01*
X9705659Y-12531498D01*
X9698807Y-12505291D01*
X9688213Y-12480361D01*
X9682089Y-12470326D01*
X9674102Y-12457239D01*
X9656775Y-12436418D01*
X9646276Y-12427011D01*
X9636600Y-12418342D01*
X9614009Y-12403396D01*
X9614009Y-12403395D01*
X9589482Y-12391898D01*
X9563544Y-12384094D01*
X9563543Y-12384094D01*
X9536744Y-12380150D01*
X9516437Y-12380150D01*
X9516212Y-12380166D01*
X9516211Y-12380166D01*
X9496184Y-12381632D01*
X9469745Y-12387522D01*
X9444444Y-12397199D01*
X9420822Y-12410456D01*
X9399383Y-12427011D01*
X9380581Y-12446512D01*
X9364820Y-12468542D01*
X9363051Y-12471982D01*
X9358235Y-12477044D01*
X9351447Y-12478699D01*
X9344842Y-12476421D01*
X9344576Y-12476227D01*
X9131128Y-12315901D01*
X9126949Y-12310301D01*
X9126175Y-12306037D01*
X9123188Y-11576701D01*
X9125129Y-11569989D01*
X9130390Y-11565392D01*
X9135587Y-11564250D01*
X9184250Y-11564250D01*
X9190954Y-11566218D01*
X9195529Y-11571499D01*
X9196650Y-11576650D01*
X9196650Y-11647533D01*
X9196603Y-11648614D01*
X9196274Y-11652377D01*
X9197251Y-11656025D01*
X9197485Y-11657081D01*
X9198160Y-11660907D01*
X9199183Y-11663376D01*
X9199245Y-11663464D01*
X9201411Y-11666559D01*
X9201992Y-11667469D01*
X9203146Y-11669469D01*
X9203881Y-11670741D01*
X9205270Y-11671907D01*
X9206774Y-11673169D01*
X9207572Y-11673900D01*
X10039499Y-12505828D01*
X10040230Y-12506625D01*
X10042659Y-12509519D01*
X10045064Y-12510908D01*
X10045930Y-12511408D01*
X10046842Y-12511989D01*
X10049936Y-12514155D01*
X10049936Y-12514155D01*
X10050024Y-12514217D01*
X10052493Y-12515240D01*
X10052600Y-12515259D01*
X10052600Y-12515259D01*
X10056318Y-12515914D01*
X10057374Y-12516148D01*
X10061023Y-12517126D01*
X10064786Y-12516797D01*
X10065867Y-12516750D01*
X11471370Y-12516750D01*
X11478074Y-12518718D01*
X11481208Y-12521601D01*
X11485372Y-12527028D01*
X11497916Y-12536654D01*
X11512524Y-12542704D01*
X11528200Y-12544768D01*
X11543876Y-12542704D01*
X11558484Y-12536654D01*
X11571028Y-12527028D01*
X11580654Y-12514484D01*
X11586704Y-12499876D01*
X11586847Y-12498795D01*
X13038650Y-12498795D01*
X13038707Y-12499213D01*
X13038708Y-12499215D01*
X13039543Y-12505291D01*
X13040123Y-12509511D01*
X13045878Y-12522761D01*
X13050255Y-12528140D01*
X13054995Y-12533967D01*
X13066796Y-12542297D01*
X13066796Y-12542297D01*
X13080408Y-12547135D01*
X13094820Y-12548120D01*
X13108963Y-12545181D01*
X13121789Y-12538535D01*
X13132347Y-12528675D01*
X13135944Y-12522761D01*
X13139853Y-12516333D01*
X13142946Y-12505291D01*
X13143750Y-12502423D01*
X13143750Y-12498795D01*
X13813650Y-12498795D01*
X13813707Y-12499213D01*
X13813708Y-12499215D01*
X13814543Y-12505291D01*
X13815123Y-12509511D01*
X13820878Y-12522761D01*
X13825255Y-12528140D01*
X13829995Y-12533967D01*
X13841796Y-12542297D01*
X13841796Y-12542297D01*
X13855408Y-12547135D01*
X13869820Y-12548120D01*
X13883963Y-12545181D01*
X13896789Y-12538535D01*
X13907347Y-12528675D01*
X13910944Y-12522761D01*
X13914853Y-12516333D01*
X13917946Y-12505291D01*
X13918750Y-12502423D01*
X13918750Y-12426605D01*
X13917277Y-12415889D01*
X13911522Y-12402639D01*
X13905919Y-12395752D01*
X13902405Y-12391433D01*
X13890604Y-12383103D01*
X13890604Y-12383103D01*
X13876992Y-12378265D01*
X13876992Y-12378265D01*
X13876992Y-12378265D01*
X13862580Y-12377280D01*
X13862580Y-12377280D01*
X13857837Y-12378265D01*
X13848436Y-12380219D01*
X13835610Y-12386865D01*
X13825053Y-12396724D01*
X13817547Y-12409067D01*
X13813846Y-12422278D01*
X13813650Y-12422977D01*
X13813650Y-12498795D01*
X13143750Y-12498795D01*
X13143750Y-12426605D01*
X13142277Y-12415889D01*
X13136522Y-12402639D01*
X13130919Y-12395752D01*
X13127405Y-12391433D01*
X13115604Y-12383103D01*
X13115604Y-12383103D01*
X13101992Y-12378265D01*
X13101992Y-12378265D01*
X13101992Y-12378265D01*
X13087580Y-12377280D01*
X13087580Y-12377280D01*
X13082837Y-12378265D01*
X13073436Y-12380219D01*
X13060610Y-12386865D01*
X13050053Y-12396724D01*
X13042547Y-12409067D01*
X13038846Y-12422278D01*
X13038650Y-12422977D01*
X13038650Y-12498795D01*
X11586847Y-12498795D01*
X11588768Y-12484200D01*
X11586704Y-12468524D01*
X11580654Y-12453916D01*
X11571028Y-12441372D01*
X11570527Y-12440987D01*
X11566407Y-12435345D01*
X11565992Y-12428370D01*
X11569413Y-12422278D01*
X11575585Y-12419003D01*
X11578076Y-12418750D01*
X12175987Y-12418750D01*
X12177068Y-12418797D01*
X12180831Y-12419126D01*
X12184482Y-12418148D01*
X12185533Y-12417915D01*
X12189254Y-12417259D01*
X12189255Y-12417259D01*
X12189361Y-12417240D01*
X12191830Y-12416217D01*
X12191918Y-12416155D01*
X12191918Y-12416155D01*
X12195012Y-12413989D01*
X12195922Y-12413409D01*
X12199195Y-12411519D01*
X12201625Y-12408624D01*
X12202354Y-12407829D01*
X12551232Y-12058950D01*
X12689200Y-12058950D01*
X12689200Y-12098402D01*
X12689235Y-12099063D01*
X12689840Y-12104687D01*
X12694865Y-12118159D01*
X12703481Y-12129669D01*
X12714991Y-12138285D01*
X12728463Y-12143310D01*
X12734087Y-12143914D01*
X12734748Y-12143950D01*
X12784200Y-12143950D01*
X12784200Y-12058950D01*
X12834200Y-12058950D01*
X12834200Y-12143950D01*
X12883652Y-12143950D01*
X12884313Y-12143914D01*
X12889937Y-12143310D01*
X12903409Y-12138285D01*
X12914919Y-12129669D01*
X12923535Y-12118159D01*
X12928560Y-12104687D01*
X12929096Y-12099700D01*
X14007200Y-12099700D01*
X14007200Y-12121883D01*
X14007232Y-12122511D01*
X14008249Y-12132469D01*
X14013764Y-12149112D01*
X14022968Y-12164034D01*
X14035365Y-12176432D01*
X14050288Y-12185636D01*
X14066930Y-12191151D01*
X14076889Y-12192168D01*
X14077517Y-12192200D01*
X14164700Y-12192200D01*
X14164700Y-12192200D01*
X14164700Y-12099700D01*
X14214700Y-12099700D01*
X14214700Y-12192200D01*
X14301883Y-12192200D01*
X14302511Y-12192168D01*
X14312469Y-12191151D01*
X14329112Y-12185636D01*
X14344034Y-12176432D01*
X14356432Y-12164034D01*
X14365636Y-12149112D01*
X14371151Y-12132470D01*
X14372168Y-12122511D01*
X14372200Y-12121883D01*
X14372200Y-12099700D01*
X14214700Y-12099700D01*
X14164700Y-12099700D01*
X14007200Y-12099700D01*
X12929096Y-12099700D01*
X12929164Y-12099063D01*
X12929200Y-12098402D01*
X12929200Y-12058950D01*
X12834200Y-12058950D01*
X12784200Y-12058950D01*
X12689200Y-12058950D01*
X12551232Y-12058950D01*
X12560482Y-12049700D01*
X14007200Y-12049700D01*
X14164700Y-12049700D01*
X14164700Y-11957200D01*
X14214700Y-11957200D01*
X14214700Y-12049700D01*
X14372200Y-12049700D01*
X14372200Y-12027517D01*
X14372168Y-12026889D01*
X14371151Y-12016930D01*
X14365636Y-12000288D01*
X14356432Y-11985365D01*
X14344034Y-11972968D01*
X14329112Y-11963764D01*
X14312470Y-11958249D01*
X14302511Y-11957232D01*
X14301883Y-11957200D01*
X14214700Y-11957200D01*
X14164700Y-11957200D01*
X14077517Y-11957200D01*
X14076889Y-11957232D01*
X14066930Y-11958249D01*
X14050288Y-11963764D01*
X14035365Y-11972968D01*
X14022968Y-11985365D01*
X14013764Y-12000288D01*
X14008249Y-12016930D01*
X14007232Y-12026889D01*
X14007200Y-12027517D01*
X14007200Y-12049700D01*
X12560482Y-12049700D01*
X12675035Y-11935147D01*
X12681167Y-11931799D01*
X12688136Y-11932297D01*
X12693730Y-11936485D01*
X12696171Y-11943031D01*
X12695421Y-11948249D01*
X12689840Y-11963213D01*
X12689235Y-11968837D01*
X12689200Y-11969498D01*
X12689200Y-12008950D01*
X12784200Y-12008950D01*
X12784200Y-11923950D01*
X12834200Y-11923950D01*
X12834200Y-12008950D01*
X12929200Y-12008950D01*
X12929200Y-11969498D01*
X12929164Y-11968837D01*
X12928560Y-11963213D01*
X12923535Y-11949741D01*
X12914919Y-11938231D01*
X12903409Y-11929615D01*
X12889937Y-11924590D01*
X12884313Y-11923985D01*
X12883652Y-11923950D01*
X12834200Y-11923950D01*
X12784200Y-11923950D01*
X12734748Y-11923950D01*
X12734087Y-11923985D01*
X12728463Y-11924590D01*
X12713499Y-11930171D01*
X12706530Y-11930670D01*
X12700398Y-11927321D01*
X12697049Y-11921189D01*
X12697547Y-11914220D01*
X12700397Y-11909785D01*
X12797801Y-11812382D01*
X12803933Y-11809033D01*
X12806569Y-11808750D01*
X13054835Y-11808750D01*
X13061539Y-11810718D01*
X13064673Y-11813601D01*
X13070372Y-11821028D01*
X13079045Y-11827683D01*
X13082916Y-11830654D01*
X13097524Y-11836704D01*
X13111136Y-11838496D01*
X13113200Y-11838768D01*
X13113200Y-11838768D01*
X13113200Y-11838768D01*
X13128876Y-11836704D01*
X13143484Y-11830654D01*
X13156028Y-11821028D01*
X13165654Y-11808484D01*
X13171704Y-11793876D01*
X13173768Y-11778200D01*
X13171704Y-11762524D01*
X13169843Y-11758030D01*
X13168752Y-11755395D01*
X13168005Y-11748448D01*
X13171132Y-11742200D01*
X13177141Y-11738635D01*
X13180208Y-11738250D01*
X13800181Y-11738250D01*
X13806884Y-11740218D01*
X13811460Y-11745499D01*
X13812454Y-11752415D01*
X13811885Y-11754745D01*
X13811475Y-11755916D01*
X13810735Y-11758030D01*
X13810531Y-11760208D01*
X13807945Y-11766698D01*
X13802261Y-11770761D01*
X13798185Y-11771450D01*
X13538962Y-11771450D01*
X13537881Y-11771403D01*
X13534119Y-11771074D01*
X13530471Y-11772051D01*
X13529415Y-11772285D01*
X13528281Y-11772485D01*
X13525695Y-11772941D01*
X13525695Y-11772941D01*
X13525590Y-11772960D01*
X13523119Y-11773983D01*
X13519938Y-11776211D01*
X13519026Y-11776791D01*
X13515754Y-11778680D01*
X13513326Y-11781574D01*
X13512596Y-11782371D01*
X13456649Y-11838318D01*
X13450517Y-11841667D01*
X13447881Y-11841950D01*
X13368573Y-11841950D01*
X13368286Y-11841977D01*
X13368285Y-11841977D01*
X13365530Y-11842235D01*
X13352711Y-11846721D01*
X13341785Y-11854785D01*
X13333721Y-11865711D01*
X13329235Y-11878530D01*
X13328977Y-11881285D01*
X13328977Y-11881286D01*
X13328950Y-11881573D01*
X13328950Y-11982427D01*
X13328977Y-11982714D01*
X13328977Y-11982715D01*
X13329235Y-11985470D01*
X13333721Y-11998288D01*
X13341785Y-12009215D01*
X13352711Y-12017279D01*
X13352712Y-12017279D01*
X13365530Y-12021765D01*
X13368573Y-12022050D01*
X13368863Y-12022050D01*
X13449137Y-12022050D01*
X13449427Y-12022050D01*
X13452470Y-12021765D01*
X13465288Y-12017279D01*
X13465288Y-12017279D01*
X13465288Y-12017279D01*
X13476215Y-12009215D01*
X13484279Y-11998288D01*
X13484279Y-11998288D01*
X13488765Y-11985470D01*
X13489050Y-11982427D01*
X13489050Y-11903119D01*
X13491018Y-11896415D01*
X13492682Y-11894351D01*
X13546851Y-11840182D01*
X13552983Y-11836833D01*
X13555619Y-11836550D01*
X13798185Y-11836550D01*
X13804889Y-11838518D01*
X13809465Y-11843799D01*
X13810531Y-11847792D01*
X13810735Y-11849970D01*
X13815221Y-11862788D01*
X13823285Y-11873715D01*
X13834211Y-11881779D01*
X13835062Y-11882077D01*
X13847030Y-11886265D01*
X13850073Y-11886550D01*
X13850363Y-11886550D01*
X14075637Y-11886550D01*
X14075927Y-11886550D01*
X14078970Y-11886265D01*
X14091788Y-11881779D01*
X14091788Y-11881779D01*
X14091788Y-11881779D01*
X14102715Y-11873715D01*
X14110779Y-11862788D01*
X14112051Y-11859154D01*
X14115265Y-11849970D01*
X14115550Y-11846927D01*
X14115550Y-11765154D01*
X14117518Y-11758450D01*
X14122799Y-11753874D01*
X14127950Y-11752754D01*
X14150566Y-11752754D01*
X14151590Y-11752796D01*
X14155463Y-11753117D01*
X14159232Y-11752162D01*
X14160232Y-11751953D01*
X14164067Y-11751313D01*
X14164067Y-11751313D01*
X14164106Y-11751306D01*
X14166769Y-11750267D01*
X14166802Y-11750245D01*
X14166803Y-11750245D01*
X14170057Y-11748119D01*
X14170936Y-11747595D01*
X14174354Y-11745746D01*
X14174354Y-11745746D01*
X14174390Y-11745726D01*
X14176571Y-11743879D01*
X14176595Y-11743848D01*
X14176595Y-11743848D01*
X14178982Y-11740781D01*
X14179644Y-11739999D01*
X14182277Y-11737139D01*
X14182277Y-11737139D01*
X14182304Y-11737110D01*
X14183767Y-11734654D01*
X14183780Y-11734617D01*
X14183780Y-11734616D01*
X14185042Y-11730940D01*
X14185415Y-11729986D01*
X14185894Y-11728894D01*
X14186976Y-11726427D01*
X14186976Y-11726427D01*
X14186992Y-11726390D01*
X14187579Y-11723593D01*
X14187579Y-11719666D01*
X14187621Y-11718642D01*
X14187910Y-11715150D01*
X14187942Y-11714769D01*
X14187942Y-11714769D01*
X14187945Y-11714730D01*
X14187579Y-11711790D01*
X14187579Y-11647837D01*
X14189547Y-11641133D01*
X14194827Y-11636557D01*
X14201743Y-11635563D01*
X14208099Y-11638465D01*
X14210136Y-11640724D01*
X14212618Y-11644269D01*
X14213199Y-11645182D01*
X14215089Y-11648453D01*
X14217982Y-11650881D01*
X14218780Y-11651612D01*
X14317395Y-11750228D01*
X14318126Y-11751026D01*
X14318362Y-11751306D01*
X14320554Y-11753919D01*
X14321214Y-11754300D01*
X14323826Y-11755808D01*
X14324738Y-11756389D01*
X14327919Y-11758617D01*
X14330390Y-11759640D01*
X14330495Y-11759659D01*
X14330495Y-11759659D01*
X14334214Y-11760314D01*
X14335270Y-11760548D01*
X14338919Y-11761526D01*
X14338919Y-11761526D01*
X14338919Y-11761526D01*
X14341009Y-11761343D01*
X14342681Y-11761197D01*
X14343762Y-11761150D01*
X14664837Y-11761150D01*
X14665918Y-11761197D01*
X14669681Y-11761526D01*
X14673332Y-11760548D01*
X14674383Y-11760315D01*
X14678104Y-11759659D01*
X14678105Y-11759659D01*
X14678211Y-11759640D01*
X14680680Y-11758617D01*
X14680768Y-11758555D01*
X14680768Y-11758555D01*
X14683862Y-11756389D01*
X14684772Y-11755809D01*
X14688045Y-11753919D01*
X14690475Y-11751024D01*
X14691203Y-11750229D01*
X14737558Y-11703874D01*
X14743690Y-11700526D01*
X14750659Y-11701024D01*
X14756253Y-11705212D01*
X14756636Y-11705753D01*
X14759845Y-11710555D01*
X14766477Y-11714987D01*
X14772325Y-11716150D01*
X14772325Y-11716150D01*
X14861275Y-11716150D01*
X14863087Y-11715789D01*
X14867123Y-11714987D01*
X14867123Y-11714987D01*
X14869431Y-11714528D01*
X14876390Y-11715150D01*
X14881908Y-11719436D01*
X14884232Y-11726025D01*
X14884250Y-11726689D01*
X14884250Y-11880503D01*
X14882281Y-11887207D01*
X14880618Y-11889271D01*
X14545834Y-12224055D01*
X14544798Y-12224981D01*
X14542011Y-12227204D01*
X14538790Y-12231928D01*
X14538522Y-12232305D01*
X14534771Y-12237388D01*
X14534538Y-12237850D01*
X14532675Y-12243889D01*
X14532530Y-12244329D01*
X14530445Y-12250289D01*
X14530358Y-12250801D01*
X14530358Y-12257118D01*
X14530349Y-12257582D01*
X14530113Y-12263895D01*
X14530358Y-12265755D01*
X14530358Y-12838562D01*
X14528389Y-12845266D01*
X14527796Y-12846110D01*
X14522954Y-12852420D01*
X14516904Y-12867028D01*
X14514840Y-12882704D01*
X14516904Y-12898380D01*
X14522954Y-12912988D01*
X14532580Y-12925532D01*
X14539382Y-12930752D01*
X14545124Y-12935157D01*
X14559732Y-12941208D01*
X14573344Y-12943000D01*
X14575408Y-12943272D01*
X14575408Y-12943272D01*
X14575408Y-12943272D01*
X14591084Y-12941208D01*
X14605692Y-12935157D01*
X14618236Y-12925532D01*
X14627862Y-12912988D01*
X14633912Y-12898380D01*
X14635976Y-12882704D01*
X14633912Y-12867028D01*
X14627862Y-12852420D01*
X14625623Y-12849502D01*
X14623020Y-12846110D01*
X14620501Y-12839594D01*
X14620458Y-12838562D01*
X14620458Y-12281988D01*
X14622426Y-12275284D01*
X14624089Y-12273221D01*
X14958874Y-11938436D01*
X14959909Y-11937511D01*
X14962697Y-11935288D01*
X14965919Y-11930562D01*
X14966186Y-11930186D01*
X14969579Y-11925588D01*
X14969579Y-11925588D01*
X14969938Y-11925102D01*
X14970169Y-11924644D01*
X14970347Y-11924067D01*
X14970347Y-11924067D01*
X14972033Y-11918601D01*
X14972177Y-11918163D01*
X14974065Y-11912770D01*
X14974065Y-11912769D01*
X14974264Y-11912201D01*
X14974350Y-11911693D01*
X14974350Y-11905375D01*
X14974359Y-11904912D01*
X14974595Y-11898597D01*
X14974350Y-11896736D01*
X14974350Y-11523500D01*
X14976318Y-11516796D01*
X14981599Y-11512221D01*
X14986750Y-11511100D01*
X14991800Y-11511100D01*
X14991800Y-11368600D01*
X15041800Y-11368600D01*
X15041800Y-11511100D01*
X15063752Y-11511100D01*
X15064413Y-11511064D01*
X15070037Y-11510460D01*
X15083509Y-11505435D01*
X15095019Y-11496819D01*
X15103635Y-11485309D01*
X15108660Y-11471837D01*
X15109264Y-11466213D01*
X15109300Y-11465552D01*
X15109300Y-11368600D01*
X15041800Y-11368600D01*
X14991800Y-11368600D01*
X14991800Y-11331000D01*
X14993768Y-11324296D01*
X14999049Y-11319721D01*
X15004200Y-11318600D01*
X15109300Y-11318600D01*
X15109300Y-11221648D01*
X15109264Y-11220987D01*
X15108660Y-11215363D01*
X15103635Y-11201891D01*
X15095019Y-11190381D01*
X15083509Y-11181765D01*
X15070037Y-11176740D01*
X15064413Y-11176135D01*
X15063752Y-11176100D01*
X15054307Y-11176100D01*
X15047603Y-11174132D01*
X15043027Y-11168851D01*
X15042033Y-11161935D01*
X15044936Y-11155580D01*
X15045539Y-11154932D01*
X15096367Y-11104104D01*
X15252086Y-10948384D01*
X15253121Y-10947459D01*
X15255909Y-10945236D01*
X15259131Y-10940510D01*
X15259398Y-10940134D01*
X15262791Y-10935537D01*
X15262791Y-10935536D01*
X15263150Y-10935050D01*
X15263381Y-10934593D01*
X15263559Y-10934016D01*
X15263559Y-10934016D01*
X15265245Y-10928550D01*
X15265389Y-10928111D01*
X15265555Y-10927637D01*
X15267277Y-10922718D01*
X15267277Y-10922718D01*
X15267476Y-10922149D01*
X15267562Y-10921642D01*
X15267562Y-10915324D01*
X15267571Y-10914860D01*
X15267807Y-10908546D01*
X15267562Y-10906685D01*
X15267562Y-9095396D01*
X15269530Y-9088692D01*
X15271193Y-9086629D01*
X15374982Y-8982840D01*
X15376017Y-8981915D01*
X15378805Y-8979692D01*
X15382027Y-8974966D01*
X15382294Y-8974590D01*
X15385687Y-8969992D01*
X15385687Y-8969992D01*
X15386046Y-8969506D01*
X15386277Y-8969048D01*
X15386455Y-8968471D01*
X15386455Y-8968471D01*
X15388141Y-8963005D01*
X15388285Y-8962567D01*
X15388517Y-8961905D01*
X15390173Y-8957174D01*
X15390173Y-8957174D01*
X15390372Y-8956605D01*
X15390458Y-8956097D01*
X15390458Y-8949778D01*
X15390467Y-8949314D01*
X15390703Y-8943001D01*
X15390458Y-8941140D01*
X15390458Y-8812930D01*
X15390536Y-8811542D01*
X15390935Y-8808001D01*
X15390026Y-8803196D01*
X15389871Y-8802380D01*
X15389794Y-8801926D01*
X15389153Y-8797670D01*
X15388943Y-8796275D01*
X15388943Y-8796275D01*
X15388853Y-8795678D01*
X15388692Y-8795190D01*
X15387303Y-8792561D01*
X15385738Y-8789600D01*
X15385532Y-8789193D01*
X15383050Y-8784040D01*
X15383050Y-8784040D01*
X15382789Y-8783496D01*
X15382491Y-8783076D01*
X15378024Y-8778610D01*
X15377703Y-8778276D01*
X15373813Y-8774085D01*
X15373813Y-8774084D01*
X15373404Y-8773643D01*
X15371915Y-8772500D01*
X15191545Y-8592130D01*
X15190618Y-8591094D01*
X15188396Y-8588307D01*
X15183669Y-8585084D01*
X15183295Y-8584819D01*
X15183029Y-8584623D01*
X15181952Y-8583827D01*
X15178211Y-8581067D01*
X15177750Y-8580834D01*
X15171713Y-8578972D01*
X15171272Y-8578827D01*
X15170914Y-8578702D01*
X15165878Y-8576939D01*
X15165878Y-8576939D01*
X15165310Y-8576741D01*
X15164799Y-8576654D01*
X15164198Y-8576654D01*
X15158482Y-8576654D01*
X15158018Y-8576645D01*
X15151705Y-8576409D01*
X15149844Y-8576654D01*
X13617722Y-8576654D01*
X13616334Y-8576576D01*
X13612792Y-8576177D01*
X13607174Y-8577240D01*
X13606718Y-8577317D01*
X13600472Y-8578259D01*
X13599980Y-8578421D01*
X13594393Y-8581374D01*
X13593981Y-8581581D01*
X13590597Y-8583211D01*
X13588291Y-8584322D01*
X13587867Y-8584623D01*
X13583402Y-8589088D01*
X13583068Y-8589409D01*
X13578435Y-8593708D01*
X13577293Y-8595197D01*
X13050772Y-9121718D01*
X13044639Y-9125067D01*
X13042003Y-9125350D01*
X12243250Y-9125350D01*
X12236546Y-9123382D01*
X12231971Y-9118101D01*
X12230850Y-9112950D01*
X12230850Y-9058425D01*
X12229687Y-9052577D01*
X12225255Y-9045945D01*
X12218623Y-9041513D01*
X12212775Y-9040350D01*
X12212775Y-9040350D01*
X12164739Y-9040350D01*
X12158035Y-9038382D01*
X12155970Y-9036718D01*
X11920582Y-8801329D01*
X11917233Y-8795197D01*
X11916950Y-8792561D01*
X11916950Y-8724063D01*
X11916950Y-8723773D01*
X11916665Y-8720730D01*
X11912179Y-8707912D01*
X11912179Y-8707912D01*
X11904115Y-8696985D01*
X11893188Y-8688921D01*
X11880370Y-8684435D01*
X11877615Y-8684177D01*
X11877614Y-8684177D01*
X11877327Y-8684150D01*
X11456473Y-8684150D01*
X11456186Y-8684177D01*
X11456185Y-8684177D01*
X11453430Y-8684435D01*
X11440611Y-8688921D01*
X11429685Y-8696985D01*
X11421621Y-8707912D01*
X11417135Y-8720730D01*
X11416877Y-8723485D01*
X11416877Y-8723486D01*
X11416850Y-8723773D01*
X11416850Y-8794627D01*
X11416877Y-8794914D01*
X11416877Y-8794915D01*
X11417135Y-8797670D01*
X11421621Y-8810488D01*
X11429685Y-8821415D01*
X11440611Y-8829479D01*
X11440612Y-8829479D01*
X11453430Y-8833965D01*
X11456473Y-8834250D01*
X11792661Y-8834250D01*
X11799365Y-8836219D01*
X11801429Y-8837882D01*
X12027118Y-9063571D01*
X12030466Y-9069703D01*
X12030750Y-9072339D01*
X12030750Y-9282375D01*
X12031913Y-9288223D01*
X12037037Y-9295891D01*
X12039124Y-9302558D01*
X12037276Y-9309296D01*
X12032078Y-9313965D01*
X12031060Y-9314398D01*
X12026591Y-9316065D01*
X12015081Y-9324681D01*
X12006465Y-9336191D01*
X12001440Y-9349663D01*
X12000835Y-9355287D01*
X12000800Y-9355948D01*
X12000800Y-9445400D01*
X12260800Y-9445400D01*
X12260800Y-9355948D01*
X12260764Y-9355287D01*
X12260160Y-9349663D01*
X12255135Y-9336191D01*
X12246519Y-9324681D01*
X12235009Y-9316065D01*
X12230540Y-9314398D01*
X12224947Y-9310211D01*
X12222505Y-9303664D01*
X12223990Y-9296837D01*
X12224563Y-9295891D01*
X12225255Y-9294855D01*
X12225255Y-9294855D01*
X12229687Y-9288223D01*
X12230850Y-9282375D01*
X12230850Y-9227850D01*
X12232818Y-9221146D01*
X12238099Y-9216571D01*
X12243250Y-9215450D01*
X13062574Y-9215450D01*
X13063962Y-9215528D01*
X13067503Y-9215927D01*
X13067503Y-9215927D01*
X13067503Y-9215927D01*
X13073123Y-9214864D01*
X13073573Y-9214787D01*
X13079229Y-9213935D01*
X13079229Y-9213935D01*
X13079827Y-9213845D01*
X13080313Y-9213685D01*
X13080847Y-9213402D01*
X13080847Y-9213402D01*
X13085904Y-9210729D01*
X13086314Y-9210523D01*
X13091464Y-9208043D01*
X13091464Y-9208042D01*
X13092008Y-9207781D01*
X13092427Y-9207483D01*
X13092853Y-9207057D01*
X13092854Y-9207057D01*
X13096900Y-9203010D01*
X13097226Y-9202696D01*
X13099377Y-9200700D01*
X13262200Y-9200700D01*
X13262200Y-9240152D01*
X13262235Y-9240813D01*
X13262840Y-9246437D01*
X13267865Y-9259909D01*
X13276481Y-9271419D01*
X13287991Y-9280035D01*
X13301463Y-9285060D01*
X13307087Y-9285665D01*
X13307748Y-9285700D01*
X13357200Y-9285700D01*
X13357200Y-9200700D01*
X13407200Y-9200700D01*
X13407200Y-9285700D01*
X13456652Y-9285700D01*
X13457313Y-9285665D01*
X13462937Y-9285060D01*
X13476409Y-9280035D01*
X13486996Y-9272110D01*
X13493542Y-9269668D01*
X13500369Y-9271153D01*
X13505310Y-9276094D01*
X13506795Y-9282921D01*
X13506045Y-9286370D01*
X13502840Y-9294963D01*
X13502235Y-9300587D01*
X13502200Y-9301248D01*
X13502200Y-9340700D01*
X13597200Y-9340700D01*
X13597200Y-9255700D01*
X13647200Y-9255700D01*
X13647200Y-9340700D01*
X13742200Y-9340700D01*
X13742200Y-9301248D01*
X13742164Y-9300587D01*
X13741560Y-9294963D01*
X13736535Y-9281491D01*
X13727919Y-9269981D01*
X13716409Y-9261365D01*
X13702937Y-9256340D01*
X13697313Y-9255735D01*
X13696652Y-9255700D01*
X13647200Y-9255700D01*
X13597200Y-9255700D01*
X13547748Y-9255700D01*
X13547087Y-9255735D01*
X13541463Y-9256340D01*
X13527991Y-9261365D01*
X13517404Y-9269290D01*
X13510858Y-9271732D01*
X13504030Y-9270246D01*
X13499090Y-9265306D01*
X13497605Y-9258479D01*
X13498355Y-9255030D01*
X13501560Y-9246437D01*
X13502164Y-9240813D01*
X13502200Y-9240152D01*
X13502200Y-9200700D01*
X13407200Y-9200700D01*
X13357200Y-9200700D01*
X13262200Y-9200700D01*
X13099377Y-9200700D01*
X13101419Y-9198806D01*
X13101419Y-9198805D01*
X13101861Y-9198395D01*
X13103003Y-9196907D01*
X13149210Y-9150700D01*
X13262200Y-9150700D01*
X13357200Y-9150700D01*
X13357200Y-9065700D01*
X13407200Y-9065700D01*
X13407200Y-9150700D01*
X13502200Y-9150700D01*
X13502200Y-9111248D01*
X13502164Y-9110587D01*
X13501560Y-9104963D01*
X13496535Y-9091491D01*
X13487919Y-9079981D01*
X13476409Y-9071365D01*
X13462937Y-9066340D01*
X13457313Y-9065735D01*
X13456652Y-9065700D01*
X13407200Y-9065700D01*
X13357200Y-9065700D01*
X13307748Y-9065700D01*
X13307087Y-9065735D01*
X13301463Y-9066340D01*
X13287991Y-9071365D01*
X13276481Y-9079981D01*
X13267865Y-9091491D01*
X13262840Y-9104963D01*
X13262235Y-9110587D01*
X13262200Y-9111248D01*
X13262200Y-9150700D01*
X13149210Y-9150700D01*
X13629524Y-8670386D01*
X13635657Y-8667037D01*
X13638293Y-8666754D01*
X15133611Y-8666754D01*
X15140315Y-8668722D01*
X15142379Y-8670386D01*
X15296726Y-8824732D01*
X15300075Y-8830865D01*
X15300358Y-8833501D01*
X15300358Y-8924907D01*
X15298389Y-8931611D01*
X15296726Y-8933675D01*
X15207484Y-9022918D01*
X15201351Y-9026267D01*
X15198715Y-9026550D01*
X15180040Y-9026550D01*
X15173336Y-9024581D01*
X15168760Y-9019301D01*
X15167711Y-9012824D01*
X15167805Y-9011953D01*
X15167840Y-9011292D01*
X15167840Y-9006840D01*
X14996720Y-9006840D01*
X14996720Y-9011292D01*
X14996755Y-9011953D01*
X14997360Y-9017577D01*
X15002385Y-9031049D01*
X15011001Y-9042559D01*
X15021701Y-9050569D01*
X15025888Y-9056162D01*
X15026670Y-9060496D01*
X15026670Y-9088815D01*
X15027833Y-9094663D01*
X15032265Y-9101295D01*
X15038897Y-9105727D01*
X15044745Y-9106890D01*
X15044745Y-9106890D01*
X15050244Y-9106890D01*
X15056947Y-9108858D01*
X15057227Y-9109044D01*
X15062513Y-9112647D01*
X15070957Y-9115252D01*
X15075490Y-9116650D01*
X15075490Y-9116650D01*
X15165062Y-9116650D01*
X15171766Y-9118618D01*
X15176341Y-9123899D01*
X15177462Y-9129050D01*
X15177462Y-10890452D01*
X15175493Y-10897156D01*
X15173830Y-10899220D01*
X14899726Y-11173324D01*
X14898690Y-11174250D01*
X14895903Y-11176472D01*
X14892682Y-11181196D01*
X14892414Y-11181574D01*
X14888663Y-11186656D01*
X14888430Y-11187119D01*
X14886568Y-11193154D01*
X14886423Y-11193594D01*
X14884337Y-11199557D01*
X14884250Y-11200069D01*
X14884250Y-11206386D01*
X14884241Y-11206850D01*
X14884005Y-11213163D01*
X14884250Y-11215024D01*
X14884250Y-11430511D01*
X14882281Y-11437214D01*
X14877001Y-11441790D01*
X14870085Y-11442784D01*
X14869431Y-11442672D01*
X14861275Y-11441050D01*
X14861275Y-11441050D01*
X14772325Y-11441050D01*
X14772325Y-11441050D01*
X14766477Y-11442213D01*
X14759845Y-11446645D01*
X14755413Y-11453277D01*
X14754250Y-11459125D01*
X14754250Y-11589981D01*
X14752281Y-11596685D01*
X14750618Y-11598749D01*
X14656949Y-11692418D01*
X14650817Y-11695767D01*
X14648181Y-11696050D01*
X14491750Y-11696050D01*
X14485046Y-11694081D01*
X14480471Y-11688801D01*
X14479350Y-11683650D01*
X14479350Y-11459125D01*
X14478187Y-11453277D01*
X14473755Y-11446645D01*
X14467123Y-11442213D01*
X14461275Y-11441050D01*
X14461275Y-11441050D01*
X14372325Y-11441050D01*
X14372325Y-11441050D01*
X14365069Y-11442493D01*
X14358110Y-11441871D01*
X14352592Y-11437584D01*
X14350268Y-11430995D01*
X14350250Y-11430332D01*
X14350250Y-10957517D01*
X14350514Y-10954972D01*
X14350616Y-10954485D01*
X14350704Y-10954064D01*
X14350345Y-10951184D01*
X14350254Y-10949717D01*
X14350250Y-10949693D01*
X14350250Y-10949692D01*
X14349933Y-10947792D01*
X14349859Y-10947288D01*
X14349749Y-10946401D01*
X14349257Y-10942457D01*
X14349257Y-10942456D01*
X14349165Y-10941715D01*
X14348809Y-10941058D01*
X14348809Y-10941058D01*
X14346491Y-10936775D01*
X14346258Y-10936321D01*
X14343791Y-10931276D01*
X14339659Y-10927472D01*
X14339289Y-10927117D01*
X14253727Y-10841555D01*
X14250378Y-10835422D01*
X14250877Y-10828453D01*
X14255064Y-10822860D01*
X14261610Y-10820418D01*
X14266395Y-10821016D01*
X14280435Y-10825668D01*
X14290220Y-10826668D01*
X14290852Y-10826700D01*
X14294200Y-10826700D01*
X14294200Y-10749200D01*
X14344200Y-10749200D01*
X14344200Y-10826700D01*
X14347550Y-10826700D01*
X14348178Y-10826668D01*
X14357965Y-10825668D01*
X14374330Y-10820245D01*
X14389004Y-10811194D01*
X14401194Y-10799004D01*
X14410245Y-10784330D01*
X14415668Y-10767965D01*
X14416668Y-10758178D01*
X14416700Y-10757550D01*
X14416700Y-10749200D01*
X14344200Y-10749200D01*
X14294200Y-10749200D01*
X14221700Y-10749200D01*
X14221700Y-10757550D01*
X14221732Y-10758178D01*
X14222732Y-10767965D01*
X14227384Y-10782005D01*
X14227624Y-10788988D01*
X14224051Y-10794992D01*
X14217799Y-10798111D01*
X14210853Y-10797355D01*
X14206845Y-10794673D01*
X14111372Y-10699200D01*
X14221700Y-10699200D01*
X14294200Y-10699200D01*
X14294200Y-10621700D01*
X14344200Y-10621700D01*
X14344200Y-10699200D01*
X14416700Y-10699200D01*
X14416700Y-10690850D01*
X14416668Y-10690222D01*
X14415668Y-10680435D01*
X14410245Y-10664070D01*
X14401194Y-10649396D01*
X14389004Y-10637206D01*
X14374330Y-10628155D01*
X14357965Y-10622732D01*
X14348178Y-10621732D01*
X14347550Y-10621700D01*
X14344200Y-10621700D01*
X14294200Y-10621700D01*
X14290850Y-10621700D01*
X14290222Y-10621732D01*
X14280435Y-10622732D01*
X14264070Y-10628155D01*
X14249396Y-10637206D01*
X14237206Y-10649396D01*
X14228155Y-10664070D01*
X14222732Y-10680435D01*
X14221732Y-10690222D01*
X14221700Y-10690850D01*
X14221700Y-10699200D01*
X14111372Y-10699200D01*
X13872068Y-10459896D01*
X13870455Y-10457909D01*
X13869948Y-10457133D01*
X13867657Y-10455350D01*
X13866555Y-10454377D01*
X13864969Y-10453245D01*
X13864558Y-10452938D01*
X13860127Y-10449489D01*
X13854745Y-10447887D01*
X13854257Y-10447731D01*
X13848946Y-10445907D01*
X13843337Y-10446139D01*
X13842825Y-10446150D01*
X13835112Y-10446150D01*
X13828408Y-10444182D01*
X13825274Y-10441299D01*
X13823028Y-10438372D01*
X13810484Y-10428746D01*
X13795876Y-10422696D01*
X13780200Y-10420632D01*
X13764524Y-10422696D01*
X13749916Y-10428746D01*
X13737372Y-10438372D01*
X13727746Y-10450916D01*
X13721696Y-10465524D01*
X13719632Y-10481200D01*
X13721696Y-10496876D01*
X13727746Y-10511484D01*
X13737372Y-10524028D01*
X13745382Y-10530175D01*
X13749916Y-10533654D01*
X13764524Y-10539704D01*
X13780200Y-10541768D01*
X13795876Y-10539704D01*
X13810484Y-10533654D01*
X13822343Y-10524554D01*
X13828860Y-10522035D01*
X13835704Y-10523439D01*
X13838659Y-10525624D01*
X13965518Y-10652482D01*
X13968866Y-10658614D01*
X13968368Y-10665583D01*
X13964181Y-10671177D01*
X13957634Y-10673618D01*
X13956750Y-10673650D01*
X13938621Y-10673650D01*
X13936077Y-10673386D01*
X13935168Y-10673196D01*
X13932287Y-10673555D01*
X13930754Y-10673650D01*
X13860987Y-10673650D01*
X13852950Y-10675249D01*
X13843838Y-10681338D01*
X13837748Y-10690451D01*
X13836150Y-10698487D01*
X13836150Y-10718913D01*
X13837748Y-10726950D01*
X13843363Y-10735353D01*
X13845451Y-10742021D01*
X13843603Y-10748759D01*
X13841821Y-10751010D01*
X13764395Y-10828436D01*
X13762410Y-10830048D01*
X13761633Y-10830556D01*
X13759850Y-10832847D01*
X13758876Y-10833950D01*
X13757744Y-10835536D01*
X13757439Y-10835945D01*
X13757249Y-10836189D01*
X13753989Y-10840377D01*
X13752387Y-10845758D01*
X13752231Y-10846246D01*
X13750407Y-10851558D01*
X13750639Y-10857167D01*
X13750650Y-10857679D01*
X13750650Y-10972489D01*
X13750386Y-10975035D01*
X13750214Y-10975855D01*
X13746911Y-10982012D01*
X13740804Y-10985406D01*
X13733831Y-10984959D01*
X13730529Y-10983146D01*
X13727698Y-10980974D01*
X13713710Y-10975180D01*
X13706200Y-10974191D01*
X13706200Y-11086200D01*
X13756200Y-11086200D01*
X13756200Y-11027431D01*
X13756229Y-11028274D01*
X13757726Y-11021452D01*
X13762675Y-11016520D01*
X13769505Y-11015047D01*
X13776047Y-11017500D01*
X13777367Y-11018646D01*
X14113847Y-11355125D01*
X14117195Y-11361258D01*
X14117479Y-11363893D01*
X14117479Y-11440618D01*
X14115510Y-11447322D01*
X14110230Y-11451897D01*
X14103314Y-11452892D01*
X14097715Y-11450595D01*
X14091788Y-11446221D01*
X14085521Y-11444028D01*
X14078970Y-11441735D01*
X14078970Y-11441735D01*
X14078970Y-11441735D01*
X14076215Y-11441477D01*
X14076214Y-11441477D01*
X14075927Y-11441450D01*
X13850073Y-11441450D01*
X13849786Y-11441477D01*
X13849785Y-11441477D01*
X13847030Y-11441735D01*
X13834211Y-11446221D01*
X13823285Y-11454285D01*
X13815221Y-11465211D01*
X13810735Y-11478030D01*
X13810477Y-11480785D01*
X13810477Y-11480786D01*
X13810450Y-11481073D01*
X13810450Y-11481363D01*
X13810450Y-11559050D01*
X13808481Y-11565754D01*
X13803201Y-11570329D01*
X13798050Y-11571450D01*
X13529830Y-11571450D01*
X13523126Y-11569481D01*
X13519992Y-11566599D01*
X13519690Y-11566205D01*
X13515828Y-11561172D01*
X13510845Y-11557348D01*
X13503284Y-11551546D01*
X13488676Y-11545496D01*
X13473000Y-11543432D01*
X13457324Y-11545496D01*
X13442716Y-11551546D01*
X13430172Y-11561172D01*
X13420546Y-11573716D01*
X13414496Y-11588324D01*
X13412432Y-11604000D01*
X13414496Y-11619676D01*
X13420546Y-11634284D01*
X13431166Y-11648123D01*
X13430798Y-11648405D01*
X13433098Y-11651552D01*
X13433515Y-11658527D01*
X13430095Y-11664620D01*
X13423924Y-11667897D01*
X13421430Y-11668150D01*
X13087055Y-11668150D01*
X13084510Y-11667886D01*
X13083602Y-11667696D01*
X13080722Y-11668055D01*
X13079254Y-11668146D01*
X13077332Y-11668466D01*
X13076826Y-11668540D01*
X13071253Y-11669235D01*
X13066315Y-11671907D01*
X13065860Y-11672141D01*
X13060814Y-11674608D01*
X13058286Y-11677355D01*
X13057091Y-11678652D01*
X13051103Y-11682251D01*
X13047969Y-11682654D01*
X12774062Y-11682654D01*
X12767358Y-11680685D01*
X12765294Y-11679022D01*
X12700672Y-11614399D01*
X12699059Y-11612413D01*
X12698552Y-11611637D01*
X12696261Y-11609854D01*
X12695159Y-11608881D01*
X12693573Y-11607749D01*
X12693162Y-11607442D01*
X12688731Y-11603993D01*
X12683349Y-11602391D01*
X12682861Y-11602234D01*
X12677550Y-11600411D01*
X12671941Y-11600643D01*
X12671429Y-11600654D01*
X12626129Y-11600654D01*
X12619425Y-11598685D01*
X12615081Y-11593883D01*
X12611505Y-11586866D01*
X12602534Y-11577895D01*
X12591230Y-11572135D01*
X12581852Y-11570650D01*
X12562937Y-11570650D01*
X12556233Y-11568681D01*
X12551658Y-11563401D01*
X12550663Y-11556485D01*
X12553566Y-11550130D01*
X12554167Y-11549483D01*
X12602582Y-11501068D01*
X12608714Y-11497720D01*
X12615684Y-11498219D01*
X12621277Y-11502406D01*
X12623644Y-11508218D01*
X12625904Y-11525380D01*
X12631954Y-11539988D01*
X12641580Y-11552532D01*
X12646732Y-11556485D01*
X12654124Y-11562157D01*
X12668732Y-11568208D01*
X12684408Y-11570272D01*
X12700084Y-11568208D01*
X12714692Y-11562157D01*
X12727236Y-11552532D01*
X12731400Y-11547105D01*
X12737043Y-11542985D01*
X12741238Y-11542254D01*
X12914802Y-11542254D01*
X12915883Y-11542301D01*
X12919645Y-11542630D01*
X12923297Y-11541652D01*
X12924348Y-11541419D01*
X12928069Y-11540763D01*
X12928069Y-11540762D01*
X12928176Y-11540744D01*
X12930644Y-11539721D01*
X12930733Y-11539659D01*
X12930733Y-11539659D01*
X12933827Y-11537493D01*
X12934737Y-11536913D01*
X12938010Y-11535023D01*
X12940439Y-11532128D01*
X12941168Y-11531333D01*
X13105068Y-11367432D01*
X13111201Y-11364084D01*
X13118170Y-11364582D01*
X13123763Y-11368770D01*
X13126130Y-11374582D01*
X13126311Y-11375954D01*
X13126696Y-11378876D01*
X13132746Y-11393484D01*
X13142372Y-11406028D01*
X13154916Y-11415653D01*
X13154916Y-11415654D01*
X13169524Y-11421704D01*
X13179869Y-11423066D01*
X13186258Y-11425893D01*
X13190105Y-11431725D01*
X13190650Y-11435360D01*
X13190650Y-11508370D01*
X13188681Y-11515074D01*
X13185799Y-11518207D01*
X13180372Y-11522372D01*
X13170746Y-11534916D01*
X13164696Y-11549524D01*
X13162632Y-11565200D01*
X13164696Y-11580876D01*
X13170746Y-11595484D01*
X13180372Y-11608028D01*
X13192246Y-11617139D01*
X13192916Y-11617654D01*
X13207524Y-11623704D01*
X13223200Y-11625768D01*
X13238876Y-11623704D01*
X13253484Y-11617654D01*
X13266028Y-11608028D01*
X13275654Y-11595484D01*
X13281704Y-11580876D01*
X13283768Y-11565200D01*
X13281704Y-11549524D01*
X13275654Y-11534916D01*
X13266028Y-11522372D01*
X13265346Y-11521848D01*
X13260601Y-11518207D01*
X13256481Y-11512565D01*
X13255750Y-11508370D01*
X13255750Y-11457200D01*
X13330632Y-11457200D01*
X13332696Y-11472876D01*
X13338746Y-11487484D01*
X13348372Y-11500028D01*
X13357447Y-11506992D01*
X13360916Y-11509654D01*
X13375524Y-11515704D01*
X13391200Y-11517768D01*
X13406876Y-11515704D01*
X13421484Y-11509654D01*
X13427793Y-11504812D01*
X13434310Y-11502293D01*
X13435342Y-11502250D01*
X13636003Y-11502250D01*
X13642707Y-11504218D01*
X13643551Y-11504812D01*
X13647990Y-11508218D01*
X13653124Y-11512157D01*
X13667732Y-11518208D01*
X13683408Y-11520272D01*
X13699084Y-11518208D01*
X13713692Y-11512157D01*
X13726236Y-11502532D01*
X13735862Y-11489988D01*
X13741912Y-11475380D01*
X13743976Y-11459704D01*
X13741912Y-11444028D01*
X13735862Y-11429420D01*
X13733837Y-11426781D01*
X13726236Y-11416876D01*
X13713692Y-11407250D01*
X13699084Y-11401199D01*
X13683408Y-11399136D01*
X13667732Y-11401199D01*
X13653124Y-11407250D01*
X13650078Y-11409588D01*
X13643561Y-11412107D01*
X13642529Y-11412150D01*
X13435342Y-11412150D01*
X13428638Y-11410181D01*
X13427794Y-11409588D01*
X13421484Y-11404746D01*
X13421484Y-11404746D01*
X13421484Y-11404746D01*
X13406876Y-11398696D01*
X13391200Y-11396632D01*
X13375524Y-11398696D01*
X13360916Y-11404746D01*
X13348372Y-11414372D01*
X13338746Y-11426916D01*
X13332696Y-11441524D01*
X13330632Y-11457200D01*
X13255750Y-11457200D01*
X13255750Y-11399163D01*
X13255797Y-11398082D01*
X13255957Y-11396250D01*
X13256126Y-11394319D01*
X13255149Y-11390671D01*
X13254914Y-11389614D01*
X13254438Y-11386915D01*
X13254259Y-11385895D01*
X13254259Y-11385895D01*
X13254240Y-11385789D01*
X13253217Y-11383320D01*
X13253155Y-11383232D01*
X13253155Y-11383232D01*
X13250989Y-11380138D01*
X13250408Y-11379226D01*
X13247426Y-11374061D01*
X13247696Y-11373905D01*
X13245871Y-11371162D01*
X13245418Y-11365862D01*
X13245768Y-11363200D01*
X13243704Y-11347524D01*
X13237654Y-11332916D01*
X13235741Y-11330423D01*
X13234035Y-11328200D01*
X13770700Y-11328200D01*
X13770700Y-11330216D01*
X13770732Y-11330845D01*
X13771714Y-11340460D01*
X13777045Y-11356549D01*
X13785943Y-11370973D01*
X13797927Y-11382957D01*
X13812351Y-11391855D01*
X13828439Y-11397186D01*
X13838053Y-11398168D01*
X13838685Y-11398200D01*
X13843200Y-11398200D01*
X13843200Y-11398200D01*
X13843200Y-11328200D01*
X13893200Y-11328200D01*
X13893200Y-11398200D01*
X13897716Y-11398200D01*
X13898345Y-11398168D01*
X13907960Y-11397186D01*
X13924049Y-11391855D01*
X13938473Y-11382957D01*
X13950457Y-11370973D01*
X13959355Y-11356549D01*
X13964686Y-11340461D01*
X13965668Y-11330844D01*
X13965700Y-11330217D01*
X13965700Y-11328200D01*
X13893200Y-11328200D01*
X13843200Y-11328200D01*
X13770700Y-11328200D01*
X13234035Y-11328200D01*
X13228028Y-11320372D01*
X13215484Y-11310746D01*
X13200876Y-11304696D01*
X13200569Y-11304655D01*
X13196582Y-11304130D01*
X13190193Y-11301304D01*
X13186345Y-11295471D01*
X13186262Y-11288485D01*
X13189433Y-11283068D01*
X13194301Y-11278200D01*
X13770700Y-11278200D01*
X13843200Y-11278200D01*
X13843200Y-11208200D01*
X13893200Y-11208200D01*
X13893200Y-11278200D01*
X13965700Y-11278200D01*
X13965700Y-11276183D01*
X13965668Y-11275555D01*
X13964686Y-11265939D01*
X13959355Y-11249851D01*
X13950457Y-11235427D01*
X13938473Y-11223443D01*
X13924049Y-11214545D01*
X13907961Y-11209214D01*
X13898344Y-11208232D01*
X13897717Y-11208200D01*
X13893200Y-11208200D01*
X13843200Y-11208200D01*
X13838683Y-11208200D01*
X13838055Y-11208232D01*
X13828439Y-11209214D01*
X13812351Y-11214545D01*
X13797927Y-11223443D01*
X13785943Y-11235427D01*
X13777045Y-11249851D01*
X13771714Y-11265939D01*
X13770732Y-11275555D01*
X13770700Y-11276183D01*
X13770700Y-11278200D01*
X13194301Y-11278200D01*
X13213847Y-11258654D01*
X13262830Y-11209671D01*
X13263625Y-11208942D01*
X13266519Y-11206514D01*
X13268410Y-11203239D01*
X13268988Y-11202332D01*
X13271155Y-11199237D01*
X13271155Y-11199237D01*
X13271217Y-11199148D01*
X13272240Y-11196679D01*
X13272259Y-11196573D01*
X13272259Y-11196573D01*
X13272915Y-11192851D01*
X13273148Y-11191800D01*
X13274126Y-11188149D01*
X13274064Y-11187441D01*
X13274255Y-11183941D01*
X13274651Y-11181949D01*
X13276250Y-11173913D01*
X13276250Y-11028487D01*
X13274651Y-11020451D01*
X13268562Y-11011338D01*
X13259449Y-11005249D01*
X13255431Y-11004449D01*
X13251413Y-11003650D01*
X13230987Y-11003650D01*
X13222520Y-11005334D01*
X13216421Y-11007244D01*
X13209683Y-11005395D01*
X13209457Y-11005250D01*
X13201413Y-11003650D01*
X13180987Y-11003650D01*
X13172520Y-11005334D01*
X13166421Y-11007244D01*
X13159683Y-11005395D01*
X13159457Y-11005250D01*
X13151413Y-11003650D01*
X13130987Y-11003650D01*
X13122950Y-11005249D01*
X13113838Y-11011338D01*
X13107748Y-11020451D01*
X13106150Y-11028487D01*
X13106150Y-11173913D01*
X13106567Y-11176007D01*
X13105944Y-11182967D01*
X13103173Y-11187194D01*
X13095190Y-11195178D01*
X13089057Y-11198526D01*
X13082088Y-11198028D01*
X13076495Y-11193840D01*
X13074067Y-11187472D01*
X13074063Y-11187422D01*
X13074255Y-11183940D01*
X13075142Y-11179485D01*
X13076250Y-11173913D01*
X13076250Y-11028487D01*
X13074651Y-11020451D01*
X13068562Y-11011338D01*
X13059449Y-11005249D01*
X13055431Y-11004449D01*
X13051413Y-11003650D01*
X13030987Y-11003650D01*
X13024154Y-11005009D01*
X13022950Y-11005249D01*
X13022950Y-11005249D01*
X13022520Y-11005334D01*
X13016420Y-11007244D01*
X13009682Y-11005395D01*
X13009457Y-11005250D01*
X13001413Y-11003650D01*
X12980987Y-11003650D01*
X12972950Y-11005249D01*
X12963838Y-11011338D01*
X12957748Y-11020451D01*
X12956150Y-11028487D01*
X12956150Y-11056250D01*
X12954181Y-11062954D01*
X12948901Y-11067529D01*
X12943750Y-11068650D01*
X12581037Y-11068650D01*
X12574333Y-11066682D01*
X12572269Y-11065018D01*
X12387636Y-10880385D01*
X12384287Y-10874252D01*
X12384327Y-10873700D01*
X12671691Y-10873700D01*
X12672680Y-10881211D01*
X12678474Y-10895198D01*
X12687690Y-10907209D01*
X12699702Y-10916426D01*
X12713689Y-10922220D01*
X12724529Y-10923647D01*
X12725336Y-10923700D01*
X12783700Y-10923700D01*
X12783700Y-10873700D01*
X12813700Y-10873700D01*
X12813700Y-10923700D01*
X12872064Y-10923700D01*
X12872871Y-10923647D01*
X12883710Y-10922220D01*
X12897698Y-10916426D01*
X12909709Y-10907209D01*
X12918926Y-10895198D01*
X12924720Y-10881211D01*
X12925709Y-10873700D01*
X12813700Y-10873700D01*
X12783700Y-10873700D01*
X12671691Y-10873700D01*
X12384327Y-10873700D01*
X12384785Y-10867283D01*
X12388973Y-10861690D01*
X12392503Y-10859846D01*
X12404549Y-10855855D01*
X12418973Y-10846957D01*
X12422231Y-10843700D01*
X12671691Y-10843700D01*
X12671691Y-10843700D01*
X12783700Y-10843700D01*
X12783700Y-10793700D01*
X12813700Y-10793700D01*
X12813700Y-10843700D01*
X12925709Y-10843700D01*
X12925709Y-10843700D01*
X12924720Y-10836189D01*
X12918926Y-10822202D01*
X12909709Y-10810191D01*
X12897698Y-10800974D01*
X12883710Y-10795180D01*
X12872871Y-10793753D01*
X12872064Y-10793700D01*
X12813700Y-10793700D01*
X12783700Y-10793700D01*
X12725336Y-10793700D01*
X12724529Y-10793753D01*
X12713689Y-10795180D01*
X12699702Y-10800974D01*
X12687690Y-10810191D01*
X12678474Y-10822202D01*
X12672680Y-10836189D01*
X12671691Y-10843700D01*
X12422231Y-10843700D01*
X12430957Y-10834973D01*
X12439855Y-10820549D01*
X12445186Y-10804461D01*
X12446168Y-10794845D01*
X12446200Y-10794217D01*
X12446200Y-10789700D01*
X12338600Y-10789700D01*
X12331896Y-10787732D01*
X12327321Y-10782451D01*
X12326200Y-10777300D01*
X12326200Y-10667200D01*
X12376200Y-10667200D01*
X12376200Y-10739700D01*
X12446200Y-10739700D01*
X12446200Y-10739700D01*
X12446200Y-10735183D01*
X12446168Y-10734555D01*
X12445186Y-10724939D01*
X12439855Y-10708851D01*
X12430957Y-10694427D01*
X12418973Y-10682443D01*
X12404549Y-10673545D01*
X12388461Y-10668214D01*
X12378844Y-10667232D01*
X12378217Y-10667200D01*
X12376200Y-10667200D01*
X12326200Y-10667200D01*
X12324184Y-10667200D01*
X12323555Y-10667232D01*
X12313939Y-10668214D01*
X12297851Y-10673545D01*
X12283427Y-10682443D01*
X12271443Y-10694427D01*
X12262545Y-10708851D01*
X12257309Y-10724652D01*
X12253332Y-10730397D01*
X12246881Y-10733079D01*
X12240003Y-10731848D01*
X12236771Y-10729520D01*
X12217823Y-10710572D01*
X12217092Y-10709774D01*
X12214664Y-10706881D01*
X12211392Y-10704992D01*
X12210481Y-10704411D01*
X12207387Y-10702245D01*
X12207299Y-10702183D01*
X12204829Y-10701160D01*
X12201003Y-10700485D01*
X12199948Y-10700251D01*
X12196299Y-10699274D01*
X12192536Y-10699603D01*
X12191455Y-10699650D01*
X9686650Y-10699650D01*
X9679946Y-10697682D01*
X9675371Y-10692401D01*
X9674250Y-10687250D01*
X9674250Y-10680225D01*
X9673087Y-10674377D01*
X9668655Y-10667745D01*
X9662023Y-10663313D01*
X9656175Y-10662150D01*
X9656175Y-10662150D01*
X9462225Y-10662150D01*
X9462225Y-10662150D01*
X9456377Y-10663313D01*
X9449745Y-10667745D01*
X9445313Y-10674377D01*
X9444150Y-10680225D01*
X9444150Y-10784175D01*
X9445313Y-10790023D01*
X9449745Y-10796655D01*
X9456377Y-10801087D01*
X9462225Y-10802250D01*
X9462225Y-10802250D01*
X9656175Y-10802250D01*
X9659099Y-10801668D01*
X9662023Y-10801087D01*
X9668655Y-10796655D01*
X9673087Y-10790023D01*
X9674250Y-10784175D01*
X9674250Y-10777150D01*
X9676219Y-10770446D01*
X9681499Y-10765871D01*
X9686650Y-10764750D01*
X10707755Y-10764750D01*
X10714459Y-10766719D01*
X10719035Y-10771999D01*
X10720029Y-10778915D01*
X10719594Y-10780839D01*
X10716341Y-10791278D01*
X10715726Y-10798050D01*
X10715700Y-10798612D01*
X10715700Y-10806488D01*
X10895700Y-10806488D01*
X10895700Y-10798613D01*
X10895674Y-10798049D01*
X10895059Y-10791278D01*
X10891806Y-10780839D01*
X10891691Y-10773853D01*
X10895371Y-10767914D01*
X10901678Y-10764907D01*
X10903645Y-10764750D01*
X11352901Y-10764750D01*
X11359605Y-10766719D01*
X11364181Y-10771999D01*
X11365175Y-10778915D01*
X11362828Y-10784581D01*
X11354745Y-10795379D01*
X11349720Y-10808851D01*
X11349115Y-10814475D01*
X11349080Y-10815136D01*
X11349080Y-10819988D01*
X11474545Y-10819988D01*
X11481249Y-10821957D01*
X11485824Y-10827237D01*
X11486945Y-10832388D01*
X11486945Y-10920388D01*
X11488414Y-10920388D01*
X11495118Y-10922357D01*
X11499693Y-10927637D01*
X11500688Y-10934553D01*
X11497785Y-10940908D01*
X11497182Y-10941556D01*
X11492071Y-10946667D01*
X11491274Y-10947397D01*
X11488381Y-10949825D01*
X11486491Y-10953097D01*
X11485911Y-10954009D01*
X11483683Y-10957190D01*
X11482660Y-10959661D01*
X11481985Y-10963486D01*
X11481751Y-10964541D01*
X11480774Y-10968190D01*
X11481103Y-10971953D01*
X11481150Y-10973033D01*
X11481150Y-11011792D01*
X11479182Y-11018496D01*
X11479060Y-11018681D01*
X11475763Y-11023615D01*
X11474600Y-11029463D01*
X11474600Y-11155333D01*
X11475763Y-11161181D01*
X11477891Y-11164365D01*
X11479979Y-11171033D01*
X11478130Y-11177771D01*
X11476952Y-11179374D01*
X11475662Y-11180863D01*
X11469683Y-11193954D01*
X11467759Y-11207336D01*
X11467635Y-11208200D01*
X11467847Y-11209672D01*
X11469683Y-11222446D01*
X11475662Y-11235537D01*
X11480121Y-11240683D01*
X11483024Y-11247039D01*
X11483150Y-11248803D01*
X11483150Y-11271545D01*
X11481182Y-11278249D01*
X11479518Y-11280314D01*
X11467314Y-11292518D01*
X11461181Y-11295867D01*
X11458545Y-11296150D01*
X11449004Y-11296150D01*
X11435195Y-11300205D01*
X11423087Y-11307986D01*
X11413662Y-11318862D01*
X11407683Y-11331954D01*
X11405635Y-11346200D01*
X11407683Y-11360446D01*
X11413662Y-11373537D01*
X11423087Y-11384414D01*
X11423087Y-11384414D01*
X11423087Y-11384414D01*
X11434207Y-11391561D01*
X11438783Y-11396841D01*
X11439777Y-11403757D01*
X11436875Y-11410112D01*
X11436271Y-11410760D01*
X11367914Y-11479118D01*
X11361781Y-11482467D01*
X11359145Y-11482750D01*
X11095624Y-11482750D01*
X11089995Y-11481398D01*
X11080230Y-11476423D01*
X11070852Y-11474938D01*
X11009549Y-11474938D01*
X11004859Y-11475681D01*
X11000170Y-11476423D01*
X11000169Y-11476423D01*
X11000169Y-11476423D01*
X10988866Y-11482183D01*
X10984098Y-11486951D01*
X10977966Y-11490299D01*
X10977636Y-11490366D01*
X10976804Y-11490523D01*
X10976347Y-11490601D01*
X10970100Y-11491543D01*
X10969608Y-11491705D01*
X10964020Y-11494658D01*
X10963609Y-11494865D01*
X10960530Y-11496348D01*
X10957919Y-11497606D01*
X10957495Y-11497907D01*
X10953030Y-11502372D01*
X10952696Y-11502693D01*
X10948063Y-11506992D01*
X10946921Y-11508481D01*
X10722284Y-11733118D01*
X10716151Y-11736467D01*
X10713515Y-11736750D01*
X10554397Y-11736750D01*
X10547693Y-11734781D01*
X10545628Y-11733118D01*
X10429650Y-11617139D01*
X10512650Y-11617139D01*
X10513013Y-11619433D01*
X10514135Y-11626518D01*
X10514135Y-11626518D01*
X10514136Y-11626519D01*
X10519895Y-11637822D01*
X10528866Y-11646793D01*
X10528866Y-11646793D01*
X10540170Y-11652553D01*
X10549548Y-11654038D01*
X10595852Y-11654038D01*
X10605230Y-11652553D01*
X10616534Y-11646793D01*
X10625505Y-11637822D01*
X10631265Y-11626518D01*
X10632750Y-11617140D01*
X10632750Y-11555836D01*
X10631265Y-11546458D01*
X10627968Y-11539988D01*
X10625505Y-11535154D01*
X10621683Y-11531332D01*
X10616534Y-11526183D01*
X10612020Y-11523883D01*
X10606941Y-11519085D01*
X10605250Y-11512835D01*
X10605250Y-11410607D01*
X10607219Y-11403903D01*
X10608882Y-11401839D01*
X10649551Y-11361170D01*
X10655683Y-11357821D01*
X10658319Y-11357538D01*
X10664396Y-11357538D01*
X10678205Y-11353483D01*
X10690313Y-11345702D01*
X10699738Y-11334825D01*
X10705717Y-11321734D01*
X10707765Y-11307488D01*
X10705717Y-11293242D01*
X10703207Y-11287746D01*
X10699738Y-11280150D01*
X10690313Y-11269274D01*
X10690313Y-11269274D01*
X10678205Y-11261493D01*
X10664396Y-11257438D01*
X10650004Y-11257438D01*
X10636195Y-11261493D01*
X10624087Y-11269274D01*
X10614662Y-11280150D01*
X10608683Y-11293242D01*
X10606462Y-11308696D01*
X10603559Y-11315051D01*
X10602956Y-11315699D01*
X10551071Y-11367584D01*
X10550274Y-11368314D01*
X10547381Y-11370742D01*
X10545491Y-11374014D01*
X10544911Y-11374926D01*
X10542683Y-11378107D01*
X10541660Y-11380578D01*
X10540985Y-11384403D01*
X10540751Y-11385458D01*
X10539774Y-11389107D01*
X10540103Y-11392870D01*
X10540150Y-11393951D01*
X10540150Y-11512835D01*
X10538182Y-11519538D01*
X10533380Y-11523883D01*
X10528866Y-11526183D01*
X10519895Y-11535154D01*
X10514135Y-11546458D01*
X10512650Y-11555836D01*
X10512650Y-11617139D01*
X10429650Y-11617139D01*
X10317627Y-11505116D01*
X10314278Y-11498984D01*
X10313995Y-11496348D01*
X10313995Y-11424838D01*
X10315964Y-11418134D01*
X10321244Y-11413559D01*
X10326395Y-11412438D01*
X10333785Y-11412438D01*
X10336988Y-11411801D01*
X10339633Y-11411275D01*
X10346265Y-11406843D01*
X10350697Y-11400211D01*
X10351860Y-11394363D01*
X10351860Y-11339613D01*
X10351848Y-11339552D01*
X10350697Y-11333765D01*
X10346265Y-11327133D01*
X10339633Y-11322701D01*
X10333785Y-11321538D01*
X10333785Y-11321538D01*
X10204105Y-11321538D01*
X10204105Y-11321538D01*
X10198257Y-11322701D01*
X10191625Y-11327133D01*
X10187193Y-11333765D01*
X10186030Y-11339613D01*
X10186030Y-11394363D01*
X10187193Y-11400211D01*
X10191625Y-11406843D01*
X10198257Y-11411275D01*
X10204105Y-11412438D01*
X10204105Y-11412438D01*
X10211495Y-11412438D01*
X10218199Y-11414406D01*
X10222774Y-11419687D01*
X10223895Y-11424838D01*
X10223895Y-11516919D01*
X10223817Y-11518307D01*
X10223418Y-11521848D01*
X10224481Y-11527464D01*
X10224558Y-11527922D01*
X10225500Y-11534170D01*
X10225661Y-11534660D01*
X10228614Y-11540246D01*
X10228823Y-11540660D01*
X10231563Y-11546351D01*
X10231863Y-11546774D01*
X10236330Y-11551240D01*
X10236651Y-11551574D01*
X10240949Y-11556206D01*
X10242438Y-11557348D01*
X10496463Y-11811374D01*
X10497390Y-11812411D01*
X10499612Y-11815197D01*
X10504334Y-11818416D01*
X10504712Y-11818684D01*
X10509797Y-11822437D01*
X10510258Y-11822670D01*
X10510833Y-11822847D01*
X10510833Y-11822847D01*
X10516300Y-11824534D01*
X10516734Y-11824676D01*
X10522130Y-11826565D01*
X10522130Y-11826565D01*
X10522699Y-11826764D01*
X10523207Y-11826850D01*
X10523810Y-11826850D01*
X10529526Y-11826850D01*
X10529990Y-11826859D01*
X10535701Y-11827072D01*
X10535701Y-11827072D01*
X10536303Y-11827095D01*
X10538164Y-11826850D01*
X10734086Y-11826850D01*
X10735474Y-11826928D01*
X10739015Y-11827327D01*
X10739015Y-11827327D01*
X10739015Y-11827327D01*
X10744635Y-11826264D01*
X10745085Y-11826187D01*
X10750741Y-11825335D01*
X10750741Y-11825335D01*
X10751339Y-11825245D01*
X10751825Y-11825085D01*
X10752359Y-11824802D01*
X10752359Y-11824802D01*
X10757416Y-11822129D01*
X10757826Y-11821923D01*
X10762976Y-11819442D01*
X10762976Y-11819442D01*
X10763520Y-11819181D01*
X10763939Y-11818883D01*
X10764365Y-11818457D01*
X10764366Y-11818457D01*
X10768412Y-11814410D01*
X10768738Y-11814096D01*
X10772931Y-11810205D01*
X10772931Y-11810205D01*
X10773373Y-11809795D01*
X10774515Y-11808307D01*
X10986579Y-11596244D01*
X10992711Y-11592895D01*
X10998223Y-11593289D01*
X10998230Y-11593245D01*
X10998743Y-11593327D01*
X10999680Y-11593394D01*
X10999969Y-11593521D01*
X11000169Y-11593552D01*
X11000170Y-11593553D01*
X11009548Y-11595038D01*
X11070852Y-11595038D01*
X11080230Y-11593553D01*
X11091534Y-11587793D01*
X11096676Y-11582651D01*
X11101894Y-11577433D01*
X11102033Y-11577572D01*
X11104896Y-11574541D01*
X11111147Y-11572850D01*
X11345003Y-11572850D01*
X11351707Y-11574818D01*
X11353771Y-11576482D01*
X11372521Y-11595231D01*
X11375870Y-11601364D01*
X11376075Y-11605387D01*
X11375881Y-11607111D01*
X11376944Y-11612727D01*
X11377021Y-11613185D01*
X11377963Y-11619433D01*
X11378124Y-11619923D01*
X11381077Y-11625509D01*
X11381286Y-11625923D01*
X11384026Y-11631614D01*
X11384326Y-11632037D01*
X11388793Y-11636503D01*
X11389114Y-11636837D01*
X11393412Y-11641469D01*
X11394901Y-11642611D01*
X11467440Y-11715150D01*
X11539132Y-11786842D01*
X11542480Y-11792974D01*
X11542657Y-11793991D01*
X11543696Y-11801876D01*
X11548756Y-11814093D01*
X11549746Y-11816484D01*
X11559372Y-11829028D01*
X11571479Y-11838318D01*
X11571916Y-11838654D01*
X11586524Y-11844704D01*
X11602200Y-11846768D01*
X11617876Y-11844704D01*
X11632484Y-11838654D01*
X11645028Y-11829028D01*
X11654654Y-11816484D01*
X11660704Y-11801876D01*
X11662768Y-11786200D01*
X11660704Y-11770524D01*
X11654654Y-11755916D01*
X11654254Y-11755395D01*
X11645028Y-11743372D01*
X11632484Y-11733746D01*
X11632484Y-11733746D01*
X11620769Y-11728894D01*
X11615329Y-11724510D01*
X11613123Y-11717881D01*
X11614851Y-11711111D01*
X11619964Y-11706350D01*
X11625515Y-11705038D01*
X11853237Y-11705038D01*
X11854318Y-11705085D01*
X11858081Y-11705414D01*
X11861732Y-11704436D01*
X11862783Y-11704203D01*
X11866504Y-11703547D01*
X11866505Y-11703547D01*
X11866611Y-11703528D01*
X11869080Y-11702505D01*
X11869168Y-11702443D01*
X11869168Y-11702443D01*
X11872262Y-11700277D01*
X11873172Y-11699697D01*
X11876445Y-11697807D01*
X11878875Y-11694912D01*
X11879604Y-11694117D01*
X12148551Y-11425170D01*
X12154683Y-11421821D01*
X12157319Y-11421538D01*
X12221547Y-11421538D01*
X12228250Y-11423506D01*
X12232595Y-11428308D01*
X12234895Y-11432822D01*
X12243866Y-11441793D01*
X12243866Y-11441793D01*
X12255170Y-11447553D01*
X12264548Y-11449038D01*
X12281393Y-11449038D01*
X12288097Y-11451006D01*
X12292672Y-11456287D01*
X12293667Y-11463202D01*
X12290764Y-11469558D01*
X12290161Y-11470206D01*
X11667620Y-12092747D01*
X11661488Y-12096095D01*
X11654519Y-12095597D01*
X11649015Y-12091527D01*
X11648461Y-12090806D01*
X11648461Y-12090806D01*
X11648461Y-12090806D01*
X11635917Y-12081181D01*
X11621309Y-12075130D01*
X11605633Y-12073066D01*
X11589957Y-12075130D01*
X11575349Y-12081181D01*
X11562805Y-12090806D01*
X11553179Y-12103350D01*
X11547129Y-12117958D01*
X11545065Y-12133634D01*
X11547129Y-12149311D01*
X11553179Y-12163918D01*
X11562805Y-12176463D01*
X11570559Y-12182412D01*
X11574679Y-12188055D01*
X11575095Y-12195030D01*
X11571673Y-12201122D01*
X11565502Y-12204397D01*
X11563010Y-12204650D01*
X11339955Y-12204650D01*
X11333251Y-12202681D01*
X11328676Y-12197401D01*
X11327555Y-12192250D01*
X11327555Y-12189988D01*
X11101825Y-12189988D01*
X11101825Y-12192250D01*
X11099857Y-12198954D01*
X11094576Y-12203529D01*
X11089425Y-12204650D01*
X11081175Y-12204650D01*
X11074471Y-12202681D01*
X11069896Y-12197401D01*
X11068881Y-12193868D01*
X11068704Y-12192524D01*
X11062654Y-12177916D01*
X11058576Y-12172601D01*
X11053028Y-12165372D01*
X11040484Y-12155746D01*
X11031184Y-12151894D01*
X11025743Y-12147510D01*
X11023537Y-12140880D01*
X11025265Y-12134111D01*
X11030378Y-12129349D01*
X11035929Y-12128038D01*
X11058852Y-12128038D01*
X11068230Y-12126553D01*
X11079534Y-12120793D01*
X11081344Y-12118983D01*
X11087476Y-12115635D01*
X11094445Y-12116133D01*
X11100038Y-12120320D01*
X11102480Y-12126867D01*
X11102441Y-12129077D01*
X11101860Y-12134476D01*
X11101825Y-12135136D01*
X11101825Y-12139988D01*
X11327555Y-12139988D01*
X11327555Y-12135136D01*
X11327519Y-12134475D01*
X11326915Y-12128851D01*
X11321890Y-12115379D01*
X11313274Y-12103869D01*
X11301764Y-12095253D01*
X11299328Y-12094344D01*
X11293734Y-12090157D01*
X11291293Y-12083611D01*
X11292778Y-12076783D01*
X11293351Y-12075837D01*
X11296442Y-12071211D01*
X11297605Y-12065363D01*
X11297605Y-12010613D01*
X11296442Y-12004765D01*
X11292114Y-11998288D01*
X11292010Y-11998133D01*
X11285378Y-11993701D01*
X11279530Y-11992538D01*
X11279530Y-11992538D01*
X11149850Y-11992538D01*
X11149850Y-11992538D01*
X11144002Y-11993701D01*
X11137370Y-11998133D01*
X11136171Y-11999927D01*
X11130809Y-12004408D01*
X11125861Y-12005438D01*
X11073150Y-12005438D01*
X11066446Y-12003469D01*
X11061871Y-11998189D01*
X11060750Y-11993038D01*
X11060750Y-11972963D01*
X11062719Y-11966259D01*
X11067521Y-11961914D01*
X11068230Y-11961553D01*
X11079534Y-11955793D01*
X11088505Y-11946822D01*
X11094265Y-11935518D01*
X11095750Y-11926140D01*
X11095750Y-11879836D01*
X11094265Y-11870458D01*
X11090357Y-11862788D01*
X11088505Y-11859154D01*
X11079534Y-11850183D01*
X11067521Y-11844062D01*
X11062441Y-11839264D01*
X11060750Y-11833013D01*
X11060750Y-11772228D01*
X11062719Y-11765524D01*
X11067999Y-11760949D01*
X11071210Y-11759981D01*
X11080230Y-11758553D01*
X11091534Y-11752793D01*
X11100505Y-11743822D01*
X11106265Y-11732518D01*
X11107750Y-11723140D01*
X11107750Y-11676836D01*
X11106265Y-11667458D01*
X11100658Y-11656454D01*
X11100505Y-11656154D01*
X11091534Y-11647183D01*
X11080230Y-11641423D01*
X11070852Y-11639938D01*
X11009549Y-11639938D01*
X11004859Y-11640681D01*
X11000170Y-11641423D01*
X11000169Y-11641423D01*
X11000169Y-11641423D01*
X10988866Y-11647183D01*
X10979895Y-11656154D01*
X10974135Y-11667458D01*
X10972650Y-11676836D01*
X10972650Y-11723139D01*
X10972650Y-11723140D01*
X10974135Y-11732518D01*
X10974135Y-11732518D01*
X10974136Y-11732519D01*
X10979895Y-11743822D01*
X10988866Y-11752793D01*
X10988866Y-11752793D01*
X10988866Y-11752793D01*
X10988879Y-11752800D01*
X10993959Y-11757597D01*
X10995650Y-11763848D01*
X10995650Y-11833013D01*
X10993682Y-11839717D01*
X10988880Y-11844062D01*
X10976866Y-11850183D01*
X10967895Y-11859154D01*
X10962135Y-11870458D01*
X10960650Y-11879836D01*
X10960650Y-11926139D01*
X10960650Y-11926140D01*
X10962135Y-11935518D01*
X10962135Y-11935518D01*
X10962136Y-11935519D01*
X10967895Y-11946822D01*
X10976866Y-11955793D01*
X10981687Y-11958249D01*
X10988170Y-11961553D01*
X10988170Y-11961553D01*
X10988879Y-11961914D01*
X10993959Y-11966712D01*
X10995650Y-11972963D01*
X10995650Y-11998013D01*
X10993682Y-12004717D01*
X10988880Y-12009062D01*
X10976866Y-12015183D01*
X10967895Y-12024154D01*
X10962135Y-12035458D01*
X10960650Y-12044836D01*
X10960650Y-12091139D01*
X10960896Y-12092694D01*
X10962135Y-12100518D01*
X10962135Y-12100518D01*
X10962136Y-12100519D01*
X10967895Y-12111822D01*
X10976866Y-12120793D01*
X10976866Y-12120793D01*
X10988170Y-12126553D01*
X10988625Y-12126625D01*
X10989758Y-12126804D01*
X10996071Y-12129797D01*
X10999765Y-12135728D01*
X10999665Y-12142714D01*
X10995804Y-12148538D01*
X10992564Y-12150508D01*
X10979916Y-12155746D01*
X10967372Y-12165372D01*
X10957746Y-12177916D01*
X10951696Y-12192524D01*
X10949632Y-12208200D01*
X10951696Y-12223876D01*
X10957746Y-12238484D01*
X10967372Y-12251028D01*
X10975308Y-12257118D01*
X10979916Y-12260654D01*
X10994524Y-12266704D01*
X11008136Y-12268496D01*
X11010200Y-12268768D01*
X11010200Y-12268768D01*
X11010200Y-12268768D01*
X11021155Y-12267326D01*
X11025714Y-12268037D01*
X11025742Y-12267879D01*
X11027895Y-12268259D01*
X11027896Y-12268259D01*
X11031614Y-12268914D01*
X11032671Y-12269149D01*
X11036319Y-12270126D01*
X11036319Y-12270126D01*
X11036319Y-12270126D01*
X11040082Y-12269797D01*
X11041163Y-12269750D01*
X11711899Y-12269750D01*
X11718603Y-12271718D01*
X11723179Y-12276999D01*
X11724173Y-12283915D01*
X11721271Y-12290270D01*
X11720668Y-12290918D01*
X11706568Y-12305018D01*
X11700435Y-12308367D01*
X11697799Y-12308650D01*
X10888819Y-12308650D01*
X10882115Y-12306681D01*
X10880051Y-12305018D01*
X9586021Y-11010988D01*
X10680590Y-11010988D01*
X10680590Y-11015840D01*
X10680625Y-11016501D01*
X10681230Y-11022125D01*
X10686255Y-11035597D01*
X10694871Y-11047107D01*
X10706381Y-11055723D01*
X10708817Y-11056632D01*
X10714411Y-11060819D01*
X10716852Y-11067365D01*
X10715367Y-11074193D01*
X10714794Y-11075139D01*
X10711703Y-11079765D01*
X10710540Y-11085613D01*
X10710540Y-11140363D01*
X10711703Y-11146211D01*
X10716135Y-11152843D01*
X10722767Y-11157275D01*
X10728615Y-11158438D01*
X10728615Y-11158438D01*
X10858295Y-11158438D01*
X10861219Y-11157856D01*
X10864143Y-11157275D01*
X10870775Y-11152843D01*
X10870775Y-11152843D01*
X10871974Y-11151049D01*
X10877336Y-11146568D01*
X10882284Y-11145538D01*
X11107416Y-11145538D01*
X11110625Y-11145960D01*
X11112319Y-11146414D01*
X11116082Y-11146085D01*
X11117163Y-11146038D01*
X11327249Y-11146038D01*
X11333953Y-11148007D01*
X11335402Y-11149262D01*
X11343195Y-11154270D01*
X11348195Y-11157483D01*
X11362004Y-11161538D01*
X11376396Y-11161538D01*
X11390205Y-11157483D01*
X11402313Y-11149702D01*
X11411738Y-11138825D01*
X11417716Y-11125734D01*
X11419765Y-11111488D01*
X11417716Y-11097242D01*
X11411738Y-11084151D01*
X11411738Y-11084151D01*
X11411738Y-11084151D01*
X11402313Y-11073274D01*
X11402313Y-11073274D01*
X11390205Y-11065493D01*
X11376396Y-11061438D01*
X11362004Y-11061438D01*
X11348195Y-11065493D01*
X11336087Y-11073274D01*
X11334471Y-11075139D01*
X11333154Y-11076658D01*
X11327277Y-11080436D01*
X11323783Y-11080938D01*
X11122484Y-11080938D01*
X11119275Y-11080516D01*
X11117581Y-11080062D01*
X11113818Y-11080391D01*
X11112737Y-11080438D01*
X10882995Y-11080438D01*
X10876291Y-11078470D01*
X10871715Y-11073189D01*
X10870721Y-11066273D01*
X10873623Y-11059918D01*
X10878661Y-11056420D01*
X10880529Y-11055723D01*
X10892039Y-11047107D01*
X10900655Y-11035597D01*
X10905680Y-11022125D01*
X10906285Y-11016501D01*
X10906320Y-11015840D01*
X10906320Y-11010988D01*
X10680590Y-11010988D01*
X9586021Y-11010988D01*
X9539604Y-10964572D01*
X9538873Y-10963774D01*
X9536536Y-10960988D01*
X10680590Y-10960988D01*
X10768455Y-10960988D01*
X10768455Y-10960988D01*
X10818455Y-10960988D01*
X10818455Y-10960988D01*
X10906320Y-10960988D01*
X10906320Y-10956136D01*
X10906285Y-10955475D01*
X10905680Y-10949851D01*
X10900655Y-10936379D01*
X10892039Y-10924869D01*
X10884253Y-10919041D01*
X10880066Y-10913447D01*
X10879567Y-10906478D01*
X10881072Y-10902699D01*
X10890002Y-10887928D01*
X10895059Y-10871699D01*
X10895214Y-10869988D01*
X11349080Y-10869988D01*
X11349080Y-10874840D01*
X11349115Y-10875501D01*
X11349720Y-10881125D01*
X11354745Y-10894597D01*
X11363361Y-10906107D01*
X11374871Y-10914723D01*
X11388343Y-10919748D01*
X11393967Y-10920353D01*
X11394628Y-10920388D01*
X11436945Y-10920388D01*
X11436945Y-10869988D01*
X11349080Y-10869988D01*
X10895214Y-10869988D01*
X10895674Y-10864926D01*
X10895700Y-10864364D01*
X10895700Y-10856488D01*
X10830700Y-10856488D01*
X10830700Y-10920588D01*
X10828732Y-10927292D01*
X10823451Y-10931867D01*
X10818498Y-10932945D01*
X10818455Y-10932988D01*
X10818455Y-10960988D01*
X10768455Y-10960988D01*
X10768455Y-10918988D01*
X10770424Y-10912284D01*
X10775704Y-10907709D01*
X10780657Y-10906631D01*
X10780700Y-10906588D01*
X10780700Y-10856488D01*
X10715700Y-10856488D01*
X10715700Y-10864363D01*
X10715726Y-10864927D01*
X10716341Y-10871698D01*
X10721398Y-10887928D01*
X10724867Y-10893666D01*
X10726651Y-10900422D01*
X10724499Y-10907069D01*
X10719095Y-10911498D01*
X10718589Y-10911699D01*
X10706381Y-10916253D01*
X10694871Y-10924869D01*
X10686255Y-10936379D01*
X10681230Y-10949851D01*
X10680625Y-10955475D01*
X10680590Y-10956136D01*
X10680590Y-10960988D01*
X9536536Y-10960988D01*
X9536445Y-10960881D01*
X9533174Y-10958992D01*
X9532263Y-10958411D01*
X9529168Y-10956245D01*
X9529080Y-10956183D01*
X9526611Y-10955160D01*
X9522785Y-10954485D01*
X9521730Y-10954251D01*
X9518081Y-10953274D01*
X9514318Y-10953603D01*
X9513237Y-10953650D01*
X9356650Y-10953650D01*
X9349946Y-10951682D01*
X9345371Y-10946401D01*
X9344250Y-10941250D01*
X9344250Y-10934225D01*
X9343087Y-10928377D01*
X9338655Y-10921745D01*
X9332023Y-10917313D01*
X9326175Y-10916150D01*
X9326175Y-10916150D01*
X9132831Y-10916150D01*
X9126128Y-10914182D01*
X9121552Y-10908901D01*
X9120432Y-10903801D01*
X9120252Y-10859846D01*
X9119026Y-10560701D01*
X9120967Y-10553989D01*
X9126229Y-10549392D01*
X9131426Y-10548250D01*
X9326175Y-10548250D01*
X9327637Y-10547959D01*
X9332023Y-10547087D01*
X9338655Y-10542655D01*
X9338655Y-10542655D01*
X9338989Y-10542432D01*
X9345656Y-10540345D01*
X9352394Y-10542193D01*
X9354646Y-10543974D01*
X9361003Y-10550332D01*
X9361734Y-10551129D01*
X9364163Y-10554023D01*
X9366567Y-10555412D01*
X9367434Y-10555912D01*
X9368346Y-10556493D01*
X9371440Y-10558659D01*
X9371440Y-10558659D01*
X9371528Y-10558721D01*
X9373997Y-10559744D01*
X9374103Y-10559763D01*
X9374104Y-10559763D01*
X9377822Y-10560418D01*
X9378879Y-10560653D01*
X9382527Y-10561630D01*
X9382527Y-10561630D01*
X9382527Y-10561630D01*
X9386290Y-10561301D01*
X9387371Y-10561254D01*
X12662445Y-10561254D01*
X12663526Y-10561301D01*
X12667289Y-10561630D01*
X12670940Y-10560652D01*
X12671991Y-10560419D01*
X12675712Y-10559763D01*
X12675713Y-10559763D01*
X12675819Y-10559744D01*
X12678288Y-10558721D01*
X12678376Y-10558659D01*
X12678376Y-10558659D01*
X12681470Y-10556493D01*
X12682380Y-10555913D01*
X12685653Y-10554023D01*
X12688083Y-10551128D01*
X12688812Y-10550333D01*
X12741762Y-10497382D01*
X12747895Y-10494033D01*
X12750531Y-10493750D01*
X12871413Y-10493750D01*
X12871413Y-10493750D01*
X12879449Y-10492152D01*
X12888562Y-10486062D01*
X12894651Y-10476950D01*
X12896250Y-10468913D01*
X12896250Y-10448487D01*
X12894651Y-10440451D01*
X12894651Y-10440450D01*
X12894566Y-10440020D01*
X12892656Y-10433921D01*
X12894505Y-10427183D01*
X12894650Y-10426957D01*
X12894651Y-10426950D01*
X12894651Y-10426950D01*
X12896250Y-10418913D01*
X12896250Y-10398487D01*
X12894651Y-10390451D01*
X12894651Y-10390450D01*
X12894566Y-10390020D01*
X12892656Y-10383921D01*
X12894505Y-10377183D01*
X12894650Y-10376957D01*
X12894651Y-10376950D01*
X12894651Y-10376950D01*
X12896250Y-10368913D01*
X12896250Y-10348487D01*
X12894651Y-10340451D01*
X12894651Y-10340450D01*
X12894566Y-10340020D01*
X12892656Y-10333921D01*
X12894505Y-10327183D01*
X12894650Y-10326957D01*
X12894651Y-10326950D01*
X12894651Y-10326950D01*
X12896250Y-10318913D01*
X12896250Y-10298487D01*
X12894651Y-10290451D01*
X12891861Y-10286274D01*
X12891133Y-10285185D01*
X12889046Y-10278518D01*
X12890894Y-10271780D01*
X12896092Y-10267111D01*
X12896699Y-10266840D01*
X12897698Y-10266426D01*
X12909709Y-10257209D01*
X12918926Y-10245198D01*
X12924720Y-10231211D01*
X12925709Y-10223700D01*
X12671691Y-10223700D01*
X12672680Y-10231211D01*
X12678474Y-10245198D01*
X12687660Y-10257169D01*
X12690179Y-10263686D01*
X12688775Y-10270531D01*
X12683894Y-10275530D01*
X12681033Y-10276695D01*
X12680825Y-10276751D01*
X12679767Y-10276985D01*
X12675942Y-10277660D01*
X12673472Y-10278683D01*
X12670290Y-10280911D01*
X12669379Y-10281491D01*
X12666107Y-10283381D01*
X12663678Y-10286274D01*
X12662948Y-10287072D01*
X12622498Y-10327522D01*
X12616365Y-10330871D01*
X12613730Y-10331154D01*
X12446445Y-10331154D01*
X12439741Y-10329185D01*
X12435165Y-10323905D01*
X12434171Y-10316989D01*
X12437073Y-10310634D01*
X12442951Y-10306856D01*
X12445185Y-10306418D01*
X12447460Y-10306186D01*
X12463549Y-10300855D01*
X12477973Y-10291957D01*
X12489957Y-10279973D01*
X12498855Y-10265549D01*
X12504186Y-10249461D01*
X12505168Y-10239845D01*
X12505200Y-10239217D01*
X12505200Y-10234700D01*
X12315200Y-10234700D01*
X12315200Y-10239217D01*
X12315232Y-10239845D01*
X12316214Y-10249461D01*
X12321545Y-10265549D01*
X12330443Y-10279973D01*
X12342427Y-10291957D01*
X12356851Y-10300855D01*
X12372939Y-10306186D01*
X12375215Y-10306418D01*
X12381684Y-10309058D01*
X12385699Y-10314776D01*
X12385986Y-10321757D01*
X12382452Y-10327785D01*
X12376221Y-10330945D01*
X12373955Y-10331154D01*
X12129253Y-10331154D01*
X12122549Y-10329185D01*
X12120485Y-10327522D01*
X11986663Y-10193700D01*
X12671691Y-10193700D01*
X12671691Y-10193700D01*
X12783700Y-10193700D01*
X12783700Y-10143700D01*
X12813700Y-10143700D01*
X12813700Y-10193700D01*
X12925709Y-10193700D01*
X12925709Y-10193700D01*
X12924720Y-10186189D01*
X12918926Y-10172202D01*
X12909709Y-10160191D01*
X12897698Y-10150974D01*
X12883710Y-10145180D01*
X12872871Y-10143753D01*
X12872064Y-10143700D01*
X12813700Y-10143700D01*
X12783700Y-10143700D01*
X12725336Y-10143700D01*
X12724529Y-10143753D01*
X12713689Y-10145180D01*
X12699702Y-10150974D01*
X12687690Y-10160191D01*
X12678474Y-10172202D01*
X12672680Y-10186189D01*
X12671691Y-10193700D01*
X11986663Y-10193700D01*
X11977663Y-10184700D01*
X12315200Y-10184700D01*
X12385200Y-10184700D01*
X12385200Y-10112200D01*
X12435200Y-10112200D01*
X12435200Y-10184700D01*
X12505200Y-10184700D01*
X12505200Y-10184700D01*
X12505200Y-10180183D01*
X12505168Y-10179555D01*
X12504186Y-10169939D01*
X12498855Y-10153851D01*
X12489957Y-10139427D01*
X12477973Y-10127443D01*
X12463549Y-10118545D01*
X12447461Y-10113214D01*
X12437844Y-10112232D01*
X12437217Y-10112200D01*
X12435200Y-10112200D01*
X12385200Y-10112200D01*
X12383184Y-10112200D01*
X12382555Y-10112232D01*
X12372939Y-10113214D01*
X12356851Y-10118545D01*
X12342427Y-10127443D01*
X12330443Y-10139427D01*
X12321545Y-10153851D01*
X12316214Y-10169939D01*
X12315232Y-10179555D01*
X12315200Y-10180183D01*
X12315200Y-10184700D01*
X11977663Y-10184700D01*
X11967596Y-10174633D01*
X11964248Y-10168501D01*
X11964746Y-10161532D01*
X11968933Y-10155938D01*
X11975480Y-10153497D01*
X11982307Y-10154982D01*
X11983349Y-10155620D01*
X11983640Y-10155818D01*
X11984018Y-10156086D01*
X11984526Y-10156461D01*
X11989101Y-10159838D01*
X11989561Y-10160070D01*
X11990137Y-10160247D01*
X11990137Y-10160247D01*
X11992639Y-10161019D01*
X11995602Y-10161933D01*
X11996041Y-10162077D01*
X12001434Y-10163965D01*
X12001434Y-10163965D01*
X12002003Y-10164164D01*
X12002511Y-10164250D01*
X12003114Y-10164250D01*
X12008830Y-10164250D01*
X12009294Y-10164259D01*
X12015005Y-10164472D01*
X12015005Y-10164472D01*
X12015607Y-10164495D01*
X12017468Y-10164250D01*
X12136266Y-10164250D01*
X12142970Y-10166219D01*
X12143813Y-10166812D01*
X12150124Y-10171654D01*
X12150124Y-10171654D01*
X12150124Y-10171654D01*
X12152285Y-10172549D01*
X12164732Y-10177704D01*
X12180408Y-10179768D01*
X12196084Y-10177704D01*
X12210692Y-10171654D01*
X12223236Y-10162028D01*
X12232862Y-10149484D01*
X12238912Y-10134876D01*
X12240976Y-10119200D01*
X12238912Y-10103524D01*
X12232862Y-10088916D01*
X12224526Y-10078053D01*
X12223236Y-10076372D01*
X12210692Y-10066746D01*
X12196084Y-10060696D01*
X12180408Y-10058632D01*
X12164732Y-10060696D01*
X12150124Y-10066746D01*
X12147810Y-10068522D01*
X12143814Y-10071588D01*
X12137298Y-10074107D01*
X12136266Y-10074150D01*
X12033701Y-10074150D01*
X12026997Y-10072182D01*
X12024932Y-10070518D01*
X11997614Y-10043200D01*
X12497700Y-10043200D01*
X12497700Y-10047717D01*
X12497732Y-10048345D01*
X12498714Y-10057961D01*
X12504045Y-10074049D01*
X12512943Y-10088473D01*
X12524927Y-10100457D01*
X12539351Y-10109355D01*
X12555439Y-10114686D01*
X12565054Y-10115668D01*
X12565685Y-10115700D01*
X12567700Y-10115700D01*
X12567700Y-10043200D01*
X12497700Y-10043200D01*
X11997614Y-10043200D01*
X11993040Y-10038626D01*
X11989691Y-10032493D01*
X11989408Y-10029857D01*
X11989408Y-9918704D01*
X11919408Y-9918704D01*
X11919408Y-9935058D01*
X11917439Y-9941761D01*
X11912159Y-9946337D01*
X11905243Y-9947331D01*
X11898888Y-9944429D01*
X11898241Y-9943827D01*
X11850090Y-9895676D01*
X11846741Y-9889543D01*
X11846458Y-9886907D01*
X11846458Y-9868704D01*
X11919408Y-9868704D01*
X11989408Y-9868704D01*
X11989408Y-9758704D01*
X12039408Y-9758704D01*
X12039408Y-10028704D01*
X12063860Y-10028704D01*
X12064521Y-10028668D01*
X12070145Y-10028064D01*
X12083617Y-10023039D01*
X12095127Y-10014423D01*
X12103743Y-10002913D01*
X12108768Y-9989441D01*
X12109372Y-9983817D01*
X12109408Y-9983156D01*
X12109408Y-9939605D01*
X12111376Y-9932901D01*
X12116657Y-9928326D01*
X12123573Y-9927331D01*
X12129928Y-9930234D01*
X12132278Y-9932961D01*
X12133888Y-9935498D01*
X12140773Y-9941964D01*
X12145869Y-9946749D01*
X12160271Y-9954667D01*
X12160271Y-9954667D01*
X12176190Y-9958754D01*
X12176190Y-9958754D01*
X12188111Y-9958754D01*
X12188500Y-9958754D01*
X12198685Y-9957467D01*
X12200714Y-9957211D01*
X12208785Y-9954015D01*
X12215995Y-9951161D01*
X12229292Y-9941500D01*
X12239768Y-9928837D01*
X12246766Y-9913965D01*
X12249846Y-9897821D01*
X12249768Y-9896587D01*
X12248814Y-9881418D01*
X12248798Y-9881370D01*
X12243735Y-9865787D01*
X12238347Y-9857297D01*
X12234928Y-9851910D01*
X12222947Y-9840659D01*
X12208544Y-9832741D01*
X12192626Y-9828654D01*
X12192626Y-9828654D01*
X12180315Y-9828654D01*
X12179930Y-9828703D01*
X12179929Y-9828703D01*
X12168102Y-9830197D01*
X12152821Y-9836247D01*
X12139524Y-9845908D01*
X12131362Y-9855774D01*
X12125572Y-9859684D01*
X12118587Y-9859844D01*
X12112625Y-9856202D01*
X12109578Y-9849914D01*
X12109408Y-9847870D01*
X12109408Y-9804252D01*
X12109372Y-9803591D01*
X12108768Y-9797967D01*
X12103743Y-9784495D01*
X12095127Y-9772985D01*
X12083617Y-9764369D01*
X12070145Y-9759344D01*
X12064521Y-9758739D01*
X12063860Y-9758704D01*
X12039408Y-9758704D01*
X11989408Y-9758704D01*
X11964956Y-9758704D01*
X11964295Y-9758739D01*
X11958671Y-9759344D01*
X11945199Y-9764369D01*
X11933689Y-9772985D01*
X11925073Y-9784495D01*
X11920048Y-9797967D01*
X11919443Y-9803591D01*
X11919408Y-9804252D01*
X11919408Y-9868704D01*
X11846458Y-9868704D01*
X11846458Y-9751500D01*
X11848426Y-9744797D01*
X11850090Y-9742732D01*
X11918740Y-9674082D01*
X11924873Y-9670733D01*
X11927508Y-9670450D01*
X12322474Y-9670450D01*
X12329177Y-9672419D01*
X12333753Y-9677699D01*
X12334747Y-9684615D01*
X12334358Y-9686388D01*
X12333887Y-9687970D01*
X12333731Y-9688458D01*
X12331907Y-9693770D01*
X12332139Y-9699379D01*
X12332150Y-9699891D01*
X12332150Y-9776254D01*
X12330181Y-9782958D01*
X12324901Y-9787533D01*
X12319750Y-9788654D01*
X12307433Y-9788654D01*
X12301585Y-9789817D01*
X12294953Y-9794249D01*
X12290521Y-9800881D01*
X12289358Y-9806729D01*
X12289358Y-9980679D01*
X12290521Y-9986527D01*
X12294953Y-9993159D01*
X12301585Y-9997591D01*
X12307433Y-9998754D01*
X12307433Y-9998754D01*
X12401383Y-9998754D01*
X12404307Y-9998172D01*
X12407231Y-9997591D01*
X12413863Y-9993159D01*
X12418295Y-9986527D01*
X12419458Y-9980679D01*
X12419458Y-9806729D01*
X12418882Y-9803833D01*
X12418295Y-9800881D01*
X12413863Y-9794249D01*
X12407761Y-9790171D01*
X12403280Y-9784810D01*
X12402250Y-9779861D01*
X12402250Y-9733400D01*
X12404218Y-9726696D01*
X12409499Y-9722121D01*
X12414650Y-9721000D01*
X12468452Y-9721000D01*
X12475156Y-9722969D01*
X12479732Y-9728249D01*
X12480156Y-9729305D01*
X12482288Y-9735398D01*
X12491239Y-9747525D01*
X12491018Y-9747688D01*
X12493500Y-9750955D01*
X12494046Y-9757921D01*
X12490739Y-9764076D01*
X12488421Y-9765922D01*
X12475396Y-9773956D01*
X12463206Y-9786146D01*
X12454155Y-9800820D01*
X12448732Y-9817185D01*
X12447732Y-9826972D01*
X12447700Y-9827600D01*
X12447700Y-9835950D01*
X12640496Y-9835950D01*
X12647199Y-9837919D01*
X12649264Y-9839582D01*
X12679186Y-9869504D01*
X12680799Y-9871490D01*
X12681306Y-9872267D01*
X12683597Y-9874050D01*
X12684700Y-9875024D01*
X12686285Y-9876156D01*
X12686696Y-9876462D01*
X12691192Y-9879962D01*
X12692710Y-9880743D01*
X12693527Y-9881326D01*
X12693496Y-9881370D01*
X12696197Y-9882979D01*
X12711518Y-9898301D01*
X12714867Y-9904433D01*
X12715150Y-9907069D01*
X12715150Y-9942967D01*
X12713181Y-9949671D01*
X12708379Y-9954015D01*
X12699878Y-9958347D01*
X12697982Y-9960243D01*
X12691850Y-9963591D01*
X12684881Y-9963092D01*
X12679288Y-9958905D01*
X12678661Y-9957984D01*
X12672457Y-9947927D01*
X12660473Y-9935943D01*
X12644815Y-9926284D01*
X12645035Y-9925927D01*
X12641458Y-9923449D01*
X12638778Y-9916996D01*
X12639334Y-9911757D01*
X12641668Y-9904715D01*
X12642668Y-9894928D01*
X12642700Y-9894300D01*
X12642700Y-9885950D01*
X12447700Y-9885950D01*
X12447700Y-9894300D01*
X12447732Y-9894928D01*
X12448732Y-9904715D01*
X12454155Y-9921080D01*
X12463206Y-9935754D01*
X12475396Y-9947944D01*
X12490070Y-9956995D01*
X12492491Y-9957798D01*
X12498236Y-9961775D01*
X12500918Y-9968226D01*
X12500361Y-9973468D01*
X12498714Y-9978439D01*
X12497732Y-9988055D01*
X12497700Y-9988683D01*
X12497700Y-9993200D01*
X12605300Y-9993200D01*
X12612004Y-9995169D01*
X12616579Y-10000449D01*
X12617700Y-10005600D01*
X12617700Y-10115700D01*
X12617700Y-10115700D01*
X12619716Y-10115700D01*
X12620345Y-10115668D01*
X12629960Y-10114686D01*
X12646049Y-10109355D01*
X12660473Y-10100457D01*
X12672457Y-10088473D01*
X12678661Y-10078416D01*
X12683855Y-10073744D01*
X12690752Y-10072621D01*
X12697160Y-10075406D01*
X12697983Y-10076158D01*
X12699878Y-10078053D01*
X12699878Y-10078053D01*
X12711887Y-10084172D01*
X12715209Y-10084698D01*
X12721851Y-10085750D01*
X12721851Y-10085750D01*
X12773549Y-10085750D01*
X12778531Y-10084961D01*
X12783513Y-10084172D01*
X12795522Y-10078053D01*
X12805053Y-10068522D01*
X12811172Y-10056513D01*
X12812750Y-10046549D01*
X12812750Y-9989851D01*
X12811380Y-9981200D01*
X13126200Y-9981200D01*
X13126200Y-10039564D01*
X13126253Y-10040371D01*
X13127680Y-10051211D01*
X13133474Y-10065198D01*
X13142690Y-10077209D01*
X13154702Y-10086426D01*
X13168690Y-10092220D01*
X13176200Y-10093209D01*
X13176200Y-10093209D01*
X13176200Y-9981200D01*
X13206200Y-9981200D01*
X13206200Y-10093209D01*
X13206200Y-10093209D01*
X13213710Y-10092220D01*
X13227698Y-10086426D01*
X13239709Y-10077209D01*
X13248926Y-10065198D01*
X13254720Y-10051211D01*
X13256147Y-10040371D01*
X13256200Y-10039564D01*
X13256200Y-9981200D01*
X13206200Y-9981200D01*
X13176200Y-9981200D01*
X13126200Y-9981200D01*
X12811380Y-9981200D01*
X12811172Y-9979887D01*
X12805053Y-9967878D01*
X12805053Y-9967878D01*
X12795522Y-9958347D01*
X12787020Y-9954015D01*
X12781941Y-9949218D01*
X12780250Y-9942967D01*
X12780250Y-9895650D01*
X12782218Y-9888946D01*
X12787499Y-9884371D01*
X12792650Y-9883250D01*
X13113800Y-9883250D01*
X13120504Y-9885219D01*
X13125079Y-9890499D01*
X13126200Y-9895650D01*
X13126200Y-9951200D01*
X13256200Y-9951200D01*
X13256200Y-9892836D01*
X13256147Y-9892029D01*
X13254720Y-9881189D01*
X13249240Y-9867960D01*
X13248493Y-9861013D01*
X13251621Y-9854765D01*
X13253148Y-9853377D01*
X13264028Y-9845028D01*
X13267468Y-9840545D01*
X13273654Y-9832484D01*
X13279704Y-9817876D01*
X13281768Y-9802200D01*
X13279704Y-9786524D01*
X13273654Y-9771916D01*
X13270783Y-9768175D01*
X13264028Y-9759372D01*
X13251484Y-9749746D01*
X13236876Y-9743696D01*
X13221200Y-9741632D01*
X13205524Y-9743696D01*
X13190916Y-9749746D01*
X13178372Y-9759372D01*
X13168746Y-9771916D01*
X13162696Y-9786524D01*
X13160610Y-9802369D01*
X13157783Y-9808758D01*
X13151950Y-9812605D01*
X13148316Y-9813150D01*
X12957993Y-9813150D01*
X12951289Y-9811182D01*
X12946714Y-9805901D01*
X12945719Y-9798985D01*
X12946177Y-9797041D01*
X12947168Y-9787345D01*
X12947200Y-9786717D01*
X12947200Y-9782200D01*
X12757200Y-9782200D01*
X12757200Y-9786717D01*
X12757232Y-9787345D01*
X12758352Y-9798312D01*
X12758228Y-9798324D01*
X12758418Y-9803833D01*
X12754844Y-9809837D01*
X12748592Y-9812956D01*
X12746407Y-9813150D01*
X12727104Y-9813150D01*
X12720400Y-9811182D01*
X12718336Y-9809518D01*
X12641018Y-9732200D01*
X12757200Y-9732200D01*
X12827200Y-9732200D01*
X12827200Y-9659700D01*
X12877200Y-9659700D01*
X12877200Y-9732200D01*
X12877200Y-9732200D01*
X12947200Y-9732200D01*
X12947200Y-9727683D01*
X12947168Y-9727055D01*
X12946186Y-9717439D01*
X12940855Y-9701351D01*
X12931957Y-9686927D01*
X12919973Y-9674943D01*
X12918071Y-9673770D01*
X13355907Y-9673770D01*
X13356139Y-9679379D01*
X13356150Y-9679891D01*
X13356150Y-11173913D01*
X13357748Y-11181950D01*
X13363382Y-11190381D01*
X13363838Y-11191062D01*
X13372950Y-11197151D01*
X13380987Y-11198750D01*
X13401413Y-11198750D01*
X13409449Y-11197151D01*
X13418562Y-11191062D01*
X13424651Y-11181950D01*
X13426250Y-11173913D01*
X13426250Y-11116200D01*
X13626200Y-11116200D01*
X13626200Y-11174564D01*
X13626253Y-11175371D01*
X13627680Y-11186210D01*
X13633474Y-11200198D01*
X13642690Y-11212209D01*
X13654702Y-11221426D01*
X13668690Y-11227220D01*
X13676200Y-11228209D01*
X13676200Y-11228209D01*
X13676200Y-11116200D01*
X13706200Y-11116200D01*
X13706200Y-11228209D01*
X13706200Y-11228209D01*
X13713710Y-11227220D01*
X13727698Y-11221426D01*
X13739709Y-11212209D01*
X13748926Y-11200198D01*
X13754720Y-11186210D01*
X13756147Y-11175371D01*
X13756200Y-11174564D01*
X13756200Y-11116200D01*
X13706200Y-11116200D01*
X13676200Y-11116200D01*
X13626200Y-11116200D01*
X13426250Y-11116200D01*
X13426250Y-11102934D01*
X13426250Y-11086200D01*
X13626200Y-11086200D01*
X13676200Y-11086200D01*
X13676200Y-10974191D01*
X13676200Y-10974191D01*
X13668689Y-10975180D01*
X13654702Y-10980974D01*
X13642690Y-10990191D01*
X13633474Y-11002202D01*
X13627680Y-11016189D01*
X13626253Y-11027029D01*
X13626200Y-11027836D01*
X13626200Y-11086200D01*
X13426250Y-11086200D01*
X13426250Y-9698566D01*
X13428218Y-9691862D01*
X13429882Y-9689798D01*
X13534980Y-9584700D01*
X13661700Y-9584700D01*
X13661700Y-9589217D01*
X13661732Y-9589845D01*
X13662714Y-9599461D01*
X13668045Y-9615549D01*
X13676943Y-9629973D01*
X13688927Y-9641957D01*
X13703351Y-9650855D01*
X13719439Y-9656186D01*
X13729054Y-9657168D01*
X13729685Y-9657200D01*
X13731700Y-9657200D01*
X13731700Y-9584700D01*
X13781700Y-9584700D01*
X13781700Y-9657200D01*
X13783716Y-9657200D01*
X13784345Y-9657168D01*
X13793960Y-9656186D01*
X13810049Y-9650855D01*
X13824473Y-9641957D01*
X13836457Y-9629973D01*
X13845355Y-9615549D01*
X13850686Y-9599461D01*
X13851668Y-9589845D01*
X13851700Y-9589217D01*
X13851700Y-9584700D01*
X13781700Y-9584700D01*
X13731700Y-9584700D01*
X13661700Y-9584700D01*
X13534980Y-9584700D01*
X13620298Y-9499382D01*
X13626430Y-9496033D01*
X13629066Y-9495750D01*
X13653558Y-9495750D01*
X13660262Y-9497719D01*
X13664837Y-9502999D01*
X13665832Y-9509915D01*
X13665328Y-9512050D01*
X13662714Y-9519939D01*
X13661732Y-9529555D01*
X13661700Y-9530183D01*
X13661700Y-9534700D01*
X13851700Y-9534700D01*
X13851700Y-9530183D01*
X13851668Y-9529555D01*
X13850686Y-9519939D01*
X13848071Y-9512050D01*
X13847831Y-9505068D01*
X13851404Y-9499063D01*
X13857657Y-9495944D01*
X13859842Y-9495750D01*
X13966491Y-9495750D01*
X13969035Y-9496014D01*
X13969167Y-9496042D01*
X13969943Y-9496204D01*
X13972548Y-9495880D01*
X13972824Y-9495845D01*
X13974291Y-9495754D01*
X13976213Y-9495433D01*
X13976718Y-9495360D01*
X13981264Y-9494793D01*
X13988160Y-9495917D01*
X13993353Y-9500591D01*
X13995195Y-9507331D01*
X13993101Y-9513997D01*
X13991566Y-9515866D01*
X13620895Y-9886536D01*
X13618910Y-9888148D01*
X13618133Y-9888656D01*
X13616350Y-9890947D01*
X13615376Y-9892050D01*
X13614244Y-9893636D01*
X13613939Y-9894045D01*
X13612833Y-9895466D01*
X13610489Y-9898477D01*
X13608887Y-9903858D01*
X13608731Y-9904346D01*
X13606907Y-9909658D01*
X13607139Y-9915267D01*
X13607150Y-9915779D01*
X13607150Y-10607219D01*
X13605181Y-10613923D01*
X13602299Y-10617056D01*
X13595372Y-10622372D01*
X13585746Y-10634916D01*
X13579696Y-10649524D01*
X13577632Y-10665200D01*
X13579696Y-10680876D01*
X13585746Y-10695484D01*
X13595372Y-10708028D01*
X13607916Y-10717654D01*
X13607916Y-10717654D01*
X13622524Y-10723704D01*
X13638200Y-10725768D01*
X13653876Y-10723704D01*
X13668484Y-10717654D01*
X13681028Y-10708028D01*
X13690654Y-10695484D01*
X13696704Y-10680876D01*
X13698768Y-10665200D01*
X13696704Y-10649524D01*
X13690654Y-10634916D01*
X13681028Y-10622372D01*
X13681028Y-10622372D01*
X13680034Y-10621077D01*
X13680368Y-10620821D01*
X13677980Y-10617551D01*
X13677250Y-10613358D01*
X13677250Y-10223700D01*
X13806691Y-10223700D01*
X13807680Y-10231211D01*
X13813474Y-10245198D01*
X13822690Y-10257209D01*
X13834702Y-10266426D01*
X13848689Y-10272220D01*
X13859529Y-10273647D01*
X13860336Y-10273700D01*
X13918700Y-10273700D01*
X13918700Y-10223700D01*
X13948700Y-10223700D01*
X13948700Y-10273700D01*
X14007064Y-10273700D01*
X14007871Y-10273647D01*
X14018710Y-10272220D01*
X14032698Y-10266426D01*
X14044709Y-10257209D01*
X14053926Y-10245198D01*
X14059720Y-10231211D01*
X14060709Y-10223700D01*
X13948700Y-10223700D01*
X13918700Y-10223700D01*
X13806691Y-10223700D01*
X13677250Y-10223700D01*
X13677250Y-10193700D01*
X13806691Y-10193700D01*
X13806691Y-10193700D01*
X13918700Y-10193700D01*
X13918700Y-10143700D01*
X13948700Y-10143700D01*
X13948700Y-10193700D01*
X14060709Y-10193700D01*
X14060709Y-10193700D01*
X14059720Y-10186189D01*
X14053926Y-10172202D01*
X14044709Y-10160191D01*
X14032698Y-10150974D01*
X14018710Y-10145180D01*
X14007871Y-10143753D01*
X14007064Y-10143700D01*
X13948700Y-10143700D01*
X13918700Y-10143700D01*
X13860336Y-10143700D01*
X13859529Y-10143753D01*
X13848689Y-10145180D01*
X13834702Y-10150974D01*
X13822690Y-10160191D01*
X13813474Y-10172202D01*
X13807680Y-10186189D01*
X13806691Y-10193700D01*
X13677250Y-10193700D01*
X13677250Y-10141700D01*
X14181700Y-10141700D01*
X14181700Y-10146217D01*
X14181732Y-10146845D01*
X14182714Y-10156461D01*
X14188045Y-10172549D01*
X14196943Y-10186973D01*
X14208927Y-10198957D01*
X14223351Y-10207855D01*
X14239439Y-10213186D01*
X14249054Y-10214168D01*
X14249685Y-10214200D01*
X14251700Y-10214200D01*
X14251700Y-10141700D01*
X14301700Y-10141700D01*
X14301700Y-10214200D01*
X14303716Y-10214200D01*
X14304345Y-10214168D01*
X14313960Y-10213186D01*
X14330049Y-10207855D01*
X14344473Y-10198957D01*
X14356457Y-10186973D01*
X14365355Y-10172549D01*
X14370686Y-10156461D01*
X14371668Y-10146845D01*
X14371700Y-10146217D01*
X14371700Y-10141700D01*
X14301700Y-10141700D01*
X14251700Y-10141700D01*
X14181700Y-10141700D01*
X13677250Y-10141700D01*
X13677250Y-10091700D01*
X14181700Y-10091700D01*
X14251700Y-10091700D01*
X14251700Y-10019200D01*
X14301700Y-10019200D01*
X14301700Y-10091700D01*
X14371700Y-10091700D01*
X14371700Y-10087183D01*
X14371668Y-10086555D01*
X14370686Y-10076939D01*
X14365355Y-10060851D01*
X14357859Y-10048700D01*
X14744200Y-10048700D01*
X14744200Y-10150152D01*
X14744235Y-10150813D01*
X14744840Y-10156437D01*
X14749865Y-10169909D01*
X14758481Y-10181419D01*
X14769991Y-10190035D01*
X14783463Y-10195060D01*
X14789087Y-10195665D01*
X14789748Y-10195700D01*
X14825200Y-10195700D01*
X14825200Y-10048700D01*
X14875200Y-10048700D01*
X14875200Y-10195700D01*
X14910652Y-10195700D01*
X14911313Y-10195665D01*
X14916937Y-10195060D01*
X14930409Y-10190035D01*
X14941919Y-10181419D01*
X14950535Y-10169909D01*
X14955560Y-10156437D01*
X14956164Y-10150813D01*
X14956200Y-10150152D01*
X14956200Y-10048700D01*
X14875200Y-10048700D01*
X14825200Y-10048700D01*
X14744200Y-10048700D01*
X14357859Y-10048700D01*
X14356457Y-10046427D01*
X14344473Y-10034443D01*
X14330049Y-10025545D01*
X14313961Y-10020214D01*
X14304344Y-10019232D01*
X14303717Y-10019200D01*
X14301700Y-10019200D01*
X14251700Y-10019200D01*
X14251700Y-10019200D01*
X14251050Y-10019200D01*
X14244346Y-10017232D01*
X14239770Y-10011952D01*
X14238775Y-10005036D01*
X14240495Y-10000290D01*
X14241476Y-9998700D01*
X14744200Y-9998700D01*
X14825200Y-9998700D01*
X14825200Y-9851700D01*
X14875200Y-9851700D01*
X14875200Y-9998700D01*
X14956200Y-9998700D01*
X14956200Y-9897248D01*
X14956164Y-9896587D01*
X14955560Y-9890963D01*
X14950535Y-9877491D01*
X14941919Y-9865981D01*
X14930409Y-9857365D01*
X14916937Y-9852340D01*
X14911313Y-9851735D01*
X14910652Y-9851700D01*
X14875200Y-9851700D01*
X14825200Y-9851700D01*
X14789748Y-9851700D01*
X14789087Y-9851735D01*
X14783463Y-9852340D01*
X14769991Y-9857365D01*
X14758481Y-9865981D01*
X14749865Y-9877491D01*
X14744840Y-9890963D01*
X14744235Y-9896587D01*
X14744200Y-9897248D01*
X14744200Y-9998700D01*
X14241476Y-9998700D01*
X14248355Y-9987549D01*
X14253686Y-9971461D01*
X14254668Y-9961845D01*
X14254700Y-9961217D01*
X14254700Y-9956700D01*
X14184700Y-9956700D01*
X14184700Y-10029200D01*
X14185351Y-10029200D01*
X14192055Y-10031168D01*
X14196630Y-10036449D01*
X14197625Y-10043365D01*
X14195905Y-10048110D01*
X14188045Y-10060852D01*
X14182714Y-10076939D01*
X14181732Y-10086555D01*
X14181700Y-10087183D01*
X14181700Y-10091700D01*
X13677250Y-10091700D01*
X13677250Y-9956700D01*
X14064700Y-9956700D01*
X14064700Y-9961217D01*
X14064732Y-9961845D01*
X14065714Y-9971461D01*
X14071045Y-9987549D01*
X14079943Y-10001973D01*
X14091927Y-10013957D01*
X14106351Y-10022855D01*
X14122439Y-10028186D01*
X14132054Y-10029168D01*
X14132685Y-10029200D01*
X14134700Y-10029200D01*
X14134700Y-9956700D01*
X14064700Y-9956700D01*
X13677250Y-9956700D01*
X13677250Y-9934454D01*
X13679218Y-9927751D01*
X13680882Y-9925686D01*
X13828868Y-9777700D01*
X13979200Y-9777700D01*
X13979200Y-9804883D01*
X13979232Y-9805511D01*
X13980249Y-9815470D01*
X13985764Y-9832112D01*
X13994968Y-9847035D01*
X14007365Y-9859432D01*
X14022288Y-9868636D01*
X14038930Y-9874151D01*
X14048889Y-9875168D01*
X14049517Y-9875200D01*
X14054089Y-9875200D01*
X14060793Y-9877168D01*
X14065368Y-9882449D01*
X14066363Y-9889364D01*
X14065860Y-9891500D01*
X14065714Y-9891939D01*
X14064732Y-9901555D01*
X14064700Y-9902183D01*
X14064700Y-9906700D01*
X14254700Y-9906700D01*
X14254700Y-9902183D01*
X14254668Y-9901555D01*
X14253686Y-9891939D01*
X14248355Y-9875851D01*
X14239457Y-9861427D01*
X14227473Y-9849443D01*
X14213048Y-9840545D01*
X14201655Y-9836770D01*
X14195911Y-9832793D01*
X14193228Y-9826341D01*
X14193785Y-9821099D01*
X14195650Y-9815470D01*
X14196668Y-9805511D01*
X14196700Y-9804883D01*
X14196700Y-9777700D01*
X13979200Y-9777700D01*
X13828868Y-9777700D01*
X13878868Y-9727700D01*
X13979200Y-9727700D01*
X14062950Y-9727700D01*
X14062950Y-9630200D01*
X14112950Y-9630200D01*
X14112950Y-9727700D01*
X14196700Y-9727700D01*
X14196700Y-9700517D01*
X14196668Y-9699889D01*
X14195651Y-9689930D01*
X14190136Y-9673288D01*
X14180932Y-9658365D01*
X14168534Y-9645968D01*
X14153612Y-9636764D01*
X14136970Y-9631249D01*
X14127011Y-9630232D01*
X14126383Y-9630200D01*
X14112950Y-9630200D01*
X14062950Y-9630200D01*
X14049517Y-9630200D01*
X14048889Y-9630232D01*
X14038930Y-9631249D01*
X14022288Y-9636764D01*
X14007365Y-9645968D01*
X13994968Y-9658365D01*
X13985764Y-9673288D01*
X13980249Y-9689930D01*
X13979232Y-9699889D01*
X13979200Y-9700517D01*
X13979200Y-9727700D01*
X13878868Y-9727700D01*
X14475786Y-9130782D01*
X14481919Y-9127433D01*
X14484554Y-9127150D01*
X14601820Y-9127150D01*
X14608524Y-9129118D01*
X14612869Y-9133920D01*
X14613895Y-9135934D01*
X14622866Y-9144905D01*
X14634170Y-9150665D01*
X14643548Y-9152150D01*
X14704852Y-9152150D01*
X14714230Y-9150665D01*
X14725534Y-9144905D01*
X14734505Y-9135934D01*
X14740265Y-9124630D01*
X14741750Y-9115252D01*
X14741750Y-9079254D01*
X14743718Y-9072550D01*
X14745381Y-9070487D01*
X14785346Y-9030522D01*
X14791479Y-9027173D01*
X14794114Y-9026890D01*
X14860735Y-9026890D01*
X14863868Y-9026267D01*
X14866583Y-9025727D01*
X14873215Y-9021295D01*
X14877647Y-9014663D01*
X14878810Y-9008815D01*
X14878810Y-8976360D01*
X14996720Y-8976360D01*
X15067040Y-8976360D01*
X15067040Y-8926360D01*
X15097520Y-8926360D01*
X15097520Y-8976360D01*
X15167840Y-8976360D01*
X15167840Y-8971908D01*
X15167804Y-8971247D01*
X15167200Y-8965623D01*
X15162175Y-8952151D01*
X15153559Y-8940641D01*
X15142049Y-8932025D01*
X15128577Y-8927000D01*
X15122953Y-8926396D01*
X15122292Y-8926360D01*
X15097520Y-8926360D01*
X15067040Y-8926360D01*
X15042268Y-8926360D01*
X15041607Y-8926396D01*
X15035983Y-8927000D01*
X15022511Y-8932025D01*
X15011001Y-8940641D01*
X15002385Y-8952151D01*
X14997360Y-8965623D01*
X14996755Y-8971247D01*
X14996720Y-8971908D01*
X14996720Y-8976360D01*
X14878810Y-8976360D01*
X14878810Y-8974385D01*
X14877647Y-8968537D01*
X14873215Y-8961905D01*
X14873201Y-8961883D01*
X14868743Y-8956549D01*
X14867872Y-8949617D01*
X14870888Y-8943314D01*
X14873213Y-8941299D01*
X14873652Y-8940641D01*
X14877647Y-8934663D01*
X14878810Y-8928815D01*
X14878810Y-8894385D01*
X14877647Y-8888537D01*
X14877647Y-8888537D01*
X14873215Y-8881905D01*
X14866583Y-8877473D01*
X14860735Y-8876310D01*
X14860735Y-8876310D01*
X14852114Y-8876310D01*
X14845411Y-8874342D01*
X14843346Y-8872678D01*
X14747382Y-8776714D01*
X14744033Y-8770581D01*
X14743750Y-8767945D01*
X14743750Y-8731948D01*
X14743750Y-8731948D01*
X14742265Y-8722570D01*
X14739496Y-8717137D01*
X14736505Y-8711266D01*
X14727534Y-8702295D01*
X14716230Y-8696535D01*
X14706852Y-8695050D01*
X14645548Y-8695050D01*
X14640859Y-8695793D01*
X14636170Y-8696535D01*
X14636169Y-8696535D01*
X14636169Y-8696535D01*
X14624866Y-8702295D01*
X14615895Y-8711266D01*
X14610135Y-8722570D01*
X14608650Y-8731948D01*
X14608650Y-8768757D01*
X14606681Y-8775461D01*
X14605018Y-8777526D01*
X13960526Y-9422018D01*
X13954393Y-9425367D01*
X13951757Y-9425650D01*
X13754600Y-9425650D01*
X13747896Y-9423682D01*
X13743321Y-9418401D01*
X13742200Y-9413250D01*
X13742200Y-9390700D01*
X13502200Y-9390700D01*
X13502200Y-9430152D01*
X13502235Y-9430813D01*
X13502840Y-9436437D01*
X13507865Y-9449909D01*
X13516481Y-9461419D01*
X13529412Y-9471099D01*
X13533599Y-9476693D01*
X13534098Y-9483662D01*
X13530749Y-9489794D01*
X13369895Y-9650648D01*
X13367911Y-9652260D01*
X13367794Y-9652336D01*
X13366708Y-9652664D01*
X13366591Y-9653202D01*
X13365494Y-9654874D01*
X13365351Y-9655057D01*
X13364376Y-9656162D01*
X13363244Y-9657748D01*
X13362939Y-9658156D01*
X13362768Y-9658377D01*
X13359489Y-9662589D01*
X13357887Y-9667970D01*
X13357731Y-9668458D01*
X13355907Y-9673770D01*
X12918071Y-9673770D01*
X12905549Y-9666045D01*
X12889461Y-9660714D01*
X12879844Y-9659732D01*
X12879217Y-9659700D01*
X12877200Y-9659700D01*
X12827200Y-9659700D01*
X12825184Y-9659700D01*
X12824555Y-9659732D01*
X12814939Y-9660714D01*
X12798851Y-9666045D01*
X12784427Y-9674943D01*
X12772443Y-9686927D01*
X12763545Y-9701351D01*
X12758214Y-9717439D01*
X12757232Y-9727055D01*
X12757200Y-9727683D01*
X12757200Y-9732200D01*
X12641018Y-9732200D01*
X12616382Y-9707564D01*
X12613033Y-9701431D01*
X12612750Y-9698796D01*
X12612750Y-9667580D01*
X12614718Y-9660876D01*
X12619999Y-9656301D01*
X12626915Y-9655306D01*
X12631660Y-9657026D01*
X12644351Y-9664855D01*
X12660439Y-9670186D01*
X12670054Y-9671168D01*
X12670685Y-9671200D01*
X12672700Y-9671200D01*
X12672700Y-9598700D01*
X12722700Y-9598700D01*
X12722700Y-9671200D01*
X12724716Y-9671200D01*
X12725345Y-9671168D01*
X12734960Y-9670186D01*
X12751049Y-9664855D01*
X12765473Y-9655957D01*
X12777457Y-9643973D01*
X12786355Y-9629549D01*
X12791686Y-9613461D01*
X12792668Y-9603845D01*
X12792700Y-9603217D01*
X12792700Y-9598700D01*
X12722700Y-9598700D01*
X12672700Y-9598700D01*
X12602700Y-9598700D01*
X12602700Y-9603217D01*
X12602732Y-9603846D01*
X12602738Y-9603908D01*
X12602736Y-9603921D01*
X12602748Y-9604161D01*
X12602732Y-9603944D01*
X12601460Y-9610777D01*
X12596671Y-9615864D01*
X12589891Y-9617555D01*
X12586307Y-9616870D01*
X12577185Y-9613678D01*
X12577185Y-9613677D01*
X12577184Y-9613677D01*
X12574514Y-9613427D01*
X12574513Y-9613427D01*
X12574226Y-9613400D01*
X12516174Y-9613400D01*
X12515887Y-9613427D01*
X12515886Y-9613427D01*
X12513215Y-9613677D01*
X12500752Y-9618039D01*
X12490129Y-9625879D01*
X12482288Y-9636502D01*
X12480156Y-9642595D01*
X12476084Y-9648273D01*
X12469589Y-9650848D01*
X12468452Y-9650900D01*
X12406146Y-9650900D01*
X12399442Y-9648932D01*
X12394867Y-9643651D01*
X12393873Y-9636735D01*
X12396775Y-9630380D01*
X12397378Y-9629732D01*
X12437894Y-9589217D01*
X12444410Y-9582700D01*
X13182700Y-9582700D01*
X13182700Y-9587217D01*
X13182732Y-9587845D01*
X13183714Y-9597461D01*
X13189045Y-9613549D01*
X13197943Y-9627973D01*
X13209927Y-9639957D01*
X13224351Y-9648855D01*
X13240439Y-9654186D01*
X13250054Y-9655168D01*
X13250685Y-9655200D01*
X13252700Y-9655200D01*
X13252700Y-9582700D01*
X13302700Y-9582700D01*
X13302700Y-9655200D01*
X13304716Y-9655200D01*
X13305345Y-9655168D01*
X13314960Y-9654186D01*
X13331049Y-9648855D01*
X13345473Y-9639957D01*
X13346939Y-9638491D01*
X13350363Y-9636622D01*
X13351577Y-9633909D01*
X13352242Y-9633188D01*
X13357457Y-9627973D01*
X13366355Y-9613549D01*
X13371686Y-9597461D01*
X13372668Y-9587845D01*
X13372700Y-9587217D01*
X13372700Y-9582700D01*
X13302700Y-9582700D01*
X13252700Y-9582700D01*
X13182700Y-9582700D01*
X12444410Y-9582700D01*
X12560694Y-9466416D01*
X12566826Y-9463068D01*
X12567842Y-9462891D01*
X12575728Y-9461852D01*
X12590336Y-9455802D01*
X12602880Y-9446176D01*
X12604374Y-9444229D01*
X12610016Y-9440109D01*
X12616991Y-9439694D01*
X12622980Y-9443010D01*
X12631927Y-9451957D01*
X12645896Y-9460574D01*
X12650568Y-9465768D01*
X12651691Y-9472665D01*
X12648906Y-9479073D01*
X12645389Y-9481467D01*
X12645585Y-9481784D01*
X12629927Y-9491443D01*
X12617943Y-9503427D01*
X12609045Y-9517851D01*
X12603714Y-9533939D01*
X12602732Y-9543555D01*
X12602700Y-9544183D01*
X12602700Y-9548700D01*
X12792700Y-9548700D01*
X12792700Y-9544183D01*
X12792668Y-9543555D01*
X12791686Y-9533939D01*
X12791275Y-9532700D01*
X13182700Y-9532700D01*
X13252700Y-9532700D01*
X13252700Y-9460200D01*
X13302700Y-9460200D01*
X13302700Y-9532700D01*
X13372700Y-9532700D01*
X13372700Y-9528183D01*
X13372668Y-9527555D01*
X13371686Y-9517939D01*
X13366355Y-9501851D01*
X13357457Y-9487427D01*
X13345473Y-9475443D01*
X13331049Y-9466545D01*
X13314961Y-9461214D01*
X13305344Y-9460232D01*
X13304717Y-9460200D01*
X13302700Y-9460200D01*
X13252700Y-9460200D01*
X13250684Y-9460200D01*
X13250055Y-9460232D01*
X13240439Y-9461214D01*
X13224351Y-9466545D01*
X13209927Y-9475443D01*
X13197943Y-9487427D01*
X13189045Y-9501851D01*
X13183714Y-9517939D01*
X13182732Y-9527555D01*
X13182700Y-9528183D01*
X13182700Y-9532700D01*
X12791275Y-9532700D01*
X12786355Y-9517851D01*
X12777457Y-9503427D01*
X12765473Y-9491443D01*
X12751504Y-9482826D01*
X12746831Y-9477631D01*
X12745709Y-9470735D01*
X12748494Y-9464327D01*
X12752011Y-9461933D01*
X12751815Y-9461616D01*
X12767473Y-9451957D01*
X12779457Y-9439973D01*
X12788355Y-9425549D01*
X12793686Y-9409461D01*
X12794668Y-9399845D01*
X12794700Y-9399217D01*
X12794700Y-9394700D01*
X12687100Y-9394700D01*
X12680396Y-9392732D01*
X12675821Y-9387451D01*
X12674700Y-9382300D01*
X12674700Y-9344700D01*
X12724700Y-9344700D01*
X12724700Y-9344700D01*
X12794700Y-9344700D01*
X12794700Y-9340183D01*
X12794668Y-9339555D01*
X12793686Y-9329939D01*
X12788355Y-9313851D01*
X12779457Y-9299427D01*
X12767473Y-9287443D01*
X12753049Y-9278545D01*
X12736961Y-9273214D01*
X12727344Y-9272232D01*
X12726717Y-9272200D01*
X12724700Y-9272200D01*
X12724700Y-9344700D01*
X12674700Y-9344700D01*
X12674700Y-9272200D01*
X12672684Y-9272200D01*
X12672055Y-9272232D01*
X12662439Y-9273214D01*
X12646351Y-9278545D01*
X12631927Y-9287443D01*
X12619943Y-9299427D01*
X12611045Y-9313851D01*
X12605714Y-9329939D01*
X12604729Y-9339585D01*
X12602089Y-9346054D01*
X12596371Y-9350069D01*
X12589390Y-9350356D01*
X12587648Y-9349781D01*
X12575728Y-9344844D01*
X12560052Y-9342780D01*
X12544376Y-9344844D01*
X12529768Y-9350894D01*
X12517224Y-9360520D01*
X12507598Y-9373064D01*
X12501548Y-9387672D01*
X12500509Y-9395556D01*
X12497683Y-9401946D01*
X12496984Y-9402706D01*
X12322971Y-9576718D01*
X12316839Y-9580067D01*
X12314203Y-9580350D01*
X12273200Y-9580350D01*
X12266496Y-9578382D01*
X12261921Y-9573101D01*
X12260800Y-9567950D01*
X12260800Y-9495400D01*
X12000800Y-9495400D01*
X12000800Y-9567950D01*
X11998831Y-9574654D01*
X11993551Y-9579229D01*
X11988400Y-9580350D01*
X11906938Y-9580350D01*
X11905550Y-9580272D01*
X11902008Y-9579873D01*
X11896390Y-9580936D01*
X11895934Y-9581013D01*
X11889688Y-9581955D01*
X11889196Y-9582117D01*
X11883608Y-9585070D01*
X11883197Y-9585277D01*
X11879813Y-9586907D01*
X11877507Y-9588018D01*
X11877083Y-9588319D01*
X11872618Y-9592784D01*
X11872284Y-9593105D01*
X11867651Y-9597404D01*
X11866509Y-9598893D01*
X11771834Y-9693567D01*
X11770798Y-9694493D01*
X11768011Y-9696716D01*
X11764790Y-9701440D01*
X11764522Y-9701817D01*
X11760771Y-9706900D01*
X11760538Y-9707362D01*
X11758675Y-9713401D01*
X11758530Y-9713841D01*
X11756445Y-9719801D01*
X11756358Y-9720313D01*
X11756358Y-9726630D01*
X11756349Y-9727094D01*
X11756113Y-9733407D01*
X11756358Y-9735268D01*
X11756358Y-9907478D01*
X11756280Y-9908866D01*
X11755881Y-9912407D01*
X11756944Y-9918023D01*
X11757021Y-9918479D01*
X11757369Y-9920786D01*
X11757963Y-9924729D01*
X11758124Y-9925219D01*
X11761077Y-9930805D01*
X11761286Y-9931219D01*
X11764087Y-9937035D01*
X11765222Y-9943929D01*
X11762450Y-9950343D01*
X11756650Y-9954239D01*
X11749665Y-9954382D01*
X11744147Y-9951184D01*
X11487535Y-9694572D01*
X11486804Y-9693774D01*
X11484376Y-9690881D01*
X11481104Y-9688992D01*
X11480193Y-9688411D01*
X11477099Y-9686245D01*
X11477011Y-9686183D01*
X11474541Y-9685160D01*
X11470716Y-9684485D01*
X11469660Y-9684251D01*
X11466011Y-9683274D01*
X11462248Y-9683603D01*
X11461168Y-9683650D01*
X9686650Y-9683650D01*
X9679946Y-9681682D01*
X9675371Y-9676401D01*
X9674250Y-9671250D01*
X9674250Y-9664225D01*
X9673087Y-9658377D01*
X9668655Y-9651745D01*
X9662023Y-9647313D01*
X9656175Y-9646150D01*
X9656175Y-9646150D01*
X9462225Y-9646150D01*
X9462225Y-9646150D01*
X9456377Y-9647313D01*
X9449745Y-9651745D01*
X9445313Y-9658377D01*
X9444150Y-9664225D01*
X9444150Y-9768175D01*
X9445313Y-9774023D01*
X9449745Y-9780655D01*
X9456377Y-9785087D01*
X9462225Y-9786250D01*
X9462225Y-9786250D01*
X9656175Y-9786250D01*
X9659099Y-9785668D01*
X9662023Y-9785087D01*
X9668655Y-9780655D01*
X9673087Y-9774023D01*
X9674250Y-9768175D01*
X9674250Y-9761150D01*
X9676219Y-9754446D01*
X9681499Y-9749871D01*
X9686650Y-9748750D01*
X11444512Y-9748750D01*
X11451216Y-9750719D01*
X11453280Y-9752382D01*
X11651449Y-9950551D01*
X11654798Y-9956684D01*
X11654299Y-9963653D01*
X11650112Y-9969246D01*
X11643566Y-9971688D01*
X11639472Y-9971297D01*
X11639385Y-9971274D01*
X11635622Y-9971603D01*
X11634541Y-9971650D01*
X9356650Y-9971650D01*
X9349946Y-9969682D01*
X9345371Y-9964401D01*
X9344250Y-9959250D01*
X9344250Y-9918225D01*
X9343087Y-9912377D01*
X9338655Y-9905745D01*
X9332023Y-9901313D01*
X9326175Y-9900150D01*
X9326175Y-9900150D01*
X9132225Y-9900150D01*
X9132225Y-9900150D01*
X9131091Y-9900376D01*
X9124132Y-9899753D01*
X9118614Y-9895466D01*
X9116290Y-9888877D01*
X9116272Y-9888269D01*
X9113831Y-9292200D01*
X11386900Y-9292200D01*
X11386900Y-9301883D01*
X11386932Y-9302511D01*
X11387949Y-9312470D01*
X11393464Y-9329112D01*
X11402668Y-9344035D01*
X11415065Y-9356432D01*
X11429988Y-9365636D01*
X11446630Y-9371151D01*
X11456589Y-9372168D01*
X11457217Y-9372200D01*
X11641900Y-9372200D01*
X11641900Y-9372200D01*
X11641900Y-9292200D01*
X11691900Y-9292200D01*
X11691900Y-9372200D01*
X11876583Y-9372200D01*
X11877211Y-9372168D01*
X11887169Y-9371151D01*
X11903812Y-9365636D01*
X11918734Y-9356432D01*
X11931132Y-9344035D01*
X11940336Y-9329112D01*
X11945851Y-9312470D01*
X11946868Y-9302511D01*
X11946900Y-9301883D01*
X11946900Y-9292200D01*
X11691900Y-9292200D01*
X11641900Y-9292200D01*
X11386900Y-9292200D01*
X9113831Y-9292200D01*
X9113626Y-9242200D01*
X11386900Y-9242200D01*
X11641900Y-9242200D01*
X11641900Y-9162200D01*
X11691900Y-9162200D01*
X11691900Y-9242200D01*
X11946900Y-9242200D01*
X11946900Y-9232517D01*
X11946868Y-9231889D01*
X11945851Y-9221930D01*
X11940336Y-9205288D01*
X11931132Y-9190365D01*
X11918734Y-9177968D01*
X11903812Y-9168764D01*
X11887170Y-9163249D01*
X11877211Y-9162232D01*
X11876583Y-9162200D01*
X11691900Y-9162200D01*
X11641900Y-9162200D01*
X11457217Y-9162200D01*
X11456589Y-9162232D01*
X11446630Y-9163249D01*
X11429988Y-9168764D01*
X11415065Y-9177968D01*
X11402668Y-9190365D01*
X11393464Y-9205288D01*
X11387949Y-9221930D01*
X11386932Y-9231889D01*
X11386900Y-9232517D01*
X11386900Y-9242200D01*
X9113626Y-9242200D01*
X9113212Y-9141103D01*
X9114478Y-9135594D01*
X9163658Y-9035306D01*
X9164949Y-9033223D01*
X9448308Y-8663576D01*
X9453949Y-8659453D01*
X9460923Y-8659035D01*
X9462302Y-8659436D01*
X9483397Y-8666933D01*
X9511531Y-8672780D01*
X9533025Y-8674250D01*
X9533237Y-8674250D01*
X9547163Y-8674250D01*
X9547375Y-8674250D01*
X9568869Y-8672780D01*
X9597003Y-8666933D01*
X9624080Y-8657310D01*
X9649594Y-8644090D01*
X9673070Y-8627519D01*
X9694071Y-8607905D01*
X9712206Y-8585615D01*
X9727136Y-8561063D01*
X9738584Y-8534706D01*
X9746337Y-8507036D01*
X9750250Y-8478568D01*
X9750250Y-8449832D01*
X9747662Y-8431000D01*
X12000800Y-8431000D01*
X12000800Y-8520452D01*
X12000835Y-8521113D01*
X12001440Y-8526737D01*
X12006465Y-8540209D01*
X12015081Y-8551719D01*
X12026591Y-8560335D01*
X12040063Y-8565360D01*
X12045687Y-8565965D01*
X12046348Y-8566000D01*
X12105800Y-8566000D01*
X12105800Y-8431000D01*
X12155800Y-8431000D01*
X12155800Y-8566000D01*
X12215252Y-8566000D01*
X12215913Y-8565965D01*
X12221537Y-8565360D01*
X12235009Y-8560335D01*
X12246519Y-8551719D01*
X12255135Y-8540209D01*
X12260160Y-8526737D01*
X12260764Y-8521113D01*
X12260800Y-8520452D01*
X12260800Y-8431000D01*
X12155800Y-8431000D01*
X12105800Y-8431000D01*
X12000800Y-8431000D01*
X9747662Y-8431000D01*
X9746337Y-8421364D01*
X9738584Y-8393694D01*
X9733071Y-8381000D01*
X12000800Y-8381000D01*
X12105800Y-8381000D01*
X12105800Y-8381000D01*
X12105800Y-8246000D01*
X12155800Y-8246000D01*
X12155800Y-8381000D01*
X12260800Y-8381000D01*
X12260800Y-8291548D01*
X12260764Y-8290887D01*
X12260160Y-8285263D01*
X12255135Y-8271791D01*
X12246519Y-8260281D01*
X12235009Y-8251665D01*
X12221537Y-8246640D01*
X12215913Y-8246035D01*
X12215252Y-8246000D01*
X12155800Y-8246000D01*
X12105800Y-8246000D01*
X12046348Y-8246000D01*
X12045687Y-8246035D01*
X12040063Y-8246640D01*
X12026591Y-8251665D01*
X12015081Y-8260281D01*
X12006465Y-8271791D01*
X12001440Y-8285263D01*
X12000835Y-8290887D01*
X12000800Y-8291548D01*
X12000800Y-8381000D01*
X9733071Y-8381000D01*
X9727305Y-8367726D01*
X9727305Y-8367726D01*
X9727136Y-8367337D01*
X9712206Y-8342785D01*
X9709124Y-8338997D01*
X9706420Y-8332555D01*
X9707629Y-8325673D01*
X9708901Y-8323629D01*
X9935501Y-8028025D01*
X9941142Y-8023902D01*
X9945279Y-8023169D01*
X14858752Y-7998233D01*
X14865466Y-8000167D01*
G37*
%TD.AperFunction*%
%TA.AperFunction,Conductor*%
G36*
X12181503Y-10766719D02*
G01*
X12183568Y-10768382D01*
X12538013Y-11122828D01*
X12538744Y-11123625D01*
X12541173Y-11126519D01*
X12543578Y-11127908D01*
X12544444Y-11128408D01*
X12545356Y-11128989D01*
X12548450Y-11131155D01*
X12548450Y-11131155D01*
X12548538Y-11131217D01*
X12551007Y-11132240D01*
X12551114Y-11132259D01*
X12551114Y-11132259D01*
X12554833Y-11132915D01*
X12555889Y-11133149D01*
X12559537Y-11134126D01*
X12559537Y-11134126D01*
X12559538Y-11134126D01*
X12563300Y-11133797D01*
X12564381Y-11133750D01*
X12686446Y-11133750D01*
X12693150Y-11135719D01*
X12697726Y-11140999D01*
X12698720Y-11147915D01*
X12695818Y-11154270D01*
X12693995Y-11155988D01*
X12684372Y-11163372D01*
X12680208Y-11168799D01*
X12674565Y-11172919D01*
X12670370Y-11173650D01*
X12557631Y-11173650D01*
X12556551Y-11173603D01*
X12556299Y-11173581D01*
X12552789Y-11173274D01*
X12549140Y-11174251D01*
X12548085Y-11174485D01*
X12546951Y-11174685D01*
X12544365Y-11175141D01*
X12544365Y-11175141D01*
X12544259Y-11175160D01*
X12541789Y-11176183D01*
X12538607Y-11178411D01*
X12537696Y-11178991D01*
X12534424Y-11180881D01*
X12531996Y-11183774D01*
X12531265Y-11184572D01*
X12371862Y-11343975D01*
X12365730Y-11347323D01*
X12358761Y-11346825D01*
X12354326Y-11343975D01*
X12346534Y-11336183D01*
X12335230Y-11330423D01*
X12325852Y-11328938D01*
X12264548Y-11328938D01*
X12259859Y-11329681D01*
X12255170Y-11330423D01*
X12255169Y-11330423D01*
X12255169Y-11330423D01*
X12243866Y-11336183D01*
X12234895Y-11345154D01*
X12232595Y-11349667D01*
X12227798Y-11354747D01*
X12221547Y-11356438D01*
X12140662Y-11356438D01*
X12139581Y-11356391D01*
X12135819Y-11356062D01*
X12132172Y-11357039D01*
X12131116Y-11357273D01*
X12127290Y-11357947D01*
X12124819Y-11358971D01*
X12121638Y-11361199D01*
X12120726Y-11361779D01*
X12117454Y-11363668D01*
X12115026Y-11366562D01*
X12114296Y-11367359D01*
X11845349Y-11636306D01*
X11839217Y-11639655D01*
X11836581Y-11639938D01*
X11765083Y-11639938D01*
X11758379Y-11637969D01*
X11753804Y-11632689D01*
X11752809Y-11625773D01*
X11755712Y-11619418D01*
X11757652Y-11617611D01*
X11763469Y-11613257D01*
X11772085Y-11601747D01*
X11777110Y-11588275D01*
X11777714Y-11582651D01*
X11777750Y-11581990D01*
X11777750Y-11535628D01*
X11639650Y-11535628D01*
X11639650Y-11581990D01*
X11639685Y-11582651D01*
X11640290Y-11588275D01*
X11645315Y-11601747D01*
X11653931Y-11613257D01*
X11659748Y-11617611D01*
X11663935Y-11623205D01*
X11664433Y-11630174D01*
X11661085Y-11636306D01*
X11654952Y-11639655D01*
X11652317Y-11639938D01*
X11590819Y-11639938D01*
X11584115Y-11637969D01*
X11582051Y-11636306D01*
X11550609Y-11604864D01*
X11547260Y-11598732D01*
X11547759Y-11591763D01*
X11549066Y-11589208D01*
X11551637Y-11585361D01*
X11552800Y-11579513D01*
X11552800Y-11453643D01*
X11552727Y-11453277D01*
X11552307Y-11451166D01*
X11639650Y-11451166D01*
X11639650Y-11497528D01*
X11689650Y-11497528D01*
X11689650Y-11405618D01*
X11685198Y-11405618D01*
X11684537Y-11405653D01*
X11678913Y-11406258D01*
X11665441Y-11411283D01*
X11653931Y-11419899D01*
X11645315Y-11431409D01*
X11640290Y-11444881D01*
X11639685Y-11450505D01*
X11639650Y-11451166D01*
X11552307Y-11451166D01*
X11551637Y-11447795D01*
X11547205Y-11441163D01*
X11540573Y-11436731D01*
X11537355Y-11436091D01*
X11531164Y-11432853D01*
X11527707Y-11426781D01*
X11528081Y-11419804D01*
X11531006Y-11415162D01*
X11617505Y-11328663D01*
X11619490Y-11327051D01*
X11620267Y-11326544D01*
X11622050Y-11324253D01*
X11623023Y-11323151D01*
X11623344Y-11322701D01*
X11624156Y-11321564D01*
X11624461Y-11321155D01*
X11627452Y-11317312D01*
X11627452Y-11317312D01*
X11627911Y-11316723D01*
X11628280Y-11315483D01*
X11632079Y-11309619D01*
X11638446Y-11306741D01*
X11645358Y-11307761D01*
X11648932Y-11310253D01*
X11727255Y-11388576D01*
X11730604Y-11394708D01*
X11730106Y-11401678D01*
X11727750Y-11405343D01*
X11727750Y-11497528D01*
X11777750Y-11497528D01*
X11777750Y-11451166D01*
X11777714Y-11450505D01*
X11777110Y-11444881D01*
X11773880Y-11436221D01*
X11773382Y-11429252D01*
X11776730Y-11423120D01*
X11782862Y-11419771D01*
X11785498Y-11419488D01*
X11820940Y-11419488D01*
X11827644Y-11421456D01*
X11832219Y-11426737D01*
X11832644Y-11427791D01*
X11834844Y-11434081D01*
X11836088Y-11437636D01*
X11843929Y-11448259D01*
X11854552Y-11456099D01*
X11854552Y-11456099D01*
X11854552Y-11456100D01*
X11867015Y-11460460D01*
X11869974Y-11460738D01*
X11870264Y-11460738D01*
X11927736Y-11460738D01*
X11928026Y-11460738D01*
X11930985Y-11460460D01*
X11943447Y-11456100D01*
X11944638Y-11455221D01*
X11954071Y-11448259D01*
X11961911Y-11437636D01*
X11961911Y-11437636D01*
X11961912Y-11437635D01*
X11966272Y-11425173D01*
X11966550Y-11422214D01*
X11966550Y-11351662D01*
X11966272Y-11348703D01*
X11961912Y-11336240D01*
X11961911Y-11336240D01*
X11961911Y-11336240D01*
X11954071Y-11325617D01*
X11943448Y-11317776D01*
X11940116Y-11316611D01*
X11930985Y-11313415D01*
X11930985Y-11313415D01*
X11930984Y-11313415D01*
X11928314Y-11313165D01*
X11928313Y-11313165D01*
X11928026Y-11313138D01*
X11869974Y-11313138D01*
X11869687Y-11313165D01*
X11869686Y-11313165D01*
X11867015Y-11313415D01*
X11854552Y-11317776D01*
X11843929Y-11325617D01*
X11836088Y-11336240D01*
X11836088Y-11336240D01*
X11832644Y-11346084D01*
X11828572Y-11351761D01*
X11822077Y-11354336D01*
X11820940Y-11354388D01*
X11790269Y-11354388D01*
X11783565Y-11352419D01*
X11781501Y-11350756D01*
X11679882Y-11249137D01*
X11676533Y-11243005D01*
X11676250Y-11240370D01*
X11676250Y-11173004D01*
X11678218Y-11166301D01*
X11678340Y-11166115D01*
X11678802Y-11165423D01*
X11681637Y-11161181D01*
X11682800Y-11155333D01*
X11682800Y-11029463D01*
X11682606Y-11028487D01*
X11681637Y-11023615D01*
X11680192Y-11021452D01*
X11677205Y-11016983D01*
X11677205Y-11016983D01*
X11676909Y-11016539D01*
X11674821Y-11009871D01*
X11676669Y-11003133D01*
X11681867Y-10998464D01*
X11687219Y-10997250D01*
X11914312Y-10997250D01*
X11921016Y-10999219D01*
X11923080Y-11000882D01*
X11953571Y-11031372D01*
X11956082Y-11034989D01*
X11960334Y-11044301D01*
X11965840Y-11050655D01*
X11969759Y-11055178D01*
X11981867Y-11062959D01*
X11995676Y-11067014D01*
X12010068Y-11067014D01*
X12023877Y-11062959D01*
X12035985Y-11055178D01*
X12045410Y-11044301D01*
X12048208Y-11038175D01*
X12050048Y-11034145D01*
X12054623Y-11028865D01*
X12061327Y-11026896D01*
X12068031Y-11028865D01*
X12070095Y-11030528D01*
X12151055Y-11111488D01*
X12224926Y-11185359D01*
X12228275Y-11191491D01*
X12228405Y-11196067D01*
X12227771Y-11200069D01*
X12227650Y-11200836D01*
X12227650Y-11247139D01*
X12227949Y-11249028D01*
X12229135Y-11256518D01*
X12229135Y-11256518D01*
X12229135Y-11256519D01*
X12234895Y-11267822D01*
X12243866Y-11276793D01*
X12243866Y-11276793D01*
X12255170Y-11282553D01*
X12264548Y-11284038D01*
X12325852Y-11284038D01*
X12335230Y-11282553D01*
X12346534Y-11276793D01*
X12355505Y-11267822D01*
X12361265Y-11256518D01*
X12362750Y-11247140D01*
X12362750Y-11200836D01*
X12361265Y-11191458D01*
X12357387Y-11183848D01*
X12355505Y-11180154D01*
X12346534Y-11171183D01*
X12335230Y-11165423D01*
X12325852Y-11163938D01*
X12325852Y-11163938D01*
X12300707Y-11163938D01*
X12294003Y-11161970D01*
X12291939Y-11160306D01*
X12105408Y-10973776D01*
X11917551Y-10785918D01*
X11914202Y-10779786D01*
X11914701Y-10772817D01*
X11918888Y-10767223D01*
X11925434Y-10764782D01*
X11926319Y-10764750D01*
X12174799Y-10764750D01*
X12181503Y-10766719D01*
G37*
%TD.AperFunction*%
%TA.AperFunction,Conductor*%
G36*
X12490583Y-11623319D02*
G01*
X12496177Y-11627506D01*
X12498618Y-11634052D01*
X12498650Y-11634937D01*
X12498650Y-11668851D01*
X12499034Y-11671276D01*
X12500135Y-11678230D01*
X12500135Y-11678230D01*
X12500135Y-11678231D01*
X12505895Y-11689534D01*
X12514865Y-11698505D01*
X12514866Y-11698505D01*
X12514866Y-11698505D01*
X12515879Y-11699021D01*
X12520959Y-11703818D01*
X12522650Y-11710070D01*
X12522650Y-11721500D01*
X12520681Y-11728204D01*
X12515401Y-11732779D01*
X12510250Y-11733900D01*
X12483225Y-11733900D01*
X12477377Y-11735063D01*
X12470745Y-11739495D01*
X12466313Y-11746127D01*
X12465150Y-11751975D01*
X12465150Y-11875925D01*
X12466313Y-11881773D01*
X12470745Y-11888405D01*
X12477377Y-11892837D01*
X12483225Y-11894000D01*
X12483225Y-11894000D01*
X12594181Y-11894000D01*
X12600885Y-11895968D01*
X12605461Y-11901249D01*
X12606455Y-11908165D01*
X12603552Y-11914520D01*
X12602949Y-11915168D01*
X12168099Y-12350018D01*
X12161967Y-12353367D01*
X12159331Y-12353650D01*
X11779937Y-12353650D01*
X11773233Y-12351681D01*
X11768658Y-12346401D01*
X11767663Y-12339485D01*
X11770566Y-12333130D01*
X11771169Y-12332482D01*
X11879775Y-12223876D01*
X12212516Y-11891135D01*
X12218647Y-11887787D01*
X12225617Y-11888285D01*
X12231210Y-11892473D01*
X12233054Y-11896003D01*
X12237045Y-11908049D01*
X12245943Y-11922473D01*
X12257927Y-11934457D01*
X12272351Y-11943355D01*
X12288439Y-11948686D01*
X12298053Y-11949668D01*
X12298685Y-11949700D01*
X12303200Y-11949700D01*
X12303200Y-11949700D01*
X12303200Y-11879700D01*
X12353200Y-11879700D01*
X12353200Y-11949700D01*
X12357716Y-11949700D01*
X12358345Y-11949668D01*
X12367960Y-11948686D01*
X12384049Y-11943355D01*
X12398473Y-11934457D01*
X12410457Y-11922473D01*
X12419355Y-11908049D01*
X12424686Y-11891961D01*
X12425668Y-11882344D01*
X12425700Y-11881717D01*
X12425700Y-11879700D01*
X12353200Y-11879700D01*
X12303200Y-11879700D01*
X12303200Y-11842100D01*
X12305168Y-11835396D01*
X12310449Y-11830821D01*
X12315600Y-11829700D01*
X12425700Y-11829700D01*
X12425700Y-11827683D01*
X12425668Y-11827055D01*
X12424686Y-11817439D01*
X12419355Y-11801351D01*
X12410457Y-11786927D01*
X12398473Y-11774943D01*
X12384049Y-11766045D01*
X12368248Y-11760809D01*
X12362503Y-11756832D01*
X12359821Y-11750381D01*
X12361052Y-11743503D01*
X12363380Y-11740271D01*
X12477482Y-11626169D01*
X12483614Y-11622820D01*
X12490583Y-11623319D01*
G37*
%TD.AperFunction*%
%TA.AperFunction,Conductor*%
G36*
X9677385Y-10038719D02*
G01*
X9681960Y-10043999D01*
X9682955Y-10050915D01*
X9680052Y-10057270D01*
X9679449Y-10057918D01*
X9653195Y-10084172D01*
X9609925Y-10127443D01*
X9586849Y-10150518D01*
X9580717Y-10153867D01*
X9578081Y-10154150D01*
X9462225Y-10154150D01*
X9456377Y-10155313D01*
X9449745Y-10159745D01*
X9445313Y-10166377D01*
X9444150Y-10172225D01*
X9444150Y-10276175D01*
X9445313Y-10282023D01*
X9449745Y-10288655D01*
X9456377Y-10293087D01*
X9462225Y-10294250D01*
X9462225Y-10294250D01*
X9656175Y-10294250D01*
X9659099Y-10293668D01*
X9662023Y-10293087D01*
X9668655Y-10288655D01*
X9673087Y-10282023D01*
X9674245Y-10276200D01*
X11560200Y-10276200D01*
X11628950Y-10276200D01*
X11628950Y-10203700D01*
X11627601Y-10203700D01*
X11626972Y-10203732D01*
X11617442Y-10204706D01*
X11601493Y-10209991D01*
X11587192Y-10218811D01*
X11575311Y-10230692D01*
X11566491Y-10244993D01*
X11561206Y-10260942D01*
X11560232Y-10270472D01*
X11560200Y-10271100D01*
X11560200Y-10276200D01*
X9674245Y-10276200D01*
X9674250Y-10276175D01*
X9674250Y-10172225D01*
X9673087Y-10166377D01*
X9673087Y-10166377D01*
X9672716Y-10164511D01*
X9673338Y-10157552D01*
X9676109Y-10153324D01*
X9723347Y-10106086D01*
X9729479Y-10102737D01*
X9732115Y-10102454D01*
X11609989Y-10102454D01*
X11616693Y-10104422D01*
X11618757Y-10106086D01*
X11695794Y-10183122D01*
X11699142Y-10189255D01*
X11698644Y-10196224D01*
X11694457Y-10201817D01*
X11687910Y-10204259D01*
X11685766Y-10204226D01*
X11680928Y-10203732D01*
X11680300Y-10203700D01*
X11678950Y-10203700D01*
X11678950Y-10276200D01*
X11747700Y-10276200D01*
X11747700Y-10271101D01*
X11747668Y-10270473D01*
X11747174Y-10265634D01*
X11748450Y-10258765D01*
X11753239Y-10253677D01*
X11760017Y-10251985D01*
X11766635Y-10254226D01*
X11768277Y-10255606D01*
X11987657Y-10474986D01*
X11991006Y-10481118D01*
X11990507Y-10488087D01*
X11986320Y-10493681D01*
X11979774Y-10496122D01*
X11978889Y-10496154D01*
X9404027Y-10496154D01*
X9397323Y-10494185D01*
X9395259Y-10492522D01*
X9359308Y-10456572D01*
X9358578Y-10455774D01*
X9357405Y-10454377D01*
X9356150Y-10452881D01*
X9356150Y-10452881D01*
X9352878Y-10450992D01*
X9351966Y-10450411D01*
X9349538Y-10448710D01*
X9345175Y-10443252D01*
X9344250Y-10438553D01*
X9344250Y-10426225D01*
X9343087Y-10420377D01*
X9338655Y-10413745D01*
X9332023Y-10409313D01*
X9326175Y-10408150D01*
X9326175Y-10408150D01*
X9132225Y-10408150D01*
X9131004Y-10408150D01*
X9131004Y-10407768D01*
X9126209Y-10407339D01*
X9120692Y-10403051D01*
X9118369Y-10396462D01*
X9118351Y-10395858D01*
X9118066Y-10326200D01*
X11560200Y-10326200D01*
X11560200Y-10331299D01*
X11560232Y-10331928D01*
X11561206Y-10341458D01*
X11566491Y-10357407D01*
X11575311Y-10371708D01*
X11587192Y-10383589D01*
X11601493Y-10392409D01*
X11617442Y-10397694D01*
X11626971Y-10398668D01*
X11627602Y-10398700D01*
X11628950Y-10398700D01*
X11628950Y-10326200D01*
X11678950Y-10326200D01*
X11678950Y-10398700D01*
X11680299Y-10398700D01*
X11680927Y-10398668D01*
X11690458Y-10397694D01*
X11706407Y-10392409D01*
X11720708Y-10383589D01*
X11732588Y-10371708D01*
X11741409Y-10357407D01*
X11746694Y-10341458D01*
X11747668Y-10331928D01*
X11747700Y-10331300D01*
X11747700Y-10326200D01*
X11678950Y-10326200D01*
X11628950Y-10326200D01*
X11560200Y-10326200D01*
X9118066Y-10326200D01*
X9116944Y-10052370D01*
X9118885Y-10045659D01*
X9124147Y-10041062D01*
X9131058Y-10040039D01*
X9131763Y-10040158D01*
X9132225Y-10040250D01*
X9132225Y-10040250D01*
X9326175Y-10040250D01*
X9327007Y-10040084D01*
X9332023Y-10039087D01*
X9332393Y-10038840D01*
X9339060Y-10036752D01*
X9339282Y-10036750D01*
X9670681Y-10036750D01*
X9677385Y-10038719D01*
G37*
%TD.AperFunction*%
%TD*%
M02*
