M48
; DRILL file {KiCad 7.0.2} date Tue Nov 28 02:03:48 2023
; FORMAT={-:-/ absolute / inch / decimal}
; #@! TF.CreationDate,2023-11-28T02:03:48-03:00
; #@! TF.GenerationSoftware,Kicad,Pcbnew,7.0.2
; #@! TF.FileFunction,Plated,1,2,PTH
FMAT,2
INCH
; #@! TA.AperFunction,Plated,PTH,ViaDrill
T1C0.0157
; #@! TA.AperFunction,Plated,PTH,ComponentDrill
T2C0.0217
; #@! TA.AperFunction,Plated,PTH,ComponentDrill
T3C0.0335
; #@! TA.AperFunction,Plated,PTH,ComponentDrill
T4C0.0394
%
G90
G05
T1
X3.94Y-4.33
X3.95Y-3.22
X4.1717Y-4.4433
X4.3165Y-4.8319
X4.4761Y-4.3746
X4.5103Y-4.467
X4.5347Y-4.4127
X4.5678Y-4.6402
X4.5744Y-4.9425
X4.68Y-4.8
X4.7255Y-4.3374
X4.78Y-4.74
X4.7954Y-3.9839
X4.93Y-4.42
X4.9458Y-4.4781
X4.9559Y-3.6528
X5.0484Y-4.5043
X5.0509Y-4.4646
X5.1627Y-4.6371
X5.191Y-4.4737
X5.2052Y-3.8591
X5.206Y-4.5532
X5.2721Y-4.5107
X5.3043Y-4.5685
X5.3694Y-4.1989
X5.3872Y-4.5117
X5.4253Y-4.1265
X5.7383Y-5.0719
T4
X4.2438Y-5.0158
X4.4898Y-5.0174
T2
G00X5.154Y-4.9194
M15
G01X5.154Y-4.8938
M16
G05
G00X5.4591Y-4.9194
M15
G01X5.4591Y-4.8938
M16
G05
T3
G00X5.1599Y-5.067
M15
G01X5.1599Y-5.0454
M16
G05
G00X5.4532Y-5.067
M15
G01X5.4532Y-5.0454
M16
G05
T0
M30
