M48
; DRILL file {KiCad 7.0.2} date Mon Nov 27 13:46:42 2023
; FORMAT={-:-/ absolute / inch / decimal}
; #@! TF.CreationDate,2023-11-27T13:46:42-03:00
; #@! TF.GenerationSoftware,Kicad,Pcbnew,7.0.2
; #@! TF.FileFunction,Plated,1,2,PTH
FMAT,2
INCH
; #@! TA.AperFunction,Plated,PTH,ViaDrill
T1C0.0157
; #@! TA.AperFunction,Plated,PTH,ComponentDrill
T2C0.0217
; #@! TA.AperFunction,Plated,PTH,ComponentDrill
T3C0.0335
; #@! TA.AperFunction,Plated,PTH,ComponentDrill
T4C0.0394
%
G90
G05
T1
X3.6159Y-4.0278
X4.1957Y-4.4518
X4.3347Y-4.8064
X4.4761Y-4.3746
X4.5103Y-4.467
X4.5347Y-4.4127
X4.5387Y-4.915
X4.5678Y-4.6402
X4.5691Y-4.777
X4.7255Y-4.3374
X4.7576Y-4.4349
X4.7772Y-4.7845
X4.7836Y-4.531
X4.7954Y-3.9839
X4.8813Y-4.3715
X4.9391Y-4.4857
X4.9449Y-3.7021
X4.9939Y-4.5314
X5.0107Y-4.4119
X5.0438Y-4.3383
X5.0509Y-4.4646
X5.1627Y-4.6371
X5.191Y-4.4737
X5.2052Y-3.8591
X5.206Y-4.5532
X5.2721Y-4.5107
X5.3043Y-4.5685
X5.3694Y-4.1989
X5.3872Y-4.5117
X5.4253Y-4.1265
X5.7383Y-5.0719
X5.7821Y-5.1231
T4
X4.2438Y-5.0158
X4.4898Y-5.0174
T2
G00X5.154Y-4.9194
M15
G01X5.154Y-4.8938
M16
G05
G00X5.4591Y-4.9194
M15
G01X5.4591Y-4.8938
M16
G05
T3
G00X5.1599Y-5.067
M15
G01X5.1599Y-5.0454
M16
G05
G00X5.4532Y-5.067
M15
G01X5.4532Y-5.0454
M16
G05
T0
M30
