%TF.GenerationSoftware,KiCad,Pcbnew,7.0.2*%
%TF.CreationDate,2023-11-28T02:03:47-03:00*%
%TF.ProjectId,Schematic_monitor,53636865-6d61-4746-9963-5f6d6f6e6974,rev?*%
%TF.SameCoordinates,Original*%
%TF.FileFunction,Drillmap*%
%TF.FilePolarity,Positive*%
%FSLAX45Y45*%
G04 Gerber Fmt 4.5, Leading zero omitted, Abs format (unit mm)*
G04 Created by KiCad (PCBNEW 7.0.2) date 2023-11-28 02:03:47*
%MOMM*%
%LPD*%
G01*
G04 APERTURE LIST*
%ADD10C,0.100000*%
%ADD11C,0.200000*%
%ADD12C,0.080000*%
%ADD13C,0.320000*%
G04 APERTURE END LIST*
D10*
X9094067Y-12498340D02*
X9091407Y-8534703D01*
X15500540Y-8543563D02*
X15503200Y-12507200D01*
X9094064Y-12498340D02*
G75*
G03*
X9670362Y-13074636I576296J0D01*
G01*
X15500533Y-8543563D02*
G75*
G03*
X14924244Y-7967267I-576293J3D01*
G01*
X9667703Y-7958407D02*
G75*
G03*
X9091407Y-8534703I-3J-576293D01*
G01*
X14924244Y-7967267D02*
X9667703Y-7958407D01*
X14926904Y-13083496D02*
G75*
G03*
X15503200Y-12507200I4J576292D01*
G01*
X9670362Y-13074636D02*
X14926904Y-13083496D01*
D11*
D12*
X12144408Y-9853704D02*
X12224408Y-9933704D01*
X12224408Y-9853704D02*
X12144408Y-9933704D01*
X13188700Y-12697700D02*
X13268700Y-12777700D01*
X13268700Y-12697700D02*
X13188700Y-12777700D01*
X13688700Y-12697700D02*
X13768700Y-12777700D01*
X13768700Y-12697700D02*
X13688700Y-12777700D01*
D13*
X9683200Y-12565200D02*
G75*
G03*
X9683200Y-12565200I-160000J0D01*
G01*
X9700200Y-8464200D02*
G75*
G03*
X9700200Y-8464200I-160000J0D01*
G01*
X15216200Y-12676200D02*
G75*
G03*
X15216200Y-12676200I-160000J0D01*
G01*
X15244200Y-8353200D02*
G75*
G03*
X15244200Y-8353200I-160000J0D01*
G01*
D11*
X9334026Y-13401020D02*
X9334026Y-13201020D01*
X9334026Y-13201020D02*
X9381645Y-13201020D01*
X9381645Y-13201020D02*
X9410216Y-13210544D01*
X9410216Y-13210544D02*
X9429264Y-13229591D01*
X9429264Y-13229591D02*
X9438788Y-13248639D01*
X9438788Y-13248639D02*
X9448312Y-13286734D01*
X9448312Y-13286734D02*
X9448312Y-13315305D01*
X9448312Y-13315305D02*
X9438788Y-13353401D01*
X9438788Y-13353401D02*
X9429264Y-13372448D01*
X9429264Y-13372448D02*
X9410216Y-13391496D01*
X9410216Y-13391496D02*
X9381645Y-13401020D01*
X9381645Y-13401020D02*
X9334026Y-13401020D01*
X9534026Y-13401020D02*
X9534026Y-13267686D01*
X9534026Y-13305782D02*
X9543550Y-13286734D01*
X9543550Y-13286734D02*
X9553073Y-13277210D01*
X9553073Y-13277210D02*
X9572121Y-13267686D01*
X9572121Y-13267686D02*
X9591169Y-13267686D01*
X9657835Y-13401020D02*
X9657835Y-13267686D01*
X9657835Y-13201020D02*
X9648312Y-13210544D01*
X9648312Y-13210544D02*
X9657835Y-13220067D01*
X9657835Y-13220067D02*
X9667359Y-13210544D01*
X9667359Y-13210544D02*
X9657835Y-13201020D01*
X9657835Y-13201020D02*
X9657835Y-13220067D01*
X9781645Y-13401020D02*
X9762597Y-13391496D01*
X9762597Y-13391496D02*
X9753073Y-13372448D01*
X9753073Y-13372448D02*
X9753073Y-13201020D01*
X9886407Y-13401020D02*
X9867359Y-13391496D01*
X9867359Y-13391496D02*
X9857835Y-13372448D01*
X9857835Y-13372448D02*
X9857835Y-13201020D01*
X10114978Y-13401020D02*
X10114978Y-13201020D01*
X10114978Y-13201020D02*
X10181645Y-13343877D01*
X10181645Y-13343877D02*
X10248312Y-13201020D01*
X10248312Y-13201020D02*
X10248312Y-13401020D01*
X10429264Y-13401020D02*
X10429264Y-13296258D01*
X10429264Y-13296258D02*
X10419740Y-13277210D01*
X10419740Y-13277210D02*
X10400693Y-13267686D01*
X10400693Y-13267686D02*
X10362597Y-13267686D01*
X10362597Y-13267686D02*
X10343550Y-13277210D01*
X10429264Y-13391496D02*
X10410216Y-13401020D01*
X10410216Y-13401020D02*
X10362597Y-13401020D01*
X10362597Y-13401020D02*
X10343550Y-13391496D01*
X10343550Y-13391496D02*
X10334026Y-13372448D01*
X10334026Y-13372448D02*
X10334026Y-13353401D01*
X10334026Y-13353401D02*
X10343550Y-13334353D01*
X10343550Y-13334353D02*
X10362597Y-13324829D01*
X10362597Y-13324829D02*
X10410216Y-13324829D01*
X10410216Y-13324829D02*
X10429264Y-13315305D01*
X10524502Y-13267686D02*
X10524502Y-13467686D01*
X10524502Y-13277210D02*
X10543550Y-13267686D01*
X10543550Y-13267686D02*
X10581645Y-13267686D01*
X10581645Y-13267686D02*
X10600693Y-13277210D01*
X10600693Y-13277210D02*
X10610216Y-13286734D01*
X10610216Y-13286734D02*
X10619740Y-13305782D01*
X10619740Y-13305782D02*
X10619740Y-13362924D01*
X10619740Y-13362924D02*
X10610216Y-13381972D01*
X10610216Y-13381972D02*
X10600693Y-13391496D01*
X10600693Y-13391496D02*
X10581645Y-13401020D01*
X10581645Y-13401020D02*
X10543550Y-13401020D01*
X10543550Y-13401020D02*
X10524502Y-13391496D01*
X10705454Y-13381972D02*
X10714978Y-13391496D01*
X10714978Y-13391496D02*
X10705454Y-13401020D01*
X10705454Y-13401020D02*
X10695931Y-13391496D01*
X10695931Y-13391496D02*
X10705454Y-13381972D01*
X10705454Y-13381972D02*
X10705454Y-13401020D01*
X10705454Y-13277210D02*
X10714978Y-13286734D01*
X10714978Y-13286734D02*
X10705454Y-13296258D01*
X10705454Y-13296258D02*
X10695931Y-13286734D01*
X10695931Y-13286734D02*
X10705454Y-13277210D01*
X10705454Y-13277210D02*
X10705454Y-13296258D01*
D12*
X9006407Y-13688496D02*
X9086407Y-13768496D01*
X9086407Y-13688496D02*
X9006407Y-13768496D01*
D11*
X9372121Y-13621020D02*
X9391169Y-13621020D01*
X9391169Y-13621020D02*
X9410216Y-13630544D01*
X9410216Y-13630544D02*
X9419740Y-13640067D01*
X9419740Y-13640067D02*
X9429264Y-13659115D01*
X9429264Y-13659115D02*
X9438788Y-13697210D01*
X9438788Y-13697210D02*
X9438788Y-13744829D01*
X9438788Y-13744829D02*
X9429264Y-13782924D01*
X9429264Y-13782924D02*
X9419740Y-13801972D01*
X9419740Y-13801972D02*
X9410216Y-13811496D01*
X9410216Y-13811496D02*
X9391169Y-13821020D01*
X9391169Y-13821020D02*
X9372121Y-13821020D01*
X9372121Y-13821020D02*
X9353073Y-13811496D01*
X9353073Y-13811496D02*
X9343550Y-13801972D01*
X9343550Y-13801972D02*
X9334026Y-13782924D01*
X9334026Y-13782924D02*
X9324502Y-13744829D01*
X9324502Y-13744829D02*
X9324502Y-13697210D01*
X9324502Y-13697210D02*
X9334026Y-13659115D01*
X9334026Y-13659115D02*
X9343550Y-13640067D01*
X9343550Y-13640067D02*
X9353073Y-13630544D01*
X9353073Y-13630544D02*
X9372121Y-13621020D01*
X9524502Y-13801972D02*
X9534026Y-13811496D01*
X9534026Y-13811496D02*
X9524502Y-13821020D01*
X9524502Y-13821020D02*
X9514978Y-13811496D01*
X9514978Y-13811496D02*
X9524502Y-13801972D01*
X9524502Y-13801972D02*
X9524502Y-13821020D01*
X9648312Y-13706734D02*
X9629264Y-13697210D01*
X9629264Y-13697210D02*
X9619740Y-13687686D01*
X9619740Y-13687686D02*
X9610216Y-13668639D01*
X9610216Y-13668639D02*
X9610216Y-13659115D01*
X9610216Y-13659115D02*
X9619740Y-13640067D01*
X9619740Y-13640067D02*
X9629264Y-13630544D01*
X9629264Y-13630544D02*
X9648312Y-13621020D01*
X9648312Y-13621020D02*
X9686407Y-13621020D01*
X9686407Y-13621020D02*
X9705454Y-13630544D01*
X9705454Y-13630544D02*
X9714978Y-13640067D01*
X9714978Y-13640067D02*
X9724502Y-13659115D01*
X9724502Y-13659115D02*
X9724502Y-13668639D01*
X9724502Y-13668639D02*
X9714978Y-13687686D01*
X9714978Y-13687686D02*
X9705454Y-13697210D01*
X9705454Y-13697210D02*
X9686407Y-13706734D01*
X9686407Y-13706734D02*
X9648312Y-13706734D01*
X9648312Y-13706734D02*
X9629264Y-13716258D01*
X9629264Y-13716258D02*
X9619740Y-13725782D01*
X9619740Y-13725782D02*
X9610216Y-13744829D01*
X9610216Y-13744829D02*
X9610216Y-13782924D01*
X9610216Y-13782924D02*
X9619740Y-13801972D01*
X9619740Y-13801972D02*
X9629264Y-13811496D01*
X9629264Y-13811496D02*
X9648312Y-13821020D01*
X9648312Y-13821020D02*
X9686407Y-13821020D01*
X9686407Y-13821020D02*
X9705454Y-13811496D01*
X9705454Y-13811496D02*
X9714978Y-13801972D01*
X9714978Y-13801972D02*
X9724502Y-13782924D01*
X9724502Y-13782924D02*
X9724502Y-13744829D01*
X9724502Y-13744829D02*
X9714978Y-13725782D01*
X9714978Y-13725782D02*
X9705454Y-13716258D01*
X9705454Y-13716258D02*
X9686407Y-13706734D01*
X9848312Y-13621020D02*
X9867359Y-13621020D01*
X9867359Y-13621020D02*
X9886407Y-13630544D01*
X9886407Y-13630544D02*
X9895931Y-13640067D01*
X9895931Y-13640067D02*
X9905454Y-13659115D01*
X9905454Y-13659115D02*
X9914978Y-13697210D01*
X9914978Y-13697210D02*
X9914978Y-13744829D01*
X9914978Y-13744829D02*
X9905454Y-13782924D01*
X9905454Y-13782924D02*
X9895931Y-13801972D01*
X9895931Y-13801972D02*
X9886407Y-13811496D01*
X9886407Y-13811496D02*
X9867359Y-13821020D01*
X9867359Y-13821020D02*
X9848312Y-13821020D01*
X9848312Y-13821020D02*
X9829264Y-13811496D01*
X9829264Y-13811496D02*
X9819740Y-13801972D01*
X9819740Y-13801972D02*
X9810216Y-13782924D01*
X9810216Y-13782924D02*
X9800693Y-13744829D01*
X9800693Y-13744829D02*
X9800693Y-13697210D01*
X9800693Y-13697210D02*
X9810216Y-13659115D01*
X9810216Y-13659115D02*
X9819740Y-13640067D01*
X9819740Y-13640067D02*
X9829264Y-13630544D01*
X9829264Y-13630544D02*
X9848312Y-13621020D01*
X10038788Y-13621020D02*
X10057835Y-13621020D01*
X10057835Y-13621020D02*
X10076883Y-13630544D01*
X10076883Y-13630544D02*
X10086407Y-13640067D01*
X10086407Y-13640067D02*
X10095931Y-13659115D01*
X10095931Y-13659115D02*
X10105454Y-13697210D01*
X10105454Y-13697210D02*
X10105454Y-13744829D01*
X10105454Y-13744829D02*
X10095931Y-13782924D01*
X10095931Y-13782924D02*
X10086407Y-13801972D01*
X10086407Y-13801972D02*
X10076883Y-13811496D01*
X10076883Y-13811496D02*
X10057835Y-13821020D01*
X10057835Y-13821020D02*
X10038788Y-13821020D01*
X10038788Y-13821020D02*
X10019740Y-13811496D01*
X10019740Y-13811496D02*
X10010216Y-13801972D01*
X10010216Y-13801972D02*
X10000693Y-13782924D01*
X10000693Y-13782924D02*
X9991169Y-13744829D01*
X9991169Y-13744829D02*
X9991169Y-13697210D01*
X9991169Y-13697210D02*
X10000693Y-13659115D01*
X10000693Y-13659115D02*
X10010216Y-13640067D01*
X10010216Y-13640067D02*
X10019740Y-13630544D01*
X10019740Y-13630544D02*
X10038788Y-13621020D01*
X10191169Y-13821020D02*
X10191169Y-13687686D01*
X10191169Y-13706734D02*
X10200693Y-13697210D01*
X10200693Y-13697210D02*
X10219740Y-13687686D01*
X10219740Y-13687686D02*
X10248312Y-13687686D01*
X10248312Y-13687686D02*
X10267359Y-13697210D01*
X10267359Y-13697210D02*
X10276883Y-13716258D01*
X10276883Y-13716258D02*
X10276883Y-13821020D01*
X10276883Y-13716258D02*
X10286407Y-13697210D01*
X10286407Y-13697210D02*
X10305454Y-13687686D01*
X10305454Y-13687686D02*
X10334026Y-13687686D01*
X10334026Y-13687686D02*
X10353074Y-13697210D01*
X10353074Y-13697210D02*
X10362597Y-13716258D01*
X10362597Y-13716258D02*
X10362597Y-13821020D01*
X10457835Y-13821020D02*
X10457835Y-13687686D01*
X10457835Y-13706734D02*
X10467359Y-13697210D01*
X10467359Y-13697210D02*
X10486407Y-13687686D01*
X10486407Y-13687686D02*
X10514978Y-13687686D01*
X10514978Y-13687686D02*
X10534026Y-13697210D01*
X10534026Y-13697210D02*
X10543550Y-13716258D01*
X10543550Y-13716258D02*
X10543550Y-13821020D01*
X10543550Y-13716258D02*
X10553074Y-13697210D01*
X10553074Y-13697210D02*
X10572121Y-13687686D01*
X10572121Y-13687686D02*
X10600693Y-13687686D01*
X10600693Y-13687686D02*
X10619740Y-13697210D01*
X10619740Y-13697210D02*
X10629264Y-13716258D01*
X10629264Y-13716258D02*
X10629264Y-13821020D01*
X11019740Y-13611496D02*
X10848312Y-13868639D01*
X11276883Y-13621020D02*
X11295931Y-13621020D01*
X11295931Y-13621020D02*
X11314978Y-13630544D01*
X11314978Y-13630544D02*
X11324502Y-13640067D01*
X11324502Y-13640067D02*
X11334026Y-13659115D01*
X11334026Y-13659115D02*
X11343550Y-13697210D01*
X11343550Y-13697210D02*
X11343550Y-13744829D01*
X11343550Y-13744829D02*
X11334026Y-13782924D01*
X11334026Y-13782924D02*
X11324502Y-13801972D01*
X11324502Y-13801972D02*
X11314978Y-13811496D01*
X11314978Y-13811496D02*
X11295931Y-13821020D01*
X11295931Y-13821020D02*
X11276883Y-13821020D01*
X11276883Y-13821020D02*
X11257835Y-13811496D01*
X11257835Y-13811496D02*
X11248312Y-13801972D01*
X11248312Y-13801972D02*
X11238788Y-13782924D01*
X11238788Y-13782924D02*
X11229264Y-13744829D01*
X11229264Y-13744829D02*
X11229264Y-13697210D01*
X11229264Y-13697210D02*
X11238788Y-13659115D01*
X11238788Y-13659115D02*
X11248312Y-13640067D01*
X11248312Y-13640067D02*
X11257835Y-13630544D01*
X11257835Y-13630544D02*
X11276883Y-13621020D01*
X11429264Y-13801972D02*
X11438788Y-13811496D01*
X11438788Y-13811496D02*
X11429264Y-13821020D01*
X11429264Y-13821020D02*
X11419740Y-13811496D01*
X11419740Y-13811496D02*
X11429264Y-13801972D01*
X11429264Y-13801972D02*
X11429264Y-13821020D01*
X11562597Y-13621020D02*
X11581645Y-13621020D01*
X11581645Y-13621020D02*
X11600693Y-13630544D01*
X11600693Y-13630544D02*
X11610216Y-13640067D01*
X11610216Y-13640067D02*
X11619740Y-13659115D01*
X11619740Y-13659115D02*
X11629264Y-13697210D01*
X11629264Y-13697210D02*
X11629264Y-13744829D01*
X11629264Y-13744829D02*
X11619740Y-13782924D01*
X11619740Y-13782924D02*
X11610216Y-13801972D01*
X11610216Y-13801972D02*
X11600693Y-13811496D01*
X11600693Y-13811496D02*
X11581645Y-13821020D01*
X11581645Y-13821020D02*
X11562597Y-13821020D01*
X11562597Y-13821020D02*
X11543550Y-13811496D01*
X11543550Y-13811496D02*
X11534026Y-13801972D01*
X11534026Y-13801972D02*
X11524502Y-13782924D01*
X11524502Y-13782924D02*
X11514978Y-13744829D01*
X11514978Y-13744829D02*
X11514978Y-13697210D01*
X11514978Y-13697210D02*
X11524502Y-13659115D01*
X11524502Y-13659115D02*
X11534026Y-13640067D01*
X11534026Y-13640067D02*
X11543550Y-13630544D01*
X11543550Y-13630544D02*
X11562597Y-13621020D01*
X11695931Y-13621020D02*
X11819740Y-13621020D01*
X11819740Y-13621020D02*
X11753074Y-13697210D01*
X11753074Y-13697210D02*
X11781645Y-13697210D01*
X11781645Y-13697210D02*
X11800693Y-13706734D01*
X11800693Y-13706734D02*
X11810216Y-13716258D01*
X11810216Y-13716258D02*
X11819740Y-13735305D01*
X11819740Y-13735305D02*
X11819740Y-13782924D01*
X11819740Y-13782924D02*
X11810216Y-13801972D01*
X11810216Y-13801972D02*
X11800693Y-13811496D01*
X11800693Y-13811496D02*
X11781645Y-13821020D01*
X11781645Y-13821020D02*
X11724502Y-13821020D01*
X11724502Y-13821020D02*
X11705455Y-13811496D01*
X11705455Y-13811496D02*
X11695931Y-13801972D01*
X12010216Y-13821020D02*
X11895931Y-13821020D01*
X11953074Y-13821020D02*
X11953074Y-13621020D01*
X11953074Y-13621020D02*
X11934026Y-13649591D01*
X11934026Y-13649591D02*
X11914978Y-13668639D01*
X11914978Y-13668639D02*
X11895931Y-13678163D01*
X12191169Y-13621020D02*
X12095931Y-13621020D01*
X12095931Y-13621020D02*
X12086407Y-13716258D01*
X12086407Y-13716258D02*
X12095931Y-13706734D01*
X12095931Y-13706734D02*
X12114978Y-13697210D01*
X12114978Y-13697210D02*
X12162597Y-13697210D01*
X12162597Y-13697210D02*
X12181645Y-13706734D01*
X12181645Y-13706734D02*
X12191169Y-13716258D01*
X12191169Y-13716258D02*
X12200693Y-13735305D01*
X12200693Y-13735305D02*
X12200693Y-13782924D01*
X12200693Y-13782924D02*
X12191169Y-13801972D01*
X12191169Y-13801972D02*
X12181645Y-13811496D01*
X12181645Y-13811496D02*
X12162597Y-13821020D01*
X12162597Y-13821020D02*
X12114978Y-13821020D01*
X12114978Y-13821020D02*
X12095931Y-13811496D01*
X12095931Y-13811496D02*
X12086407Y-13801972D01*
X12276883Y-13621020D02*
X12276883Y-13659115D01*
X12353074Y-13621020D02*
X12353074Y-13659115D01*
X12648312Y-13897210D02*
X12638788Y-13887686D01*
X12638788Y-13887686D02*
X12619740Y-13859115D01*
X12619740Y-13859115D02*
X12610217Y-13840067D01*
X12610217Y-13840067D02*
X12600693Y-13811496D01*
X12600693Y-13811496D02*
X12591169Y-13763877D01*
X12591169Y-13763877D02*
X12591169Y-13725782D01*
X12591169Y-13725782D02*
X12600693Y-13678163D01*
X12600693Y-13678163D02*
X12610217Y-13649591D01*
X12610217Y-13649591D02*
X12619740Y-13630544D01*
X12619740Y-13630544D02*
X12638788Y-13601972D01*
X12638788Y-13601972D02*
X12648312Y-13592448D01*
X12705455Y-13621020D02*
X12829264Y-13621020D01*
X12829264Y-13621020D02*
X12762597Y-13697210D01*
X12762597Y-13697210D02*
X12791169Y-13697210D01*
X12791169Y-13697210D02*
X12810217Y-13706734D01*
X12810217Y-13706734D02*
X12819740Y-13716258D01*
X12819740Y-13716258D02*
X12829264Y-13735305D01*
X12829264Y-13735305D02*
X12829264Y-13782924D01*
X12829264Y-13782924D02*
X12819740Y-13801972D01*
X12819740Y-13801972D02*
X12810217Y-13811496D01*
X12810217Y-13811496D02*
X12791169Y-13821020D01*
X12791169Y-13821020D02*
X12734026Y-13821020D01*
X12734026Y-13821020D02*
X12714978Y-13811496D01*
X12714978Y-13811496D02*
X12705455Y-13801972D01*
X13067359Y-13821020D02*
X13067359Y-13621020D01*
X13153074Y-13821020D02*
X13153074Y-13716258D01*
X13153074Y-13716258D02*
X13143550Y-13697210D01*
X13143550Y-13697210D02*
X13124502Y-13687686D01*
X13124502Y-13687686D02*
X13095931Y-13687686D01*
X13095931Y-13687686D02*
X13076883Y-13697210D01*
X13076883Y-13697210D02*
X13067359Y-13706734D01*
X13276883Y-13821020D02*
X13257836Y-13811496D01*
X13257836Y-13811496D02*
X13248312Y-13801972D01*
X13248312Y-13801972D02*
X13238788Y-13782924D01*
X13238788Y-13782924D02*
X13238788Y-13725782D01*
X13238788Y-13725782D02*
X13248312Y-13706734D01*
X13248312Y-13706734D02*
X13257836Y-13697210D01*
X13257836Y-13697210D02*
X13276883Y-13687686D01*
X13276883Y-13687686D02*
X13305455Y-13687686D01*
X13305455Y-13687686D02*
X13324502Y-13697210D01*
X13324502Y-13697210D02*
X13334026Y-13706734D01*
X13334026Y-13706734D02*
X13343550Y-13725782D01*
X13343550Y-13725782D02*
X13343550Y-13782924D01*
X13343550Y-13782924D02*
X13334026Y-13801972D01*
X13334026Y-13801972D02*
X13324502Y-13811496D01*
X13324502Y-13811496D02*
X13305455Y-13821020D01*
X13305455Y-13821020D02*
X13276883Y-13821020D01*
X13457836Y-13821020D02*
X13438788Y-13811496D01*
X13438788Y-13811496D02*
X13429264Y-13792448D01*
X13429264Y-13792448D02*
X13429264Y-13621020D01*
X13610217Y-13811496D02*
X13591169Y-13821020D01*
X13591169Y-13821020D02*
X13553074Y-13821020D01*
X13553074Y-13821020D02*
X13534026Y-13811496D01*
X13534026Y-13811496D02*
X13524502Y-13792448D01*
X13524502Y-13792448D02*
X13524502Y-13716258D01*
X13524502Y-13716258D02*
X13534026Y-13697210D01*
X13534026Y-13697210D02*
X13553074Y-13687686D01*
X13553074Y-13687686D02*
X13591169Y-13687686D01*
X13591169Y-13687686D02*
X13610217Y-13697210D01*
X13610217Y-13697210D02*
X13619740Y-13716258D01*
X13619740Y-13716258D02*
X13619740Y-13735305D01*
X13619740Y-13735305D02*
X13524502Y-13754353D01*
X13695931Y-13811496D02*
X13714979Y-13821020D01*
X13714979Y-13821020D02*
X13753074Y-13821020D01*
X13753074Y-13821020D02*
X13772121Y-13811496D01*
X13772121Y-13811496D02*
X13781645Y-13792448D01*
X13781645Y-13792448D02*
X13781645Y-13782924D01*
X13781645Y-13782924D02*
X13772121Y-13763877D01*
X13772121Y-13763877D02*
X13753074Y-13754353D01*
X13753074Y-13754353D02*
X13724502Y-13754353D01*
X13724502Y-13754353D02*
X13705455Y-13744829D01*
X13705455Y-13744829D02*
X13695931Y-13725782D01*
X13695931Y-13725782D02*
X13695931Y-13716258D01*
X13695931Y-13716258D02*
X13705455Y-13697210D01*
X13705455Y-13697210D02*
X13724502Y-13687686D01*
X13724502Y-13687686D02*
X13753074Y-13687686D01*
X13753074Y-13687686D02*
X13772121Y-13697210D01*
X13848312Y-13897210D02*
X13857836Y-13887686D01*
X13857836Y-13887686D02*
X13876883Y-13859115D01*
X13876883Y-13859115D02*
X13886407Y-13840067D01*
X13886407Y-13840067D02*
X13895931Y-13811496D01*
X13895931Y-13811496D02*
X13905455Y-13763877D01*
X13905455Y-13763877D02*
X13905455Y-13725782D01*
X13905455Y-13725782D02*
X13895931Y-13678163D01*
X13895931Y-13678163D02*
X13886407Y-13649591D01*
X13886407Y-13649591D02*
X13876883Y-13630544D01*
X13876883Y-13630544D02*
X13857836Y-13601972D01*
X13857836Y-13601972D02*
X13848312Y-13592448D01*
X14210217Y-13897210D02*
X14200693Y-13887686D01*
X14200693Y-13887686D02*
X14181645Y-13859115D01*
X14181645Y-13859115D02*
X14172121Y-13840067D01*
X14172121Y-13840067D02*
X14162598Y-13811496D01*
X14162598Y-13811496D02*
X14153074Y-13763877D01*
X14153074Y-13763877D02*
X14153074Y-13725782D01*
X14153074Y-13725782D02*
X14162598Y-13678163D01*
X14162598Y-13678163D02*
X14172121Y-13649591D01*
X14172121Y-13649591D02*
X14181645Y-13630544D01*
X14181645Y-13630544D02*
X14200693Y-13601972D01*
X14200693Y-13601972D02*
X14210217Y-13592448D01*
X14286407Y-13687686D02*
X14286407Y-13821020D01*
X14286407Y-13706734D02*
X14295931Y-13697210D01*
X14295931Y-13697210D02*
X14314979Y-13687686D01*
X14314979Y-13687686D02*
X14343550Y-13687686D01*
X14343550Y-13687686D02*
X14362598Y-13697210D01*
X14362598Y-13697210D02*
X14372121Y-13716258D01*
X14372121Y-13716258D02*
X14372121Y-13821020D01*
X14495931Y-13821020D02*
X14476883Y-13811496D01*
X14476883Y-13811496D02*
X14467360Y-13801972D01*
X14467360Y-13801972D02*
X14457836Y-13782924D01*
X14457836Y-13782924D02*
X14457836Y-13725782D01*
X14457836Y-13725782D02*
X14467360Y-13706734D01*
X14467360Y-13706734D02*
X14476883Y-13697210D01*
X14476883Y-13697210D02*
X14495931Y-13687686D01*
X14495931Y-13687686D02*
X14524502Y-13687686D01*
X14524502Y-13687686D02*
X14543550Y-13697210D01*
X14543550Y-13697210D02*
X14553074Y-13706734D01*
X14553074Y-13706734D02*
X14562598Y-13725782D01*
X14562598Y-13725782D02*
X14562598Y-13782924D01*
X14562598Y-13782924D02*
X14553074Y-13801972D01*
X14553074Y-13801972D02*
X14543550Y-13811496D01*
X14543550Y-13811496D02*
X14524502Y-13821020D01*
X14524502Y-13821020D02*
X14495931Y-13821020D01*
X14619741Y-13687686D02*
X14695931Y-13687686D01*
X14648312Y-13621020D02*
X14648312Y-13792448D01*
X14648312Y-13792448D02*
X14657836Y-13811496D01*
X14657836Y-13811496D02*
X14676883Y-13821020D01*
X14676883Y-13821020D02*
X14695931Y-13821020D01*
X14914979Y-13687686D02*
X14914979Y-13887686D01*
X14914979Y-13697210D02*
X14934026Y-13687686D01*
X14934026Y-13687686D02*
X14972122Y-13687686D01*
X14972122Y-13687686D02*
X14991169Y-13697210D01*
X14991169Y-13697210D02*
X15000693Y-13706734D01*
X15000693Y-13706734D02*
X15010217Y-13725782D01*
X15010217Y-13725782D02*
X15010217Y-13782924D01*
X15010217Y-13782924D02*
X15000693Y-13801972D01*
X15000693Y-13801972D02*
X14991169Y-13811496D01*
X14991169Y-13811496D02*
X14972122Y-13821020D01*
X14972122Y-13821020D02*
X14934026Y-13821020D01*
X14934026Y-13821020D02*
X14914979Y-13811496D01*
X15124502Y-13821020D02*
X15105455Y-13811496D01*
X15105455Y-13811496D02*
X15095931Y-13792448D01*
X15095931Y-13792448D02*
X15095931Y-13621020D01*
X15286407Y-13821020D02*
X15286407Y-13716258D01*
X15286407Y-13716258D02*
X15276883Y-13697210D01*
X15276883Y-13697210D02*
X15257836Y-13687686D01*
X15257836Y-13687686D02*
X15219741Y-13687686D01*
X15219741Y-13687686D02*
X15200693Y-13697210D01*
X15286407Y-13811496D02*
X15267360Y-13821020D01*
X15267360Y-13821020D02*
X15219741Y-13821020D01*
X15219741Y-13821020D02*
X15200693Y-13811496D01*
X15200693Y-13811496D02*
X15191169Y-13792448D01*
X15191169Y-13792448D02*
X15191169Y-13773401D01*
X15191169Y-13773401D02*
X15200693Y-13754353D01*
X15200693Y-13754353D02*
X15219741Y-13744829D01*
X15219741Y-13744829D02*
X15267360Y-13744829D01*
X15267360Y-13744829D02*
X15286407Y-13735305D01*
X15353074Y-13687686D02*
X15429264Y-13687686D01*
X15381645Y-13621020D02*
X15381645Y-13792448D01*
X15381645Y-13792448D02*
X15391169Y-13811496D01*
X15391169Y-13811496D02*
X15410217Y-13821020D01*
X15410217Y-13821020D02*
X15429264Y-13821020D01*
X15572122Y-13811496D02*
X15553074Y-13821020D01*
X15553074Y-13821020D02*
X15514979Y-13821020D01*
X15514979Y-13821020D02*
X15495931Y-13811496D01*
X15495931Y-13811496D02*
X15486407Y-13792448D01*
X15486407Y-13792448D02*
X15486407Y-13716258D01*
X15486407Y-13716258D02*
X15495931Y-13697210D01*
X15495931Y-13697210D02*
X15514979Y-13687686D01*
X15514979Y-13687686D02*
X15553074Y-13687686D01*
X15553074Y-13687686D02*
X15572122Y-13697210D01*
X15572122Y-13697210D02*
X15581645Y-13716258D01*
X15581645Y-13716258D02*
X15581645Y-13735305D01*
X15581645Y-13735305D02*
X15486407Y-13754353D01*
X15753074Y-13821020D02*
X15753074Y-13621020D01*
X15753074Y-13811496D02*
X15734026Y-13821020D01*
X15734026Y-13821020D02*
X15695931Y-13821020D01*
X15695931Y-13821020D02*
X15676883Y-13811496D01*
X15676883Y-13811496D02*
X15667360Y-13801972D01*
X15667360Y-13801972D02*
X15657836Y-13782924D01*
X15657836Y-13782924D02*
X15657836Y-13725782D01*
X15657836Y-13725782D02*
X15667360Y-13706734D01*
X15667360Y-13706734D02*
X15676883Y-13697210D01*
X15676883Y-13697210D02*
X15695931Y-13687686D01*
X15695931Y-13687686D02*
X15734026Y-13687686D01*
X15734026Y-13687686D02*
X15753074Y-13697210D01*
X15829264Y-13897210D02*
X15838788Y-13887686D01*
X15838788Y-13887686D02*
X15857836Y-13859115D01*
X15857836Y-13859115D02*
X15867360Y-13840067D01*
X15867360Y-13840067D02*
X15876883Y-13811496D01*
X15876883Y-13811496D02*
X15886407Y-13763877D01*
X15886407Y-13763877D02*
X15886407Y-13725782D01*
X15886407Y-13725782D02*
X15876883Y-13678163D01*
X15876883Y-13678163D02*
X15867360Y-13649591D01*
X15867360Y-13649591D02*
X15857836Y-13630544D01*
X15857836Y-13630544D02*
X15838788Y-13601972D01*
X15838788Y-13601972D02*
X15829264Y-13592448D01*
X9086407Y-13992496D02*
G75*
G03*
X9086407Y-13992496I-100000J0D01*
G01*
X9314978Y-13885020D02*
X9438788Y-13885020D01*
X9438788Y-13885020D02*
X9372121Y-13961210D01*
X9372121Y-13961210D02*
X9400693Y-13961210D01*
X9400693Y-13961210D02*
X9419740Y-13970734D01*
X9419740Y-13970734D02*
X9429264Y-13980258D01*
X9429264Y-13980258D02*
X9438788Y-13999305D01*
X9438788Y-13999305D02*
X9438788Y-14046924D01*
X9438788Y-14046924D02*
X9429264Y-14065972D01*
X9429264Y-14065972D02*
X9419740Y-14075496D01*
X9419740Y-14075496D02*
X9400693Y-14085020D01*
X9400693Y-14085020D02*
X9343550Y-14085020D01*
X9343550Y-14085020D02*
X9324502Y-14075496D01*
X9324502Y-14075496D02*
X9314978Y-14065972D01*
X9524502Y-14065972D02*
X9534026Y-14075496D01*
X9534026Y-14075496D02*
X9524502Y-14085020D01*
X9524502Y-14085020D02*
X9514978Y-14075496D01*
X9514978Y-14075496D02*
X9524502Y-14065972D01*
X9524502Y-14065972D02*
X9524502Y-14085020D01*
X9610216Y-13904067D02*
X9619740Y-13894544D01*
X9619740Y-13894544D02*
X9638788Y-13885020D01*
X9638788Y-13885020D02*
X9686407Y-13885020D01*
X9686407Y-13885020D02*
X9705454Y-13894544D01*
X9705454Y-13894544D02*
X9714978Y-13904067D01*
X9714978Y-13904067D02*
X9724502Y-13923115D01*
X9724502Y-13923115D02*
X9724502Y-13942163D01*
X9724502Y-13942163D02*
X9714978Y-13970734D01*
X9714978Y-13970734D02*
X9600693Y-14085020D01*
X9600693Y-14085020D02*
X9724502Y-14085020D01*
X9848312Y-13885020D02*
X9867359Y-13885020D01*
X9867359Y-13885020D02*
X9886407Y-13894544D01*
X9886407Y-13894544D02*
X9895931Y-13904067D01*
X9895931Y-13904067D02*
X9905454Y-13923115D01*
X9905454Y-13923115D02*
X9914978Y-13961210D01*
X9914978Y-13961210D02*
X9914978Y-14008829D01*
X9914978Y-14008829D02*
X9905454Y-14046924D01*
X9905454Y-14046924D02*
X9895931Y-14065972D01*
X9895931Y-14065972D02*
X9886407Y-14075496D01*
X9886407Y-14075496D02*
X9867359Y-14085020D01*
X9867359Y-14085020D02*
X9848312Y-14085020D01*
X9848312Y-14085020D02*
X9829264Y-14075496D01*
X9829264Y-14075496D02*
X9819740Y-14065972D01*
X9819740Y-14065972D02*
X9810216Y-14046924D01*
X9810216Y-14046924D02*
X9800693Y-14008829D01*
X9800693Y-14008829D02*
X9800693Y-13961210D01*
X9800693Y-13961210D02*
X9810216Y-13923115D01*
X9810216Y-13923115D02*
X9819740Y-13904067D01*
X9819740Y-13904067D02*
X9829264Y-13894544D01*
X9829264Y-13894544D02*
X9848312Y-13885020D01*
X10038788Y-13885020D02*
X10057835Y-13885020D01*
X10057835Y-13885020D02*
X10076883Y-13894544D01*
X10076883Y-13894544D02*
X10086407Y-13904067D01*
X10086407Y-13904067D02*
X10095931Y-13923115D01*
X10095931Y-13923115D02*
X10105454Y-13961210D01*
X10105454Y-13961210D02*
X10105454Y-14008829D01*
X10105454Y-14008829D02*
X10095931Y-14046924D01*
X10095931Y-14046924D02*
X10086407Y-14065972D01*
X10086407Y-14065972D02*
X10076883Y-14075496D01*
X10076883Y-14075496D02*
X10057835Y-14085020D01*
X10057835Y-14085020D02*
X10038788Y-14085020D01*
X10038788Y-14085020D02*
X10019740Y-14075496D01*
X10019740Y-14075496D02*
X10010216Y-14065972D01*
X10010216Y-14065972D02*
X10000693Y-14046924D01*
X10000693Y-14046924D02*
X9991169Y-14008829D01*
X9991169Y-14008829D02*
X9991169Y-13961210D01*
X9991169Y-13961210D02*
X10000693Y-13923115D01*
X10000693Y-13923115D02*
X10010216Y-13904067D01*
X10010216Y-13904067D02*
X10019740Y-13894544D01*
X10019740Y-13894544D02*
X10038788Y-13885020D01*
X10191169Y-14085020D02*
X10191169Y-13951686D01*
X10191169Y-13970734D02*
X10200693Y-13961210D01*
X10200693Y-13961210D02*
X10219740Y-13951686D01*
X10219740Y-13951686D02*
X10248312Y-13951686D01*
X10248312Y-13951686D02*
X10267359Y-13961210D01*
X10267359Y-13961210D02*
X10276883Y-13980258D01*
X10276883Y-13980258D02*
X10276883Y-14085020D01*
X10276883Y-13980258D02*
X10286407Y-13961210D01*
X10286407Y-13961210D02*
X10305454Y-13951686D01*
X10305454Y-13951686D02*
X10334026Y-13951686D01*
X10334026Y-13951686D02*
X10353074Y-13961210D01*
X10353074Y-13961210D02*
X10362597Y-13980258D01*
X10362597Y-13980258D02*
X10362597Y-14085020D01*
X10457835Y-14085020D02*
X10457835Y-13951686D01*
X10457835Y-13970734D02*
X10467359Y-13961210D01*
X10467359Y-13961210D02*
X10486407Y-13951686D01*
X10486407Y-13951686D02*
X10514978Y-13951686D01*
X10514978Y-13951686D02*
X10534026Y-13961210D01*
X10534026Y-13961210D02*
X10543550Y-13980258D01*
X10543550Y-13980258D02*
X10543550Y-14085020D01*
X10543550Y-13980258D02*
X10553074Y-13961210D01*
X10553074Y-13961210D02*
X10572121Y-13951686D01*
X10572121Y-13951686D02*
X10600693Y-13951686D01*
X10600693Y-13951686D02*
X10619740Y-13961210D01*
X10619740Y-13961210D02*
X10629264Y-13980258D01*
X10629264Y-13980258D02*
X10629264Y-14085020D01*
X11019740Y-13875496D02*
X10848312Y-14132639D01*
X11276883Y-13885020D02*
X11295931Y-13885020D01*
X11295931Y-13885020D02*
X11314978Y-13894544D01*
X11314978Y-13894544D02*
X11324502Y-13904067D01*
X11324502Y-13904067D02*
X11334026Y-13923115D01*
X11334026Y-13923115D02*
X11343550Y-13961210D01*
X11343550Y-13961210D02*
X11343550Y-14008829D01*
X11343550Y-14008829D02*
X11334026Y-14046924D01*
X11334026Y-14046924D02*
X11324502Y-14065972D01*
X11324502Y-14065972D02*
X11314978Y-14075496D01*
X11314978Y-14075496D02*
X11295931Y-14085020D01*
X11295931Y-14085020D02*
X11276883Y-14085020D01*
X11276883Y-14085020D02*
X11257835Y-14075496D01*
X11257835Y-14075496D02*
X11248312Y-14065972D01*
X11248312Y-14065972D02*
X11238788Y-14046924D01*
X11238788Y-14046924D02*
X11229264Y-14008829D01*
X11229264Y-14008829D02*
X11229264Y-13961210D01*
X11229264Y-13961210D02*
X11238788Y-13923115D01*
X11238788Y-13923115D02*
X11248312Y-13904067D01*
X11248312Y-13904067D02*
X11257835Y-13894544D01*
X11257835Y-13894544D02*
X11276883Y-13885020D01*
X11429264Y-14065972D02*
X11438788Y-14075496D01*
X11438788Y-14075496D02*
X11429264Y-14085020D01*
X11429264Y-14085020D02*
X11419740Y-14075496D01*
X11419740Y-14075496D02*
X11429264Y-14065972D01*
X11429264Y-14065972D02*
X11429264Y-14085020D01*
X11629264Y-14085020D02*
X11514978Y-14085020D01*
X11572121Y-14085020D02*
X11572121Y-13885020D01*
X11572121Y-13885020D02*
X11553074Y-13913591D01*
X11553074Y-13913591D02*
X11534026Y-13932639D01*
X11534026Y-13932639D02*
X11514978Y-13942163D01*
X11705455Y-13904067D02*
X11714978Y-13894544D01*
X11714978Y-13894544D02*
X11734026Y-13885020D01*
X11734026Y-13885020D02*
X11781645Y-13885020D01*
X11781645Y-13885020D02*
X11800693Y-13894544D01*
X11800693Y-13894544D02*
X11810216Y-13904067D01*
X11810216Y-13904067D02*
X11819740Y-13923115D01*
X11819740Y-13923115D02*
X11819740Y-13942163D01*
X11819740Y-13942163D02*
X11810216Y-13970734D01*
X11810216Y-13970734D02*
X11695931Y-14085020D01*
X11695931Y-14085020D02*
X11819740Y-14085020D01*
X11991169Y-13885020D02*
X11953074Y-13885020D01*
X11953074Y-13885020D02*
X11934026Y-13894544D01*
X11934026Y-13894544D02*
X11924502Y-13904067D01*
X11924502Y-13904067D02*
X11905455Y-13932639D01*
X11905455Y-13932639D02*
X11895931Y-13970734D01*
X11895931Y-13970734D02*
X11895931Y-14046924D01*
X11895931Y-14046924D02*
X11905455Y-14065972D01*
X11905455Y-14065972D02*
X11914978Y-14075496D01*
X11914978Y-14075496D02*
X11934026Y-14085020D01*
X11934026Y-14085020D02*
X11972121Y-14085020D01*
X11972121Y-14085020D02*
X11991169Y-14075496D01*
X11991169Y-14075496D02*
X12000693Y-14065972D01*
X12000693Y-14065972D02*
X12010216Y-14046924D01*
X12010216Y-14046924D02*
X12010216Y-13999305D01*
X12010216Y-13999305D02*
X12000693Y-13980258D01*
X12000693Y-13980258D02*
X11991169Y-13970734D01*
X11991169Y-13970734D02*
X11972121Y-13961210D01*
X11972121Y-13961210D02*
X11934026Y-13961210D01*
X11934026Y-13961210D02*
X11914978Y-13970734D01*
X11914978Y-13970734D02*
X11905455Y-13980258D01*
X11905455Y-13980258D02*
X11895931Y-13999305D01*
X12134026Y-13885020D02*
X12153074Y-13885020D01*
X12153074Y-13885020D02*
X12172121Y-13894544D01*
X12172121Y-13894544D02*
X12181645Y-13904067D01*
X12181645Y-13904067D02*
X12191169Y-13923115D01*
X12191169Y-13923115D02*
X12200693Y-13961210D01*
X12200693Y-13961210D02*
X12200693Y-14008829D01*
X12200693Y-14008829D02*
X12191169Y-14046924D01*
X12191169Y-14046924D02*
X12181645Y-14065972D01*
X12181645Y-14065972D02*
X12172121Y-14075496D01*
X12172121Y-14075496D02*
X12153074Y-14085020D01*
X12153074Y-14085020D02*
X12134026Y-14085020D01*
X12134026Y-14085020D02*
X12114978Y-14075496D01*
X12114978Y-14075496D02*
X12105455Y-14065972D01*
X12105455Y-14065972D02*
X12095931Y-14046924D01*
X12095931Y-14046924D02*
X12086407Y-14008829D01*
X12086407Y-14008829D02*
X12086407Y-13961210D01*
X12086407Y-13961210D02*
X12095931Y-13923115D01*
X12095931Y-13923115D02*
X12105455Y-13904067D01*
X12105455Y-13904067D02*
X12114978Y-13894544D01*
X12114978Y-13894544D02*
X12134026Y-13885020D01*
X12276883Y-13885020D02*
X12276883Y-13923115D01*
X12353074Y-13885020D02*
X12353074Y-13923115D01*
X12648312Y-14161210D02*
X12638788Y-14151686D01*
X12638788Y-14151686D02*
X12619740Y-14123115D01*
X12619740Y-14123115D02*
X12610217Y-14104067D01*
X12610217Y-14104067D02*
X12600693Y-14075496D01*
X12600693Y-14075496D02*
X12591169Y-14027877D01*
X12591169Y-14027877D02*
X12591169Y-13989782D01*
X12591169Y-13989782D02*
X12600693Y-13942163D01*
X12600693Y-13942163D02*
X12610217Y-13913591D01*
X12610217Y-13913591D02*
X12619740Y-13894544D01*
X12619740Y-13894544D02*
X12638788Y-13865972D01*
X12638788Y-13865972D02*
X12648312Y-13856448D01*
X12810217Y-13951686D02*
X12810217Y-14085020D01*
X12762597Y-13875496D02*
X12714978Y-14018353D01*
X12714978Y-14018353D02*
X12838788Y-14018353D01*
X13067359Y-14085020D02*
X13067359Y-13885020D01*
X13153074Y-14085020D02*
X13153074Y-13980258D01*
X13153074Y-13980258D02*
X13143550Y-13961210D01*
X13143550Y-13961210D02*
X13124502Y-13951686D01*
X13124502Y-13951686D02*
X13095931Y-13951686D01*
X13095931Y-13951686D02*
X13076883Y-13961210D01*
X13076883Y-13961210D02*
X13067359Y-13970734D01*
X13276883Y-14085020D02*
X13257836Y-14075496D01*
X13257836Y-14075496D02*
X13248312Y-14065972D01*
X13248312Y-14065972D02*
X13238788Y-14046924D01*
X13238788Y-14046924D02*
X13238788Y-13989782D01*
X13238788Y-13989782D02*
X13248312Y-13970734D01*
X13248312Y-13970734D02*
X13257836Y-13961210D01*
X13257836Y-13961210D02*
X13276883Y-13951686D01*
X13276883Y-13951686D02*
X13305455Y-13951686D01*
X13305455Y-13951686D02*
X13324502Y-13961210D01*
X13324502Y-13961210D02*
X13334026Y-13970734D01*
X13334026Y-13970734D02*
X13343550Y-13989782D01*
X13343550Y-13989782D02*
X13343550Y-14046924D01*
X13343550Y-14046924D02*
X13334026Y-14065972D01*
X13334026Y-14065972D02*
X13324502Y-14075496D01*
X13324502Y-14075496D02*
X13305455Y-14085020D01*
X13305455Y-14085020D02*
X13276883Y-14085020D01*
X13457836Y-14085020D02*
X13438788Y-14075496D01*
X13438788Y-14075496D02*
X13429264Y-14056448D01*
X13429264Y-14056448D02*
X13429264Y-13885020D01*
X13610217Y-14075496D02*
X13591169Y-14085020D01*
X13591169Y-14085020D02*
X13553074Y-14085020D01*
X13553074Y-14085020D02*
X13534026Y-14075496D01*
X13534026Y-14075496D02*
X13524502Y-14056448D01*
X13524502Y-14056448D02*
X13524502Y-13980258D01*
X13524502Y-13980258D02*
X13534026Y-13961210D01*
X13534026Y-13961210D02*
X13553074Y-13951686D01*
X13553074Y-13951686D02*
X13591169Y-13951686D01*
X13591169Y-13951686D02*
X13610217Y-13961210D01*
X13610217Y-13961210D02*
X13619740Y-13980258D01*
X13619740Y-13980258D02*
X13619740Y-13999305D01*
X13619740Y-13999305D02*
X13524502Y-14018353D01*
X13695931Y-14075496D02*
X13714979Y-14085020D01*
X13714979Y-14085020D02*
X13753074Y-14085020D01*
X13753074Y-14085020D02*
X13772121Y-14075496D01*
X13772121Y-14075496D02*
X13781645Y-14056448D01*
X13781645Y-14056448D02*
X13781645Y-14046924D01*
X13781645Y-14046924D02*
X13772121Y-14027877D01*
X13772121Y-14027877D02*
X13753074Y-14018353D01*
X13753074Y-14018353D02*
X13724502Y-14018353D01*
X13724502Y-14018353D02*
X13705455Y-14008829D01*
X13705455Y-14008829D02*
X13695931Y-13989782D01*
X13695931Y-13989782D02*
X13695931Y-13980258D01*
X13695931Y-13980258D02*
X13705455Y-13961210D01*
X13705455Y-13961210D02*
X13724502Y-13951686D01*
X13724502Y-13951686D02*
X13753074Y-13951686D01*
X13753074Y-13951686D02*
X13772121Y-13961210D01*
X13848312Y-14161210D02*
X13857836Y-14151686D01*
X13857836Y-14151686D02*
X13876883Y-14123115D01*
X13876883Y-14123115D02*
X13886407Y-14104067D01*
X13886407Y-14104067D02*
X13895931Y-14075496D01*
X13895931Y-14075496D02*
X13905455Y-14027877D01*
X13905455Y-14027877D02*
X13905455Y-13989782D01*
X13905455Y-13989782D02*
X13895931Y-13942163D01*
X13895931Y-13942163D02*
X13886407Y-13913591D01*
X13886407Y-13913591D02*
X13876883Y-13894544D01*
X13876883Y-13894544D02*
X13857836Y-13865972D01*
X13857836Y-13865972D02*
X13848312Y-13856448D01*
X14210217Y-14161210D02*
X14200693Y-14151686D01*
X14200693Y-14151686D02*
X14181645Y-14123115D01*
X14181645Y-14123115D02*
X14172121Y-14104067D01*
X14172121Y-14104067D02*
X14162598Y-14075496D01*
X14162598Y-14075496D02*
X14153074Y-14027877D01*
X14153074Y-14027877D02*
X14153074Y-13989782D01*
X14153074Y-13989782D02*
X14162598Y-13942163D01*
X14162598Y-13942163D02*
X14172121Y-13913591D01*
X14172121Y-13913591D02*
X14181645Y-13894544D01*
X14181645Y-13894544D02*
X14200693Y-13865972D01*
X14200693Y-13865972D02*
X14210217Y-13856448D01*
X14286407Y-13951686D02*
X14286407Y-14085020D01*
X14286407Y-13970734D02*
X14295931Y-13961210D01*
X14295931Y-13961210D02*
X14314979Y-13951686D01*
X14314979Y-13951686D02*
X14343550Y-13951686D01*
X14343550Y-13951686D02*
X14362598Y-13961210D01*
X14362598Y-13961210D02*
X14372121Y-13980258D01*
X14372121Y-13980258D02*
X14372121Y-14085020D01*
X14495931Y-14085020D02*
X14476883Y-14075496D01*
X14476883Y-14075496D02*
X14467360Y-14065972D01*
X14467360Y-14065972D02*
X14457836Y-14046924D01*
X14457836Y-14046924D02*
X14457836Y-13989782D01*
X14457836Y-13989782D02*
X14467360Y-13970734D01*
X14467360Y-13970734D02*
X14476883Y-13961210D01*
X14476883Y-13961210D02*
X14495931Y-13951686D01*
X14495931Y-13951686D02*
X14524502Y-13951686D01*
X14524502Y-13951686D02*
X14543550Y-13961210D01*
X14543550Y-13961210D02*
X14553074Y-13970734D01*
X14553074Y-13970734D02*
X14562598Y-13989782D01*
X14562598Y-13989782D02*
X14562598Y-14046924D01*
X14562598Y-14046924D02*
X14553074Y-14065972D01*
X14553074Y-14065972D02*
X14543550Y-14075496D01*
X14543550Y-14075496D02*
X14524502Y-14085020D01*
X14524502Y-14085020D02*
X14495931Y-14085020D01*
X14619741Y-13951686D02*
X14695931Y-13951686D01*
X14648312Y-13885020D02*
X14648312Y-14056448D01*
X14648312Y-14056448D02*
X14657836Y-14075496D01*
X14657836Y-14075496D02*
X14676883Y-14085020D01*
X14676883Y-14085020D02*
X14695931Y-14085020D01*
X14914979Y-13951686D02*
X14914979Y-14151686D01*
X14914979Y-13961210D02*
X14934026Y-13951686D01*
X14934026Y-13951686D02*
X14972122Y-13951686D01*
X14972122Y-13951686D02*
X14991169Y-13961210D01*
X14991169Y-13961210D02*
X15000693Y-13970734D01*
X15000693Y-13970734D02*
X15010217Y-13989782D01*
X15010217Y-13989782D02*
X15010217Y-14046924D01*
X15010217Y-14046924D02*
X15000693Y-14065972D01*
X15000693Y-14065972D02*
X14991169Y-14075496D01*
X14991169Y-14075496D02*
X14972122Y-14085020D01*
X14972122Y-14085020D02*
X14934026Y-14085020D01*
X14934026Y-14085020D02*
X14914979Y-14075496D01*
X15124502Y-14085020D02*
X15105455Y-14075496D01*
X15105455Y-14075496D02*
X15095931Y-14056448D01*
X15095931Y-14056448D02*
X15095931Y-13885020D01*
X15286407Y-14085020D02*
X15286407Y-13980258D01*
X15286407Y-13980258D02*
X15276883Y-13961210D01*
X15276883Y-13961210D02*
X15257836Y-13951686D01*
X15257836Y-13951686D02*
X15219741Y-13951686D01*
X15219741Y-13951686D02*
X15200693Y-13961210D01*
X15286407Y-14075496D02*
X15267360Y-14085020D01*
X15267360Y-14085020D02*
X15219741Y-14085020D01*
X15219741Y-14085020D02*
X15200693Y-14075496D01*
X15200693Y-14075496D02*
X15191169Y-14056448D01*
X15191169Y-14056448D02*
X15191169Y-14037401D01*
X15191169Y-14037401D02*
X15200693Y-14018353D01*
X15200693Y-14018353D02*
X15219741Y-14008829D01*
X15219741Y-14008829D02*
X15267360Y-14008829D01*
X15267360Y-14008829D02*
X15286407Y-13999305D01*
X15353074Y-13951686D02*
X15429264Y-13951686D01*
X15381645Y-13885020D02*
X15381645Y-14056448D01*
X15381645Y-14056448D02*
X15391169Y-14075496D01*
X15391169Y-14075496D02*
X15410217Y-14085020D01*
X15410217Y-14085020D02*
X15429264Y-14085020D01*
X15572122Y-14075496D02*
X15553074Y-14085020D01*
X15553074Y-14085020D02*
X15514979Y-14085020D01*
X15514979Y-14085020D02*
X15495931Y-14075496D01*
X15495931Y-14075496D02*
X15486407Y-14056448D01*
X15486407Y-14056448D02*
X15486407Y-13980258D01*
X15486407Y-13980258D02*
X15495931Y-13961210D01*
X15495931Y-13961210D02*
X15514979Y-13951686D01*
X15514979Y-13951686D02*
X15553074Y-13951686D01*
X15553074Y-13951686D02*
X15572122Y-13961210D01*
X15572122Y-13961210D02*
X15581645Y-13980258D01*
X15581645Y-13980258D02*
X15581645Y-13999305D01*
X15581645Y-13999305D02*
X15486407Y-14018353D01*
X15753074Y-14085020D02*
X15753074Y-13885020D01*
X15753074Y-14075496D02*
X15734026Y-14085020D01*
X15734026Y-14085020D02*
X15695931Y-14085020D01*
X15695931Y-14085020D02*
X15676883Y-14075496D01*
X15676883Y-14075496D02*
X15667360Y-14065972D01*
X15667360Y-14065972D02*
X15657836Y-14046924D01*
X15657836Y-14046924D02*
X15657836Y-13989782D01*
X15657836Y-13989782D02*
X15667360Y-13970734D01*
X15667360Y-13970734D02*
X15676883Y-13961210D01*
X15676883Y-13961210D02*
X15695931Y-13951686D01*
X15695931Y-13951686D02*
X15734026Y-13951686D01*
X15734026Y-13951686D02*
X15753074Y-13961210D01*
X15829264Y-14161210D02*
X15838788Y-14151686D01*
X15838788Y-14151686D02*
X15857836Y-14123115D01*
X15857836Y-14123115D02*
X15867360Y-14104067D01*
X15867360Y-14104067D02*
X15876883Y-14075496D01*
X15876883Y-14075496D02*
X15886407Y-14027877D01*
X15886407Y-14027877D02*
X15886407Y-13989782D01*
X15886407Y-13989782D02*
X15876883Y-13942163D01*
X15876883Y-13942163D02*
X15867360Y-13913591D01*
X15867360Y-13913591D02*
X15857836Y-13894544D01*
X15857836Y-13894544D02*
X15838788Y-13865972D01*
X15838788Y-13865972D02*
X15829264Y-13856448D01*
M02*
